<?xml version="1.0" encoding="utf-8" standalone="no"?>
<!DOCTYPE svg PUBLIC "-//W3C//DTD SVG 1.1//EN"
  "http://www.w3.org/Graphics/SVG/1.1/DTD/svg11.dtd">
<svg xmlns:xlink="http://www.w3.org/1999/xlink" width="986.4pt" height="561.6pt" viewBox="0 0 986.4 561.6" xmlns="http://www.w3.org/2000/svg" version="1.1">
 <metadata>
  <rdf:RDF xmlns:dc="http://purl.org/dc/elements/1.1/" xmlns:cc="http://creativecommons.org/ns#" xmlns:rdf="http://www.w3.org/1999/02/22-rdf-syntax-ns#">
   <cc:Work>
    <dc:type rdf:resource="http://purl.org/dc/dcmitype/StillImage"/>
    <dc:date>2026-03-25T03:38:04.732615</dc:date>
    <dc:format>image/svg+xml</dc:format>
    <dc:creator>
     <cc:Agent>
      <dc:title>Matplotlib v3.10.3, https://matplotlib.org/</dc:title>
     </cc:Agent>
    </dc:creator>
   </cc:Work>
  </rdf:RDF>
 </metadata>
 <defs>
  <style type="text/css">*{stroke-linejoin: round; stroke-linecap: butt}</style>
 </defs>
 <g id="figure_1">
  <g id="patch_1">
   <path d="M 0 561.6 
L 986.4 561.6 
L 986.4 0 
L 0 0 
z
" style="fill: #f8fafc"/>
  </g>
  <g id="axes_1">
   <g id="patch_2">
    <path d="M 44.136 533.6064 
L 942.264 533.6064 
Q 961.704 533.6064 961.704 522.6624 
L 961.704 38.9376 
Q 961.704 27.9936 942.264 27.9936 
L 44.136 27.9936 
Q 24.696 27.9936 24.696 38.9376 
L 24.696 522.6624 
Q 24.696 533.6064 44.136 533.6064 
z
" clip-path="url(#p26520111c5)" style="fill: #ffffff; stroke: #cbd5e1; stroke-width: 1.6; stroke-linejoin: miter"/>
   </g>
   <g id="text_1">
    <!-- Discrepancy Weighting (smooth_delta mode) -->
    <g style="fill: #0f172a" transform="translate(65.52 66.172875) scale(0.2 -0.2)">
     <defs>
      <path id="DejaVuSans-Bold-44" d="M 1791 3756 
L 1791 909 
L 2222 909 
Q 2959 909 3348 1275 
Q 3738 1641 3738 2338 
Q 3738 3031 3350 3393 
Q 2963 3756 2222 3756 
L 1791 3756 
z
M 588 4666 
L 1856 4666 
Q 2919 4666 3439 4514 
Q 3959 4363 4331 4000 
Q 4659 3684 4818 3271 
Q 4978 2859 4978 2338 
Q 4978 1809 4818 1395 
Q 4659 981 4331 666 
Q 3956 303 3431 151 
Q 2906 0 1856 0 
L 588 0 
L 588 4666 
z
" transform="scale(0.015625)"/>
      <path id="DejaVuSans-Bold-69" d="M 538 3500 
L 1656 3500 
L 1656 0 
L 538 0 
L 538 3500 
z
M 538 4863 
L 1656 4863 
L 1656 3950 
L 538 3950 
L 538 4863 
z
" transform="scale(0.015625)"/>
      <path id="DejaVuSans-Bold-73" d="M 3272 3391 
L 3272 2541 
Q 2913 2691 2578 2766 
Q 2244 2841 1947 2841 
Q 1628 2841 1473 2761 
Q 1319 2681 1319 2516 
Q 1319 2381 1436 2309 
Q 1553 2238 1856 2203 
L 2053 2175 
Q 2913 2066 3209 1816 
Q 3506 1566 3506 1031 
Q 3506 472 3093 190 
Q 2681 -91 1863 -91 
Q 1516 -91 1145 -36 
Q 775 19 384 128 
L 384 978 
Q 719 816 1070 734 
Q 1422 653 1784 653 
Q 2113 653 2278 743 
Q 2444 834 2444 1013 
Q 2444 1163 2330 1236 
Q 2216 1309 1875 1350 
L 1678 1375 
Q 931 1469 631 1722 
Q 331 1975 331 2491 
Q 331 3047 712 3315 
Q 1094 3584 1881 3584 
Q 2191 3584 2531 3537 
Q 2872 3491 3272 3391 
z
" transform="scale(0.015625)"/>
      <path id="DejaVuSans-Bold-63" d="M 3366 3391 
L 3366 2478 
Q 3138 2634 2908 2709 
Q 2678 2784 2431 2784 
Q 1963 2784 1702 2511 
Q 1441 2238 1441 1747 
Q 1441 1256 1702 982 
Q 1963 709 2431 709 
Q 2694 709 2930 787 
Q 3166 866 3366 1019 
L 3366 103 
Q 3103 6 2833 -42 
Q 2563 -91 2291 -91 
Q 1344 -91 809 395 
Q 275 881 275 1747 
Q 275 2613 809 3098 
Q 1344 3584 2291 3584 
Q 2566 3584 2833 3536 
Q 3100 3488 3366 3391 
z
" transform="scale(0.015625)"/>
      <path id="DejaVuSans-Bold-72" d="M 3138 2547 
Q 2991 2616 2845 2648 
Q 2700 2681 2553 2681 
Q 2122 2681 1889 2404 
Q 1656 2128 1656 1613 
L 1656 0 
L 538 0 
L 538 3500 
L 1656 3500 
L 1656 2925 
Q 1872 3269 2151 3426 
Q 2431 3584 2822 3584 
Q 2878 3584 2943 3579 
Q 3009 3575 3134 3559 
L 3138 2547 
z
" transform="scale(0.015625)"/>
      <path id="DejaVuSans-Bold-65" d="M 4031 1759 
L 4031 1441 
L 1416 1441 
Q 1456 1047 1700 850 
Q 1944 653 2381 653 
Q 2734 653 3104 758 
Q 3475 863 3866 1075 
L 3866 213 
Q 3469 63 3072 -14 
Q 2675 -91 2278 -91 
Q 1328 -91 801 392 
Q 275 875 275 1747 
Q 275 2603 792 3093 
Q 1309 3584 2216 3584 
Q 3041 3584 3536 3087 
Q 4031 2591 4031 1759 
z
M 2881 2131 
Q 2881 2450 2695 2645 
Q 2509 2841 2209 2841 
Q 1884 2841 1681 2658 
Q 1478 2475 1428 2131 
L 2881 2131 
z
" transform="scale(0.015625)"/>
      <path id="DejaVuSans-Bold-70" d="M 1656 506 
L 1656 -1331 
L 538 -1331 
L 538 3500 
L 1656 3500 
L 1656 2988 
Q 1888 3294 2169 3439 
Q 2450 3584 2816 3584 
Q 3463 3584 3878 3070 
Q 4294 2556 4294 1747 
Q 4294 938 3878 423 
Q 3463 -91 2816 -91 
Q 2450 -91 2169 54 
Q 1888 200 1656 506 
z
M 2400 2772 
Q 2041 2772 1848 2508 
Q 1656 2244 1656 1747 
Q 1656 1250 1848 986 
Q 2041 722 2400 722 
Q 2759 722 2948 984 
Q 3138 1247 3138 1747 
Q 3138 2247 2948 2509 
Q 2759 2772 2400 2772 
z
" transform="scale(0.015625)"/>
      <path id="DejaVuSans-Bold-61" d="M 2106 1575 
Q 1756 1575 1579 1456 
Q 1403 1338 1403 1106 
Q 1403 894 1545 773 
Q 1688 653 1941 653 
Q 2256 653 2472 879 
Q 2688 1106 2688 1447 
L 2688 1575 
L 2106 1575 
z
M 3816 1997 
L 3816 0 
L 2688 0 
L 2688 519 
Q 2463 200 2181 54 
Q 1900 -91 1497 -91 
Q 953 -91 614 226 
Q 275 544 275 1050 
Q 275 1666 698 1953 
Q 1122 2241 2028 2241 
L 2688 2241 
L 2688 2328 
Q 2688 2594 2478 2717 
Q 2269 2841 1825 2841 
Q 1466 2841 1156 2769 
Q 847 2697 581 2553 
L 581 3406 
Q 941 3494 1303 3539 
Q 1666 3584 2028 3584 
Q 2975 3584 3395 3211 
Q 3816 2838 3816 1997 
z
" transform="scale(0.015625)"/>
      <path id="DejaVuSans-Bold-6e" d="M 4056 2131 
L 4056 0 
L 2931 0 
L 2931 347 
L 2931 1631 
Q 2931 2084 2911 2256 
Q 2891 2428 2841 2509 
Q 2775 2619 2662 2680 
Q 2550 2741 2406 2741 
Q 2056 2741 1856 2470 
Q 1656 2200 1656 1722 
L 1656 0 
L 538 0 
L 538 3500 
L 1656 3500 
L 1656 2988 
Q 1909 3294 2193 3439 
Q 2478 3584 2822 3584 
Q 3428 3584 3742 3212 
Q 4056 2841 4056 2131 
z
" transform="scale(0.015625)"/>
      <path id="DejaVuSans-Bold-79" d="M 78 3500 
L 1197 3500 
L 2138 1125 
L 2938 3500 
L 4056 3500 
L 2584 -331 
Q 2363 -916 2067 -1148 
Q 1772 -1381 1288 -1381 
L 641 -1381 
L 641 -647 
L 991 -647 
Q 1275 -647 1404 -556 
Q 1534 -466 1606 -231 
L 1638 -134 
L 78 3500 
z
" transform="scale(0.015625)"/>
      <path id="DejaVuSans-Bold-20" transform="scale(0.015625)"/>
      <path id="DejaVuSans-Bold-57" d="M 191 4666 
L 1344 4666 
L 2150 1275 
L 2950 4666 
L 4109 4666 
L 4909 1275 
L 5716 4666 
L 6859 4666 
L 5759 0 
L 4372 0 
L 3525 3547 
L 2688 0 
L 1300 0 
L 191 4666 
z
" transform="scale(0.015625)"/>
      <path id="DejaVuSans-Bold-67" d="M 2919 594 
Q 2688 288 2409 144 
Q 2131 0 1766 0 
Q 1125 0 706 504 
Q 288 1009 288 1791 
Q 288 2575 706 3076 
Q 1125 3578 1766 3578 
Q 2131 3578 2409 3434 
Q 2688 3291 2919 2981 
L 2919 3500 
L 4044 3500 
L 4044 353 
Q 4044 -491 3511 -936 
Q 2978 -1381 1966 -1381 
Q 1638 -1381 1331 -1331 
Q 1025 -1281 716 -1178 
L 716 -306 
Q 1009 -475 1290 -558 
Q 1572 -641 1856 -641 
Q 2406 -641 2662 -400 
Q 2919 -159 2919 353 
L 2919 594 
z
M 2181 2772 
Q 1834 2772 1640 2515 
Q 1447 2259 1447 1791 
Q 1447 1309 1634 1061 
Q 1822 813 2181 813 
Q 2531 813 2725 1069 
Q 2919 1325 2919 1791 
Q 2919 2259 2725 2515 
Q 2531 2772 2181 2772 
z
" transform="scale(0.015625)"/>
      <path id="DejaVuSans-Bold-68" d="M 4056 2131 
L 4056 0 
L 2931 0 
L 2931 347 
L 2931 1625 
Q 2931 2084 2911 2256 
Q 2891 2428 2841 2509 
Q 2775 2619 2662 2680 
Q 2550 2741 2406 2741 
Q 2056 2741 1856 2470 
Q 1656 2200 1656 1722 
L 1656 0 
L 538 0 
L 538 4863 
L 1656 4863 
L 1656 2988 
Q 1909 3294 2193 3439 
Q 2478 3584 2822 3584 
Q 3428 3584 3742 3212 
Q 4056 2841 4056 2131 
z
" transform="scale(0.015625)"/>
      <path id="DejaVuSans-Bold-74" d="M 1759 4494 
L 1759 3500 
L 2913 3500 
L 2913 2700 
L 1759 2700 
L 1759 1216 
Q 1759 972 1856 886 
Q 1953 800 2241 800 
L 2816 800 
L 2816 0 
L 1856 0 
Q 1194 0 917 276 
Q 641 553 641 1216 
L 641 2700 
L 84 2700 
L 84 3500 
L 641 3500 
L 641 4494 
L 1759 4494 
z
" transform="scale(0.015625)"/>
      <path id="DejaVuSans-Bold-28" d="M 2413 -844 
L 1484 -844 
Q 1006 -72 778 623 
Q 550 1319 550 2003 
Q 550 2688 779 3389 
Q 1009 4091 1484 4856 
L 2413 4856 
Q 2013 4116 1813 3408 
Q 1613 2700 1613 2009 
Q 1613 1319 1811 609 
Q 2009 -100 2413 -844 
z
" transform="scale(0.015625)"/>
      <path id="DejaVuSans-Bold-6d" d="M 3781 2919 
Q 3994 3244 4286 3414 
Q 4578 3584 4928 3584 
Q 5531 3584 5847 3212 
Q 6163 2841 6163 2131 
L 6163 0 
L 5038 0 
L 5038 1825 
Q 5041 1866 5042 1909 
Q 5044 1953 5044 2034 
Q 5044 2406 4934 2573 
Q 4825 2741 4581 2741 
Q 4263 2741 4089 2478 
Q 3916 2216 3909 1719 
L 3909 0 
L 2784 0 
L 2784 1825 
Q 2784 2406 2684 2573 
Q 2584 2741 2328 2741 
Q 2006 2741 1831 2477 
Q 1656 2213 1656 1722 
L 1656 0 
L 531 0 
L 531 3500 
L 1656 3500 
L 1656 2988 
Q 1863 3284 2130 3434 
Q 2397 3584 2719 3584 
Q 3081 3584 3359 3409 
Q 3638 3234 3781 2919 
z
" transform="scale(0.015625)"/>
      <path id="DejaVuSans-Bold-6f" d="M 2203 2784 
Q 1831 2784 1636 2517 
Q 1441 2250 1441 1747 
Q 1441 1244 1636 976 
Q 1831 709 2203 709 
Q 2569 709 2762 976 
Q 2956 1244 2956 1747 
Q 2956 2250 2762 2517 
Q 2569 2784 2203 2784 
z
M 2203 3584 
Q 3106 3584 3614 3096 
Q 4122 2609 4122 1747 
Q 4122 884 3614 396 
Q 3106 -91 2203 -91 
Q 1297 -91 786 396 
Q 275 884 275 1747 
Q 275 2609 786 3096 
Q 1297 3584 2203 3584 
z
" transform="scale(0.015625)"/>
      <path id="DejaVuSans-Bold-5f" d="M 3200 -916 
L 3200 -1509 
L 0 -1509 
L 0 -916 
L 3200 -916 
z
" transform="scale(0.015625)"/>
      <path id="DejaVuSans-Bold-64" d="M 2919 2988 
L 2919 4863 
L 4044 4863 
L 4044 0 
L 2919 0 
L 2919 506 
Q 2688 197 2409 53 
Q 2131 -91 1766 -91 
Q 1119 -91 703 423 
Q 288 938 288 1747 
Q 288 2556 703 3070 
Q 1119 3584 1766 3584 
Q 2128 3584 2408 3439 
Q 2688 3294 2919 2988 
z
M 2181 722 
Q 2541 722 2730 984 
Q 2919 1247 2919 1747 
Q 2919 2247 2730 2509 
Q 2541 2772 2181 2772 
Q 1825 2772 1636 2509 
Q 1447 2247 1447 1747 
Q 1447 1247 1636 984 
Q 1825 722 2181 722 
z
" transform="scale(0.015625)"/>
      <path id="DejaVuSans-Bold-6c" d="M 538 4863 
L 1656 4863 
L 1656 0 
L 538 0 
L 538 4863 
z
" transform="scale(0.015625)"/>
      <path id="DejaVuSans-Bold-29" d="M 513 -844 
Q 913 -100 1113 609 
Q 1313 1319 1313 2009 
Q 1313 2700 1113 3408 
Q 913 4116 513 4856 
L 1441 4856 
Q 1916 4091 2145 3389 
Q 2375 2688 2375 2003 
Q 2375 1319 2147 623 
Q 1919 -72 1441 -844 
L 513 -844 
z
" transform="scale(0.015625)"/>
     </defs>
     <use xlink:href="#DejaVuSans-Bold-44"/>
     <use xlink:href="#DejaVuSans-Bold-69" transform="translate(83.007812 0)"/>
     <use xlink:href="#DejaVuSans-Bold-73" transform="translate(117.285156 0)"/>
     <use xlink:href="#DejaVuSans-Bold-63" transform="translate(176.806641 0)"/>
     <use xlink:href="#DejaVuSans-Bold-72" transform="translate(236.083984 0)"/>
     <use xlink:href="#DejaVuSans-Bold-65" transform="translate(285.400391 0)"/>
     <use xlink:href="#DejaVuSans-Bold-70" transform="translate(353.222656 0)"/>
     <use xlink:href="#DejaVuSans-Bold-61" transform="translate(424.804688 0)"/>
     <use xlink:href="#DejaVuSans-Bold-6e" transform="translate(492.285156 0)"/>
     <use xlink:href="#DejaVuSans-Bold-63" transform="translate(563.476562 0)"/>
     <use xlink:href="#DejaVuSans-Bold-79" transform="translate(622.753906 0)"/>
     <use xlink:href="#DejaVuSans-Bold-20" transform="translate(687.939453 0)"/>
     <use xlink:href="#DejaVuSans-Bold-57" transform="translate(722.753906 0)"/>
     <use xlink:href="#DejaVuSans-Bold-65" transform="translate(829.431641 0)"/>
     <use xlink:href="#DejaVuSans-Bold-69" transform="translate(897.253906 0)"/>
     <use xlink:href="#DejaVuSans-Bold-67" transform="translate(931.53125 0)"/>
     <use xlink:href="#DejaVuSans-Bold-68" transform="translate(1003.113281 0)"/>
     <use xlink:href="#DejaVuSans-Bold-74" transform="translate(1074.304688 0)"/>
     <use xlink:href="#DejaVuSans-Bold-69" transform="translate(1122.107422 0)"/>
     <use xlink:href="#DejaVuSans-Bold-6e" transform="translate(1156.384766 0)"/>
     <use xlink:href="#DejaVuSans-Bold-67" transform="translate(1227.576172 0)"/>
     <use xlink:href="#DejaVuSans-Bold-20" transform="translate(1299.158203 0)"/>
     <use xlink:href="#DejaVuSans-Bold-28" transform="translate(1333.972656 0)"/>
     <use xlink:href="#DejaVuSans-Bold-73" transform="translate(1379.675781 0)"/>
     <use xlink:href="#DejaVuSans-Bold-6d" transform="translate(1439.197266 0)"/>
     <use xlink:href="#DejaVuSans-Bold-6f" transform="translate(1543.396484 0)"/>
     <use xlink:href="#DejaVuSans-Bold-6f" transform="translate(1612.097656 0)"/>
     <use xlink:href="#DejaVuSans-Bold-74" transform="translate(1680.798828 0)"/>
     <use xlink:href="#DejaVuSans-Bold-68" transform="translate(1728.601562 0)"/>
     <use xlink:href="#DejaVuSans-Bold-5f" transform="translate(1799.792969 0)"/>
     <use xlink:href="#DejaVuSans-Bold-64" transform="translate(1849.792969 0)"/>
     <use xlink:href="#DejaVuSans-Bold-65" transform="translate(1921.375 0)"/>
     <use xlink:href="#DejaVuSans-Bold-6c" transform="translate(1989.197266 0)"/>
     <use xlink:href="#DejaVuSans-Bold-74" transform="translate(2023.474609 0)"/>
     <use xlink:href="#DejaVuSans-Bold-61" transform="translate(2071.277344 0)"/>
     <use xlink:href="#DejaVuSans-Bold-20" transform="translate(2138.757812 0)"/>
     <use xlink:href="#DejaVuSans-Bold-6d" transform="translate(2173.572266 0)"/>
     <use xlink:href="#DejaVuSans-Bold-6f" transform="translate(2277.771484 0)"/>
     <use xlink:href="#DejaVuSans-Bold-64" transform="translate(2346.472656 0)"/>
     <use xlink:href="#DejaVuSans-Bold-65" transform="translate(2418.054688 0)"/>
     <use xlink:href="#DejaVuSans-Bold-29" transform="translate(2485.876953 0)"/>
    </g>
   </g>
   <g id="text_2">
    <!-- $r_i = \max\!\left(p_i^{\mathrm{HLT}} - p_i^{\mathrm{teacher}},\,0\right)\,(1-y_i)\,g_i$ -->
    <g style="fill: #0b1220" transform="translate(65.52 120.792) scale(0.28 -0.28)">
     <defs>
      <path id="DejaVuSans-Oblique-72" d="M 2853 2969 
Q 2766 3016 2653 3041 
Q 2541 3066 2413 3066 
Q 1953 3066 1609 2717 
Q 1266 2369 1153 1784 
L 800 0 
L 225 0 
L 909 3500 
L 1484 3500 
L 1375 2956 
Q 1603 3259 1920 3421 
Q 2238 3584 2597 3584 
Q 2691 3584 2781 3573 
Q 2872 3563 2963 3538 
L 2853 2969 
z
" transform="scale(0.015625)"/>
      <path id="DejaVuSans-Oblique-69" d="M 1172 4863 
L 1747 4863 
L 1606 4134 
L 1031 4134 
L 1172 4863 
z
M 909 3500 
L 1484 3500 
L 800 0 
L 225 0 
L 909 3500 
z
" transform="scale(0.015625)"/>
      <path id="DejaVuSans-3d" d="M 678 2906 
L 4684 2906 
L 4684 2381 
L 678 2381 
L 678 2906 
z
M 678 1631 
L 4684 1631 
L 4684 1100 
L 678 1100 
L 678 1631 
z
" transform="scale(0.015625)"/>
      <path id="DejaVuSans-6d" d="M 3328 2828 
Q 3544 3216 3844 3400 
Q 4144 3584 4550 3584 
Q 5097 3584 5394 3201 
Q 5691 2819 5691 2113 
L 5691 0 
L 5113 0 
L 5113 2094 
Q 5113 2597 4934 2840 
Q 4756 3084 4391 3084 
Q 3944 3084 3684 2787 
Q 3425 2491 3425 1978 
L 3425 0 
L 2847 0 
L 2847 2094 
Q 2847 2600 2669 2842 
Q 2491 3084 2119 3084 
Q 1678 3084 1418 2786 
Q 1159 2488 1159 1978 
L 1159 0 
L 581 0 
L 581 3500 
L 1159 3500 
L 1159 2956 
Q 1356 3278 1631 3431 
Q 1906 3584 2284 3584 
Q 2666 3584 2933 3390 
Q 3200 3197 3328 2828 
z
" transform="scale(0.015625)"/>
      <path id="DejaVuSans-61" d="M 2194 1759 
Q 1497 1759 1228 1600 
Q 959 1441 959 1056 
Q 959 750 1161 570 
Q 1363 391 1709 391 
Q 2188 391 2477 730 
Q 2766 1069 2766 1631 
L 2766 1759 
L 2194 1759 
z
M 3341 1997 
L 3341 0 
L 2766 0 
L 2766 531 
Q 2569 213 2275 61 
Q 1981 -91 1556 -91 
Q 1019 -91 701 211 
Q 384 513 384 1019 
Q 384 1609 779 1909 
Q 1175 2209 1959 2209 
L 2766 2209 
L 2766 2266 
Q 2766 2663 2505 2880 
Q 2244 3097 1772 3097 
Q 1472 3097 1187 3025 
Q 903 2953 641 2809 
L 641 3341 
Q 956 3463 1253 3523 
Q 1550 3584 1831 3584 
Q 2591 3584 2966 3190 
Q 3341 2797 3341 1997 
z
" transform="scale(0.015625)"/>
      <path id="DejaVuSans-78" d="M 3513 3500 
L 2247 1797 
L 3578 0 
L 2900 0 
L 1881 1375 
L 863 0 
L 184 0 
L 1544 1831 
L 300 3500 
L 978 3500 
L 1906 2253 
L 2834 3500 
L 3513 3500 
z
" transform="scale(0.015625)"/>
      <path id="STIXSizeOneSym-Regular-28" d="M 2445 -858 
L 2445 -1050 
Q 1728 -371 1309 630 
Q 890 1632 890 2886 
Q 890 4122 1309 5136 
Q 1728 6150 2445 6822 
L 2445 6630 
Q 1408 5363 1408 2886 
Q 1408 410 2445 -858 
z
" transform="scale(0.015625)"/>
      <path id="DejaVuSans-Oblique-70" d="M 3175 2156 
Q 3175 2616 2975 2859 
Q 2775 3103 2400 3103 
Q 2144 3103 1911 2972 
Q 1678 2841 1497 2591 
Q 1319 2344 1212 1994 
Q 1106 1644 1106 1300 
Q 1106 863 1306 627 
Q 1506 391 1875 391 
Q 2147 391 2380 519 
Q 2613 647 2778 891 
Q 2956 1147 3065 1494 
Q 3175 1841 3175 2156 
z
M 1394 2969 
Q 1625 3272 1939 3428 
Q 2253 3584 2638 3584 
Q 3175 3584 3472 3232 
Q 3769 2881 3769 2247 
Q 3769 1728 3584 1258 
Q 3400 788 3053 416 
Q 2822 169 2531 39 
Q 2241 -91 1919 -91 
Q 1547 -91 1294 64 
Q 1041 219 916 525 
L 556 -1331 
L -19 -1331 
L 922 3500 
L 1497 3500 
L 1394 2969 
z
" transform="scale(0.015625)"/>
      <path id="DejaVuSans-48" d="M 628 4666 
L 1259 4666 
L 1259 2753 
L 3553 2753 
L 3553 4666 
L 4184 4666 
L 4184 0 
L 3553 0 
L 3553 2222 
L 1259 2222 
L 1259 0 
L 628 0 
L 628 4666 
z
" transform="scale(0.015625)"/>
      <path id="DejaVuSans-4c" d="M 628 4666 
L 1259 4666 
L 1259 531 
L 3531 531 
L 3531 0 
L 628 0 
L 628 4666 
z
" transform="scale(0.015625)"/>
      <path id="DejaVuSans-54" d="M -19 4666 
L 3928 4666 
L 3928 4134 
L 2272 4134 
L 2272 0 
L 1638 0 
L 1638 4134 
L -19 4134 
L -19 4666 
z
" transform="scale(0.015625)"/>
      <path id="DejaVuSans-2212" d="M 678 2272 
L 4684 2272 
L 4684 1741 
L 678 1741 
L 678 2272 
z
" transform="scale(0.015625)"/>
      <path id="DejaVuSans-74" d="M 1172 4494 
L 1172 3500 
L 2356 3500 
L 2356 3053 
L 1172 3053 
L 1172 1153 
Q 1172 725 1289 603 
Q 1406 481 1766 481 
L 2356 481 
L 2356 0 
L 1766 0 
Q 1100 0 847 248 
Q 594 497 594 1153 
L 594 3053 
L 172 3053 
L 172 3500 
L 594 3500 
L 594 4494 
L 1172 4494 
z
" transform="scale(0.015625)"/>
      <path id="DejaVuSans-65" d="M 3597 1894 
L 3597 1613 
L 953 1613 
Q 991 1019 1311 708 
Q 1631 397 2203 397 
Q 2534 397 2845 478 
Q 3156 559 3463 722 
L 3463 178 
Q 3153 47 2828 -22 
Q 2503 -91 2169 -91 
Q 1331 -91 842 396 
Q 353 884 353 1716 
Q 353 2575 817 3079 
Q 1281 3584 2069 3584 
Q 2775 3584 3186 3129 
Q 3597 2675 3597 1894 
z
M 3022 2063 
Q 3016 2534 2758 2815 
Q 2500 3097 2075 3097 
Q 1594 3097 1305 2825 
Q 1016 2553 972 2059 
L 3022 2063 
z
" transform="scale(0.015625)"/>
      <path id="DejaVuSans-63" d="M 3122 3366 
L 3122 2828 
Q 2878 2963 2633 3030 
Q 2388 3097 2138 3097 
Q 1578 3097 1268 2742 
Q 959 2388 959 1747 
Q 959 1106 1268 751 
Q 1578 397 2138 397 
Q 2388 397 2633 464 
Q 2878 531 3122 666 
L 3122 134 
Q 2881 22 2623 -34 
Q 2366 -91 2075 -91 
Q 1284 -91 818 406 
Q 353 903 353 1747 
Q 353 2603 823 3093 
Q 1294 3584 2113 3584 
Q 2378 3584 2631 3529 
Q 2884 3475 3122 3366 
z
" transform="scale(0.015625)"/>
      <path id="DejaVuSans-68" d="M 3513 2113 
L 3513 0 
L 2938 0 
L 2938 2094 
Q 2938 2591 2744 2837 
Q 2550 3084 2163 3084 
Q 1697 3084 1428 2787 
Q 1159 2491 1159 1978 
L 1159 0 
L 581 0 
L 581 4863 
L 1159 4863 
L 1159 2956 
Q 1366 3272 1645 3428 
Q 1925 3584 2291 3584 
Q 2894 3584 3203 3211 
Q 3513 2838 3513 2113 
z
" transform="scale(0.015625)"/>
      <path id="DejaVuSans-72" d="M 2631 2963 
Q 2534 3019 2420 3045 
Q 2306 3072 2169 3072 
Q 1681 3072 1420 2755 
Q 1159 2438 1159 1844 
L 1159 0 
L 581 0 
L 581 3500 
L 1159 3500 
L 1159 2956 
Q 1341 3275 1631 3429 
Q 1922 3584 2338 3584 
Q 2397 3584 2469 3576 
Q 2541 3569 2628 3553 
L 2631 2963 
z
" transform="scale(0.015625)"/>
      <path id="DejaVuSans-2c" d="M 750 794 
L 1409 794 
L 1409 256 
L 897 -744 
L 494 -744 
L 750 256 
L 750 794 
z
" transform="scale(0.015625)"/>
      <path id="DejaVuSans-30" d="M 2034 4250 
Q 1547 4250 1301 3770 
Q 1056 3291 1056 2328 
Q 1056 1369 1301 889 
Q 1547 409 2034 409 
Q 2525 409 2770 889 
Q 3016 1369 3016 2328 
Q 3016 3291 2770 3770 
Q 2525 4250 2034 4250 
z
M 2034 4750 
Q 2819 4750 3233 4129 
Q 3647 3509 3647 2328 
Q 3647 1150 3233 529 
Q 2819 -91 2034 -91 
Q 1250 -91 836 529 
Q 422 1150 422 2328 
Q 422 3509 836 4129 
Q 1250 4750 2034 4750 
z
" transform="scale(0.015625)"/>
      <path id="STIXSizeOneSym-Regular-29" d="M 550 6630 
L 550 6822 
Q 1267 6144 1686 5142 
Q 2106 4141 2106 2886 
Q 2106 1651 1686 636 
Q 1267 -378 550 -1050 
L 550 -858 
Q 1587 410 1587 2886 
Q 1587 5363 550 6630 
z
" transform="scale(0.015625)"/>
      <path id="DejaVuSans-28" d="M 1984 4856 
Q 1566 4138 1362 3434 
Q 1159 2731 1159 2009 
Q 1159 1288 1364 580 
Q 1569 -128 1984 -844 
L 1484 -844 
Q 1016 -109 783 600 
Q 550 1309 550 2009 
Q 550 2706 781 3412 
Q 1013 4119 1484 4856 
L 1984 4856 
z
" transform="scale(0.015625)"/>
      <path id="DejaVuSans-31" d="M 794 531 
L 1825 531 
L 1825 4091 
L 703 3866 
L 703 4441 
L 1819 4666 
L 2450 4666 
L 2450 531 
L 3481 531 
L 3481 0 
L 794 0 
L 794 531 
z
" transform="scale(0.015625)"/>
      <path id="DejaVuSans-Oblique-79" d="M 1588 -325 
Q 1188 -997 936 -1164 
Q 684 -1331 294 -1331 
L -159 -1331 
L -63 -850 
L 269 -850 
Q 509 -850 678 -719 
Q 847 -588 1056 -206 
L 1234 128 
L 459 3500 
L 1069 3500 
L 1650 819 
L 3256 3500 
L 3859 3500 
L 1588 -325 
z
" transform="scale(0.015625)"/>
      <path id="DejaVuSans-29" d="M 513 4856 
L 1013 4856 
Q 1481 4119 1714 3412 
Q 1947 2706 1947 2009 
Q 1947 1309 1714 600 
Q 1481 -109 1013 -844 
L 513 -844 
Q 928 -128 1133 580 
Q 1338 1288 1338 2009 
Q 1338 2731 1133 3434 
Q 928 4138 513 4856 
z
" transform="scale(0.015625)"/>
      <path id="DejaVuSans-Oblique-67" d="M 3816 3500 
L 3219 434 
Q 3047 -456 2561 -893 
Q 2075 -1331 1253 -1331 
Q 950 -1331 690 -1286 
Q 431 -1241 206 -1147 
L 313 -588 
Q 525 -725 762 -790 
Q 1000 -856 1269 -856 
Q 1816 -856 2167 -557 
Q 2519 -259 2631 300 
L 2681 563 
Q 2441 288 2122 144 
Q 1803 0 1434 0 
Q 903 0 598 351 
Q 294 703 294 1319 
Q 294 1803 478 2267 
Q 663 2731 997 3091 
Q 1219 3328 1514 3456 
Q 1809 3584 2131 3584 
Q 2484 3584 2746 3420 
Q 3009 3256 3138 2956 
L 3238 3500 
L 3816 3500 
z
M 2950 2216 
Q 2950 2641 2750 2872 
Q 2550 3103 2181 3103 
Q 1953 3103 1747 3012 
Q 1541 2922 1394 2759 
Q 1156 2491 1023 2127 
Q 891 1763 891 1375 
Q 891 944 1092 712 
Q 1294 481 1672 481 
Q 2219 481 2584 976 
Q 2950 1472 2950 2216 
z
" transform="scale(0.015625)"/>
     </defs>
     <use xlink:href="#DejaVuSans-Oblique-72" transform="translate(0 0.470313)"/>
     <use xlink:href="#DejaVuSans-Oblique-69" transform="translate(41.113281 -15.935937) scale(0.7)"/>
     <use xlink:href="#DejaVuSans-3d" transform="translate(82.77832 0.470313)"/>
     <use xlink:href="#DejaVuSans-6d" transform="translate(186.049805 0.470313)"/>
     <use xlink:href="#DejaVuSans-61" transform="translate(283.461914 0.470313)"/>
     <use xlink:href="#DejaVuSans-78" transform="translate(344.741211 0.470313)"/>
     <use xlink:href="#STIXSizeOneSym-Regular-28" transform="translate(387.685222 -10.967187) scale(0.974581)"/>
     <use xlink:href="#DejaVuSans-Oblique-70" transform="translate(433.315212 0.470313)"/>
     <use xlink:href="#DejaVuSans-48" transform="translate(501.44167 38.815625) scale(0.7)"/>
     <use xlink:href="#DejaVuSans-4c" transform="translate(554.078389 38.815625) scale(0.7)"/>
     <use xlink:href="#DejaVuSans-54" transform="translate(593.077412 38.815625) scale(0.7)"/>
     <use xlink:href="#DejaVuSans-Oblique-69" transform="translate(496.791774 -26.873437) scale(0.7)"/>
     <use xlink:href="#DejaVuSans-2212" transform="translate(658.052998 0.470313)"/>
     <use xlink:href="#DejaVuSans-Oblique-70" transform="translate(761.324483 0.470313)"/>
     <use xlink:href="#DejaVuSans-74" transform="translate(829.450941 39.810938) scale(0.7)"/>
     <use xlink:href="#DejaVuSans-65" transform="translate(856.89723 39.810938) scale(0.7)"/>
     <use xlink:href="#DejaVuSans-61" transform="translate(899.963636 39.810938) scale(0.7)"/>
     <use xlink:href="#DejaVuSans-63" transform="translate(942.859144 39.810938) scale(0.7)"/>
     <use xlink:href="#DejaVuSans-68" transform="translate(981.345472 39.810938) scale(0.7)"/>
     <use xlink:href="#DejaVuSans-65" transform="translate(1025.710707 39.810938) scale(0.7)"/>
     <use xlink:href="#DejaVuSans-72" transform="translate(1068.777113 39.810938) scale(0.7)"/>
     <use xlink:href="#DejaVuSans-Oblique-69" transform="translate(824.801045 -26.873437) scale(0.7)"/>
     <use xlink:href="#DejaVuSans-2c" transform="translate(1100.290785 0.470313)"/>
     <use xlink:href="#DejaVuSans-30" transform="translate(1167.795992 0.470313)"/>
     <use xlink:href="#STIXSizeOneSym-Regular-29" transform="translate(1231.419039 -10.967187) scale(0.974581)"/>
     <use xlink:href="#DejaVuSans-28" transform="translate(1293.284705 0.470313)"/>
     <use xlink:href="#DejaVuSans-31" transform="translate(1332.298377 0.470313)"/>
     <use xlink:href="#DejaVuSans-2212" transform="translate(1415.403846 0.470313)"/>
     <use xlink:href="#DejaVuSans-Oblique-79" transform="translate(1518.67533 0.470313)"/>
     <use xlink:href="#DejaVuSans-Oblique-69" transform="translate(1577.855017 -15.935937) scale(0.7)"/>
     <use xlink:href="#DejaVuSans-29" transform="translate(1600.037635 0.470313)"/>
     <use xlink:href="#DejaVuSans-Oblique-67" transform="translate(1655.286983 0.470313)"/>
     <use xlink:href="#DejaVuSans-Oblique-69" transform="translate(1718.763545 -15.935937) scale(0.7)"/>
    </g>
   </g>
   <g id="text_3">
    <!-- $\tilde{w}_i = \mathrm{clip}\!\left(1 + \lambda\,r_i,\;1,\;m\right), \qquadw_i = \frac{\tilde{w}_i}{\frac{1}{N}\sum_{j=1}^{N}\tilde{w}_j}$ -->
    <g style="fill: #0b1220" transform="translate(65.52 220.128) scale(0.24 -0.24)">
     <defs>
      <path id="DejaVuSans-303" d="M -1621 4281 
L -1799 4453 
Q -1867 4516 -1919 4545 
Q -1971 4575 -2011 4575 
Q -2130 4575 -2186 4461 
Q -2242 4347 -2249 4091 
L -2639 4091 
Q -2633 4513 -2473 4742 
Q -2314 4972 -2030 4972 
Q -1911 4972 -1811 4928 
Q -1711 4884 -1596 4781 
L -1417 4609 
Q -1349 4547 -1297 4517 
Q -1246 4488 -1205 4488 
Q -1086 4488 -1030 4602 
Q -974 4716 -967 4972 
L -577 4972 
Q -583 4550 -742 4320 
Q -902 4091 -1186 4091 
Q -1305 4091 -1405 4134 
Q -1505 4178 -1621 4281 
z
" transform="scale(0.015625)"/>
      <path id="DejaVuSans-Oblique-77" d="M 544 3500 
L 1113 3500 
L 1259 684 
L 2566 3500 
L 3231 3500 
L 3425 684 
L 4666 3500 
L 5241 3500 
L 3641 0 
L 2969 0 
L 2797 2900 
L 1459 0 
L 781 0 
L 544 3500 
z
" transform="scale(0.015625)"/>
      <path id="DejaVuSans-6c" d="M 603 4863 
L 1178 4863 
L 1178 0 
L 603 0 
L 603 4863 
z
" transform="scale(0.015625)"/>
      <path id="DejaVuSans-69" d="M 603 3500 
L 1178 3500 
L 1178 0 
L 603 0 
L 603 3500 
z
M 603 4863 
L 1178 4863 
L 1178 4134 
L 603 4134 
L 603 4863 
z
" transform="scale(0.015625)"/>
      <path id="DejaVuSans-70" d="M 1159 525 
L 1159 -1331 
L 581 -1331 
L 581 3500 
L 1159 3500 
L 1159 2969 
Q 1341 3281 1617 3432 
Q 1894 3584 2278 3584 
Q 2916 3584 3314 3078 
Q 3713 2572 3713 1747 
Q 3713 922 3314 415 
Q 2916 -91 2278 -91 
Q 1894 -91 1617 61 
Q 1341 213 1159 525 
z
M 3116 1747 
Q 3116 2381 2855 2742 
Q 2594 3103 2138 3103 
Q 1681 3103 1420 2742 
Q 1159 2381 1159 1747 
Q 1159 1113 1420 752 
Q 1681 391 2138 391 
Q 2594 391 2855 752 
Q 3116 1113 3116 1747 
z
" transform="scale(0.015625)"/>
      <path id="DejaVuSans-2b" d="M 2944 4013 
L 2944 2272 
L 4684 2272 
L 4684 1741 
L 2944 1741 
L 2944 0 
L 2419 0 
L 2419 1741 
L 678 1741 
L 678 2272 
L 2419 2272 
L 2419 4013 
L 2944 4013 
z
" transform="scale(0.015625)"/>
      <path id="DejaVuSans-Oblique-3bb" d="M 2350 4316 
L 3125 0 
L 2516 0 
L 2038 2588 
L 328 0 
L -281 0 
L 1903 3356 
L 1794 3975 
Q 1725 4369 1391 4369 
L 1091 4369 
L 1184 4863 
L 1550 4856 
Q 2253 4847 2350 4316 
z
" transform="scale(0.015625)"/>
      <path id="DejaVuSans-Oblique-6d" d="M 5747 2113 
L 5338 0 
L 4763 0 
L 5166 2094 
Q 5191 2228 5203 2325 
Q 5216 2422 5216 2491 
Q 5216 2772 5059 2928 
Q 4903 3084 4622 3084 
Q 4203 3084 3875 2770 
Q 3547 2456 3450 1953 
L 3066 0 
L 2491 0 
L 2900 2094 
Q 2925 2209 2937 2307 
Q 2950 2406 2950 2484 
Q 2950 2769 2794 2926 
Q 2638 3084 2363 3084 
Q 1938 3084 1609 2770 
Q 1281 2456 1184 1953 
L 800 0 
L 225 0 
L 909 3500 
L 1484 3500 
L 1375 2956 
Q 1609 3263 1923 3423 
Q 2238 3584 2597 3584 
Q 2978 3584 3223 3384 
Q 3469 3184 3519 2828 
Q 3781 3197 4126 3390 
Q 4472 3584 4856 3584 
Q 5306 3584 5551 3325 
Q 5797 3066 5797 2591 
Q 5797 2488 5784 2364 
Q 5772 2241 5747 2113 
z
" transform="scale(0.015625)"/>
      <path id="DejaVuSans-Oblique-4e" d="M 1081 4666 
L 1931 4666 
L 3219 666 
L 4000 4666 
L 4616 4666 
L 3706 0 
L 2853 0 
L 1569 4025 
L 788 0 
L 172 0 
L 1081 4666 
z
" transform="scale(0.015625)"/>
      <path id="DejaVuSansDisplay-2211" d="M 244 6509 
L 5803 6509 
L 5803 5656 
L 1566 5656 
L 4534 2488 
L 1469 -888 
L 5919 -888 
L 5919 -1738 
L 109 -1738 
L 109 -1078 
L 3316 2463 
L 244 5728 
L 244 6509 
z
" transform="scale(0.015625)"/>
      <path id="DejaVuSans-Oblique-6a" d="M 928 3500 
L 1503 3500 
L 813 -63 
L 809 -78 
Q 694 -675 544 -897 
Q 403 -1106 132 -1218 
Q -138 -1331 -506 -1331 
L -722 -1331 
L -628 -844 
L -481 -844 
Q -144 -844 -1 -703 
Q 141 -563 238 -63 
L 928 3500 
z
M 1197 4863 
L 1772 4863 
L 1631 4134 
L 1056 4134 
L 1197 4863 
z
" transform="scale(0.015625)"/>
     </defs>
     <use xlink:href="#DejaVuSans-303" transform="translate(76.681152 3.317188)"/>
     <use xlink:href="#DejaVuSans-Oblique-77" transform="translate(0 0.051563)"/>
     <use xlink:href="#DejaVuSans-Oblique-69" transform="translate(82.744141 -16.354687) scale(0.7)"/>
     <use xlink:href="#DejaVuSans-3d" transform="translate(124.40918 0.051563)"/>
     <use xlink:href="#DejaVuSans-63" transform="translate(227.680664 0.051563)"/>
     <use xlink:href="#DejaVuSans-6c" transform="translate(282.661133 0.051563)"/>
     <use xlink:href="#DejaVuSans-69" transform="translate(310.444336 0.051563)"/>
     <use xlink:href="#DejaVuSans-70" transform="translate(338.227539 0.051563)"/>
     <use xlink:href="#DejaVuSans-28" transform="translate(385.468425 0.051563)"/>
     <use xlink:href="#DejaVuSans-31" transform="translate(424.482097 0.051563)"/>
     <use xlink:href="#DejaVuSans-2b" transform="translate(507.587566 0.051563)"/>
     <use xlink:href="#DejaVuSans-Oblique-3bb" transform="translate(610.85905 0.051563)"/>
     <use xlink:href="#DejaVuSans-Oblique-72" transform="translate(686.274414 0.051563)"/>
     <use xlink:href="#DejaVuSans-Oblique-69" transform="translate(727.387695 -16.354687) scale(0.7)"/>
     <use xlink:href="#DejaVuSans-2c" transform="translate(749.570312 0.051563)"/>
     <use xlink:href="#DejaVuSans-31" transform="translate(827.898979 0.051563)"/>
     <use xlink:href="#DejaVuSans-2c" transform="translate(891.522026 0.051563)"/>
     <use xlink:href="#DejaVuSans-Oblique-6d" transform="translate(969.850693 0.051563)"/>
     <use xlink:href="#DejaVuSans-29" transform="translate(1067.262803 0.051563)"/>
     <use xlink:href="#DejaVuSans-2c" transform="translate(1106.276475 0.051563)"/>
     <use xlink:href="#DejaVuSans-Oblique-77" transform="translate(1352.370225 0.051563)"/>
     <use xlink:href="#DejaVuSans-Oblique-69" transform="translate(1434.157334 -16.354687) scale(0.7)"/>
     <use xlink:href="#DejaVuSans-3d" transform="translate(1475.822373 0.051563)"/>
     <use xlink:href="#DejaVuSans-303" transform="translate(1707.312852 57.629688) scale(0.7)"/>
     <use xlink:href="#DejaVuSans-Oblique-77" transform="translate(1654.093857 55.332813) scale(0.7)"/>
     <use xlink:href="#DejaVuSans-Oblique-69" transform="translate(1712.014756 43.848438) scale(0.49)"/>
     <use xlink:href="#DejaVuSans-31" transform="translate(1582.093857 -76.785) scale(0.49)"/>
     <use xlink:href="#DejaVuSans-Oblique-4e" transform="translate(1579.093857 -134.384062) scale(0.49)"/>
     <use xlink:href="#DejaVuSans-Oblique-4e" transform="translate(1658.498154 -23.125625) scale(0.49)"/>
     <use xlink:href="#DejaVuSansDisplay-2211" transform="translate(1645.498154 -107.442813) scale(0.7)"/>
     <use xlink:href="#DejaVuSans-Oblique-6a" transform="translate(1624.498154 -176.809531) scale(0.49)"/>
     <use xlink:href="#DejaVuSans-3d" transform="translate(1647.658311 -176.809531) scale(0.49)"/>
     <use xlink:href="#DejaVuSans-31" transform="translate(1698.261338 -176.809531) scale(0.49)"/>
     <use xlink:href="#DejaVuSans-303" transform="translate(1782.655625 -105.145938) scale(0.7)"/>
     <use xlink:href="#DejaVuSans-Oblique-77" transform="translate(1729.436631 -107.442813) scale(0.7)"/>
     <use xlink:href="#DejaVuSans-Oblique-6a" transform="translate(1787.357529 -118.927188) scale(0.49)"/>
     <path d="M 1579.093857 18.848438 
L 1579.093857 25.098438 
L 1802.885361 25.098438 
L 1802.885361 18.848438 
L 1579.093857 18.848438 
z
"/>
     <path d="M 1579.093857 -94.285 
L 1579.093857 -89.91 
L 1615.748154 -89.91 
L 1615.748154 -94.285 
L 1579.093857 -94.285 
z
"/>
    </g>
   </g>
   <g id="text_4">
    <!-- $\mathcal{L}_{\mathrm{weighted}} = \frac{\sum_i w_i\,\ell_i}{\sum_i w_i}$ -->
    <g style="fill: #0b1220" transform="translate(65.52 347.244) scale(0.3 -0.3)">
     <defs>
      <path id="STIXNonUnicode-Italic-e238" d="M 4070 915 
L 4179 800 
Q 3347 -45 2413 -45 
Q 2157 -45 1850 26 
Q 1395 122 1146 122 
Q 1005 122 672 61 
Q 339 0 192 0 
L 230 154 
Q 582 154 730 749 
L 1178 2566 
Q 1286 3008 1516 3353 
Q 1747 3699 2025 3894 
Q 2304 4090 2585 4189 
Q 2867 4288 3123 4288 
Q 3443 4288 3593 4083 
Q 3744 3878 3744 3584 
Q 3744 3347 3593 3200 
Q 3443 3053 3226 3053 
Q 3085 3053 2995 3149 
Q 2906 3245 2906 3379 
Q 2906 3482 2957 3552 
Q 3008 3622 3065 3644 
Q 3123 3667 3174 3705 
Q 3226 3744 3226 3789 
Q 3226 4032 2854 4032 
Q 2522 4032 2310 3785 
Q 2099 3539 1990 3132 
Q 1882 2726 1795 2284 
Q 1709 1843 1549 1363 
Q 1389 883 1158 589 
L 1158 563 
Q 1363 704 1888 704 
Q 2227 704 2460 544 
Q 2694 384 2963 384 
Q 3507 384 4070 915 
z
" transform="scale(0.015625)"/>
      <path id="DejaVuSans-77" d="M 269 3500 
L 844 3500 
L 1563 769 
L 2278 3500 
L 2956 3500 
L 3675 769 
L 4391 3500 
L 4966 3500 
L 4050 0 
L 3372 0 
L 2619 2869 
L 1863 0 
L 1184 0 
L 269 3500 
z
" transform="scale(0.015625)"/>
      <path id="DejaVuSans-67" d="M 2906 1791 
Q 2906 2416 2648 2759 
Q 2391 3103 1925 3103 
Q 1463 3103 1205 2759 
Q 947 2416 947 1791 
Q 947 1169 1205 825 
Q 1463 481 1925 481 
Q 2391 481 2648 825 
Q 2906 1169 2906 1791 
z
M 3481 434 
Q 3481 -459 3084 -895 
Q 2688 -1331 1869 -1331 
Q 1566 -1331 1297 -1286 
Q 1028 -1241 775 -1147 
L 775 -588 
Q 1028 -725 1275 -790 
Q 1522 -856 1778 -856 
Q 2344 -856 2625 -561 
Q 2906 -266 2906 331 
L 2906 616 
Q 2728 306 2450 153 
Q 2172 0 1784 0 
Q 1141 0 747 490 
Q 353 981 353 1791 
Q 353 2603 747 3093 
Q 1141 3584 1784 3584 
Q 2172 3584 2450 3431 
Q 2728 3278 2906 2969 
L 2906 3500 
L 3481 3500 
L 3481 434 
z
" transform="scale(0.015625)"/>
      <path id="DejaVuSans-64" d="M 2906 2969 
L 2906 4863 
L 3481 4863 
L 3481 0 
L 2906 0 
L 2906 525 
Q 2725 213 2448 61 
Q 2172 -91 1784 -91 
Q 1150 -91 751 415 
Q 353 922 353 1747 
Q 353 2572 751 3078 
Q 1150 3584 1784 3584 
Q 2172 3584 2448 3432 
Q 2725 3281 2906 2969 
z
M 947 1747 
Q 947 1113 1208 752 
Q 1469 391 1925 391 
Q 2381 391 2643 752 
Q 2906 1113 2906 1747 
Q 2906 2381 2643 2742 
Q 2381 3103 1925 3103 
Q 1469 3103 1208 2742 
Q 947 2381 947 1747 
z
" transform="scale(0.015625)"/>
      <path id="DejaVuSans-Oblique-2113" d="M 950 838 
Q 1078 213 1350 213 
Q 1531 213 1766 572 
L 2181 572 
Q 1994 253 1775 88 
Q 1538 -91 1319 -91 
Q 831 -91 634 344 
L 400 0 
L -88 0 
Q 250 459 500 888 
Q 469 1131 469 1397 
Q 469 1872 566 2347 
Q 931 4131 1256 4497 
Q 1481 4750 1866 4750 
Q 2256 4750 2256 4209 
Q 2253 3966 2197 3675 
Q 1972 2484 950 838 
z
M 947 1656 
Q 1531 2744 1709 3613 
Q 1803 4072 1803 4191 
Q 1803 4406 1725 4406 
Q 1384 4134 1081 2516 
Q 997 2063 947 1656 
z
" transform="scale(0.015625)"/>
     </defs>
     <use xlink:href="#STIXNonUnicode-Italic-e238" transform="translate(0 0.644219)"/>
     <use xlink:href="#DejaVuSans-77" transform="translate(70.257019 -15.762031) scale(0.7)"/>
     <use xlink:href="#DejaVuSans-65" transform="translate(127.507996 -15.762031) scale(0.7)"/>
     <use xlink:href="#DejaVuSans-69" transform="translate(170.574402 -15.762031) scale(0.7)"/>
     <use xlink:href="#DejaVuSans-67" transform="translate(190.022644 -15.762031) scale(0.7)"/>
     <use xlink:href="#DejaVuSans-68" transform="translate(234.456238 -15.762031) scale(0.7)"/>
     <use xlink:href="#DejaVuSans-74" transform="translate(278.821472 -15.762031) scale(0.7)"/>
     <use xlink:href="#DejaVuSans-65" transform="translate(306.267761 -15.762031) scale(0.7)"/>
     <use xlink:href="#DejaVuSans-64" transform="translate(349.334167 -15.762031) scale(0.7)"/>
     <use xlink:href="#DejaVuSans-3d" transform="translate(415.984558 0.644219)"/>
     <use xlink:href="#DejaVuSansDisplay-2211" transform="translate(519.256042 113.807813) scale(0.7)"/>
     <use xlink:href="#DejaVuSans-Oblique-69" transform="translate(545.256042 44.441094) scale(0.49)"/>
     <use xlink:href="#DejaVuSans-Oblique-77" transform="translate(582.79198 113.807813) scale(0.7)"/>
     <use xlink:href="#DejaVuSans-Oblique-69" transform="translate(640.042957 102.323438) scale(0.49)"/>
     <use xlink:href="#DejaVuSans-Oblique-2113" transform="translate(666.935762 113.807813) scale(0.7)"/>
     <use xlink:href="#DejaVuSans-Oblique-69" transform="translate(695.851778 102.323438) scale(0.49)"/>
     <use xlink:href="#DejaVuSansDisplay-2211" transform="translate(547.256042 -58.001094) scale(0.7)"/>
     <use xlink:href="#DejaVuSans-Oblique-69" transform="translate(573.256042 -127.367812) scale(0.49)"/>
     <use xlink:href="#DejaVuSans-Oblique-77" transform="translate(610.79198 -58.001094) scale(0.7)"/>
     <use xlink:href="#DejaVuSans-Oblique-69" transform="translate(668.042957 -69.485469) scale(0.49)"/>
     <path d="M 519.256042 19.441094 
L 519.256042 25.691094 
L 711.37961 25.691094 
L 711.37961 19.441094 
L 519.256042 19.441094 
z
"/>
    </g>
   </g>
   <g id="text_5">
    <!-- Where: -->
    <g style="fill: #1e293b" transform="translate(65.52 378.989812) scale(0.14 -0.14)">
     <defs>
      <path id="DejaVuSans-57" d="M 213 4666 
L 850 4666 
L 1831 722 
L 2809 4666 
L 3519 4666 
L 4500 722 
L 5478 4666 
L 6119 4666 
L 4947 0 
L 4153 0 
L 3169 4050 
L 2175 0 
L 1381 0 
L 213 4666 
z
" transform="scale(0.015625)"/>
      <path id="DejaVuSans-3a" d="M 750 794 
L 1409 794 
L 1409 0 
L 750 0 
L 750 794 
z
M 750 3309 
L 1409 3309 
L 1409 2516 
L 750 2516 
L 750 3309 
z
" transform="scale(0.015625)"/>
     </defs>
     <use xlink:href="#DejaVuSans-57"/>
     <use xlink:href="#DejaVuSans-68" transform="translate(98.876953 0)"/>
     <use xlink:href="#DejaVuSans-65" transform="translate(162.255859 0)"/>
     <use xlink:href="#DejaVuSans-72" transform="translate(223.779297 0)"/>
     <use xlink:href="#DejaVuSans-65" transform="translate(262.642578 0)"/>
     <use xlink:href="#DejaVuSans-3a" transform="translate(324.166016 0)"/>
    </g>
    <!-- y_i: true class (0 = background, 1 = signal) -->
    <g style="fill: #1e293b" transform="translate(65.52 396.262422) scale(0.14 -0.14)">
     <defs>
      <path id="DejaVuSans-79" d="M 2059 -325 
Q 1816 -950 1584 -1140 
Q 1353 -1331 966 -1331 
L 506 -1331 
L 506 -850 
L 844 -850 
Q 1081 -850 1212 -737 
Q 1344 -625 1503 -206 
L 1606 56 
L 191 3500 
L 800 3500 
L 1894 763 
L 2988 3500 
L 3597 3500 
L 2059 -325 
z
" transform="scale(0.015625)"/>
      <path id="DejaVuSans-5f" d="M 3263 -1063 
L 3263 -1509 
L -63 -1509 
L -63 -1063 
L 3263 -1063 
z
" transform="scale(0.015625)"/>
      <path id="DejaVuSans-20" transform="scale(0.015625)"/>
      <path id="DejaVuSans-75" d="M 544 1381 
L 544 3500 
L 1119 3500 
L 1119 1403 
Q 1119 906 1312 657 
Q 1506 409 1894 409 
Q 2359 409 2629 706 
Q 2900 1003 2900 1516 
L 2900 3500 
L 3475 3500 
L 3475 0 
L 2900 0 
L 2900 538 
Q 2691 219 2414 64 
Q 2138 -91 1772 -91 
Q 1169 -91 856 284 
Q 544 659 544 1381 
z
M 1991 3584 
L 1991 3584 
z
" transform="scale(0.015625)"/>
      <path id="DejaVuSans-73" d="M 2834 3397 
L 2834 2853 
Q 2591 2978 2328 3040 
Q 2066 3103 1784 3103 
Q 1356 3103 1142 2972 
Q 928 2841 928 2578 
Q 928 2378 1081 2264 
Q 1234 2150 1697 2047 
L 1894 2003 
Q 2506 1872 2764 1633 
Q 3022 1394 3022 966 
Q 3022 478 2636 193 
Q 2250 -91 1575 -91 
Q 1294 -91 989 -36 
Q 684 19 347 128 
L 347 722 
Q 666 556 975 473 
Q 1284 391 1588 391 
Q 1994 391 2212 530 
Q 2431 669 2431 922 
Q 2431 1156 2273 1281 
Q 2116 1406 1581 1522 
L 1381 1569 
Q 847 1681 609 1914 
Q 372 2147 372 2553 
Q 372 3047 722 3315 
Q 1072 3584 1716 3584 
Q 2034 3584 2315 3537 
Q 2597 3491 2834 3397 
z
" transform="scale(0.015625)"/>
      <path id="DejaVuSans-62" d="M 3116 1747 
Q 3116 2381 2855 2742 
Q 2594 3103 2138 3103 
Q 1681 3103 1420 2742 
Q 1159 2381 1159 1747 
Q 1159 1113 1420 752 
Q 1681 391 2138 391 
Q 2594 391 2855 752 
Q 3116 1113 3116 1747 
z
M 1159 2969 
Q 1341 3281 1617 3432 
Q 1894 3584 2278 3584 
Q 2916 3584 3314 3078 
Q 3713 2572 3713 1747 
Q 3713 922 3314 415 
Q 2916 -91 2278 -91 
Q 1894 -91 1617 61 
Q 1341 213 1159 525 
L 1159 0 
L 581 0 
L 581 4863 
L 1159 4863 
L 1159 2969 
z
" transform="scale(0.015625)"/>
      <path id="DejaVuSans-6b" d="M 581 4863 
L 1159 4863 
L 1159 1991 
L 2875 3500 
L 3609 3500 
L 1753 1863 
L 3688 0 
L 2938 0 
L 1159 1709 
L 1159 0 
L 581 0 
L 581 4863 
z
" transform="scale(0.015625)"/>
      <path id="DejaVuSans-6f" d="M 1959 3097 
Q 1497 3097 1228 2736 
Q 959 2375 959 1747 
Q 959 1119 1226 758 
Q 1494 397 1959 397 
Q 2419 397 2687 759 
Q 2956 1122 2956 1747 
Q 2956 2369 2687 2733 
Q 2419 3097 1959 3097 
z
M 1959 3584 
Q 2709 3584 3137 3096 
Q 3566 2609 3566 1747 
Q 3566 888 3137 398 
Q 2709 -91 1959 -91 
Q 1206 -91 779 398 
Q 353 888 353 1747 
Q 353 2609 779 3096 
Q 1206 3584 1959 3584 
z
" transform="scale(0.015625)"/>
      <path id="DejaVuSans-6e" d="M 3513 2113 
L 3513 0 
L 2938 0 
L 2938 2094 
Q 2938 2591 2744 2837 
Q 2550 3084 2163 3084 
Q 1697 3084 1428 2787 
Q 1159 2491 1159 1978 
L 1159 0 
L 581 0 
L 581 3500 
L 1159 3500 
L 1159 2956 
Q 1366 3272 1645 3428 
Q 1925 3584 2291 3584 
Q 2894 3584 3203 3211 
Q 3513 2838 3513 2113 
z
" transform="scale(0.015625)"/>
     </defs>
     <use xlink:href="#DejaVuSans-79"/>
     <use xlink:href="#DejaVuSans-5f" transform="translate(59.179688 0)"/>
     <use xlink:href="#DejaVuSans-69" transform="translate(109.179688 0)"/>
     <use xlink:href="#DejaVuSans-3a" transform="translate(136.962891 0)"/>
     <use xlink:href="#DejaVuSans-20" transform="translate(170.654297 0)"/>
     <use xlink:href="#DejaVuSans-74" transform="translate(202.441406 0)"/>
     <use xlink:href="#DejaVuSans-72" transform="translate(241.650391 0)"/>
     <use xlink:href="#DejaVuSans-75" transform="translate(282.763672 0)"/>
     <use xlink:href="#DejaVuSans-65" transform="translate(346.142578 0)"/>
     <use xlink:href="#DejaVuSans-20" transform="translate(407.666016 0)"/>
     <use xlink:href="#DejaVuSans-63" transform="translate(439.453125 0)"/>
     <use xlink:href="#DejaVuSans-6c" transform="translate(494.433594 0)"/>
     <use xlink:href="#DejaVuSans-61" transform="translate(522.216797 0)"/>
     <use xlink:href="#DejaVuSans-73" transform="translate(583.496094 0)"/>
     <use xlink:href="#DejaVuSans-73" transform="translate(635.595703 0)"/>
     <use xlink:href="#DejaVuSans-20" transform="translate(687.695312 0)"/>
     <use xlink:href="#DejaVuSans-28" transform="translate(719.482422 0)"/>
     <use xlink:href="#DejaVuSans-30" transform="translate(758.496094 0)"/>
     <use xlink:href="#DejaVuSans-20" transform="translate(822.119141 0)"/>
     <use xlink:href="#DejaVuSans-3d" transform="translate(853.90625 0)"/>
     <use xlink:href="#DejaVuSans-20" transform="translate(937.695312 0)"/>
     <use xlink:href="#DejaVuSans-62" transform="translate(969.482422 0)"/>
     <use xlink:href="#DejaVuSans-61" transform="translate(1032.958984 0)"/>
     <use xlink:href="#DejaVuSans-63" transform="translate(1094.238281 0)"/>
     <use xlink:href="#DejaVuSans-6b" transform="translate(1149.21875 0)"/>
     <use xlink:href="#DejaVuSans-67" transform="translate(1207.128906 0)"/>
     <use xlink:href="#DejaVuSans-72" transform="translate(1270.605469 0)"/>
     <use xlink:href="#DejaVuSans-6f" transform="translate(1309.46875 0)"/>
     <use xlink:href="#DejaVuSans-75" transform="translate(1370.650391 0)"/>
     <use xlink:href="#DejaVuSans-6e" transform="translate(1434.029297 0)"/>
     <use xlink:href="#DejaVuSans-64" transform="translate(1497.408203 0)"/>
     <use xlink:href="#DejaVuSans-2c" transform="translate(1560.884766 0)"/>
     <use xlink:href="#DejaVuSans-20" transform="translate(1592.671875 0)"/>
     <use xlink:href="#DejaVuSans-31" transform="translate(1624.458984 0)"/>
     <use xlink:href="#DejaVuSans-20" transform="translate(1688.082031 0)"/>
     <use xlink:href="#DejaVuSans-3d" transform="translate(1719.869141 0)"/>
     <use xlink:href="#DejaVuSans-20" transform="translate(1803.658203 0)"/>
     <use xlink:href="#DejaVuSans-73" transform="translate(1835.445312 0)"/>
     <use xlink:href="#DejaVuSans-69" transform="translate(1887.544922 0)"/>
     <use xlink:href="#DejaVuSans-67" transform="translate(1915.328125 0)"/>
     <use xlink:href="#DejaVuSans-6e" transform="translate(1978.804688 0)"/>
     <use xlink:href="#DejaVuSans-61" transform="translate(2042.183594 0)"/>
     <use xlink:href="#DejaVuSans-6c" transform="translate(2103.462891 0)"/>
     <use xlink:href="#DejaVuSans-29" transform="translate(2131.246094 0)"/>
    </g>
    <!-- g_i: teacher gate (hard-correct × confidence × teacher-better) -->
    <g style="fill: #1e293b" transform="translate(65.52 413.924406) scale(0.14 -0.14)">
     <defs>
      <path id="DejaVuSans-2d" d="M 313 2009 
L 1997 2009 
L 1997 1497 
L 313 1497 
L 313 2009 
z
" transform="scale(0.015625)"/>
      <path id="DejaVuSans-d7" d="M 4488 3438 
L 3059 2003 
L 4488 575 
L 4116 197 
L 2681 1631 
L 1247 197 
L 878 575 
L 2303 2003 
L 878 3438 
L 1247 3816 
L 2681 2381 
L 4116 3816 
L 4488 3438 
z
" transform="scale(0.015625)"/>
      <path id="DejaVuSans-66" d="M 2375 4863 
L 2375 4384 
L 1825 4384 
Q 1516 4384 1395 4259 
Q 1275 4134 1275 3809 
L 1275 3500 
L 2222 3500 
L 2222 3053 
L 1275 3053 
L 1275 0 
L 697 0 
L 697 3053 
L 147 3053 
L 147 3500 
L 697 3500 
L 697 3744 
Q 697 4328 969 4595 
Q 1241 4863 1831 4863 
L 2375 4863 
z
" transform="scale(0.015625)"/>
     </defs>
     <use xlink:href="#DejaVuSans-67"/>
     <use xlink:href="#DejaVuSans-5f" transform="translate(63.476562 0)"/>
     <use xlink:href="#DejaVuSans-69" transform="translate(113.476562 0)"/>
     <use xlink:href="#DejaVuSans-3a" transform="translate(141.259766 0)"/>
     <use xlink:href="#DejaVuSans-20" transform="translate(174.951172 0)"/>
     <use xlink:href="#DejaVuSans-74" transform="translate(206.738281 0)"/>
     <use xlink:href="#DejaVuSans-65" transform="translate(245.947266 0)"/>
     <use xlink:href="#DejaVuSans-61" transform="translate(307.470703 0)"/>
     <use xlink:href="#DejaVuSans-63" transform="translate(368.75 0)"/>
     <use xlink:href="#DejaVuSans-68" transform="translate(423.730469 0)"/>
     <use xlink:href="#DejaVuSans-65" transform="translate(487.109375 0)"/>
     <use xlink:href="#DejaVuSans-72" transform="translate(548.632812 0)"/>
     <use xlink:href="#DejaVuSans-20" transform="translate(589.746094 0)"/>
     <use xlink:href="#DejaVuSans-67" transform="translate(621.533203 0)"/>
     <use xlink:href="#DejaVuSans-61" transform="translate(685.009766 0)"/>
     <use xlink:href="#DejaVuSans-74" transform="translate(746.289062 0)"/>
     <use xlink:href="#DejaVuSans-65" transform="translate(785.498047 0)"/>
     <use xlink:href="#DejaVuSans-20" transform="translate(847.021484 0)"/>
     <use xlink:href="#DejaVuSans-28" transform="translate(878.808594 0)"/>
     <use xlink:href="#DejaVuSans-68" transform="translate(917.822266 0)"/>
     <use xlink:href="#DejaVuSans-61" transform="translate(981.201172 0)"/>
     <use xlink:href="#DejaVuSans-72" transform="translate(1042.480469 0)"/>
     <use xlink:href="#DejaVuSans-64" transform="translate(1081.84375 0)"/>
     <use xlink:href="#DejaVuSans-2d" transform="translate(1145.320312 0)"/>
     <use xlink:href="#DejaVuSans-63" transform="translate(1181.404297 0)"/>
     <use xlink:href="#DejaVuSans-6f" transform="translate(1236.384766 0)"/>
     <use xlink:href="#DejaVuSans-72" transform="translate(1297.566406 0)"/>
     <use xlink:href="#DejaVuSans-72" transform="translate(1336.929688 0)"/>
     <use xlink:href="#DejaVuSans-65" transform="translate(1375.792969 0)"/>
     <use xlink:href="#DejaVuSans-63" transform="translate(1437.316406 0)"/>
     <use xlink:href="#DejaVuSans-74" transform="translate(1492.296875 0)"/>
     <use xlink:href="#DejaVuSans-20" transform="translate(1531.505859 0)"/>
     <use xlink:href="#DejaVuSans-d7" transform="translate(1563.292969 0)"/>
     <use xlink:href="#DejaVuSans-20" transform="translate(1647.082031 0)"/>
     <use xlink:href="#DejaVuSans-63" transform="translate(1678.869141 0)"/>
     <use xlink:href="#DejaVuSans-6f" transform="translate(1733.849609 0)"/>
     <use xlink:href="#DejaVuSans-6e" transform="translate(1795.03125 0)"/>
     <use xlink:href="#DejaVuSans-66" transform="translate(1858.410156 0)"/>
     <use xlink:href="#DejaVuSans-69" transform="translate(1893.615234 0)"/>
     <use xlink:href="#DejaVuSans-64" transform="translate(1921.398438 0)"/>
     <use xlink:href="#DejaVuSans-65" transform="translate(1984.875 0)"/>
     <use xlink:href="#DejaVuSans-6e" transform="translate(2046.398438 0)"/>
     <use xlink:href="#DejaVuSans-63" transform="translate(2109.777344 0)"/>
     <use xlink:href="#DejaVuSans-65" transform="translate(2164.757812 0)"/>
     <use xlink:href="#DejaVuSans-20" transform="translate(2226.28125 0)"/>
     <use xlink:href="#DejaVuSans-d7" transform="translate(2258.068359 0)"/>
     <use xlink:href="#DejaVuSans-20" transform="translate(2341.857422 0)"/>
     <use xlink:href="#DejaVuSans-74" transform="translate(2373.644531 0)"/>
     <use xlink:href="#DejaVuSans-65" transform="translate(2412.853516 0)"/>
     <use xlink:href="#DejaVuSans-61" transform="translate(2474.376953 0)"/>
     <use xlink:href="#DejaVuSans-63" transform="translate(2535.65625 0)"/>
     <use xlink:href="#DejaVuSans-68" transform="translate(2590.636719 0)"/>
     <use xlink:href="#DejaVuSans-65" transform="translate(2654.015625 0)"/>
     <use xlink:href="#DejaVuSans-72" transform="translate(2715.539062 0)"/>
     <use xlink:href="#DejaVuSans-2d" transform="translate(2750.277344 0)"/>
     <use xlink:href="#DejaVuSans-62" transform="translate(2786.361328 0)"/>
     <use xlink:href="#DejaVuSans-65" transform="translate(2849.837891 0)"/>
     <use xlink:href="#DejaVuSans-74" transform="translate(2911.361328 0)"/>
     <use xlink:href="#DejaVuSans-74" transform="translate(2950.570312 0)"/>
     <use xlink:href="#DejaVuSans-65" transform="translate(2989.779297 0)"/>
     <use xlink:href="#DejaVuSans-72" transform="translate(3051.302734 0)"/>
     <use xlink:href="#DejaVuSans-29" transform="translate(3092.416016 0)"/>
    </g>
    <!-- lambda: discrepancy strength, m: max weight cap -->
    <g style="fill: #1e293b" transform="translate(65.52 431.586391) scale(0.14 -0.14)">
     <use xlink:href="#DejaVuSans-6c"/>
     <use xlink:href="#DejaVuSans-61" transform="translate(27.783203 0)"/>
     <use xlink:href="#DejaVuSans-6d" transform="translate(89.0625 0)"/>
     <use xlink:href="#DejaVuSans-62" transform="translate(186.474609 0)"/>
     <use xlink:href="#DejaVuSans-64" transform="translate(249.951172 0)"/>
     <use xlink:href="#DejaVuSans-61" transform="translate(313.427734 0)"/>
     <use xlink:href="#DejaVuSans-3a" transform="translate(374.707031 0)"/>
     <use xlink:href="#DejaVuSans-20" transform="translate(408.398438 0)"/>
     <use xlink:href="#DejaVuSans-64" transform="translate(440.185547 0)"/>
     <use xlink:href="#DejaVuSans-69" transform="translate(503.662109 0)"/>
     <use xlink:href="#DejaVuSans-73" transform="translate(531.445312 0)"/>
     <use xlink:href="#DejaVuSans-63" transform="translate(583.544922 0)"/>
     <use xlink:href="#DejaVuSans-72" transform="translate(638.525391 0)"/>
     <use xlink:href="#DejaVuSans-65" transform="translate(677.388672 0)"/>
     <use xlink:href="#DejaVuSans-70" transform="translate(738.912109 0)"/>
     <use xlink:href="#DejaVuSans-61" transform="translate(802.388672 0)"/>
     <use xlink:href="#DejaVuSans-6e" transform="translate(863.667969 0)"/>
     <use xlink:href="#DejaVuSans-63" transform="translate(927.046875 0)"/>
     <use xlink:href="#DejaVuSans-79" transform="translate(982.027344 0)"/>
     <use xlink:href="#DejaVuSans-20" transform="translate(1041.207031 0)"/>
     <use xlink:href="#DejaVuSans-73" transform="translate(1072.994141 0)"/>
     <use xlink:href="#DejaVuSans-74" transform="translate(1125.09375 0)"/>
     <use xlink:href="#DejaVuSans-72" transform="translate(1164.302734 0)"/>
     <use xlink:href="#DejaVuSans-65" transform="translate(1203.166016 0)"/>
     <use xlink:href="#DejaVuSans-6e" transform="translate(1264.689453 0)"/>
     <use xlink:href="#DejaVuSans-67" transform="translate(1328.068359 0)"/>
     <use xlink:href="#DejaVuSans-74" transform="translate(1391.544922 0)"/>
     <use xlink:href="#DejaVuSans-68" transform="translate(1430.753906 0)"/>
     <use xlink:href="#DejaVuSans-2c" transform="translate(1494.132812 0)"/>
     <use xlink:href="#DejaVuSans-20" transform="translate(1525.919922 0)"/>
     <use xlink:href="#DejaVuSans-6d" transform="translate(1557.707031 0)"/>
     <use xlink:href="#DejaVuSans-3a" transform="translate(1655.119141 0)"/>
     <use xlink:href="#DejaVuSans-20" transform="translate(1688.810547 0)"/>
     <use xlink:href="#DejaVuSans-6d" transform="translate(1720.597656 0)"/>
     <use xlink:href="#DejaVuSans-61" transform="translate(1818.009766 0)"/>
     <use xlink:href="#DejaVuSans-78" transform="translate(1879.289062 0)"/>
     <use xlink:href="#DejaVuSans-20" transform="translate(1938.46875 0)"/>
     <use xlink:href="#DejaVuSans-77" transform="translate(1970.255859 0)"/>
     <use xlink:href="#DejaVuSans-65" transform="translate(2052.042969 0)"/>
     <use xlink:href="#DejaVuSans-69" transform="translate(2113.566406 0)"/>
     <use xlink:href="#DejaVuSans-67" transform="translate(2141.349609 0)"/>
     <use xlink:href="#DejaVuSans-68" transform="translate(2204.826172 0)"/>
     <use xlink:href="#DejaVuSans-74" transform="translate(2268.205078 0)"/>
     <use xlink:href="#DejaVuSans-20" transform="translate(2307.414062 0)"/>
     <use xlink:href="#DejaVuSans-63" transform="translate(2339.201172 0)"/>
     <use xlink:href="#DejaVuSans-61" transform="translate(2394.181641 0)"/>
     <use xlink:href="#DejaVuSans-70" transform="translate(2455.460938 0)"/>
    </g>
    <!-- ell_i: per-jet loss term (reco loss or BCE) -->
    <g style="fill: #1e293b" transform="translate(65.52 448.859) scale(0.14 -0.14)">
     <defs>
      <path id="DejaVuSans-6a" d="M 603 3500 
L 1178 3500 
L 1178 -63 
Q 1178 -731 923 -1031 
Q 669 -1331 103 -1331 
L -116 -1331 
L -116 -844 
L 38 -844 
Q 366 -844 484 -692 
Q 603 -541 603 -63 
L 603 3500 
z
M 603 4863 
L 1178 4863 
L 1178 4134 
L 603 4134 
L 603 4863 
z
" transform="scale(0.015625)"/>
      <path id="DejaVuSans-42" d="M 1259 2228 
L 1259 519 
L 2272 519 
Q 2781 519 3026 730 
Q 3272 941 3272 1375 
Q 3272 1813 3026 2020 
Q 2781 2228 2272 2228 
L 1259 2228 
z
M 1259 4147 
L 1259 2741 
L 2194 2741 
Q 2656 2741 2882 2914 
Q 3109 3088 3109 3444 
Q 3109 3797 2882 3972 
Q 2656 4147 2194 4147 
L 1259 4147 
z
M 628 4666 
L 2241 4666 
Q 2963 4666 3353 4366 
Q 3744 4066 3744 3513 
Q 3744 3084 3544 2831 
Q 3344 2578 2956 2516 
Q 3422 2416 3680 2098 
Q 3938 1781 3938 1306 
Q 3938 681 3513 340 
Q 3088 0 2303 0 
L 628 0 
L 628 4666 
z
" transform="scale(0.015625)"/>
      <path id="DejaVuSans-43" d="M 4122 4306 
L 4122 3641 
Q 3803 3938 3442 4084 
Q 3081 4231 2675 4231 
Q 1875 4231 1450 3742 
Q 1025 3253 1025 2328 
Q 1025 1406 1450 917 
Q 1875 428 2675 428 
Q 3081 428 3442 575 
Q 3803 722 4122 1019 
L 4122 359 
Q 3791 134 3420 21 
Q 3050 -91 2638 -91 
Q 1578 -91 968 557 
Q 359 1206 359 2328 
Q 359 3453 968 4101 
Q 1578 4750 2638 4750 
Q 3056 4750 3426 4639 
Q 3797 4528 4122 4306 
z
" transform="scale(0.015625)"/>
      <path id="DejaVuSans-45" d="M 628 4666 
L 3578 4666 
L 3578 4134 
L 1259 4134 
L 1259 2753 
L 3481 2753 
L 3481 2222 
L 1259 2222 
L 1259 531 
L 3634 531 
L 3634 0 
L 628 0 
L 628 4666 
z
" transform="scale(0.015625)"/>
     </defs>
     <use xlink:href="#DejaVuSans-65"/>
     <use xlink:href="#DejaVuSans-6c" transform="translate(61.523438 0)"/>
     <use xlink:href="#DejaVuSans-6c" transform="translate(89.306641 0)"/>
     <use xlink:href="#DejaVuSans-5f" transform="translate(117.089844 0)"/>
     <use xlink:href="#DejaVuSans-69" transform="translate(167.089844 0)"/>
     <use xlink:href="#DejaVuSans-3a" transform="translate(194.873047 0)"/>
     <use xlink:href="#DejaVuSans-20" transform="translate(228.564453 0)"/>
     <use xlink:href="#DejaVuSans-70" transform="translate(260.351562 0)"/>
     <use xlink:href="#DejaVuSans-65" transform="translate(323.828125 0)"/>
     <use xlink:href="#DejaVuSans-72" transform="translate(385.351562 0)"/>
     <use xlink:href="#DejaVuSans-2d" transform="translate(420.089844 0)"/>
     <use xlink:href="#DejaVuSans-6a" transform="translate(456.173828 0)"/>
     <use xlink:href="#DejaVuSans-65" transform="translate(483.957031 0)"/>
     <use xlink:href="#DejaVuSans-74" transform="translate(545.480469 0)"/>
     <use xlink:href="#DejaVuSans-20" transform="translate(584.689453 0)"/>
     <use xlink:href="#DejaVuSans-6c" transform="translate(616.476562 0)"/>
     <use xlink:href="#DejaVuSans-6f" transform="translate(644.259766 0)"/>
     <use xlink:href="#DejaVuSans-73" transform="translate(705.441406 0)"/>
     <use xlink:href="#DejaVuSans-73" transform="translate(757.541016 0)"/>
     <use xlink:href="#DejaVuSans-20" transform="translate(809.640625 0)"/>
     <use xlink:href="#DejaVuSans-74" transform="translate(841.427734 0)"/>
     <use xlink:href="#DejaVuSans-65" transform="translate(880.636719 0)"/>
     <use xlink:href="#DejaVuSans-72" transform="translate(942.160156 0)"/>
     <use xlink:href="#DejaVuSans-6d" transform="translate(981.523438 0)"/>
     <use xlink:href="#DejaVuSans-20" transform="translate(1078.935547 0)"/>
     <use xlink:href="#DejaVuSans-28" transform="translate(1110.722656 0)"/>
     <use xlink:href="#DejaVuSans-72" transform="translate(1149.736328 0)"/>
     <use xlink:href="#DejaVuSans-65" transform="translate(1188.599609 0)"/>
     <use xlink:href="#DejaVuSans-63" transform="translate(1250.123047 0)"/>
     <use xlink:href="#DejaVuSans-6f" transform="translate(1305.103516 0)"/>
     <use xlink:href="#DejaVuSans-20" transform="translate(1366.285156 0)"/>
     <use xlink:href="#DejaVuSans-6c" transform="translate(1398.072266 0)"/>
     <use xlink:href="#DejaVuSans-6f" transform="translate(1425.855469 0)"/>
     <use xlink:href="#DejaVuSans-73" transform="translate(1487.037109 0)"/>
     <use xlink:href="#DejaVuSans-73" transform="translate(1539.136719 0)"/>
     <use xlink:href="#DejaVuSans-20" transform="translate(1591.236328 0)"/>
     <use xlink:href="#DejaVuSans-6f" transform="translate(1623.023438 0)"/>
     <use xlink:href="#DejaVuSans-72" transform="translate(1684.205078 0)"/>
     <use xlink:href="#DejaVuSans-20" transform="translate(1725.318359 0)"/>
     <use xlink:href="#DejaVuSans-42" transform="translate(1757.105469 0)"/>
     <use xlink:href="#DejaVuSans-43" transform="translate(1823.958984 0)"/>
     <use xlink:href="#DejaVuSans-45" transform="translate(1893.783203 0)"/>
     <use xlink:href="#DejaVuSans-29" transform="translate(1956.966797 0)"/>
    </g>
    <!--  -->
    <g style="fill: #1e293b" transform="translate(65.52 466.520984) scale(0.14 -0.14)"/>
    <!-- Effect: -->
    <g style="fill: #1e293b" transform="translate(65.52 483.793594) scale(0.14 -0.14)">
     <use xlink:href="#DejaVuSans-45"/>
     <use xlink:href="#DejaVuSans-66" transform="translate(63.183594 0)"/>
     <use xlink:href="#DejaVuSans-66" transform="translate(98.388672 0)"/>
     <use xlink:href="#DejaVuSans-65" transform="translate(133.59375 0)"/>
     <use xlink:href="#DejaVuSans-63" transform="translate(195.117188 0)"/>
     <use xlink:href="#DejaVuSans-74" transform="translate(250.097656 0)"/>
     <use xlink:href="#DejaVuSans-3a" transform="translate(289.306641 0)"/>
    </g>
    <!-- Jets where HLT is more signal-like than teacher (especially negatives) get larger weight. -->
    <g style="fill: #1e293b" transform="translate(65.52 501.066203) scale(0.14 -0.14)">
     <defs>
      <path id="DejaVuSans-4a" d="M 628 4666 
L 1259 4666 
L 1259 325 
Q 1259 -519 939 -900 
Q 619 -1281 -91 -1281 
L -331 -1281 
L -331 -750 
L -134 -750 
Q 284 -750 456 -515 
Q 628 -281 628 325 
L 628 4666 
z
" transform="scale(0.015625)"/>
      <path id="DejaVuSans-76" d="M 191 3500 
L 800 3500 
L 1894 563 
L 2988 3500 
L 3597 3500 
L 2284 0 
L 1503 0 
L 191 3500 
z
" transform="scale(0.015625)"/>
      <path id="DejaVuSans-2e" d="M 684 794 
L 1344 794 
L 1344 0 
L 684 0 
L 684 794 
z
" transform="scale(0.015625)"/>
     </defs>
     <use xlink:href="#DejaVuSans-4a"/>
     <use xlink:href="#DejaVuSans-65" transform="translate(29.492188 0)"/>
     <use xlink:href="#DejaVuSans-74" transform="translate(91.015625 0)"/>
     <use xlink:href="#DejaVuSans-73" transform="translate(130.224609 0)"/>
     <use xlink:href="#DejaVuSans-20" transform="translate(182.324219 0)"/>
     <use xlink:href="#DejaVuSans-77" transform="translate(214.111328 0)"/>
     <use xlink:href="#DejaVuSans-68" transform="translate(295.898438 0)"/>
     <use xlink:href="#DejaVuSans-65" transform="translate(359.277344 0)"/>
     <use xlink:href="#DejaVuSans-72" transform="translate(420.800781 0)"/>
     <use xlink:href="#DejaVuSans-65" transform="translate(459.664062 0)"/>
     <use xlink:href="#DejaVuSans-20" transform="translate(521.1875 0)"/>
     <use xlink:href="#DejaVuSans-48" transform="translate(552.974609 0)"/>
     <use xlink:href="#DejaVuSans-4c" transform="translate(628.169922 0)"/>
     <use xlink:href="#DejaVuSans-54" transform="translate(670.132812 0)"/>
     <use xlink:href="#DejaVuSans-20" transform="translate(731.216797 0)"/>
     <use xlink:href="#DejaVuSans-69" transform="translate(763.003906 0)"/>
     <use xlink:href="#DejaVuSans-73" transform="translate(790.787109 0)"/>
     <use xlink:href="#DejaVuSans-20" transform="translate(842.886719 0)"/>
     <use xlink:href="#DejaVuSans-6d" transform="translate(874.673828 0)"/>
     <use xlink:href="#DejaVuSans-6f" transform="translate(972.085938 0)"/>
     <use xlink:href="#DejaVuSans-72" transform="translate(1033.267578 0)"/>
     <use xlink:href="#DejaVuSans-65" transform="translate(1072.130859 0)"/>
     <use xlink:href="#DejaVuSans-20" transform="translate(1133.654297 0)"/>
     <use xlink:href="#DejaVuSans-73" transform="translate(1165.441406 0)"/>
     <use xlink:href="#DejaVuSans-69" transform="translate(1217.541016 0)"/>
     <use xlink:href="#DejaVuSans-67" transform="translate(1245.324219 0)"/>
     <use xlink:href="#DejaVuSans-6e" transform="translate(1308.800781 0)"/>
     <use xlink:href="#DejaVuSans-61" transform="translate(1372.179688 0)"/>
     <use xlink:href="#DejaVuSans-6c" transform="translate(1433.458984 0)"/>
     <use xlink:href="#DejaVuSans-2d" transform="translate(1461.242188 0)"/>
     <use xlink:href="#DejaVuSans-6c" transform="translate(1497.326172 0)"/>
     <use xlink:href="#DejaVuSans-69" transform="translate(1525.109375 0)"/>
     <use xlink:href="#DejaVuSans-6b" transform="translate(1552.892578 0)"/>
     <use xlink:href="#DejaVuSans-65" transform="translate(1607.177734 0)"/>
     <use xlink:href="#DejaVuSans-20" transform="translate(1668.701172 0)"/>
     <use xlink:href="#DejaVuSans-74" transform="translate(1700.488281 0)"/>
     <use xlink:href="#DejaVuSans-68" transform="translate(1739.697266 0)"/>
     <use xlink:href="#DejaVuSans-61" transform="translate(1803.076172 0)"/>
     <use xlink:href="#DejaVuSans-6e" transform="translate(1864.355469 0)"/>
     <use xlink:href="#DejaVuSans-20" transform="translate(1927.734375 0)"/>
     <use xlink:href="#DejaVuSans-74" transform="translate(1959.521484 0)"/>
     <use xlink:href="#DejaVuSans-65" transform="translate(1998.730469 0)"/>
     <use xlink:href="#DejaVuSans-61" transform="translate(2060.253906 0)"/>
     <use xlink:href="#DejaVuSans-63" transform="translate(2121.533203 0)"/>
     <use xlink:href="#DejaVuSans-68" transform="translate(2176.513672 0)"/>
     <use xlink:href="#DejaVuSans-65" transform="translate(2239.892578 0)"/>
     <use xlink:href="#DejaVuSans-72" transform="translate(2301.416016 0)"/>
     <use xlink:href="#DejaVuSans-20" transform="translate(2342.529297 0)"/>
     <use xlink:href="#DejaVuSans-28" transform="translate(2374.316406 0)"/>
     <use xlink:href="#DejaVuSans-65" transform="translate(2413.330078 0)"/>
     <use xlink:href="#DejaVuSans-73" transform="translate(2474.853516 0)"/>
     <use xlink:href="#DejaVuSans-70" transform="translate(2526.953125 0)"/>
     <use xlink:href="#DejaVuSans-65" transform="translate(2590.429688 0)"/>
     <use xlink:href="#DejaVuSans-63" transform="translate(2651.953125 0)"/>
     <use xlink:href="#DejaVuSans-69" transform="translate(2706.933594 0)"/>
     <use xlink:href="#DejaVuSans-61" transform="translate(2734.716797 0)"/>
     <use xlink:href="#DejaVuSans-6c" transform="translate(2795.996094 0)"/>
     <use xlink:href="#DejaVuSans-6c" transform="translate(2823.779297 0)"/>
     <use xlink:href="#DejaVuSans-79" transform="translate(2851.5625 0)"/>
     <use xlink:href="#DejaVuSans-20" transform="translate(2910.742188 0)"/>
     <use xlink:href="#DejaVuSans-6e" transform="translate(2942.529297 0)"/>
     <use xlink:href="#DejaVuSans-65" transform="translate(3005.908203 0)"/>
     <use xlink:href="#DejaVuSans-67" transform="translate(3067.431641 0)"/>
     <use xlink:href="#DejaVuSans-61" transform="translate(3130.908203 0)"/>
     <use xlink:href="#DejaVuSans-74" transform="translate(3192.1875 0)"/>
     <use xlink:href="#DejaVuSans-69" transform="translate(3231.396484 0)"/>
     <use xlink:href="#DejaVuSans-76" transform="translate(3259.179688 0)"/>
     <use xlink:href="#DejaVuSans-65" transform="translate(3318.359375 0)"/>
     <use xlink:href="#DejaVuSans-73" transform="translate(3379.882812 0)"/>
     <use xlink:href="#DejaVuSans-29" transform="translate(3431.982422 0)"/>
     <use xlink:href="#DejaVuSans-20" transform="translate(3470.996094 0)"/>
     <use xlink:href="#DejaVuSans-67" transform="translate(3502.783203 0)"/>
     <use xlink:href="#DejaVuSans-65" transform="translate(3566.259766 0)"/>
     <use xlink:href="#DejaVuSans-74" transform="translate(3627.783203 0)"/>
     <use xlink:href="#DejaVuSans-20" transform="translate(3666.992188 0)"/>
     <use xlink:href="#DejaVuSans-6c" transform="translate(3698.779297 0)"/>
     <use xlink:href="#DejaVuSans-61" transform="translate(3726.5625 0)"/>
     <use xlink:href="#DejaVuSans-72" transform="translate(3787.841797 0)"/>
     <use xlink:href="#DejaVuSans-67" transform="translate(3827.205078 0)"/>
     <use xlink:href="#DejaVuSans-65" transform="translate(3890.681641 0)"/>
     <use xlink:href="#DejaVuSans-72" transform="translate(3952.205078 0)"/>
     <use xlink:href="#DejaVuSans-20" transform="translate(3993.318359 0)"/>
     <use xlink:href="#DejaVuSans-77" transform="translate(4025.105469 0)"/>
     <use xlink:href="#DejaVuSans-65" transform="translate(4106.892578 0)"/>
     <use xlink:href="#DejaVuSans-69" transform="translate(4168.416016 0)"/>
     <use xlink:href="#DejaVuSans-67" transform="translate(4196.199219 0)"/>
     <use xlink:href="#DejaVuSans-68" transform="translate(4259.675781 0)"/>
     <use xlink:href="#DejaVuSans-74" transform="translate(4323.054688 0)"/>
     <use xlink:href="#DejaVuSans-2e" transform="translate(4362.263672 0)"/>
    </g>
    <!-- Mean-normalization keeps average weight near 1, so it re-distributes emphasis rather than just scaling total loss. -->
    <g style="fill: #1e293b" transform="translate(65.52 518.338812) scale(0.14 -0.14)">
     <defs>
      <path id="DejaVuSans-4d" d="M 628 4666 
L 1569 4666 
L 2759 1491 
L 3956 4666 
L 4897 4666 
L 4897 0 
L 4281 0 
L 4281 4097 
L 3078 897 
L 2444 897 
L 1241 4097 
L 1241 0 
L 628 0 
L 628 4666 
z
" transform="scale(0.015625)"/>
      <path id="DejaVuSans-7a" d="M 353 3500 
L 3084 3500 
L 3084 2975 
L 922 459 
L 3084 459 
L 3084 0 
L 275 0 
L 275 525 
L 2438 3041 
L 353 3041 
L 353 3500 
z
" transform="scale(0.015625)"/>
     </defs>
     <use xlink:href="#DejaVuSans-4d"/>
     <use xlink:href="#DejaVuSans-65" transform="translate(86.279297 0)"/>
     <use xlink:href="#DejaVuSans-61" transform="translate(147.802734 0)"/>
     <use xlink:href="#DejaVuSans-6e" transform="translate(209.082031 0)"/>
     <use xlink:href="#DejaVuSans-2d" transform="translate(272.460938 0)"/>
     <use xlink:href="#DejaVuSans-6e" transform="translate(308.544922 0)"/>
     <use xlink:href="#DejaVuSans-6f" transform="translate(371.923828 0)"/>
     <use xlink:href="#DejaVuSans-72" transform="translate(433.105469 0)"/>
     <use xlink:href="#DejaVuSans-6d" transform="translate(472.46875 0)"/>
     <use xlink:href="#DejaVuSans-61" transform="translate(569.880859 0)"/>
     <use xlink:href="#DejaVuSans-6c" transform="translate(631.160156 0)"/>
     <use xlink:href="#DejaVuSans-69" transform="translate(658.943359 0)"/>
     <use xlink:href="#DejaVuSans-7a" transform="translate(686.726562 0)"/>
     <use xlink:href="#DejaVuSans-61" transform="translate(739.216797 0)"/>
     <use xlink:href="#DejaVuSans-74" transform="translate(800.496094 0)"/>
     <use xlink:href="#DejaVuSans-69" transform="translate(839.705078 0)"/>
     <use xlink:href="#DejaVuSans-6f" transform="translate(867.488281 0)"/>
     <use xlink:href="#DejaVuSans-6e" transform="translate(928.669922 0)"/>
     <use xlink:href="#DejaVuSans-20" transform="translate(992.048828 0)"/>
     <use xlink:href="#DejaVuSans-6b" transform="translate(1023.835938 0)"/>
     <use xlink:href="#DejaVuSans-65" transform="translate(1078.121094 0)"/>
     <use xlink:href="#DejaVuSans-65" transform="translate(1139.644531 0)"/>
     <use xlink:href="#DejaVuSans-70" transform="translate(1201.167969 0)"/>
     <use xlink:href="#DejaVuSans-73" transform="translate(1264.644531 0)"/>
     <use xlink:href="#DejaVuSans-20" transform="translate(1316.744141 0)"/>
     <use xlink:href="#DejaVuSans-61" transform="translate(1348.53125 0)"/>
     <use xlink:href="#DejaVuSans-76" transform="translate(1409.810547 0)"/>
     <use xlink:href="#DejaVuSans-65" transform="translate(1468.990234 0)"/>
     <use xlink:href="#DejaVuSans-72" transform="translate(1530.513672 0)"/>
     <use xlink:href="#DejaVuSans-61" transform="translate(1571.626953 0)"/>
     <use xlink:href="#DejaVuSans-67" transform="translate(1632.90625 0)"/>
     <use xlink:href="#DejaVuSans-65" transform="translate(1696.382812 0)"/>
     <use xlink:href="#DejaVuSans-20" transform="translate(1757.90625 0)"/>
     <use xlink:href="#DejaVuSans-77" transform="translate(1789.693359 0)"/>
     <use xlink:href="#DejaVuSans-65" transform="translate(1871.480469 0)"/>
     <use xlink:href="#DejaVuSans-69" transform="translate(1933.003906 0)"/>
     <use xlink:href="#DejaVuSans-67" transform="translate(1960.787109 0)"/>
     <use xlink:href="#DejaVuSans-68" transform="translate(2024.263672 0)"/>
     <use xlink:href="#DejaVuSans-74" transform="translate(2087.642578 0)"/>
     <use xlink:href="#DejaVuSans-20" transform="translate(2126.851562 0)"/>
     <use xlink:href="#DejaVuSans-6e" transform="translate(2158.638672 0)"/>
     <use xlink:href="#DejaVuSans-65" transform="translate(2222.017578 0)"/>
     <use xlink:href="#DejaVuSans-61" transform="translate(2283.541016 0)"/>
     <use xlink:href="#DejaVuSans-72" transform="translate(2344.820312 0)"/>
     <use xlink:href="#DejaVuSans-20" transform="translate(2385.933594 0)"/>
     <use xlink:href="#DejaVuSans-31" transform="translate(2417.720703 0)"/>
     <use xlink:href="#DejaVuSans-2c" transform="translate(2481.34375 0)"/>
     <use xlink:href="#DejaVuSans-20" transform="translate(2513.130859 0)"/>
     <use xlink:href="#DejaVuSans-73" transform="translate(2544.917969 0)"/>
     <use xlink:href="#DejaVuSans-6f" transform="translate(2597.017578 0)"/>
     <use xlink:href="#DejaVuSans-20" transform="translate(2658.199219 0)"/>
     <use xlink:href="#DejaVuSans-69" transform="translate(2689.986328 0)"/>
     <use xlink:href="#DejaVuSans-74" transform="translate(2717.769531 0)"/>
     <use xlink:href="#DejaVuSans-20" transform="translate(2756.978516 0)"/>
     <use xlink:href="#DejaVuSans-72" transform="translate(2788.765625 0)"/>
     <use xlink:href="#DejaVuSans-65" transform="translate(2827.628906 0)"/>
     <use xlink:href="#DejaVuSans-2d" transform="translate(2889.152344 0)"/>
     <use xlink:href="#DejaVuSans-64" transform="translate(2925.236328 0)"/>
     <use xlink:href="#DejaVuSans-69" transform="translate(2988.712891 0)"/>
     <use xlink:href="#DejaVuSans-73" transform="translate(3016.496094 0)"/>
     <use xlink:href="#DejaVuSans-74" transform="translate(3068.595703 0)"/>
     <use xlink:href="#DejaVuSans-72" transform="translate(3107.804688 0)"/>
     <use xlink:href="#DejaVuSans-69" transform="translate(3148.917969 0)"/>
     <use xlink:href="#DejaVuSans-62" transform="translate(3176.701172 0)"/>
     <use xlink:href="#DejaVuSans-75" transform="translate(3240.177734 0)"/>
     <use xlink:href="#DejaVuSans-74" transform="translate(3303.556641 0)"/>
     <use xlink:href="#DejaVuSans-65" transform="translate(3342.765625 0)"/>
     <use xlink:href="#DejaVuSans-73" transform="translate(3404.289062 0)"/>
     <use xlink:href="#DejaVuSans-20" transform="translate(3456.388672 0)"/>
     <use xlink:href="#DejaVuSans-65" transform="translate(3488.175781 0)"/>
     <use xlink:href="#DejaVuSans-6d" transform="translate(3549.699219 0)"/>
     <use xlink:href="#DejaVuSans-70" transform="translate(3647.111328 0)"/>
     <use xlink:href="#DejaVuSans-68" transform="translate(3710.587891 0)"/>
     <use xlink:href="#DejaVuSans-61" transform="translate(3773.966797 0)"/>
     <use xlink:href="#DejaVuSans-73" transform="translate(3835.246094 0)"/>
     <use xlink:href="#DejaVuSans-69" transform="translate(3887.345703 0)"/>
     <use xlink:href="#DejaVuSans-73" transform="translate(3915.128906 0)"/>
     <use xlink:href="#DejaVuSans-20" transform="translate(3967.228516 0)"/>
     <use xlink:href="#DejaVuSans-72" transform="translate(3999.015625 0)"/>
     <use xlink:href="#DejaVuSans-61" transform="translate(4040.128906 0)"/>
     <use xlink:href="#DejaVuSans-74" transform="translate(4101.408203 0)"/>
     <use xlink:href="#DejaVuSans-68" transform="translate(4140.617188 0)"/>
     <use xlink:href="#DejaVuSans-65" transform="translate(4203.996094 0)"/>
     <use xlink:href="#DejaVuSans-72" transform="translate(4265.519531 0)"/>
     <use xlink:href="#DejaVuSans-20" transform="translate(4306.632812 0)"/>
     <use xlink:href="#DejaVuSans-74" transform="translate(4338.419922 0)"/>
     <use xlink:href="#DejaVuSans-68" transform="translate(4377.628906 0)"/>
     <use xlink:href="#DejaVuSans-61" transform="translate(4441.007812 0)"/>
     <use xlink:href="#DejaVuSans-6e" transform="translate(4502.287109 0)"/>
     <use xlink:href="#DejaVuSans-20" transform="translate(4565.666016 0)"/>
     <use xlink:href="#DejaVuSans-6a" transform="translate(4597.453125 0)"/>
     <use xlink:href="#DejaVuSans-75" transform="translate(4625.236328 0)"/>
     <use xlink:href="#DejaVuSans-73" transform="translate(4688.615234 0)"/>
     <use xlink:href="#DejaVuSans-74" transform="translate(4740.714844 0)"/>
     <use xlink:href="#DejaVuSans-20" transform="translate(4779.923828 0)"/>
     <use xlink:href="#DejaVuSans-73" transform="translate(4811.710938 0)"/>
     <use xlink:href="#DejaVuSans-63" transform="translate(4863.810547 0)"/>
     <use xlink:href="#DejaVuSans-61" transform="translate(4918.791016 0)"/>
     <use xlink:href="#DejaVuSans-6c" transform="translate(4980.070312 0)"/>
     <use xlink:href="#DejaVuSans-69" transform="translate(5007.853516 0)"/>
     <use xlink:href="#DejaVuSans-6e" transform="translate(5035.636719 0)"/>
     <use xlink:href="#DejaVuSans-67" transform="translate(5099.015625 0)"/>
     <use xlink:href="#DejaVuSans-20" transform="translate(5162.492188 0)"/>
     <use xlink:href="#DejaVuSans-74" transform="translate(5194.279297 0)"/>
     <use xlink:href="#DejaVuSans-6f" transform="translate(5233.488281 0)"/>
     <use xlink:href="#DejaVuSans-74" transform="translate(5294.669922 0)"/>
     <use xlink:href="#DejaVuSans-61" transform="translate(5333.878906 0)"/>
     <use xlink:href="#DejaVuSans-6c" transform="translate(5395.158203 0)"/>
     <use xlink:href="#DejaVuSans-20" transform="translate(5422.941406 0)"/>
     <use xlink:href="#DejaVuSans-6c" transform="translate(5454.728516 0)"/>
     <use xlink:href="#DejaVuSans-6f" transform="translate(5482.511719 0)"/>
     <use xlink:href="#DejaVuSans-73" transform="translate(5543.693359 0)"/>
     <use xlink:href="#DejaVuSans-73" transform="translate(5595.792969 0)"/>
     <use xlink:href="#DejaVuSans-2e" transform="translate(5647.892578 0)"/>
    </g>
   </g>
   <g id="text_6">
    <!-- This runner defaults: reco (lambda=6, max=8), cls (lambda=2, max=3), target_tpr=0.50, tau=0.05, mean-normalize ON, include_pos OFF. -->
    <g style="fill: #334155" transform="translate(65.52 503.706047) scale(0.125 -0.125)">
     <defs>
      <path id="DejaVuSans-36" d="M 2113 2584 
Q 1688 2584 1439 2293 
Q 1191 2003 1191 1497 
Q 1191 994 1439 701 
Q 1688 409 2113 409 
Q 2538 409 2786 701 
Q 3034 994 3034 1497 
Q 3034 2003 2786 2293 
Q 2538 2584 2113 2584 
z
M 3366 4563 
L 3366 3988 
Q 3128 4100 2886 4159 
Q 2644 4219 2406 4219 
Q 1781 4219 1451 3797 
Q 1122 3375 1075 2522 
Q 1259 2794 1537 2939 
Q 1816 3084 2150 3084 
Q 2853 3084 3261 2657 
Q 3669 2231 3669 1497 
Q 3669 778 3244 343 
Q 2819 -91 2113 -91 
Q 1303 -91 875 529 
Q 447 1150 447 2328 
Q 447 3434 972 4092 
Q 1497 4750 2381 4750 
Q 2619 4750 2861 4703 
Q 3103 4656 3366 4563 
z
" transform="scale(0.015625)"/>
      <path id="DejaVuSans-38" d="M 2034 2216 
Q 1584 2216 1326 1975 
Q 1069 1734 1069 1313 
Q 1069 891 1326 650 
Q 1584 409 2034 409 
Q 2484 409 2743 651 
Q 3003 894 3003 1313 
Q 3003 1734 2745 1975 
Q 2488 2216 2034 2216 
z
M 1403 2484 
Q 997 2584 770 2862 
Q 544 3141 544 3541 
Q 544 4100 942 4425 
Q 1341 4750 2034 4750 
Q 2731 4750 3128 4425 
Q 3525 4100 3525 3541 
Q 3525 3141 3298 2862 
Q 3072 2584 2669 2484 
Q 3125 2378 3379 2068 
Q 3634 1759 3634 1313 
Q 3634 634 3220 271 
Q 2806 -91 2034 -91 
Q 1263 -91 848 271 
Q 434 634 434 1313 
Q 434 1759 690 2068 
Q 947 2378 1403 2484 
z
M 1172 3481 
Q 1172 3119 1398 2916 
Q 1625 2713 2034 2713 
Q 2441 2713 2670 2916 
Q 2900 3119 2900 3481 
Q 2900 3844 2670 4047 
Q 2441 4250 2034 4250 
Q 1625 4250 1398 4047 
Q 1172 3844 1172 3481 
z
" transform="scale(0.015625)"/>
      <path id="DejaVuSans-32" d="M 1228 531 
L 3431 531 
L 3431 0 
L 469 0 
L 469 531 
Q 828 903 1448 1529 
Q 2069 2156 2228 2338 
Q 2531 2678 2651 2914 
Q 2772 3150 2772 3378 
Q 2772 3750 2511 3984 
Q 2250 4219 1831 4219 
Q 1534 4219 1204 4116 
Q 875 4013 500 3803 
L 500 4441 
Q 881 4594 1212 4672 
Q 1544 4750 1819 4750 
Q 2544 4750 2975 4387 
Q 3406 4025 3406 3419 
Q 3406 3131 3298 2873 
Q 3191 2616 2906 2266 
Q 2828 2175 2409 1742 
Q 1991 1309 1228 531 
z
" transform="scale(0.015625)"/>
      <path id="DejaVuSans-33" d="M 2597 2516 
Q 3050 2419 3304 2112 
Q 3559 1806 3559 1356 
Q 3559 666 3084 287 
Q 2609 -91 1734 -91 
Q 1441 -91 1130 -33 
Q 819 25 488 141 
L 488 750 
Q 750 597 1062 519 
Q 1375 441 1716 441 
Q 2309 441 2620 675 
Q 2931 909 2931 1356 
Q 2931 1769 2642 2001 
Q 2353 2234 1838 2234 
L 1294 2234 
L 1294 2753 
L 1863 2753 
Q 2328 2753 2575 2939 
Q 2822 3125 2822 3475 
Q 2822 3834 2567 4026 
Q 2313 4219 1838 4219 
Q 1578 4219 1281 4162 
Q 984 4106 628 3988 
L 628 4550 
Q 988 4650 1302 4700 
Q 1616 4750 1894 4750 
Q 2613 4750 3031 4423 
Q 3450 4097 3450 3541 
Q 3450 3153 3228 2886 
Q 3006 2619 2597 2516 
z
" transform="scale(0.015625)"/>
      <path id="DejaVuSans-35" d="M 691 4666 
L 3169 4666 
L 3169 4134 
L 1269 4134 
L 1269 2991 
Q 1406 3038 1543 3061 
Q 1681 3084 1819 3084 
Q 2600 3084 3056 2656 
Q 3513 2228 3513 1497 
Q 3513 744 3044 326 
Q 2575 -91 1722 -91 
Q 1428 -91 1123 -41 
Q 819 9 494 109 
L 494 744 
Q 775 591 1075 516 
Q 1375 441 1709 441 
Q 2250 441 2565 725 
Q 2881 1009 2881 1497 
Q 2881 1984 2565 2268 
Q 2250 2553 1709 2553 
Q 1456 2553 1204 2497 
Q 953 2441 691 2322 
L 691 4666 
z
" transform="scale(0.015625)"/>
      <path id="DejaVuSans-4f" d="M 2522 4238 
Q 1834 4238 1429 3725 
Q 1025 3213 1025 2328 
Q 1025 1447 1429 934 
Q 1834 422 2522 422 
Q 3209 422 3611 934 
Q 4013 1447 4013 2328 
Q 4013 3213 3611 3725 
Q 3209 4238 2522 4238 
z
M 2522 4750 
Q 3503 4750 4090 4092 
Q 4678 3434 4678 2328 
Q 4678 1225 4090 567 
Q 3503 -91 2522 -91 
Q 1538 -91 948 565 
Q 359 1222 359 2328 
Q 359 3434 948 4092 
Q 1538 4750 2522 4750 
z
" transform="scale(0.015625)"/>
      <path id="DejaVuSans-4e" d="M 628 4666 
L 1478 4666 
L 3547 763 
L 3547 4666 
L 4159 4666 
L 4159 0 
L 3309 0 
L 1241 3903 
L 1241 0 
L 628 0 
L 628 4666 
z
" transform="scale(0.015625)"/>
      <path id="DejaVuSans-46" d="M 628 4666 
L 3309 4666 
L 3309 4134 
L 1259 4134 
L 1259 2759 
L 3109 2759 
L 3109 2228 
L 1259 2228 
L 1259 0 
L 628 0 
L 628 4666 
z
" transform="scale(0.015625)"/>
     </defs>
     <use xlink:href="#DejaVuSans-54"/>
     <use xlink:href="#DejaVuSans-68" transform="translate(61.083984 0)"/>
     <use xlink:href="#DejaVuSans-69" transform="translate(124.462891 0)"/>
     <use xlink:href="#DejaVuSans-73" transform="translate(152.246094 0)"/>
     <use xlink:href="#DejaVuSans-20" transform="translate(204.345703 0)"/>
     <use xlink:href="#DejaVuSans-72" transform="translate(236.132812 0)"/>
     <use xlink:href="#DejaVuSans-75" transform="translate(277.246094 0)"/>
     <use xlink:href="#DejaVuSans-6e" transform="translate(340.625 0)"/>
     <use xlink:href="#DejaVuSans-6e" transform="translate(404.003906 0)"/>
     <use xlink:href="#DejaVuSans-65" transform="translate(467.382812 0)"/>
     <use xlink:href="#DejaVuSans-72" transform="translate(528.90625 0)"/>
     <use xlink:href="#DejaVuSans-20" transform="translate(570.019531 0)"/>
     <use xlink:href="#DejaVuSans-64" transform="translate(601.806641 0)"/>
     <use xlink:href="#DejaVuSans-65" transform="translate(665.283203 0)"/>
     <use xlink:href="#DejaVuSans-66" transform="translate(726.806641 0)"/>
     <use xlink:href="#DejaVuSans-61" transform="translate(762.011719 0)"/>
     <use xlink:href="#DejaVuSans-75" transform="translate(823.291016 0)"/>
     <use xlink:href="#DejaVuSans-6c" transform="translate(886.669922 0)"/>
     <use xlink:href="#DejaVuSans-74" transform="translate(914.453125 0)"/>
     <use xlink:href="#DejaVuSans-73" transform="translate(953.662109 0)"/>
     <use xlink:href="#DejaVuSans-3a" transform="translate(1005.761719 0)"/>
     <use xlink:href="#DejaVuSans-20" transform="translate(1039.453125 0)"/>
     <use xlink:href="#DejaVuSans-72" transform="translate(1071.240234 0)"/>
     <use xlink:href="#DejaVuSans-65" transform="translate(1110.103516 0)"/>
     <use xlink:href="#DejaVuSans-63" transform="translate(1171.626953 0)"/>
     <use xlink:href="#DejaVuSans-6f" transform="translate(1226.607422 0)"/>
     <use xlink:href="#DejaVuSans-20" transform="translate(1287.789062 0)"/>
     <use xlink:href="#DejaVuSans-28" transform="translate(1319.576172 0)"/>
     <use xlink:href="#DejaVuSans-6c" transform="translate(1358.589844 0)"/>
     <use xlink:href="#DejaVuSans-61" transform="translate(1386.373047 0)"/>
     <use xlink:href="#DejaVuSans-6d" transform="translate(1447.652344 0)"/>
     <use xlink:href="#DejaVuSans-62" transform="translate(1545.064453 0)"/>
     <use xlink:href="#DejaVuSans-64" transform="translate(1608.541016 0)"/>
     <use xlink:href="#DejaVuSans-61" transform="translate(1672.017578 0)"/>
     <use xlink:href="#DejaVuSans-3d" transform="translate(1733.296875 0)"/>
     <use xlink:href="#DejaVuSans-36" transform="translate(1817.085938 0)"/>
     <use xlink:href="#DejaVuSans-2c" transform="translate(1880.708984 0)"/>
     <use xlink:href="#DejaVuSans-20" transform="translate(1912.496094 0)"/>
     <use xlink:href="#DejaVuSans-6d" transform="translate(1944.283203 0)"/>
     <use xlink:href="#DejaVuSans-61" transform="translate(2041.695312 0)"/>
     <use xlink:href="#DejaVuSans-78" transform="translate(2102.974609 0)"/>
     <use xlink:href="#DejaVuSans-3d" transform="translate(2162.154297 0)"/>
     <use xlink:href="#DejaVuSans-38" transform="translate(2245.943359 0)"/>
     <use xlink:href="#DejaVuSans-29" transform="translate(2309.566406 0)"/>
     <use xlink:href="#DejaVuSans-2c" transform="translate(2348.580078 0)"/>
     <use xlink:href="#DejaVuSans-20" transform="translate(2380.367188 0)"/>
     <use xlink:href="#DejaVuSans-63" transform="translate(2412.154297 0)"/>
     <use xlink:href="#DejaVuSans-6c" transform="translate(2467.134766 0)"/>
     <use xlink:href="#DejaVuSans-73" transform="translate(2494.917969 0)"/>
     <use xlink:href="#DejaVuSans-20" transform="translate(2547.017578 0)"/>
     <use xlink:href="#DejaVuSans-28" transform="translate(2578.804688 0)"/>
     <use xlink:href="#DejaVuSans-6c" transform="translate(2617.818359 0)"/>
     <use xlink:href="#DejaVuSans-61" transform="translate(2645.601562 0)"/>
     <use xlink:href="#DejaVuSans-6d" transform="translate(2706.880859 0)"/>
     <use xlink:href="#DejaVuSans-62" transform="translate(2804.292969 0)"/>
     <use xlink:href="#DejaVuSans-64" transform="translate(2867.769531 0)"/>
     <use xlink:href="#DejaVuSans-61" transform="translate(2931.246094 0)"/>
     <use xlink:href="#DejaVuSans-3d" transform="translate(2992.525391 0)"/>
     <use xlink:href="#DejaVuSans-32" transform="translate(3076.314453 0)"/>
     <use xlink:href="#DejaVuSans-2c" transform="translate(3139.9375 0)"/>
     <use xlink:href="#DejaVuSans-20" transform="translate(3171.724609 0)"/>
     <use xlink:href="#DejaVuSans-6d" transform="translate(3203.511719 0)"/>
     <use xlink:href="#DejaVuSans-61" transform="translate(3300.923828 0)"/>
     <use xlink:href="#DejaVuSans-78" transform="translate(3362.203125 0)"/>
     <use xlink:href="#DejaVuSans-3d" transform="translate(3421.382812 0)"/>
     <use xlink:href="#DejaVuSans-33" transform="translate(3505.171875 0)"/>
     <use xlink:href="#DejaVuSans-29" transform="translate(3568.794922 0)"/>
     <use xlink:href="#DejaVuSans-2c" transform="translate(3607.808594 0)"/>
     <use xlink:href="#DejaVuSans-20" transform="translate(3639.595703 0)"/>
     <use xlink:href="#DejaVuSans-74" transform="translate(3671.382812 0)"/>
     <use xlink:href="#DejaVuSans-61" transform="translate(3710.591797 0)"/>
     <use xlink:href="#DejaVuSans-72" transform="translate(3771.871094 0)"/>
     <use xlink:href="#DejaVuSans-67" transform="translate(3811.234375 0)"/>
     <use xlink:href="#DejaVuSans-65" transform="translate(3874.710938 0)"/>
     <use xlink:href="#DejaVuSans-74" transform="translate(3936.234375 0)"/>
     <use xlink:href="#DejaVuSans-5f" transform="translate(3975.443359 0)"/>
     <use xlink:href="#DejaVuSans-74" transform="translate(4025.443359 0)"/>
     <use xlink:href="#DejaVuSans-70" transform="translate(4064.652344 0)"/>
     <use xlink:href="#DejaVuSans-72" transform="translate(4128.128906 0)"/>
     <use xlink:href="#DejaVuSans-3d" transform="translate(4169.242188 0)"/>
     <use xlink:href="#DejaVuSans-30" transform="translate(4253.03125 0)"/>
     <use xlink:href="#DejaVuSans-2e" transform="translate(4316.654297 0)"/>
     <use xlink:href="#DejaVuSans-35" transform="translate(4348.441406 0)"/>
     <use xlink:href="#DejaVuSans-30" transform="translate(4412.064453 0)"/>
     <use xlink:href="#DejaVuSans-2c" transform="translate(4475.6875 0)"/>
     <use xlink:href="#DejaVuSans-20" transform="translate(4507.474609 0)"/>
     <use xlink:href="#DejaVuSans-74" transform="translate(4539.261719 0)"/>
     <use xlink:href="#DejaVuSans-61" transform="translate(4578.470703 0)"/>
     <use xlink:href="#DejaVuSans-75" transform="translate(4639.75 0)"/>
     <use xlink:href="#DejaVuSans-3d" transform="translate(4703.128906 0)"/>
     <use xlink:href="#DejaVuSans-30" transform="translate(4786.917969 0)"/>
     <use xlink:href="#DejaVuSans-2e" transform="translate(4850.541016 0)"/>
     <use xlink:href="#DejaVuSans-30" transform="translate(4882.328125 0)"/>
     <use xlink:href="#DejaVuSans-35" transform="translate(4945.951172 0)"/>
     <use xlink:href="#DejaVuSans-2c" transform="translate(5009.574219 0)"/>
     <use xlink:href="#DejaVuSans-20" transform="translate(5041.361328 0)"/>
     <use xlink:href="#DejaVuSans-6d" transform="translate(5073.148438 0)"/>
     <use xlink:href="#DejaVuSans-65" transform="translate(5170.560547 0)"/>
     <use xlink:href="#DejaVuSans-61" transform="translate(5232.083984 0)"/>
     <use xlink:href="#DejaVuSans-6e" transform="translate(5293.363281 0)"/>
     <use xlink:href="#DejaVuSans-2d" transform="translate(5356.742188 0)"/>
     <use xlink:href="#DejaVuSans-6e" transform="translate(5392.826172 0)"/>
     <use xlink:href="#DejaVuSans-6f" transform="translate(5456.205078 0)"/>
     <use xlink:href="#DejaVuSans-72" transform="translate(5517.386719 0)"/>
     <use xlink:href="#DejaVuSans-6d" transform="translate(5556.75 0)"/>
     <use xlink:href="#DejaVuSans-61" transform="translate(5654.162109 0)"/>
     <use xlink:href="#DejaVuSans-6c" transform="translate(5715.441406 0)"/>
     <use xlink:href="#DejaVuSans-69" transform="translate(5743.224609 0)"/>
     <use xlink:href="#DejaVuSans-7a" transform="translate(5771.007812 0)"/>
     <use xlink:href="#DejaVuSans-65" transform="translate(5823.498047 0)"/>
     <use xlink:href="#DejaVuSans-20" transform="translate(5885.021484 0)"/>
     <use xlink:href="#DejaVuSans-4f" transform="translate(5916.808594 0)"/>
     <use xlink:href="#DejaVuSans-4e" transform="translate(5995.519531 0)"/>
     <use xlink:href="#DejaVuSans-2c" transform="translate(6070.324219 0)"/>
     <use xlink:href="#DejaVuSans-20" transform="translate(6102.111328 0)"/>
     <use xlink:href="#DejaVuSans-69" transform="translate(6133.898438 0)"/>
     <use xlink:href="#DejaVuSans-6e" transform="translate(6161.681641 0)"/>
     <use xlink:href="#DejaVuSans-63" transform="translate(6225.060547 0)"/>
     <use xlink:href="#DejaVuSans-6c" transform="translate(6280.041016 0)"/>
     <use xlink:href="#DejaVuSans-75" transform="translate(6307.824219 0)"/>
     <use xlink:href="#DejaVuSans-64" transform="translate(6371.203125 0)"/>
     <use xlink:href="#DejaVuSans-65" transform="translate(6434.679688 0)"/>
     <use xlink:href="#DejaVuSans-5f" transform="translate(6496.203125 0)"/>
     <use xlink:href="#DejaVuSans-70" transform="translate(6546.203125 0)"/>
     <use xlink:href="#DejaVuSans-6f" transform="translate(6609.679688 0)"/>
     <use xlink:href="#DejaVuSans-73" transform="translate(6670.861328 0)"/>
     <use xlink:href="#DejaVuSans-20" transform="translate(6722.960938 0)"/>
     <use xlink:href="#DejaVuSans-4f" transform="translate(6754.748047 0)"/>
     <use xlink:href="#DejaVuSans-46" transform="translate(6833.458984 0)"/>
     <use xlink:href="#DejaVuSans-46" transform="translate(6890.978516 0)"/>
     <use xlink:href="#DejaVuSans-2e" transform="translate(6932.373047 0)"/>
    </g>
   </g>
  </g>
 </g>
 <defs>
  <clipPath id="p26520111c5">
   <rect x="7.2" y="7.2" width="972" height="547.2"/>
  </clipPath>
 </defs>
</svg>
