<?xml version="1.0" encoding="utf-8" standalone="no"?>
<!DOCTYPE svg PUBLIC "-//W3C//DTD SVG 1.1//EN"
  "http://www.w3.org/Graphics/SVG/1.1/DTD/svg11.dtd">
<svg xmlns:xlink="http://www.w3.org/1999/xlink" width="1008pt" height="576pt" viewBox="0 0 1008 576" xmlns="http://www.w3.org/2000/svg" version="1.1">
 <metadata>
  <rdf:RDF xmlns:dc="http://purl.org/dc/elements/1.1/" xmlns:cc="http://creativecommons.org/ns#" xmlns:rdf="http://www.w3.org/1999/02/22-rdf-syntax-ns#">
   <cc:Work>
    <dc:type rdf:resource="http://purl.org/dc/dcmitype/StillImage"/>
    <dc:date>2026-04-01T02:30:56.325037</dc:date>
    <dc:format>image/svg+xml</dc:format>
    <dc:creator>
     <cc:Agent>
      <dc:title>Matplotlib v3.10.3, https://matplotlib.org/</dc:title>
     </cc:Agent>
    </dc:creator>
   </cc:Work>
  </rdf:RDF>
 </metadata>
 <defs>
  <style type="text/css">*{stroke-linejoin: round; stroke-linecap: butt}</style>
 </defs>
 <g id="figure_1">
  <g id="patch_1">
   <path d="M 0 576 
L 1008 576 
L 1008 0 
L 0 0 
z
" style="fill: #f8fafc"/>
  </g>
  <g id="axes_1">
   <g id="patch_2">
    <path d="M 64.8288 261.0432 
L 317.2032 261.0432 
Q 337.0752 261.0432 337.0752 249.8112 
L 337.0752 95.9328 
Q 337.0752 84.7008 317.2032 84.7008 
L 64.8288 84.7008 
Q 44.9568 84.7008 44.9568 95.9328 
L 44.9568 249.8112 
Q 44.9568 261.0432 64.8288 261.0432 
z
" clip-path="url(#p44e3559447)" style="fill: #e0f2fe; stroke: #1f2937; stroke-width: 1.5; stroke-linejoin: miter"/>
   </g>
   <g id="patch_3">
    <path d="M 382.7808 261.0432 
L 635.1552 261.0432 
Q 655.0272 261.0432 655.0272 249.8112 
L 655.0272 95.9328 
Q 655.0272 84.7008 635.1552 84.7008 
L 382.7808 84.7008 
Q 362.9088 84.7008 362.9088 95.9328 
L 362.9088 249.8112 
Q 362.9088 261.0432 382.7808 261.0432 
z
" clip-path="url(#p44e3559447)" style="fill: #dcfce7; stroke: #1f2937; stroke-width: 1.5; stroke-linejoin: miter"/>
   </g>
   <g id="patch_4">
    <path d="M 700.7328 261.0432 
L 943.1712 261.0432 
Q 963.0432 261.0432 963.0432 249.8112 
L 963.0432 95.9328 
Q 963.0432 84.7008 943.1712 84.7008 
L 700.7328 84.7008 
Q 680.8608 84.7008 680.8608 95.9328 
L 680.8608 249.8112 
Q 680.8608 261.0432 700.7328 261.0432 
z
" clip-path="url(#p44e3559447)" style="fill: #ede9fe; stroke: #1f2937; stroke-width: 1.5; stroke-linejoin: miter"/>
   </g>
   <g id="patch_5">
    <path d="M 327.150237 175.68 
Q 349.991443 175.68 370.820188 175.68 
" clip-path="url(#p44e3559447)" style="fill: none; stroke: #334155; stroke-width: 1.8; stroke-linecap: round"/>
    <path d="M 366.020188 173.28 
L 370.820188 175.68 
L 366.020188 178.08 
z
" clip-path="url(#p44e3559447)" style="fill: #334155; stroke: #334155; stroke-width: 1.8; stroke-linecap: round"/>
   </g>
   <g id="patch_6">
    <path d="M 645.102237 175.68 
Q 667.943443 175.68 688.772188 175.68 
" clip-path="url(#p44e3559447)" style="fill: none; stroke: #334155; stroke-width: 1.8; stroke-linecap: round"/>
    <path d="M 683.972188 173.28 
L 688.772188 175.68 
L 683.972188 178.08 
z
" clip-path="url(#p44e3559447)" style="fill: #334155; stroke: #334155; stroke-width: 1.8; stroke-linecap: round"/>
   </g>
   <g id="patch_7">
    <path d="M 74.7648 502.5312 
L 456.3072 502.5312 
Q 476.1792 502.5312 476.1792 491.2992 
L 476.1792 348.6528 
Q 476.1792 337.4208 456.3072 337.4208 
L 74.7648 337.4208 
Q 54.8928 337.4208 54.8928 348.6528 
L 54.8928 491.2992 
Q 54.8928 502.5312 74.7648 502.5312 
z
" clip-path="url(#p44e3559447)" style="fill: #fee2e2; stroke: #1f2937; stroke-width: 1.5; stroke-linejoin: miter"/>
   </g>
   <g id="patch_8">
    <path d="M 531.8208 502.5312 
L 933.2352 502.5312 
Q 953.1072 502.5312 953.1072 491.2992 
L 953.1072 348.6528 
Q 953.1072 337.4208 933.2352 337.4208 
L 531.8208 337.4208 
Q 511.9488 337.4208 511.9488 348.6528 
L 511.9488 491.2992 
Q 511.9488 502.5312 531.8208 502.5312 
z
" clip-path="url(#p44e3559447)" style="fill: #dcfce7; stroke: #1f2937; stroke-width: 1.5; stroke-linejoin: miter"/>
   </g>
   <g id="text_1">
    <!-- Slide 2: Soft View Represents Ambiguity -->
    <g style="fill: #0b1220" transform="translate(37.008 51.236719) scale(0.21 -0.21)">
     <defs>
      <path id="DejaVuSans-Bold-53" d="M 3834 4519 
L 3834 3531 
Q 3450 3703 3084 3790 
Q 2719 3878 2394 3878 
Q 1963 3878 1756 3759 
Q 1550 3641 1550 3391 
Q 1550 3203 1689 3098 
Q 1828 2994 2194 2919 
L 2706 2816 
Q 3484 2659 3812 2340 
Q 4141 2022 4141 1434 
Q 4141 663 3683 286 
Q 3225 -91 2284 -91 
Q 1841 -91 1394 -6 
Q 947 78 500 244 
L 500 1259 
Q 947 1022 1364 901 
Q 1781 781 2169 781 
Q 2563 781 2772 912 
Q 2981 1044 2981 1288 
Q 2981 1506 2839 1625 
Q 2697 1744 2272 1838 
L 1806 1941 
Q 1106 2091 782 2419 
Q 459 2747 459 3303 
Q 459 4000 909 4375 
Q 1359 4750 2203 4750 
Q 2588 4750 2994 4692 
Q 3400 4634 3834 4519 
z
" transform="scale(0.015625)"/>
      <path id="DejaVuSans-Bold-6c" d="M 538 4863 
L 1656 4863 
L 1656 0 
L 538 0 
L 538 4863 
z
" transform="scale(0.015625)"/>
      <path id="DejaVuSans-Bold-69" d="M 538 3500 
L 1656 3500 
L 1656 0 
L 538 0 
L 538 3500 
z
M 538 4863 
L 1656 4863 
L 1656 3950 
L 538 3950 
L 538 4863 
z
" transform="scale(0.015625)"/>
      <path id="DejaVuSans-Bold-64" d="M 2919 2988 
L 2919 4863 
L 4044 4863 
L 4044 0 
L 2919 0 
L 2919 506 
Q 2688 197 2409 53 
Q 2131 -91 1766 -91 
Q 1119 -91 703 423 
Q 288 938 288 1747 
Q 288 2556 703 3070 
Q 1119 3584 1766 3584 
Q 2128 3584 2408 3439 
Q 2688 3294 2919 2988 
z
M 2181 722 
Q 2541 722 2730 984 
Q 2919 1247 2919 1747 
Q 2919 2247 2730 2509 
Q 2541 2772 2181 2772 
Q 1825 2772 1636 2509 
Q 1447 2247 1447 1747 
Q 1447 1247 1636 984 
Q 1825 722 2181 722 
z
" transform="scale(0.015625)"/>
      <path id="DejaVuSans-Bold-65" d="M 4031 1759 
L 4031 1441 
L 1416 1441 
Q 1456 1047 1700 850 
Q 1944 653 2381 653 
Q 2734 653 3104 758 
Q 3475 863 3866 1075 
L 3866 213 
Q 3469 63 3072 -14 
Q 2675 -91 2278 -91 
Q 1328 -91 801 392 
Q 275 875 275 1747 
Q 275 2603 792 3093 
Q 1309 3584 2216 3584 
Q 3041 3584 3536 3087 
Q 4031 2591 4031 1759 
z
M 2881 2131 
Q 2881 2450 2695 2645 
Q 2509 2841 2209 2841 
Q 1884 2841 1681 2658 
Q 1478 2475 1428 2131 
L 2881 2131 
z
" transform="scale(0.015625)"/>
      <path id="DejaVuSans-Bold-20" transform="scale(0.015625)"/>
      <path id="DejaVuSans-Bold-32" d="M 1844 884 
L 3897 884 
L 3897 0 
L 506 0 
L 506 884 
L 2209 2388 
Q 2438 2594 2547 2791 
Q 2656 2988 2656 3200 
Q 2656 3528 2436 3728 
Q 2216 3928 1850 3928 
Q 1569 3928 1234 3808 
Q 900 3688 519 3450 
L 519 4475 
Q 925 4609 1322 4679 
Q 1719 4750 2100 4750 
Q 2938 4750 3402 4381 
Q 3866 4013 3866 3353 
Q 3866 2972 3669 2642 
Q 3472 2313 2841 1759 
L 1844 884 
z
" transform="scale(0.015625)"/>
      <path id="DejaVuSans-Bold-3a" d="M 716 3500 
L 1844 3500 
L 1844 2291 
L 716 2291 
L 716 3500 
z
M 716 1209 
L 1844 1209 
L 1844 0 
L 716 0 
L 716 1209 
z
" transform="scale(0.015625)"/>
      <path id="DejaVuSans-Bold-6f" d="M 2203 2784 
Q 1831 2784 1636 2517 
Q 1441 2250 1441 1747 
Q 1441 1244 1636 976 
Q 1831 709 2203 709 
Q 2569 709 2762 976 
Q 2956 1244 2956 1747 
Q 2956 2250 2762 2517 
Q 2569 2784 2203 2784 
z
M 2203 3584 
Q 3106 3584 3614 3096 
Q 4122 2609 4122 1747 
Q 4122 884 3614 396 
Q 3106 -91 2203 -91 
Q 1297 -91 786 396 
Q 275 884 275 1747 
Q 275 2609 786 3096 
Q 1297 3584 2203 3584 
z
" transform="scale(0.015625)"/>
      <path id="DejaVuSans-Bold-66" d="M 2841 4863 
L 2841 4128 
L 2222 4128 
Q 1984 4128 1890 4042 
Q 1797 3956 1797 3744 
L 1797 3500 
L 2753 3500 
L 2753 2700 
L 1797 2700 
L 1797 0 
L 678 0 
L 678 2700 
L 122 2700 
L 122 3500 
L 678 3500 
L 678 3744 
Q 678 4316 997 4589 
Q 1316 4863 1984 4863 
L 2841 4863 
z
" transform="scale(0.015625)"/>
      <path id="DejaVuSans-Bold-74" d="M 1759 4494 
L 1759 3500 
L 2913 3500 
L 2913 2700 
L 1759 2700 
L 1759 1216 
Q 1759 972 1856 886 
Q 1953 800 2241 800 
L 2816 800 
L 2816 0 
L 1856 0 
Q 1194 0 917 276 
Q 641 553 641 1216 
L 641 2700 
L 84 2700 
L 84 3500 
L 641 3500 
L 641 4494 
L 1759 4494 
z
" transform="scale(0.015625)"/>
      <path id="DejaVuSans-Bold-56" d="M 31 4666 
L 1241 4666 
L 2478 1222 
L 3713 4666 
L 4922 4666 
L 3194 0 
L 1759 0 
L 31 4666 
z
" transform="scale(0.015625)"/>
      <path id="DejaVuSans-Bold-77" d="M 225 3500 
L 1313 3500 
L 1900 1088 
L 2491 3500 
L 3425 3500 
L 4013 1113 
L 4603 3500 
L 5691 3500 
L 4769 0 
L 3547 0 
L 2956 2406 
L 2369 0 
L 1147 0 
L 225 3500 
z
" transform="scale(0.015625)"/>
      <path id="DejaVuSans-Bold-52" d="M 2297 2597 
Q 2675 2597 2839 2737 
Q 3003 2878 3003 3200 
Q 3003 3519 2839 3656 
Q 2675 3794 2297 3794 
L 1791 3794 
L 1791 2597 
L 2297 2597 
z
M 1791 1766 
L 1791 0 
L 588 0 
L 588 4666 
L 2425 4666 
Q 3347 4666 3776 4356 
Q 4206 4047 4206 3378 
Q 4206 2916 3982 2619 
Q 3759 2322 3309 2181 
Q 3556 2125 3751 1926 
Q 3947 1728 4147 1325 
L 4800 0 
L 3519 0 
L 2950 1159 
Q 2778 1509 2601 1637 
Q 2425 1766 2131 1766 
L 1791 1766 
z
" transform="scale(0.015625)"/>
      <path id="DejaVuSans-Bold-70" d="M 1656 506 
L 1656 -1331 
L 538 -1331 
L 538 3500 
L 1656 3500 
L 1656 2988 
Q 1888 3294 2169 3439 
Q 2450 3584 2816 3584 
Q 3463 3584 3878 3070 
Q 4294 2556 4294 1747 
Q 4294 938 3878 423 
Q 3463 -91 2816 -91 
Q 2450 -91 2169 54 
Q 1888 200 1656 506 
z
M 2400 2772 
Q 2041 2772 1848 2508 
Q 1656 2244 1656 1747 
Q 1656 1250 1848 986 
Q 2041 722 2400 722 
Q 2759 722 2948 984 
Q 3138 1247 3138 1747 
Q 3138 2247 2948 2509 
Q 2759 2772 2400 2772 
z
" transform="scale(0.015625)"/>
      <path id="DejaVuSans-Bold-72" d="M 3138 2547 
Q 2991 2616 2845 2648 
Q 2700 2681 2553 2681 
Q 2122 2681 1889 2404 
Q 1656 2128 1656 1613 
L 1656 0 
L 538 0 
L 538 3500 
L 1656 3500 
L 1656 2925 
Q 1872 3269 2151 3426 
Q 2431 3584 2822 3584 
Q 2878 3584 2943 3579 
Q 3009 3575 3134 3559 
L 3138 2547 
z
" transform="scale(0.015625)"/>
      <path id="DejaVuSans-Bold-73" d="M 3272 3391 
L 3272 2541 
Q 2913 2691 2578 2766 
Q 2244 2841 1947 2841 
Q 1628 2841 1473 2761 
Q 1319 2681 1319 2516 
Q 1319 2381 1436 2309 
Q 1553 2238 1856 2203 
L 2053 2175 
Q 2913 2066 3209 1816 
Q 3506 1566 3506 1031 
Q 3506 472 3093 190 
Q 2681 -91 1863 -91 
Q 1516 -91 1145 -36 
Q 775 19 384 128 
L 384 978 
Q 719 816 1070 734 
Q 1422 653 1784 653 
Q 2113 653 2278 743 
Q 2444 834 2444 1013 
Q 2444 1163 2330 1236 
Q 2216 1309 1875 1350 
L 1678 1375 
Q 931 1469 631 1722 
Q 331 1975 331 2491 
Q 331 3047 712 3315 
Q 1094 3584 1881 3584 
Q 2191 3584 2531 3537 
Q 2872 3491 3272 3391 
z
" transform="scale(0.015625)"/>
      <path id="DejaVuSans-Bold-6e" d="M 4056 2131 
L 4056 0 
L 2931 0 
L 2931 347 
L 2931 1631 
Q 2931 2084 2911 2256 
Q 2891 2428 2841 2509 
Q 2775 2619 2662 2680 
Q 2550 2741 2406 2741 
Q 2056 2741 1856 2470 
Q 1656 2200 1656 1722 
L 1656 0 
L 538 0 
L 538 3500 
L 1656 3500 
L 1656 2988 
Q 1909 3294 2193 3439 
Q 2478 3584 2822 3584 
Q 3428 3584 3742 3212 
Q 4056 2841 4056 2131 
z
" transform="scale(0.015625)"/>
      <path id="DejaVuSans-Bold-41" d="M 3419 850 
L 1538 850 
L 1241 0 
L 31 0 
L 1759 4666 
L 3194 4666 
L 4922 0 
L 3713 0 
L 3419 850 
z
M 1838 1716 
L 3116 1716 
L 2478 3572 
L 1838 1716 
z
" transform="scale(0.015625)"/>
      <path id="DejaVuSans-Bold-6d" d="M 3781 2919 
Q 3994 3244 4286 3414 
Q 4578 3584 4928 3584 
Q 5531 3584 5847 3212 
Q 6163 2841 6163 2131 
L 6163 0 
L 5038 0 
L 5038 1825 
Q 5041 1866 5042 1909 
Q 5044 1953 5044 2034 
Q 5044 2406 4934 2573 
Q 4825 2741 4581 2741 
Q 4263 2741 4089 2478 
Q 3916 2216 3909 1719 
L 3909 0 
L 2784 0 
L 2784 1825 
Q 2784 2406 2684 2573 
Q 2584 2741 2328 2741 
Q 2006 2741 1831 2477 
Q 1656 2213 1656 1722 
L 1656 0 
L 531 0 
L 531 3500 
L 1656 3500 
L 1656 2988 
Q 1863 3284 2130 3434 
Q 2397 3584 2719 3584 
Q 3081 3584 3359 3409 
Q 3638 3234 3781 2919 
z
" transform="scale(0.015625)"/>
      <path id="DejaVuSans-Bold-62" d="M 2400 722 
Q 2759 722 2948 984 
Q 3138 1247 3138 1747 
Q 3138 2247 2948 2509 
Q 2759 2772 2400 2772 
Q 2041 2772 1848 2508 
Q 1656 2244 1656 1747 
Q 1656 1250 1848 986 
Q 2041 722 2400 722 
z
M 1656 2988 
Q 1888 3294 2169 3439 
Q 2450 3584 2816 3584 
Q 3463 3584 3878 3070 
Q 4294 2556 4294 1747 
Q 4294 938 3878 423 
Q 3463 -91 2816 -91 
Q 2450 -91 2169 54 
Q 1888 200 1656 506 
L 1656 0 
L 538 0 
L 538 4863 
L 1656 4863 
L 1656 2988 
z
" transform="scale(0.015625)"/>
      <path id="DejaVuSans-Bold-67" d="M 2919 594 
Q 2688 288 2409 144 
Q 2131 0 1766 0 
Q 1125 0 706 504 
Q 288 1009 288 1791 
Q 288 2575 706 3076 
Q 1125 3578 1766 3578 
Q 2131 3578 2409 3434 
Q 2688 3291 2919 2981 
L 2919 3500 
L 4044 3500 
L 4044 353 
Q 4044 -491 3511 -936 
Q 2978 -1381 1966 -1381 
Q 1638 -1381 1331 -1331 
Q 1025 -1281 716 -1178 
L 716 -306 
Q 1009 -475 1290 -558 
Q 1572 -641 1856 -641 
Q 2406 -641 2662 -400 
Q 2919 -159 2919 353 
L 2919 594 
z
M 2181 2772 
Q 1834 2772 1640 2515 
Q 1447 2259 1447 1791 
Q 1447 1309 1634 1061 
Q 1822 813 2181 813 
Q 2531 813 2725 1069 
Q 2919 1325 2919 1791 
Q 2919 2259 2725 2515 
Q 2531 2772 2181 2772 
z
" transform="scale(0.015625)"/>
      <path id="DejaVuSans-Bold-75" d="M 500 1363 
L 500 3500 
L 1625 3500 
L 1625 3150 
Q 1625 2866 1622 2436 
Q 1619 2006 1619 1863 
Q 1619 1441 1641 1255 
Q 1663 1069 1716 984 
Q 1784 875 1895 815 
Q 2006 756 2150 756 
Q 2500 756 2700 1025 
Q 2900 1294 2900 1772 
L 2900 3500 
L 4019 3500 
L 4019 0 
L 2900 0 
L 2900 506 
Q 2647 200 2364 54 
Q 2081 -91 1741 -91 
Q 1134 -91 817 281 
Q 500 653 500 1363 
z
" transform="scale(0.015625)"/>
      <path id="DejaVuSans-Bold-79" d="M 78 3500 
L 1197 3500 
L 2138 1125 
L 2938 3500 
L 4056 3500 
L 2584 -331 
Q 2363 -916 2067 -1148 
Q 1772 -1381 1288 -1381 
L 641 -1381 
L 641 -647 
L 991 -647 
Q 1275 -647 1404 -556 
Q 1534 -466 1606 -231 
L 1638 -134 
L 78 3500 
z
" transform="scale(0.015625)"/>
     </defs>
     <use xlink:href="#DejaVuSans-Bold-53"/>
     <use xlink:href="#DejaVuSans-Bold-6c" transform="translate(72.021484 0)"/>
     <use xlink:href="#DejaVuSans-Bold-69" transform="translate(106.298828 0)"/>
     <use xlink:href="#DejaVuSans-Bold-64" transform="translate(140.576172 0)"/>
     <use xlink:href="#DejaVuSans-Bold-65" transform="translate(212.158203 0)"/>
     <use xlink:href="#DejaVuSans-Bold-20" transform="translate(279.980469 0)"/>
     <use xlink:href="#DejaVuSans-Bold-32" transform="translate(314.794922 0)"/>
     <use xlink:href="#DejaVuSans-Bold-3a" transform="translate(384.375 0)"/>
     <use xlink:href="#DejaVuSans-Bold-20" transform="translate(424.365234 0)"/>
     <use xlink:href="#DejaVuSans-Bold-53" transform="translate(459.179688 0)"/>
     <use xlink:href="#DejaVuSans-Bold-6f" transform="translate(531.201172 0)"/>
     <use xlink:href="#DejaVuSans-Bold-66" transform="translate(599.902344 0)"/>
     <use xlink:href="#DejaVuSans-Bold-74" transform="translate(643.408203 0)"/>
     <use xlink:href="#DejaVuSans-Bold-20" transform="translate(691.210938 0)"/>
     <use xlink:href="#DejaVuSans-Bold-56" transform="translate(726.025391 0)"/>
     <use xlink:href="#DejaVuSans-Bold-69" transform="translate(801.667969 0)"/>
     <use xlink:href="#DejaVuSans-Bold-65" transform="translate(835.945312 0)"/>
     <use xlink:href="#DejaVuSans-Bold-77" transform="translate(903.767578 0)"/>
     <use xlink:href="#DejaVuSans-Bold-20" transform="translate(996.150391 0)"/>
     <use xlink:href="#DejaVuSans-Bold-52" transform="translate(1030.964844 0)"/>
     <use xlink:href="#DejaVuSans-Bold-65" transform="translate(1107.966797 0)"/>
     <use xlink:href="#DejaVuSans-Bold-70" transform="translate(1175.789062 0)"/>
     <use xlink:href="#DejaVuSans-Bold-72" transform="translate(1247.371094 0)"/>
     <use xlink:href="#DejaVuSans-Bold-65" transform="translate(1296.6875 0)"/>
     <use xlink:href="#DejaVuSans-Bold-73" transform="translate(1364.509766 0)"/>
     <use xlink:href="#DejaVuSans-Bold-65" transform="translate(1424.03125 0)"/>
     <use xlink:href="#DejaVuSans-Bold-6e" transform="translate(1491.853516 0)"/>
     <use xlink:href="#DejaVuSans-Bold-74" transform="translate(1563.044922 0)"/>
     <use xlink:href="#DejaVuSans-Bold-73" transform="translate(1610.847656 0)"/>
     <use xlink:href="#DejaVuSans-Bold-20" transform="translate(1670.369141 0)"/>
     <use xlink:href="#DejaVuSans-Bold-41" transform="translate(1705.183594 0)"/>
     <use xlink:href="#DejaVuSans-Bold-6d" transform="translate(1782.576172 0)"/>
     <use xlink:href="#DejaVuSans-Bold-62" transform="translate(1886.775391 0)"/>
     <use xlink:href="#DejaVuSans-Bold-69" transform="translate(1958.357422 0)"/>
     <use xlink:href="#DejaVuSans-Bold-67" transform="translate(1992.634766 0)"/>
     <use xlink:href="#DejaVuSans-Bold-75" transform="translate(2064.216797 0)"/>
     <use xlink:href="#DejaVuSans-Bold-69" transform="translate(2135.408203 0)"/>
     <use xlink:href="#DejaVuSans-Bold-74" transform="translate(2169.685547 0)"/>
     <use xlink:href="#DejaVuSans-Bold-79" transform="translate(2217.488281 0)"/>
    </g>
   </g>
   <g id="text_2">
    <!-- Reconstructor predicts weighted candidate constituents; soft corrected view keeps uncertainty instead of collapsing it. -->
    <g style="fill: #334155" transform="translate(37.008 68.910281) scale(0.11 -0.11)">
     <defs>
      <path id="DejaVuSans-52" d="M 2841 2188 
Q 3044 2119 3236 1894 
Q 3428 1669 3622 1275 
L 4263 0 
L 3584 0 
L 2988 1197 
Q 2756 1666 2539 1819 
Q 2322 1972 1947 1972 
L 1259 1972 
L 1259 0 
L 628 0 
L 628 4666 
L 2053 4666 
Q 2853 4666 3247 4331 
Q 3641 3997 3641 3322 
Q 3641 2881 3436 2590 
Q 3231 2300 2841 2188 
z
M 1259 4147 
L 1259 2491 
L 2053 2491 
Q 2509 2491 2742 2702 
Q 2975 2913 2975 3322 
Q 2975 3731 2742 3939 
Q 2509 4147 2053 4147 
L 1259 4147 
z
" transform="scale(0.015625)"/>
      <path id="DejaVuSans-65" d="M 3597 1894 
L 3597 1613 
L 953 1613 
Q 991 1019 1311 708 
Q 1631 397 2203 397 
Q 2534 397 2845 478 
Q 3156 559 3463 722 
L 3463 178 
Q 3153 47 2828 -22 
Q 2503 -91 2169 -91 
Q 1331 -91 842 396 
Q 353 884 353 1716 
Q 353 2575 817 3079 
Q 1281 3584 2069 3584 
Q 2775 3584 3186 3129 
Q 3597 2675 3597 1894 
z
M 3022 2063 
Q 3016 2534 2758 2815 
Q 2500 3097 2075 3097 
Q 1594 3097 1305 2825 
Q 1016 2553 972 2059 
L 3022 2063 
z
" transform="scale(0.015625)"/>
      <path id="DejaVuSans-63" d="M 3122 3366 
L 3122 2828 
Q 2878 2963 2633 3030 
Q 2388 3097 2138 3097 
Q 1578 3097 1268 2742 
Q 959 2388 959 1747 
Q 959 1106 1268 751 
Q 1578 397 2138 397 
Q 2388 397 2633 464 
Q 2878 531 3122 666 
L 3122 134 
Q 2881 22 2623 -34 
Q 2366 -91 2075 -91 
Q 1284 -91 818 406 
Q 353 903 353 1747 
Q 353 2603 823 3093 
Q 1294 3584 2113 3584 
Q 2378 3584 2631 3529 
Q 2884 3475 3122 3366 
z
" transform="scale(0.015625)"/>
      <path id="DejaVuSans-6f" d="M 1959 3097 
Q 1497 3097 1228 2736 
Q 959 2375 959 1747 
Q 959 1119 1226 758 
Q 1494 397 1959 397 
Q 2419 397 2687 759 
Q 2956 1122 2956 1747 
Q 2956 2369 2687 2733 
Q 2419 3097 1959 3097 
z
M 1959 3584 
Q 2709 3584 3137 3096 
Q 3566 2609 3566 1747 
Q 3566 888 3137 398 
Q 2709 -91 1959 -91 
Q 1206 -91 779 398 
Q 353 888 353 1747 
Q 353 2609 779 3096 
Q 1206 3584 1959 3584 
z
" transform="scale(0.015625)"/>
      <path id="DejaVuSans-6e" d="M 3513 2113 
L 3513 0 
L 2938 0 
L 2938 2094 
Q 2938 2591 2744 2837 
Q 2550 3084 2163 3084 
Q 1697 3084 1428 2787 
Q 1159 2491 1159 1978 
L 1159 0 
L 581 0 
L 581 3500 
L 1159 3500 
L 1159 2956 
Q 1366 3272 1645 3428 
Q 1925 3584 2291 3584 
Q 2894 3584 3203 3211 
Q 3513 2838 3513 2113 
z
" transform="scale(0.015625)"/>
      <path id="DejaVuSans-73" d="M 2834 3397 
L 2834 2853 
Q 2591 2978 2328 3040 
Q 2066 3103 1784 3103 
Q 1356 3103 1142 2972 
Q 928 2841 928 2578 
Q 928 2378 1081 2264 
Q 1234 2150 1697 2047 
L 1894 2003 
Q 2506 1872 2764 1633 
Q 3022 1394 3022 966 
Q 3022 478 2636 193 
Q 2250 -91 1575 -91 
Q 1294 -91 989 -36 
Q 684 19 347 128 
L 347 722 
Q 666 556 975 473 
Q 1284 391 1588 391 
Q 1994 391 2212 530 
Q 2431 669 2431 922 
Q 2431 1156 2273 1281 
Q 2116 1406 1581 1522 
L 1381 1569 
Q 847 1681 609 1914 
Q 372 2147 372 2553 
Q 372 3047 722 3315 
Q 1072 3584 1716 3584 
Q 2034 3584 2315 3537 
Q 2597 3491 2834 3397 
z
" transform="scale(0.015625)"/>
      <path id="DejaVuSans-74" d="M 1172 4494 
L 1172 3500 
L 2356 3500 
L 2356 3053 
L 1172 3053 
L 1172 1153 
Q 1172 725 1289 603 
Q 1406 481 1766 481 
L 2356 481 
L 2356 0 
L 1766 0 
Q 1100 0 847 248 
Q 594 497 594 1153 
L 594 3053 
L 172 3053 
L 172 3500 
L 594 3500 
L 594 4494 
L 1172 4494 
z
" transform="scale(0.015625)"/>
      <path id="DejaVuSans-72" d="M 2631 2963 
Q 2534 3019 2420 3045 
Q 2306 3072 2169 3072 
Q 1681 3072 1420 2755 
Q 1159 2438 1159 1844 
L 1159 0 
L 581 0 
L 581 3500 
L 1159 3500 
L 1159 2956 
Q 1341 3275 1631 3429 
Q 1922 3584 2338 3584 
Q 2397 3584 2469 3576 
Q 2541 3569 2628 3553 
L 2631 2963 
z
" transform="scale(0.015625)"/>
      <path id="DejaVuSans-75" d="M 544 1381 
L 544 3500 
L 1119 3500 
L 1119 1403 
Q 1119 906 1312 657 
Q 1506 409 1894 409 
Q 2359 409 2629 706 
Q 2900 1003 2900 1516 
L 2900 3500 
L 3475 3500 
L 3475 0 
L 2900 0 
L 2900 538 
Q 2691 219 2414 64 
Q 2138 -91 1772 -91 
Q 1169 -91 856 284 
Q 544 659 544 1381 
z
M 1991 3584 
L 1991 3584 
z
" transform="scale(0.015625)"/>
      <path id="DejaVuSans-20" transform="scale(0.015625)"/>
      <path id="DejaVuSans-70" d="M 1159 525 
L 1159 -1331 
L 581 -1331 
L 581 3500 
L 1159 3500 
L 1159 2969 
Q 1341 3281 1617 3432 
Q 1894 3584 2278 3584 
Q 2916 3584 3314 3078 
Q 3713 2572 3713 1747 
Q 3713 922 3314 415 
Q 2916 -91 2278 -91 
Q 1894 -91 1617 61 
Q 1341 213 1159 525 
z
M 3116 1747 
Q 3116 2381 2855 2742 
Q 2594 3103 2138 3103 
Q 1681 3103 1420 2742 
Q 1159 2381 1159 1747 
Q 1159 1113 1420 752 
Q 1681 391 2138 391 
Q 2594 391 2855 752 
Q 3116 1113 3116 1747 
z
" transform="scale(0.015625)"/>
      <path id="DejaVuSans-64" d="M 2906 2969 
L 2906 4863 
L 3481 4863 
L 3481 0 
L 2906 0 
L 2906 525 
Q 2725 213 2448 61 
Q 2172 -91 1784 -91 
Q 1150 -91 751 415 
Q 353 922 353 1747 
Q 353 2572 751 3078 
Q 1150 3584 1784 3584 
Q 2172 3584 2448 3432 
Q 2725 3281 2906 2969 
z
M 947 1747 
Q 947 1113 1208 752 
Q 1469 391 1925 391 
Q 2381 391 2643 752 
Q 2906 1113 2906 1747 
Q 2906 2381 2643 2742 
Q 2381 3103 1925 3103 
Q 1469 3103 1208 2742 
Q 947 2381 947 1747 
z
" transform="scale(0.015625)"/>
      <path id="DejaVuSans-69" d="M 603 3500 
L 1178 3500 
L 1178 0 
L 603 0 
L 603 3500 
z
M 603 4863 
L 1178 4863 
L 1178 4134 
L 603 4134 
L 603 4863 
z
" transform="scale(0.015625)"/>
      <path id="DejaVuSans-77" d="M 269 3500 
L 844 3500 
L 1563 769 
L 2278 3500 
L 2956 3500 
L 3675 769 
L 4391 3500 
L 4966 3500 
L 4050 0 
L 3372 0 
L 2619 2869 
L 1863 0 
L 1184 0 
L 269 3500 
z
" transform="scale(0.015625)"/>
      <path id="DejaVuSans-67" d="M 2906 1791 
Q 2906 2416 2648 2759 
Q 2391 3103 1925 3103 
Q 1463 3103 1205 2759 
Q 947 2416 947 1791 
Q 947 1169 1205 825 
Q 1463 481 1925 481 
Q 2391 481 2648 825 
Q 2906 1169 2906 1791 
z
M 3481 434 
Q 3481 -459 3084 -895 
Q 2688 -1331 1869 -1331 
Q 1566 -1331 1297 -1286 
Q 1028 -1241 775 -1147 
L 775 -588 
Q 1028 -725 1275 -790 
Q 1522 -856 1778 -856 
Q 2344 -856 2625 -561 
Q 2906 -266 2906 331 
L 2906 616 
Q 2728 306 2450 153 
Q 2172 0 1784 0 
Q 1141 0 747 490 
Q 353 981 353 1791 
Q 353 2603 747 3093 
Q 1141 3584 1784 3584 
Q 2172 3584 2450 3431 
Q 2728 3278 2906 2969 
L 2906 3500 
L 3481 3500 
L 3481 434 
z
" transform="scale(0.015625)"/>
      <path id="DejaVuSans-68" d="M 3513 2113 
L 3513 0 
L 2938 0 
L 2938 2094 
Q 2938 2591 2744 2837 
Q 2550 3084 2163 3084 
Q 1697 3084 1428 2787 
Q 1159 2491 1159 1978 
L 1159 0 
L 581 0 
L 581 4863 
L 1159 4863 
L 1159 2956 
Q 1366 3272 1645 3428 
Q 1925 3584 2291 3584 
Q 2894 3584 3203 3211 
Q 3513 2838 3513 2113 
z
" transform="scale(0.015625)"/>
      <path id="DejaVuSans-61" d="M 2194 1759 
Q 1497 1759 1228 1600 
Q 959 1441 959 1056 
Q 959 750 1161 570 
Q 1363 391 1709 391 
Q 2188 391 2477 730 
Q 2766 1069 2766 1631 
L 2766 1759 
L 2194 1759 
z
M 3341 1997 
L 3341 0 
L 2766 0 
L 2766 531 
Q 2569 213 2275 61 
Q 1981 -91 1556 -91 
Q 1019 -91 701 211 
Q 384 513 384 1019 
Q 384 1609 779 1909 
Q 1175 2209 1959 2209 
L 2766 2209 
L 2766 2266 
Q 2766 2663 2505 2880 
Q 2244 3097 1772 3097 
Q 1472 3097 1187 3025 
Q 903 2953 641 2809 
L 641 3341 
Q 956 3463 1253 3523 
Q 1550 3584 1831 3584 
Q 2591 3584 2966 3190 
Q 3341 2797 3341 1997 
z
" transform="scale(0.015625)"/>
      <path id="DejaVuSans-3b" d="M 750 3309 
L 1409 3309 
L 1409 2516 
L 750 2516 
L 750 3309 
z
M 750 794 
L 1409 794 
L 1409 256 
L 897 -744 
L 494 -744 
L 750 256 
L 750 794 
z
" transform="scale(0.015625)"/>
      <path id="DejaVuSans-66" d="M 2375 4863 
L 2375 4384 
L 1825 4384 
Q 1516 4384 1395 4259 
Q 1275 4134 1275 3809 
L 1275 3500 
L 2222 3500 
L 2222 3053 
L 1275 3053 
L 1275 0 
L 697 0 
L 697 3053 
L 147 3053 
L 147 3500 
L 697 3500 
L 697 3744 
Q 697 4328 969 4595 
Q 1241 4863 1831 4863 
L 2375 4863 
z
" transform="scale(0.015625)"/>
      <path id="DejaVuSans-76" d="M 191 3500 
L 800 3500 
L 1894 563 
L 2988 3500 
L 3597 3500 
L 2284 0 
L 1503 0 
L 191 3500 
z
" transform="scale(0.015625)"/>
      <path id="DejaVuSans-6b" d="M 581 4863 
L 1159 4863 
L 1159 1991 
L 2875 3500 
L 3609 3500 
L 1753 1863 
L 3688 0 
L 2938 0 
L 1159 1709 
L 1159 0 
L 581 0 
L 581 4863 
z
" transform="scale(0.015625)"/>
      <path id="DejaVuSans-79" d="M 2059 -325 
Q 1816 -950 1584 -1140 
Q 1353 -1331 966 -1331 
L 506 -1331 
L 506 -850 
L 844 -850 
Q 1081 -850 1212 -737 
Q 1344 -625 1503 -206 
L 1606 56 
L 191 3500 
L 800 3500 
L 1894 763 
L 2988 3500 
L 3597 3500 
L 2059 -325 
z
" transform="scale(0.015625)"/>
      <path id="DejaVuSans-6c" d="M 603 4863 
L 1178 4863 
L 1178 0 
L 603 0 
L 603 4863 
z
" transform="scale(0.015625)"/>
      <path id="DejaVuSans-2e" d="M 684 794 
L 1344 794 
L 1344 0 
L 684 0 
L 684 794 
z
" transform="scale(0.015625)"/>
     </defs>
     <use xlink:href="#DejaVuSans-52"/>
     <use xlink:href="#DejaVuSans-65" transform="translate(64.982422 0)"/>
     <use xlink:href="#DejaVuSans-63" transform="translate(126.505859 0)"/>
     <use xlink:href="#DejaVuSans-6f" transform="translate(181.486328 0)"/>
     <use xlink:href="#DejaVuSans-6e" transform="translate(242.667969 0)"/>
     <use xlink:href="#DejaVuSans-73" transform="translate(306.046875 0)"/>
     <use xlink:href="#DejaVuSans-74" transform="translate(358.146484 0)"/>
     <use xlink:href="#DejaVuSans-72" transform="translate(397.355469 0)"/>
     <use xlink:href="#DejaVuSans-75" transform="translate(438.46875 0)"/>
     <use xlink:href="#DejaVuSans-63" transform="translate(501.847656 0)"/>
     <use xlink:href="#DejaVuSans-74" transform="translate(556.828125 0)"/>
     <use xlink:href="#DejaVuSans-6f" transform="translate(596.037109 0)"/>
     <use xlink:href="#DejaVuSans-72" transform="translate(657.21875 0)"/>
     <use xlink:href="#DejaVuSans-20" transform="translate(698.332031 0)"/>
     <use xlink:href="#DejaVuSans-70" transform="translate(730.119141 0)"/>
     <use xlink:href="#DejaVuSans-72" transform="translate(793.595703 0)"/>
     <use xlink:href="#DejaVuSans-65" transform="translate(832.458984 0)"/>
     <use xlink:href="#DejaVuSans-64" transform="translate(893.982422 0)"/>
     <use xlink:href="#DejaVuSans-69" transform="translate(957.458984 0)"/>
     <use xlink:href="#DejaVuSans-63" transform="translate(985.242188 0)"/>
     <use xlink:href="#DejaVuSans-74" transform="translate(1040.222656 0)"/>
     <use xlink:href="#DejaVuSans-73" transform="translate(1079.431641 0)"/>
     <use xlink:href="#DejaVuSans-20" transform="translate(1131.53125 0)"/>
     <use xlink:href="#DejaVuSans-77" transform="translate(1163.318359 0)"/>
     <use xlink:href="#DejaVuSans-65" transform="translate(1245.105469 0)"/>
     <use xlink:href="#DejaVuSans-69" transform="translate(1306.628906 0)"/>
     <use xlink:href="#DejaVuSans-67" transform="translate(1334.412109 0)"/>
     <use xlink:href="#DejaVuSans-68" transform="translate(1397.888672 0)"/>
     <use xlink:href="#DejaVuSans-74" transform="translate(1461.267578 0)"/>
     <use xlink:href="#DejaVuSans-65" transform="translate(1500.476562 0)"/>
     <use xlink:href="#DejaVuSans-64" transform="translate(1562 0)"/>
     <use xlink:href="#DejaVuSans-20" transform="translate(1625.476562 0)"/>
     <use xlink:href="#DejaVuSans-63" transform="translate(1657.263672 0)"/>
     <use xlink:href="#DejaVuSans-61" transform="translate(1712.244141 0)"/>
     <use xlink:href="#DejaVuSans-6e" transform="translate(1773.523438 0)"/>
     <use xlink:href="#DejaVuSans-64" transform="translate(1836.902344 0)"/>
     <use xlink:href="#DejaVuSans-69" transform="translate(1900.378906 0)"/>
     <use xlink:href="#DejaVuSans-64" transform="translate(1928.162109 0)"/>
     <use xlink:href="#DejaVuSans-61" transform="translate(1991.638672 0)"/>
     <use xlink:href="#DejaVuSans-74" transform="translate(2052.917969 0)"/>
     <use xlink:href="#DejaVuSans-65" transform="translate(2092.126953 0)"/>
     <use xlink:href="#DejaVuSans-20" transform="translate(2153.650391 0)"/>
     <use xlink:href="#DejaVuSans-63" transform="translate(2185.4375 0)"/>
     <use xlink:href="#DejaVuSans-6f" transform="translate(2240.417969 0)"/>
     <use xlink:href="#DejaVuSans-6e" transform="translate(2301.599609 0)"/>
     <use xlink:href="#DejaVuSans-73" transform="translate(2364.978516 0)"/>
     <use xlink:href="#DejaVuSans-74" transform="translate(2417.078125 0)"/>
     <use xlink:href="#DejaVuSans-69" transform="translate(2456.287109 0)"/>
     <use xlink:href="#DejaVuSans-74" transform="translate(2484.070312 0)"/>
     <use xlink:href="#DejaVuSans-75" transform="translate(2523.279297 0)"/>
     <use xlink:href="#DejaVuSans-65" transform="translate(2586.658203 0)"/>
     <use xlink:href="#DejaVuSans-6e" transform="translate(2648.181641 0)"/>
     <use xlink:href="#DejaVuSans-74" transform="translate(2711.560547 0)"/>
     <use xlink:href="#DejaVuSans-73" transform="translate(2750.769531 0)"/>
     <use xlink:href="#DejaVuSans-3b" transform="translate(2802.869141 0)"/>
     <use xlink:href="#DejaVuSans-20" transform="translate(2836.560547 0)"/>
     <use xlink:href="#DejaVuSans-73" transform="translate(2868.347656 0)"/>
     <use xlink:href="#DejaVuSans-6f" transform="translate(2920.447266 0)"/>
     <use xlink:href="#DejaVuSans-66" transform="translate(2981.628906 0)"/>
     <use xlink:href="#DejaVuSans-74" transform="translate(3015.083984 0)"/>
     <use xlink:href="#DejaVuSans-20" transform="translate(3054.292969 0)"/>
     <use xlink:href="#DejaVuSans-63" transform="translate(3086.080078 0)"/>
     <use xlink:href="#DejaVuSans-6f" transform="translate(3141.060547 0)"/>
     <use xlink:href="#DejaVuSans-72" transform="translate(3202.242188 0)"/>
     <use xlink:href="#DejaVuSans-72" transform="translate(3241.605469 0)"/>
     <use xlink:href="#DejaVuSans-65" transform="translate(3280.46875 0)"/>
     <use xlink:href="#DejaVuSans-63" transform="translate(3341.992188 0)"/>
     <use xlink:href="#DejaVuSans-74" transform="translate(3396.972656 0)"/>
     <use xlink:href="#DejaVuSans-65" transform="translate(3436.181641 0)"/>
     <use xlink:href="#DejaVuSans-64" transform="translate(3497.705078 0)"/>
     <use xlink:href="#DejaVuSans-20" transform="translate(3561.181641 0)"/>
     <use xlink:href="#DejaVuSans-76" transform="translate(3592.96875 0)"/>
     <use xlink:href="#DejaVuSans-69" transform="translate(3652.148438 0)"/>
     <use xlink:href="#DejaVuSans-65" transform="translate(3679.931641 0)"/>
     <use xlink:href="#DejaVuSans-77" transform="translate(3741.455078 0)"/>
     <use xlink:href="#DejaVuSans-20" transform="translate(3823.242188 0)"/>
     <use xlink:href="#DejaVuSans-6b" transform="translate(3855.029297 0)"/>
     <use xlink:href="#DejaVuSans-65" transform="translate(3909.314453 0)"/>
     <use xlink:href="#DejaVuSans-65" transform="translate(3970.837891 0)"/>
     <use xlink:href="#DejaVuSans-70" transform="translate(4032.361328 0)"/>
     <use xlink:href="#DejaVuSans-73" transform="translate(4095.837891 0)"/>
     <use xlink:href="#DejaVuSans-20" transform="translate(4147.9375 0)"/>
     <use xlink:href="#DejaVuSans-75" transform="translate(4179.724609 0)"/>
     <use xlink:href="#DejaVuSans-6e" transform="translate(4243.103516 0)"/>
     <use xlink:href="#DejaVuSans-63" transform="translate(4306.482422 0)"/>
     <use xlink:href="#DejaVuSans-65" transform="translate(4361.462891 0)"/>
     <use xlink:href="#DejaVuSans-72" transform="translate(4422.986328 0)"/>
     <use xlink:href="#DejaVuSans-74" transform="translate(4464.099609 0)"/>
     <use xlink:href="#DejaVuSans-61" transform="translate(4503.308594 0)"/>
     <use xlink:href="#DejaVuSans-69" transform="translate(4564.587891 0)"/>
     <use xlink:href="#DejaVuSans-6e" transform="translate(4592.371094 0)"/>
     <use xlink:href="#DejaVuSans-74" transform="translate(4655.75 0)"/>
     <use xlink:href="#DejaVuSans-79" transform="translate(4694.958984 0)"/>
     <use xlink:href="#DejaVuSans-20" transform="translate(4754.138672 0)"/>
     <use xlink:href="#DejaVuSans-69" transform="translate(4785.925781 0)"/>
     <use xlink:href="#DejaVuSans-6e" transform="translate(4813.708984 0)"/>
     <use xlink:href="#DejaVuSans-73" transform="translate(4877.087891 0)"/>
     <use xlink:href="#DejaVuSans-74" transform="translate(4929.1875 0)"/>
     <use xlink:href="#DejaVuSans-65" transform="translate(4968.396484 0)"/>
     <use xlink:href="#DejaVuSans-61" transform="translate(5029.919922 0)"/>
     <use xlink:href="#DejaVuSans-64" transform="translate(5091.199219 0)"/>
     <use xlink:href="#DejaVuSans-20" transform="translate(5154.675781 0)"/>
     <use xlink:href="#DejaVuSans-6f" transform="translate(5186.462891 0)"/>
     <use xlink:href="#DejaVuSans-66" transform="translate(5247.644531 0)"/>
     <use xlink:href="#DejaVuSans-20" transform="translate(5282.849609 0)"/>
     <use xlink:href="#DejaVuSans-63" transform="translate(5314.636719 0)"/>
     <use xlink:href="#DejaVuSans-6f" transform="translate(5369.617188 0)"/>
     <use xlink:href="#DejaVuSans-6c" transform="translate(5430.798828 0)"/>
     <use xlink:href="#DejaVuSans-6c" transform="translate(5458.582031 0)"/>
     <use xlink:href="#DejaVuSans-61" transform="translate(5486.365234 0)"/>
     <use xlink:href="#DejaVuSans-70" transform="translate(5547.644531 0)"/>
     <use xlink:href="#DejaVuSans-73" transform="translate(5611.121094 0)"/>
     <use xlink:href="#DejaVuSans-69" transform="translate(5663.220703 0)"/>
     <use xlink:href="#DejaVuSans-6e" transform="translate(5691.003906 0)"/>
     <use xlink:href="#DejaVuSans-67" transform="translate(5754.382812 0)"/>
     <use xlink:href="#DejaVuSans-20" transform="translate(5817.859375 0)"/>
     <use xlink:href="#DejaVuSans-69" transform="translate(5849.646484 0)"/>
     <use xlink:href="#DejaVuSans-74" transform="translate(5877.429688 0)"/>
     <use xlink:href="#DejaVuSans-2e" transform="translate(5916.638672 0)"/>
    </g>
   </g>
   <g id="text_3">
    <!-- Reconstructor Output -->
    <g style="fill: #0f172a" transform="translate(68.8032 117.042769) scale(0.13 -0.13)">
     <defs>
      <path id="DejaVuSans-Bold-63" d="M 3366 3391 
L 3366 2478 
Q 3138 2634 2908 2709 
Q 2678 2784 2431 2784 
Q 1963 2784 1702 2511 
Q 1441 2238 1441 1747 
Q 1441 1256 1702 982 
Q 1963 709 2431 709 
Q 2694 709 2930 787 
Q 3166 866 3366 1019 
L 3366 103 
Q 3103 6 2833 -42 
Q 2563 -91 2291 -91 
Q 1344 -91 809 395 
Q 275 881 275 1747 
Q 275 2613 809 3098 
Q 1344 3584 2291 3584 
Q 2566 3584 2833 3536 
Q 3100 3488 3366 3391 
z
" transform="scale(0.015625)"/>
      <path id="DejaVuSans-Bold-4f" d="M 2719 3878 
Q 2169 3878 1866 3472 
Q 1563 3066 1563 2328 
Q 1563 1594 1866 1187 
Q 2169 781 2719 781 
Q 3272 781 3575 1187 
Q 3878 1594 3878 2328 
Q 3878 3066 3575 3472 
Q 3272 3878 2719 3878 
z
M 2719 4750 
Q 3844 4750 4481 4106 
Q 5119 3463 5119 2328 
Q 5119 1197 4481 553 
Q 3844 -91 2719 -91 
Q 1597 -91 958 553 
Q 319 1197 319 2328 
Q 319 3463 958 4106 
Q 1597 4750 2719 4750 
z
" transform="scale(0.015625)"/>
     </defs>
     <use xlink:href="#DejaVuSans-Bold-52"/>
     <use xlink:href="#DejaVuSans-Bold-65" transform="translate(77.001953 0)"/>
     <use xlink:href="#DejaVuSans-Bold-63" transform="translate(144.824219 0)"/>
     <use xlink:href="#DejaVuSans-Bold-6f" transform="translate(204.101562 0)"/>
     <use xlink:href="#DejaVuSans-Bold-6e" transform="translate(272.802734 0)"/>
     <use xlink:href="#DejaVuSans-Bold-73" transform="translate(343.994141 0)"/>
     <use xlink:href="#DejaVuSans-Bold-74" transform="translate(403.515625 0)"/>
     <use xlink:href="#DejaVuSans-Bold-72" transform="translate(451.318359 0)"/>
     <use xlink:href="#DejaVuSans-Bold-75" transform="translate(500.634766 0)"/>
     <use xlink:href="#DejaVuSans-Bold-63" transform="translate(571.826172 0)"/>
     <use xlink:href="#DejaVuSans-Bold-74" transform="translate(631.103516 0)"/>
     <use xlink:href="#DejaVuSans-Bold-6f" transform="translate(678.90625 0)"/>
     <use xlink:href="#DejaVuSans-Bold-72" transform="translate(747.607422 0)"/>
     <use xlink:href="#DejaVuSans-Bold-20" transform="translate(796.923828 0)"/>
     <use xlink:href="#DejaVuSans-Bold-4f" transform="translate(831.738281 0)"/>
     <use xlink:href="#DejaVuSans-Bold-75" transform="translate(916.748047 0)"/>
     <use xlink:href="#DejaVuSans-Bold-74" transform="translate(987.939453 0)"/>
     <use xlink:href="#DejaVuSans-Bold-70" transform="translate(1035.742188 0)"/>
     <use xlink:href="#DejaVuSans-Bold-75" transform="translate(1107.324219 0)"/>
     <use xlink:href="#DejaVuSans-Bold-74" transform="translate(1178.515625 0)"/>
    </g>
   </g>
   <g id="text_4">
    <!-- Candidate tokens + continuous weights -->
    <g style="fill: #1f2937" transform="translate(68.8032 139.473637) scale(0.1 -0.1)">
     <defs>
      <path id="DejaVuSans-43" d="M 4122 4306 
L 4122 3641 
Q 3803 3938 3442 4084 
Q 3081 4231 2675 4231 
Q 1875 4231 1450 3742 
Q 1025 3253 1025 2328 
Q 1025 1406 1450 917 
Q 1875 428 2675 428 
Q 3081 428 3442 575 
Q 3803 722 4122 1019 
L 4122 359 
Q 3791 134 3420 21 
Q 3050 -91 2638 -91 
Q 1578 -91 968 557 
Q 359 1206 359 2328 
Q 359 3453 968 4101 
Q 1578 4750 2638 4750 
Q 3056 4750 3426 4639 
Q 3797 4528 4122 4306 
z
" transform="scale(0.015625)"/>
      <path id="DejaVuSans-2b" d="M 2944 4013 
L 2944 2272 
L 4684 2272 
L 4684 1741 
L 2944 1741 
L 2944 0 
L 2419 0 
L 2419 1741 
L 678 1741 
L 678 2272 
L 2419 2272 
L 2419 4013 
L 2944 4013 
z
" transform="scale(0.015625)"/>
     </defs>
     <use xlink:href="#DejaVuSans-43"/>
     <use xlink:href="#DejaVuSans-61" transform="translate(69.824219 0)"/>
     <use xlink:href="#DejaVuSans-6e" transform="translate(131.103516 0)"/>
     <use xlink:href="#DejaVuSans-64" transform="translate(194.482422 0)"/>
     <use xlink:href="#DejaVuSans-69" transform="translate(257.958984 0)"/>
     <use xlink:href="#DejaVuSans-64" transform="translate(285.742188 0)"/>
     <use xlink:href="#DejaVuSans-61" transform="translate(349.21875 0)"/>
     <use xlink:href="#DejaVuSans-74" transform="translate(410.498047 0)"/>
     <use xlink:href="#DejaVuSans-65" transform="translate(449.707031 0)"/>
     <use xlink:href="#DejaVuSans-20" transform="translate(511.230469 0)"/>
     <use xlink:href="#DejaVuSans-74" transform="translate(543.017578 0)"/>
     <use xlink:href="#DejaVuSans-6f" transform="translate(582.226562 0)"/>
     <use xlink:href="#DejaVuSans-6b" transform="translate(643.408203 0)"/>
     <use xlink:href="#DejaVuSans-65" transform="translate(697.693359 0)"/>
     <use xlink:href="#DejaVuSans-6e" transform="translate(759.216797 0)"/>
     <use xlink:href="#DejaVuSans-73" transform="translate(822.595703 0)"/>
     <use xlink:href="#DejaVuSans-20" transform="translate(874.695312 0)"/>
     <use xlink:href="#DejaVuSans-2b" transform="translate(906.482422 0)"/>
     <use xlink:href="#DejaVuSans-20" transform="translate(990.271484 0)"/>
     <use xlink:href="#DejaVuSans-63" transform="translate(1022.058594 0)"/>
     <use xlink:href="#DejaVuSans-6f" transform="translate(1077.039062 0)"/>
     <use xlink:href="#DejaVuSans-6e" transform="translate(1138.220703 0)"/>
     <use xlink:href="#DejaVuSans-74" transform="translate(1201.599609 0)"/>
     <use xlink:href="#DejaVuSans-69" transform="translate(1240.808594 0)"/>
     <use xlink:href="#DejaVuSans-6e" transform="translate(1268.591797 0)"/>
     <use xlink:href="#DejaVuSans-75" transform="translate(1331.970703 0)"/>
     <use xlink:href="#DejaVuSans-6f" transform="translate(1395.349609 0)"/>
     <use xlink:href="#DejaVuSans-75" transform="translate(1456.53125 0)"/>
     <use xlink:href="#DejaVuSans-73" transform="translate(1519.910156 0)"/>
     <use xlink:href="#DejaVuSans-20" transform="translate(1572.009766 0)"/>
     <use xlink:href="#DejaVuSans-77" transform="translate(1603.796875 0)"/>
     <use xlink:href="#DejaVuSans-65" transform="translate(1685.583984 0)"/>
     <use xlink:href="#DejaVuSans-69" transform="translate(1747.107422 0)"/>
     <use xlink:href="#DejaVuSans-67" transform="translate(1774.890625 0)"/>
     <use xlink:href="#DejaVuSans-68" transform="translate(1838.367188 0)"/>
     <use xlink:href="#DejaVuSans-74" transform="translate(1901.746094 0)"/>
     <use xlink:href="#DejaVuSans-73" transform="translate(1940.955078 0)"/>
    </g>
    <!-- (cand_tokens, cand_weights) -->
    <g style="fill: #1f2937" transform="translate(68.8032 151.431294) scale(0.1 -0.1)">
     <defs>
      <path id="DejaVuSans-28" d="M 1984 4856 
Q 1566 4138 1362 3434 
Q 1159 2731 1159 2009 
Q 1159 1288 1364 580 
Q 1569 -128 1984 -844 
L 1484 -844 
Q 1016 -109 783 600 
Q 550 1309 550 2009 
Q 550 2706 781 3412 
Q 1013 4119 1484 4856 
L 1984 4856 
z
" transform="scale(0.015625)"/>
      <path id="DejaVuSans-5f" d="M 3263 -1063 
L 3263 -1509 
L -63 -1509 
L -63 -1063 
L 3263 -1063 
z
" transform="scale(0.015625)"/>
      <path id="DejaVuSans-2c" d="M 750 794 
L 1409 794 
L 1409 256 
L 897 -744 
L 494 -744 
L 750 256 
L 750 794 
z
" transform="scale(0.015625)"/>
      <path id="DejaVuSans-29" d="M 513 4856 
L 1013 4856 
Q 1481 4119 1714 3412 
Q 1947 2706 1947 2009 
Q 1947 1309 1714 600 
Q 1481 -109 1013 -844 
L 513 -844 
Q 928 -128 1133 580 
Q 1338 1288 1338 2009 
Q 1338 2731 1133 3434 
Q 928 4138 513 4856 
z
" transform="scale(0.015625)"/>
     </defs>
     <use xlink:href="#DejaVuSans-28"/>
     <use xlink:href="#DejaVuSans-63" transform="translate(39.013672 0)"/>
     <use xlink:href="#DejaVuSans-61" transform="translate(93.994141 0)"/>
     <use xlink:href="#DejaVuSans-6e" transform="translate(155.273438 0)"/>
     <use xlink:href="#DejaVuSans-64" transform="translate(218.652344 0)"/>
     <use xlink:href="#DejaVuSans-5f" transform="translate(282.128906 0)"/>
     <use xlink:href="#DejaVuSans-74" transform="translate(332.128906 0)"/>
     <use xlink:href="#DejaVuSans-6f" transform="translate(371.337891 0)"/>
     <use xlink:href="#DejaVuSans-6b" transform="translate(432.519531 0)"/>
     <use xlink:href="#DejaVuSans-65" transform="translate(486.804688 0)"/>
     <use xlink:href="#DejaVuSans-6e" transform="translate(548.328125 0)"/>
     <use xlink:href="#DejaVuSans-73" transform="translate(611.707031 0)"/>
     <use xlink:href="#DejaVuSans-2c" transform="translate(663.806641 0)"/>
     <use xlink:href="#DejaVuSans-20" transform="translate(695.59375 0)"/>
     <use xlink:href="#DejaVuSans-63" transform="translate(727.380859 0)"/>
     <use xlink:href="#DejaVuSans-61" transform="translate(782.361328 0)"/>
     <use xlink:href="#DejaVuSans-6e" transform="translate(843.640625 0)"/>
     <use xlink:href="#DejaVuSans-64" transform="translate(907.019531 0)"/>
     <use xlink:href="#DejaVuSans-5f" transform="translate(970.496094 0)"/>
     <use xlink:href="#DejaVuSans-77" transform="translate(1020.496094 0)"/>
     <use xlink:href="#DejaVuSans-65" transform="translate(1102.283203 0)"/>
     <use xlink:href="#DejaVuSans-69" transform="translate(1163.806641 0)"/>
     <use xlink:href="#DejaVuSans-67" transform="translate(1191.589844 0)"/>
     <use xlink:href="#DejaVuSans-68" transform="translate(1255.066406 0)"/>
     <use xlink:href="#DejaVuSans-74" transform="translate(1318.445312 0)"/>
     <use xlink:href="#DejaVuSans-73" transform="translate(1357.654297 0)"/>
     <use xlink:href="#DejaVuSans-29" transform="translate(1409.753906 0)"/>
    </g>
    <!-- No hard keep/drop at this stage. -->
    <g style="fill: #1f2937" transform="translate(68.8032 163.667075) scale(0.1 -0.1)">
     <defs>
      <path id="DejaVuSans-4e" d="M 628 4666 
L 1478 4666 
L 3547 763 
L 3547 4666 
L 4159 4666 
L 4159 0 
L 3309 0 
L 1241 3903 
L 1241 0 
L 628 0 
L 628 4666 
z
" transform="scale(0.015625)"/>
      <path id="DejaVuSans-2f" d="M 1625 4666 
L 2156 4666 
L 531 -594 
L 0 -594 
L 1625 4666 
z
" transform="scale(0.015625)"/>
     </defs>
     <use xlink:href="#DejaVuSans-4e"/>
     <use xlink:href="#DejaVuSans-6f" transform="translate(74.804688 0)"/>
     <use xlink:href="#DejaVuSans-20" transform="translate(135.986328 0)"/>
     <use xlink:href="#DejaVuSans-68" transform="translate(167.773438 0)"/>
     <use xlink:href="#DejaVuSans-61" transform="translate(231.152344 0)"/>
     <use xlink:href="#DejaVuSans-72" transform="translate(292.431641 0)"/>
     <use xlink:href="#DejaVuSans-64" transform="translate(331.794922 0)"/>
     <use xlink:href="#DejaVuSans-20" transform="translate(395.271484 0)"/>
     <use xlink:href="#DejaVuSans-6b" transform="translate(427.058594 0)"/>
     <use xlink:href="#DejaVuSans-65" transform="translate(481.34375 0)"/>
     <use xlink:href="#DejaVuSans-65" transform="translate(542.867188 0)"/>
     <use xlink:href="#DejaVuSans-70" transform="translate(604.390625 0)"/>
     <use xlink:href="#DejaVuSans-2f" transform="translate(667.867188 0)"/>
     <use xlink:href="#DejaVuSans-64" transform="translate(701.558594 0)"/>
     <use xlink:href="#DejaVuSans-72" transform="translate(765.035156 0)"/>
     <use xlink:href="#DejaVuSans-6f" transform="translate(803.898438 0)"/>
     <use xlink:href="#DejaVuSans-70" transform="translate(865.080078 0)"/>
     <use xlink:href="#DejaVuSans-20" transform="translate(928.556641 0)"/>
     <use xlink:href="#DejaVuSans-61" transform="translate(960.34375 0)"/>
     <use xlink:href="#DejaVuSans-74" transform="translate(1021.623047 0)"/>
     <use xlink:href="#DejaVuSans-20" transform="translate(1060.832031 0)"/>
     <use xlink:href="#DejaVuSans-74" transform="translate(1092.619141 0)"/>
     <use xlink:href="#DejaVuSans-68" transform="translate(1131.828125 0)"/>
     <use xlink:href="#DejaVuSans-69" transform="translate(1195.207031 0)"/>
     <use xlink:href="#DejaVuSans-73" transform="translate(1222.990234 0)"/>
     <use xlink:href="#DejaVuSans-20" transform="translate(1275.089844 0)"/>
     <use xlink:href="#DejaVuSans-73" transform="translate(1306.876953 0)"/>
     <use xlink:href="#DejaVuSans-74" transform="translate(1358.976562 0)"/>
     <use xlink:href="#DejaVuSans-61" transform="translate(1398.185547 0)"/>
     <use xlink:href="#DejaVuSans-67" transform="translate(1459.464844 0)"/>
     <use xlink:href="#DejaVuSans-65" transform="translate(1522.941406 0)"/>
     <use xlink:href="#DejaVuSans-2e" transform="translate(1584.464844 0)"/>
    </g>
   </g>
   <g id="text_5">
    <!-- Soft Corrected View -->
    <g style="fill: #0f172a" transform="translate(386.7552 117.042769) scale(0.13 -0.13)">
     <defs>
      <path id="DejaVuSans-Bold-43" d="M 4288 256 
Q 3956 84 3597 -3 
Q 3238 -91 2847 -91 
Q 1681 -91 1000 561 
Q 319 1213 319 2328 
Q 319 3447 1000 4098 
Q 1681 4750 2847 4750 
Q 3238 4750 3597 4662 
Q 3956 4575 4288 4403 
L 4288 3438 
Q 3953 3666 3628 3772 
Q 3303 3878 2944 3878 
Q 2300 3878 1931 3465 
Q 1563 3053 1563 2328 
Q 1563 1606 1931 1193 
Q 2300 781 2944 781 
Q 3303 781 3628 887 
Q 3953 994 4288 1222 
L 4288 256 
z
" transform="scale(0.015625)"/>
     </defs>
     <use xlink:href="#DejaVuSans-Bold-53"/>
     <use xlink:href="#DejaVuSans-Bold-6f" transform="translate(72.021484 0)"/>
     <use xlink:href="#DejaVuSans-Bold-66" transform="translate(140.722656 0)"/>
     <use xlink:href="#DejaVuSans-Bold-74" transform="translate(184.228516 0)"/>
     <use xlink:href="#DejaVuSans-Bold-20" transform="translate(232.03125 0)"/>
     <use xlink:href="#DejaVuSans-Bold-43" transform="translate(266.845703 0)"/>
     <use xlink:href="#DejaVuSans-Bold-6f" transform="translate(340.234375 0)"/>
     <use xlink:href="#DejaVuSans-Bold-72" transform="translate(408.935547 0)"/>
     <use xlink:href="#DejaVuSans-Bold-72" transform="translate(458.251953 0)"/>
     <use xlink:href="#DejaVuSans-Bold-65" transform="translate(507.568359 0)"/>
     <use xlink:href="#DejaVuSans-Bold-63" transform="translate(575.390625 0)"/>
     <use xlink:href="#DejaVuSans-Bold-74" transform="translate(634.667969 0)"/>
     <use xlink:href="#DejaVuSans-Bold-65" transform="translate(682.470703 0)"/>
     <use xlink:href="#DejaVuSans-Bold-64" transform="translate(750.292969 0)"/>
     <use xlink:href="#DejaVuSans-Bold-20" transform="translate(821.875 0)"/>
     <use xlink:href="#DejaVuSans-Bold-56" transform="translate(856.689453 0)"/>
     <use xlink:href="#DejaVuSans-Bold-69" transform="translate(932.332031 0)"/>
     <use xlink:href="#DejaVuSans-Bold-65" transform="translate(966.609375 0)"/>
     <use xlink:href="#DejaVuSans-Bold-77" transform="translate(1034.431641 0)"/>
    </g>
   </g>
   <g id="text_6">
    <!-- Fixed-length differentiable view: -->
    <g style="fill: #1f2937" transform="translate(386.7552 139.473637) scale(0.1 -0.1)">
     <defs>
      <path id="DejaVuSans-46" d="M 628 4666 
L 3309 4666 
L 3309 4134 
L 1259 4134 
L 1259 2759 
L 3109 2759 
L 3109 2228 
L 1259 2228 
L 1259 0 
L 628 0 
L 628 4666 
z
" transform="scale(0.015625)"/>
      <path id="DejaVuSans-78" d="M 3513 3500 
L 2247 1797 
L 3578 0 
L 2900 0 
L 1881 1375 
L 863 0 
L 184 0 
L 1544 1831 
L 300 3500 
L 978 3500 
L 1906 2253 
L 2834 3500 
L 3513 3500 
z
" transform="scale(0.015625)"/>
      <path id="DejaVuSans-2d" d="M 313 2009 
L 1997 2009 
L 1997 1497 
L 313 1497 
L 313 2009 
z
" transform="scale(0.015625)"/>
      <path id="DejaVuSans-62" d="M 3116 1747 
Q 3116 2381 2855 2742 
Q 2594 3103 2138 3103 
Q 1681 3103 1420 2742 
Q 1159 2381 1159 1747 
Q 1159 1113 1420 752 
Q 1681 391 2138 391 
Q 2594 391 2855 752 
Q 3116 1113 3116 1747 
z
M 1159 2969 
Q 1341 3281 1617 3432 
Q 1894 3584 2278 3584 
Q 2916 3584 3314 3078 
Q 3713 2572 3713 1747 
Q 3713 922 3314 415 
Q 2916 -91 2278 -91 
Q 1894 -91 1617 61 
Q 1341 213 1159 525 
L 1159 0 
L 581 0 
L 581 4863 
L 1159 4863 
L 1159 2969 
z
" transform="scale(0.015625)"/>
      <path id="DejaVuSans-3a" d="M 750 794 
L 1409 794 
L 1409 0 
L 750 0 
L 750 794 
z
M 750 3309 
L 1409 3309 
L 1409 2516 
L 750 2516 
L 750 3309 
z
" transform="scale(0.015625)"/>
     </defs>
     <use xlink:href="#DejaVuSans-46"/>
     <use xlink:href="#DejaVuSans-69" transform="translate(50.269531 0)"/>
     <use xlink:href="#DejaVuSans-78" transform="translate(78.052734 0)"/>
     <use xlink:href="#DejaVuSans-65" transform="translate(134.107422 0)"/>
     <use xlink:href="#DejaVuSans-64" transform="translate(195.630859 0)"/>
     <use xlink:href="#DejaVuSans-2d" transform="translate(259.107422 0)"/>
     <use xlink:href="#DejaVuSans-6c" transform="translate(295.191406 0)"/>
     <use xlink:href="#DejaVuSans-65" transform="translate(322.974609 0)"/>
     <use xlink:href="#DejaVuSans-6e" transform="translate(384.498047 0)"/>
     <use xlink:href="#DejaVuSans-67" transform="translate(447.876953 0)"/>
     <use xlink:href="#DejaVuSans-74" transform="translate(511.353516 0)"/>
     <use xlink:href="#DejaVuSans-68" transform="translate(550.5625 0)"/>
     <use xlink:href="#DejaVuSans-20" transform="translate(613.941406 0)"/>
     <use xlink:href="#DejaVuSans-64" transform="translate(645.728516 0)"/>
     <use xlink:href="#DejaVuSans-69" transform="translate(709.205078 0)"/>
     <use xlink:href="#DejaVuSans-66" transform="translate(736.988281 0)"/>
     <use xlink:href="#DejaVuSans-66" transform="translate(772.193359 0)"/>
     <use xlink:href="#DejaVuSans-65" transform="translate(807.398438 0)"/>
     <use xlink:href="#DejaVuSans-72" transform="translate(868.921875 0)"/>
     <use xlink:href="#DejaVuSans-65" transform="translate(907.785156 0)"/>
     <use xlink:href="#DejaVuSans-6e" transform="translate(969.308594 0)"/>
     <use xlink:href="#DejaVuSans-74" transform="translate(1032.6875 0)"/>
     <use xlink:href="#DejaVuSans-69" transform="translate(1071.896484 0)"/>
     <use xlink:href="#DejaVuSans-61" transform="translate(1099.679688 0)"/>
     <use xlink:href="#DejaVuSans-62" transform="translate(1160.958984 0)"/>
     <use xlink:href="#DejaVuSans-6c" transform="translate(1224.435547 0)"/>
     <use xlink:href="#DejaVuSans-65" transform="translate(1252.21875 0)"/>
     <use xlink:href="#DejaVuSans-20" transform="translate(1313.742188 0)"/>
     <use xlink:href="#DejaVuSans-76" transform="translate(1345.529297 0)"/>
     <use xlink:href="#DejaVuSans-69" transform="translate(1404.708984 0)"/>
     <use xlink:href="#DejaVuSans-65" transform="translate(1432.492188 0)"/>
     <use xlink:href="#DejaVuSans-77" transform="translate(1494.015625 0)"/>
     <use xlink:href="#DejaVuSans-3a" transform="translate(1570.302734 0)"/>
    </g>
    <!-- 7 kinematic features + [tok_weight, -->
    <g style="fill: #1f2937" transform="translate(386.7552 151.431294) scale(0.1 -0.1)">
     <defs>
      <path id="DejaVuSans-37" d="M 525 4666 
L 3525 4666 
L 3525 4397 
L 1831 0 
L 1172 0 
L 2766 4134 
L 525 4134 
L 525 4666 
z
" transform="scale(0.015625)"/>
      <path id="DejaVuSans-6d" d="M 3328 2828 
Q 3544 3216 3844 3400 
Q 4144 3584 4550 3584 
Q 5097 3584 5394 3201 
Q 5691 2819 5691 2113 
L 5691 0 
L 5113 0 
L 5113 2094 
Q 5113 2597 4934 2840 
Q 4756 3084 4391 3084 
Q 3944 3084 3684 2787 
Q 3425 2491 3425 1978 
L 3425 0 
L 2847 0 
L 2847 2094 
Q 2847 2600 2669 2842 
Q 2491 3084 2119 3084 
Q 1678 3084 1418 2786 
Q 1159 2488 1159 1978 
L 1159 0 
L 581 0 
L 581 3500 
L 1159 3500 
L 1159 2956 
Q 1356 3278 1631 3431 
Q 1906 3584 2284 3584 
Q 2666 3584 2933 3390 
Q 3200 3197 3328 2828 
z
" transform="scale(0.015625)"/>
      <path id="DejaVuSans-5b" d="M 550 4863 
L 1875 4863 
L 1875 4416 
L 1125 4416 
L 1125 -397 
L 1875 -397 
L 1875 -844 
L 550 -844 
L 550 4863 
z
" transform="scale(0.015625)"/>
     </defs>
     <use xlink:href="#DejaVuSans-37"/>
     <use xlink:href="#DejaVuSans-20" transform="translate(63.623047 0)"/>
     <use xlink:href="#DejaVuSans-6b" transform="translate(95.410156 0)"/>
     <use xlink:href="#DejaVuSans-69" transform="translate(153.320312 0)"/>
     <use xlink:href="#DejaVuSans-6e" transform="translate(181.103516 0)"/>
     <use xlink:href="#DejaVuSans-65" transform="translate(244.482422 0)"/>
     <use xlink:href="#DejaVuSans-6d" transform="translate(306.005859 0)"/>
     <use xlink:href="#DejaVuSans-61" transform="translate(403.417969 0)"/>
     <use xlink:href="#DejaVuSans-74" transform="translate(464.697266 0)"/>
     <use xlink:href="#DejaVuSans-69" transform="translate(503.90625 0)"/>
     <use xlink:href="#DejaVuSans-63" transform="translate(531.689453 0)"/>
     <use xlink:href="#DejaVuSans-20" transform="translate(586.669922 0)"/>
     <use xlink:href="#DejaVuSans-66" transform="translate(618.457031 0)"/>
     <use xlink:href="#DejaVuSans-65" transform="translate(653.662109 0)"/>
     <use xlink:href="#DejaVuSans-61" transform="translate(715.185547 0)"/>
     <use xlink:href="#DejaVuSans-74" transform="translate(776.464844 0)"/>
     <use xlink:href="#DejaVuSans-75" transform="translate(815.673828 0)"/>
     <use xlink:href="#DejaVuSans-72" transform="translate(879.052734 0)"/>
     <use xlink:href="#DejaVuSans-65" transform="translate(917.916016 0)"/>
     <use xlink:href="#DejaVuSans-73" transform="translate(979.439453 0)"/>
     <use xlink:href="#DejaVuSans-20" transform="translate(1031.539062 0)"/>
     <use xlink:href="#DejaVuSans-2b" transform="translate(1063.326172 0)"/>
     <use xlink:href="#DejaVuSans-20" transform="translate(1147.115234 0)"/>
     <use xlink:href="#DejaVuSans-5b" transform="translate(1178.902344 0)"/>
     <use xlink:href="#DejaVuSans-74" transform="translate(1217.916016 0)"/>
     <use xlink:href="#DejaVuSans-6f" transform="translate(1257.125 0)"/>
     <use xlink:href="#DejaVuSans-6b" transform="translate(1318.306641 0)"/>
     <use xlink:href="#DejaVuSans-5f" transform="translate(1376.216797 0)"/>
     <use xlink:href="#DejaVuSans-77" transform="translate(1426.216797 0)"/>
     <use xlink:href="#DejaVuSans-65" transform="translate(1508.003906 0)"/>
     <use xlink:href="#DejaVuSans-69" transform="translate(1569.527344 0)"/>
     <use xlink:href="#DejaVuSans-67" transform="translate(1597.310547 0)"/>
     <use xlink:href="#DejaVuSans-68" transform="translate(1660.787109 0)"/>
     <use xlink:href="#DejaVuSans-74" transform="translate(1724.166016 0)"/>
     <use xlink:href="#DejaVuSans-2c" transform="translate(1763.375 0)"/>
    </g>
    <!-- parent_added_weight, eff_share]. -->
    <g style="fill: #1f2937" transform="translate(386.7552 163.667075) scale(0.1 -0.1)">
     <defs>
      <path id="DejaVuSans-5d" d="M 1947 4863 
L 1947 -844 
L 622 -844 
L 622 -397 
L 1369 -397 
L 1369 4416 
L 622 4416 
L 622 4863 
L 1947 4863 
z
" transform="scale(0.015625)"/>
     </defs>
     <use xlink:href="#DejaVuSans-70"/>
     <use xlink:href="#DejaVuSans-61" transform="translate(63.476562 0)"/>
     <use xlink:href="#DejaVuSans-72" transform="translate(124.755859 0)"/>
     <use xlink:href="#DejaVuSans-65" transform="translate(163.619141 0)"/>
     <use xlink:href="#DejaVuSans-6e" transform="translate(225.142578 0)"/>
     <use xlink:href="#DejaVuSans-74" transform="translate(288.521484 0)"/>
     <use xlink:href="#DejaVuSans-5f" transform="translate(327.730469 0)"/>
     <use xlink:href="#DejaVuSans-61" transform="translate(377.730469 0)"/>
     <use xlink:href="#DejaVuSans-64" transform="translate(439.009766 0)"/>
     <use xlink:href="#DejaVuSans-64" transform="translate(502.486328 0)"/>
     <use xlink:href="#DejaVuSans-65" transform="translate(565.962891 0)"/>
     <use xlink:href="#DejaVuSans-64" transform="translate(627.486328 0)"/>
     <use xlink:href="#DejaVuSans-5f" transform="translate(690.962891 0)"/>
     <use xlink:href="#DejaVuSans-77" transform="translate(740.962891 0)"/>
     <use xlink:href="#DejaVuSans-65" transform="translate(822.75 0)"/>
     <use xlink:href="#DejaVuSans-69" transform="translate(884.273438 0)"/>
     <use xlink:href="#DejaVuSans-67" transform="translate(912.056641 0)"/>
     <use xlink:href="#DejaVuSans-68" transform="translate(975.533203 0)"/>
     <use xlink:href="#DejaVuSans-74" transform="translate(1038.912109 0)"/>
     <use xlink:href="#DejaVuSans-2c" transform="translate(1078.121094 0)"/>
     <use xlink:href="#DejaVuSans-20" transform="translate(1109.908203 0)"/>
     <use xlink:href="#DejaVuSans-65" transform="translate(1141.695312 0)"/>
     <use xlink:href="#DejaVuSans-66" transform="translate(1203.21875 0)"/>
     <use xlink:href="#DejaVuSans-66" transform="translate(1238.423828 0)"/>
     <use xlink:href="#DejaVuSans-5f" transform="translate(1273.628906 0)"/>
     <use xlink:href="#DejaVuSans-73" transform="translate(1323.628906 0)"/>
     <use xlink:href="#DejaVuSans-68" transform="translate(1375.728516 0)"/>
     <use xlink:href="#DejaVuSans-61" transform="translate(1439.107422 0)"/>
     <use xlink:href="#DejaVuSans-72" transform="translate(1500.386719 0)"/>
     <use xlink:href="#DejaVuSans-65" transform="translate(1539.25 0)"/>
     <use xlink:href="#DejaVuSans-5d" transform="translate(1600.773438 0)"/>
     <use xlink:href="#DejaVuSans-2e" transform="translate(1639.787109 0)"/>
    </g>
   </g>
   <g id="text_7">
    <!-- Dual-View Input -->
    <g style="fill: #0f172a" transform="translate(704.7072 117.042769) scale(0.13 -0.13)">
     <defs>
      <path id="DejaVuSans-Bold-44" d="M 1791 3756 
L 1791 909 
L 2222 909 
Q 2959 909 3348 1275 
Q 3738 1641 3738 2338 
Q 3738 3031 3350 3393 
Q 2963 3756 2222 3756 
L 1791 3756 
z
M 588 4666 
L 1856 4666 
Q 2919 4666 3439 4514 
Q 3959 4363 4331 4000 
Q 4659 3684 4818 3271 
Q 4978 2859 4978 2338 
Q 4978 1809 4818 1395 
Q 4659 981 4331 666 
Q 3956 303 3431 151 
Q 2906 0 1856 0 
L 588 0 
L 588 4666 
z
" transform="scale(0.015625)"/>
      <path id="DejaVuSans-Bold-61" d="M 2106 1575 
Q 1756 1575 1579 1456 
Q 1403 1338 1403 1106 
Q 1403 894 1545 773 
Q 1688 653 1941 653 
Q 2256 653 2472 879 
Q 2688 1106 2688 1447 
L 2688 1575 
L 2106 1575 
z
M 3816 1997 
L 3816 0 
L 2688 0 
L 2688 519 
Q 2463 200 2181 54 
Q 1900 -91 1497 -91 
Q 953 -91 614 226 
Q 275 544 275 1050 
Q 275 1666 698 1953 
Q 1122 2241 2028 2241 
L 2688 2241 
L 2688 2328 
Q 2688 2594 2478 2717 
Q 2269 2841 1825 2841 
Q 1466 2841 1156 2769 
Q 847 2697 581 2553 
L 581 3406 
Q 941 3494 1303 3539 
Q 1666 3584 2028 3584 
Q 2975 3584 3395 3211 
Q 3816 2838 3816 1997 
z
" transform="scale(0.015625)"/>
      <path id="DejaVuSans-Bold-2d" d="M 347 2297 
L 2309 2297 
L 2309 1388 
L 347 1388 
L 347 2297 
z
" transform="scale(0.015625)"/>
      <path id="DejaVuSans-Bold-49" d="M 588 4666 
L 1791 4666 
L 1791 0 
L 588 0 
L 588 4666 
z
" transform="scale(0.015625)"/>
     </defs>
     <use xlink:href="#DejaVuSans-Bold-44"/>
     <use xlink:href="#DejaVuSans-Bold-75" transform="translate(83.007812 0)"/>
     <use xlink:href="#DejaVuSans-Bold-61" transform="translate(154.199219 0)"/>
     <use xlink:href="#DejaVuSans-Bold-6c" transform="translate(221.679688 0)"/>
     <use xlink:href="#DejaVuSans-Bold-2d" transform="translate(255.957031 0)"/>
     <use xlink:href="#DejaVuSans-Bold-56" transform="translate(290.210938 0)"/>
     <use xlink:href="#DejaVuSans-Bold-69" transform="translate(365.853516 0)"/>
     <use xlink:href="#DejaVuSans-Bold-65" transform="translate(400.130859 0)"/>
     <use xlink:href="#DejaVuSans-Bold-77" transform="translate(467.953125 0)"/>
     <use xlink:href="#DejaVuSans-Bold-20" transform="translate(560.335938 0)"/>
     <use xlink:href="#DejaVuSans-Bold-49" transform="translate(595.150391 0)"/>
     <use xlink:href="#DejaVuSans-Bold-6e" transform="translate(632.357422 0)"/>
     <use xlink:href="#DejaVuSans-Bold-70" transform="translate(703.548828 0)"/>
     <use xlink:href="#DejaVuSans-Bold-75" transform="translate(775.130859 0)"/>
     <use xlink:href="#DejaVuSans-Bold-74" transform="translate(846.322266 0)"/>
    </g>
   </g>
   <g id="text_8">
    <!-- Model consumes: -->
    <g style="fill: #1f2937" transform="translate(704.7072 139.473637) scale(0.1 -0.1)">
     <defs>
      <path id="DejaVuSans-4d" d="M 628 4666 
L 1569 4666 
L 2759 1491 
L 3956 4666 
L 4897 4666 
L 4897 0 
L 4281 0 
L 4281 4097 
L 3078 897 
L 2444 897 
L 1241 4097 
L 1241 0 
L 628 0 
L 628 4666 
z
" transform="scale(0.015625)"/>
     </defs>
     <use xlink:href="#DejaVuSans-4d"/>
     <use xlink:href="#DejaVuSans-6f" transform="translate(86.279297 0)"/>
     <use xlink:href="#DejaVuSans-64" transform="translate(147.460938 0)"/>
     <use xlink:href="#DejaVuSans-65" transform="translate(210.9375 0)"/>
     <use xlink:href="#DejaVuSans-6c" transform="translate(272.460938 0)"/>
     <use xlink:href="#DejaVuSans-20" transform="translate(300.244141 0)"/>
     <use xlink:href="#DejaVuSans-63" transform="translate(332.03125 0)"/>
     <use xlink:href="#DejaVuSans-6f" transform="translate(387.011719 0)"/>
     <use xlink:href="#DejaVuSans-6e" transform="translate(448.193359 0)"/>
     <use xlink:href="#DejaVuSans-73" transform="translate(511.572266 0)"/>
     <use xlink:href="#DejaVuSans-75" transform="translate(563.671875 0)"/>
     <use xlink:href="#DejaVuSans-6d" transform="translate(627.050781 0)"/>
     <use xlink:href="#DejaVuSans-65" transform="translate(724.462891 0)"/>
     <use xlink:href="#DejaVuSans-73" transform="translate(785.986328 0)"/>
     <use xlink:href="#DejaVuSans-3a" transform="translate(838.085938 0)"/>
    </g>
    <!-- (HLT view, soft corrected view) -->
    <g style="fill: #1f2937" transform="translate(704.7072 151.431294) scale(0.1 -0.1)">
     <defs>
      <path id="DejaVuSans-48" d="M 628 4666 
L 1259 4666 
L 1259 2753 
L 3553 2753 
L 3553 4666 
L 4184 4666 
L 4184 0 
L 3553 0 
L 3553 2222 
L 1259 2222 
L 1259 0 
L 628 0 
L 628 4666 
z
" transform="scale(0.015625)"/>
      <path id="DejaVuSans-4c" d="M 628 4666 
L 1259 4666 
L 1259 531 
L 3531 531 
L 3531 0 
L 628 0 
L 628 4666 
z
" transform="scale(0.015625)"/>
      <path id="DejaVuSans-54" d="M -19 4666 
L 3928 4666 
L 3928 4134 
L 2272 4134 
L 2272 0 
L 1638 0 
L 1638 4134 
L -19 4134 
L -19 4666 
z
" transform="scale(0.015625)"/>
     </defs>
     <use xlink:href="#DejaVuSans-28"/>
     <use xlink:href="#DejaVuSans-48" transform="translate(39.013672 0)"/>
     <use xlink:href="#DejaVuSans-4c" transform="translate(114.208984 0)"/>
     <use xlink:href="#DejaVuSans-54" transform="translate(156.171875 0)"/>
     <use xlink:href="#DejaVuSans-20" transform="translate(217.255859 0)"/>
     <use xlink:href="#DejaVuSans-76" transform="translate(249.042969 0)"/>
     <use xlink:href="#DejaVuSans-69" transform="translate(308.222656 0)"/>
     <use xlink:href="#DejaVuSans-65" transform="translate(336.005859 0)"/>
     <use xlink:href="#DejaVuSans-77" transform="translate(397.529297 0)"/>
     <use xlink:href="#DejaVuSans-2c" transform="translate(479.316406 0)"/>
     <use xlink:href="#DejaVuSans-20" transform="translate(511.103516 0)"/>
     <use xlink:href="#DejaVuSans-73" transform="translate(542.890625 0)"/>
     <use xlink:href="#DejaVuSans-6f" transform="translate(594.990234 0)"/>
     <use xlink:href="#DejaVuSans-66" transform="translate(656.171875 0)"/>
     <use xlink:href="#DejaVuSans-74" transform="translate(689.626953 0)"/>
     <use xlink:href="#DejaVuSans-20" transform="translate(728.835938 0)"/>
     <use xlink:href="#DejaVuSans-63" transform="translate(760.623047 0)"/>
     <use xlink:href="#DejaVuSans-6f" transform="translate(815.603516 0)"/>
     <use xlink:href="#DejaVuSans-72" transform="translate(876.785156 0)"/>
     <use xlink:href="#DejaVuSans-72" transform="translate(916.148438 0)"/>
     <use xlink:href="#DejaVuSans-65" transform="translate(955.011719 0)"/>
     <use xlink:href="#DejaVuSans-63" transform="translate(1016.535156 0)"/>
     <use xlink:href="#DejaVuSans-74" transform="translate(1071.515625 0)"/>
     <use xlink:href="#DejaVuSans-65" transform="translate(1110.724609 0)"/>
     <use xlink:href="#DejaVuSans-64" transform="translate(1172.248047 0)"/>
     <use xlink:href="#DejaVuSans-20" transform="translate(1235.724609 0)"/>
     <use xlink:href="#DejaVuSans-76" transform="translate(1267.511719 0)"/>
     <use xlink:href="#DejaVuSans-69" transform="translate(1326.691406 0)"/>
     <use xlink:href="#DejaVuSans-65" transform="translate(1354.474609 0)"/>
     <use xlink:href="#DejaVuSans-77" transform="translate(1415.998047 0)"/>
     <use xlink:href="#DejaVuSans-29" transform="translate(1497.785156 0)"/>
    </g>
    <!-- for classification. -->
    <g style="fill: #1f2937" transform="translate(704.7072 163.38895) scale(0.1 -0.1)">
     <use xlink:href="#DejaVuSans-66"/>
     <use xlink:href="#DejaVuSans-6f" transform="translate(35.205078 0)"/>
     <use xlink:href="#DejaVuSans-72" transform="translate(96.386719 0)"/>
     <use xlink:href="#DejaVuSans-20" transform="translate(137.5 0)"/>
     <use xlink:href="#DejaVuSans-63" transform="translate(169.287109 0)"/>
     <use xlink:href="#DejaVuSans-6c" transform="translate(224.267578 0)"/>
     <use xlink:href="#DejaVuSans-61" transform="translate(252.050781 0)"/>
     <use xlink:href="#DejaVuSans-73" transform="translate(313.330078 0)"/>
     <use xlink:href="#DejaVuSans-73" transform="translate(365.429688 0)"/>
     <use xlink:href="#DejaVuSans-69" transform="translate(417.529297 0)"/>
     <use xlink:href="#DejaVuSans-66" transform="translate(445.3125 0)"/>
     <use xlink:href="#DejaVuSans-69" transform="translate(480.517578 0)"/>
     <use xlink:href="#DejaVuSans-63" transform="translate(508.300781 0)"/>
     <use xlink:href="#DejaVuSans-61" transform="translate(563.28125 0)"/>
     <use xlink:href="#DejaVuSans-74" transform="translate(624.560547 0)"/>
     <use xlink:href="#DejaVuSans-69" transform="translate(663.769531 0)"/>
     <use xlink:href="#DejaVuSans-6f" transform="translate(691.552734 0)"/>
     <use xlink:href="#DejaVuSans-6e" transform="translate(752.734375 0)"/>
     <use xlink:href="#DejaVuSans-2e" transform="translate(816.113281 0)"/>
    </g>
   </g>
   <g id="text_9">
    <!-- Same ambiguous jet, two representations: -->
    <g style="fill: #0f172a" transform="translate(66.816 316.08) scale(0.125 -0.125)">
     <defs>
      <path id="DejaVuSans-Bold-6a" d="M 538 3500 
L 1656 3500 
L 1656 63 
Q 1656 -641 1318 -1011 
Q 981 -1381 341 -1381 
L -213 -1381 
L -213 -647 
L -19 -647 
Q 300 -647 419 -503 
Q 538 -359 538 63 
L 538 3500 
z
M 538 4863 
L 1656 4863 
L 1656 3950 
L 538 3950 
L 538 4863 
z
" transform="scale(0.015625)"/>
      <path id="DejaVuSans-Bold-2c" d="M 653 1209 
L 1778 1209 
L 1778 256 
L 1006 -909 
L 341 -909 
L 653 256 
L 653 1209 
z
" transform="scale(0.015625)"/>
     </defs>
     <use xlink:href="#DejaVuSans-Bold-53"/>
     <use xlink:href="#DejaVuSans-Bold-61" transform="translate(72.021484 0)"/>
     <use xlink:href="#DejaVuSans-Bold-6d" transform="translate(139.501953 0)"/>
     <use xlink:href="#DejaVuSans-Bold-65" transform="translate(243.701172 0)"/>
     <use xlink:href="#DejaVuSans-Bold-20" transform="translate(311.523438 0)"/>
     <use xlink:href="#DejaVuSans-Bold-61" transform="translate(346.337891 0)"/>
     <use xlink:href="#DejaVuSans-Bold-6d" transform="translate(413.818359 0)"/>
     <use xlink:href="#DejaVuSans-Bold-62" transform="translate(518.017578 0)"/>
     <use xlink:href="#DejaVuSans-Bold-69" transform="translate(589.599609 0)"/>
     <use xlink:href="#DejaVuSans-Bold-67" transform="translate(623.876953 0)"/>
     <use xlink:href="#DejaVuSans-Bold-75" transform="translate(695.458984 0)"/>
     <use xlink:href="#DejaVuSans-Bold-6f" transform="translate(766.650391 0)"/>
     <use xlink:href="#DejaVuSans-Bold-75" transform="translate(835.351562 0)"/>
     <use xlink:href="#DejaVuSans-Bold-73" transform="translate(906.542969 0)"/>
     <use xlink:href="#DejaVuSans-Bold-20" transform="translate(966.064453 0)"/>
     <use xlink:href="#DejaVuSans-Bold-6a" transform="translate(1000.878906 0)"/>
     <use xlink:href="#DejaVuSans-Bold-65" transform="translate(1035.15625 0)"/>
     <use xlink:href="#DejaVuSans-Bold-74" transform="translate(1102.978516 0)"/>
     <use xlink:href="#DejaVuSans-Bold-2c" transform="translate(1150.78125 0)"/>
     <use xlink:href="#DejaVuSans-Bold-20" transform="translate(1188.769531 0)"/>
     <use xlink:href="#DejaVuSans-Bold-74" transform="translate(1223.583984 0)"/>
     <use xlink:href="#DejaVuSans-Bold-77" transform="translate(1271.386719 0)"/>
     <use xlink:href="#DejaVuSans-Bold-6f" transform="translate(1363.769531 0)"/>
     <use xlink:href="#DejaVuSans-Bold-20" transform="translate(1432.470703 0)"/>
     <use xlink:href="#DejaVuSans-Bold-72" transform="translate(1467.285156 0)"/>
     <use xlink:href="#DejaVuSans-Bold-65" transform="translate(1516.601562 0)"/>
     <use xlink:href="#DejaVuSans-Bold-70" transform="translate(1584.423828 0)"/>
     <use xlink:href="#DejaVuSans-Bold-72" transform="translate(1656.005859 0)"/>
     <use xlink:href="#DejaVuSans-Bold-65" transform="translate(1705.322266 0)"/>
     <use xlink:href="#DejaVuSans-Bold-73" transform="translate(1773.144531 0)"/>
     <use xlink:href="#DejaVuSans-Bold-65" transform="translate(1832.666016 0)"/>
     <use xlink:href="#DejaVuSans-Bold-6e" transform="translate(1900.488281 0)"/>
     <use xlink:href="#DejaVuSans-Bold-74" transform="translate(1971.679688 0)"/>
     <use xlink:href="#DejaVuSans-Bold-61" transform="translate(2019.482422 0)"/>
     <use xlink:href="#DejaVuSans-Bold-74" transform="translate(2086.962891 0)"/>
     <use xlink:href="#DejaVuSans-Bold-69" transform="translate(2134.765625 0)"/>
     <use xlink:href="#DejaVuSans-Bold-6f" transform="translate(2169.042969 0)"/>
     <use xlink:href="#DejaVuSans-Bold-6e" transform="translate(2237.744141 0)"/>
     <use xlink:href="#DejaVuSans-Bold-73" transform="translate(2308.935547 0)"/>
     <use xlink:href="#DejaVuSans-Bold-3a" transform="translate(2368.457031 0)"/>
    </g>
   </g>
   <g id="text_10">
    <!-- Hard View -->
    <g style="fill: #0f172a" transform="translate(78.7392 369.762769) scale(0.13 -0.13)">
     <defs>
      <path id="DejaVuSans-Bold-48" d="M 588 4666 
L 1791 4666 
L 1791 2888 
L 3566 2888 
L 3566 4666 
L 4769 4666 
L 4769 0 
L 3566 0 
L 3566 1978 
L 1791 1978 
L 1791 0 
L 588 0 
L 588 4666 
z
" transform="scale(0.015625)"/>
     </defs>
     <use xlink:href="#DejaVuSans-Bold-48"/>
     <use xlink:href="#DejaVuSans-Bold-61" transform="translate(83.691406 0)"/>
     <use xlink:href="#DejaVuSans-Bold-72" transform="translate(151.171875 0)"/>
     <use xlink:href="#DejaVuSans-Bold-64" transform="translate(200.488281 0)"/>
     <use xlink:href="#DejaVuSans-Bold-20" transform="translate(272.070312 0)"/>
     <use xlink:href="#DejaVuSans-Bold-56" transform="translate(306.884766 0)"/>
     <use xlink:href="#DejaVuSans-Bold-69" transform="translate(382.527344 0)"/>
     <use xlink:href="#DejaVuSans-Bold-65" transform="translate(416.804688 0)"/>
     <use xlink:href="#DejaVuSans-Bold-77" transform="translate(484.626953 0)"/>
    </g>
   </g>
   <g id="text_11">
    <!-- Binary selection: -->
    <g style="fill: #1f2937" transform="translate(78.7392 392.193637) scale(0.1 -0.1)">
     <defs>
      <path id="DejaVuSans-42" d="M 1259 2228 
L 1259 519 
L 2272 519 
Q 2781 519 3026 730 
Q 3272 941 3272 1375 
Q 3272 1813 3026 2020 
Q 2781 2228 2272 2228 
L 1259 2228 
z
M 1259 4147 
L 1259 2741 
L 2194 2741 
Q 2656 2741 2882 2914 
Q 3109 3088 3109 3444 
Q 3109 3797 2882 3972 
Q 2656 4147 2194 4147 
L 1259 4147 
z
M 628 4666 
L 2241 4666 
Q 2963 4666 3353 4366 
Q 3744 4066 3744 3513 
Q 3744 3084 3544 2831 
Q 3344 2578 2956 2516 
Q 3422 2416 3680 2098 
Q 3938 1781 3938 1306 
Q 3938 681 3513 340 
Q 3088 0 2303 0 
L 628 0 
L 628 4666 
z
" transform="scale(0.015625)"/>
     </defs>
     <use xlink:href="#DejaVuSans-42"/>
     <use xlink:href="#DejaVuSans-69" transform="translate(68.603516 0)"/>
     <use xlink:href="#DejaVuSans-6e" transform="translate(96.386719 0)"/>
     <use xlink:href="#DejaVuSans-61" transform="translate(159.765625 0)"/>
     <use xlink:href="#DejaVuSans-72" transform="translate(221.044922 0)"/>
     <use xlink:href="#DejaVuSans-79" transform="translate(262.158203 0)"/>
     <use xlink:href="#DejaVuSans-20" transform="translate(321.337891 0)"/>
     <use xlink:href="#DejaVuSans-73" transform="translate(353.125 0)"/>
     <use xlink:href="#DejaVuSans-65" transform="translate(405.224609 0)"/>
     <use xlink:href="#DejaVuSans-6c" transform="translate(466.748047 0)"/>
     <use xlink:href="#DejaVuSans-65" transform="translate(494.53125 0)"/>
     <use xlink:href="#DejaVuSans-63" transform="translate(556.054688 0)"/>
     <use xlink:href="#DejaVuSans-74" transform="translate(611.035156 0)"/>
     <use xlink:href="#DejaVuSans-69" transform="translate(650.244141 0)"/>
     <use xlink:href="#DejaVuSans-6f" transform="translate(678.027344 0)"/>
     <use xlink:href="#DejaVuSans-6e" transform="translate(739.208984 0)"/>
     <use xlink:href="#DejaVuSans-3a" transform="translate(802.587891 0)"/>
    </g>
    <!-- [1, 0, 1, 0, ...] -->
    <g style="fill: #1f2937" transform="translate(78.7392 404.151294) scale(0.1 -0.1)">
     <defs>
      <path id="DejaVuSans-31" d="M 794 531 
L 1825 531 
L 1825 4091 
L 703 3866 
L 703 4441 
L 1819 4666 
L 2450 4666 
L 2450 531 
L 3481 531 
L 3481 0 
L 794 0 
L 794 531 
z
" transform="scale(0.015625)"/>
      <path id="DejaVuSans-30" d="M 2034 4250 
Q 1547 4250 1301 3770 
Q 1056 3291 1056 2328 
Q 1056 1369 1301 889 
Q 1547 409 2034 409 
Q 2525 409 2770 889 
Q 3016 1369 3016 2328 
Q 3016 3291 2770 3770 
Q 2525 4250 2034 4250 
z
M 2034 4750 
Q 2819 4750 3233 4129 
Q 3647 3509 3647 2328 
Q 3647 1150 3233 529 
Q 2819 -91 2034 -91 
Q 1250 -91 836 529 
Q 422 1150 422 2328 
Q 422 3509 836 4129 
Q 1250 4750 2034 4750 
z
" transform="scale(0.015625)"/>
     </defs>
     <use xlink:href="#DejaVuSans-5b"/>
     <use xlink:href="#DejaVuSans-31" transform="translate(39.013672 0)"/>
     <use xlink:href="#DejaVuSans-2c" transform="translate(102.636719 0)"/>
     <use xlink:href="#DejaVuSans-20" transform="translate(134.423828 0)"/>
     <use xlink:href="#DejaVuSans-30" transform="translate(166.210938 0)"/>
     <use xlink:href="#DejaVuSans-2c" transform="translate(229.833984 0)"/>
     <use xlink:href="#DejaVuSans-20" transform="translate(261.621094 0)"/>
     <use xlink:href="#DejaVuSans-31" transform="translate(293.408203 0)"/>
     <use xlink:href="#DejaVuSans-2c" transform="translate(357.03125 0)"/>
     <use xlink:href="#DejaVuSans-20" transform="translate(388.818359 0)"/>
     <use xlink:href="#DejaVuSans-30" transform="translate(420.605469 0)"/>
     <use xlink:href="#DejaVuSans-2c" transform="translate(484.228516 0)"/>
     <use xlink:href="#DejaVuSans-20" transform="translate(516.015625 0)"/>
     <use xlink:href="#DejaVuSans-2e" transform="translate(547.802734 0)"/>
     <use xlink:href="#DejaVuSans-2e" transform="translate(579.589844 0)"/>
     <use xlink:href="#DejaVuSans-2e" transform="translate(611.376953 0)"/>
     <use xlink:href="#DejaVuSans-5d" transform="translate(643.164062 0)"/>
    </g>
    <!-- Drops alternate hypotheses. -->
    <g style="fill: #1f2937" transform="translate(78.7392 416.10895) scale(0.1 -0.1)">
     <defs>
      <path id="DejaVuSans-44" d="M 1259 4147 
L 1259 519 
L 2022 519 
Q 2988 519 3436 956 
Q 3884 1394 3884 2338 
Q 3884 3275 3436 3711 
Q 2988 4147 2022 4147 
L 1259 4147 
z
M 628 4666 
L 1925 4666 
Q 3281 4666 3915 4102 
Q 4550 3538 4550 2338 
Q 4550 1131 3912 565 
Q 3275 0 1925 0 
L 628 0 
L 628 4666 
z
" transform="scale(0.015625)"/>
     </defs>
     <use xlink:href="#DejaVuSans-44"/>
     <use xlink:href="#DejaVuSans-72" transform="translate(77.001953 0)"/>
     <use xlink:href="#DejaVuSans-6f" transform="translate(115.865234 0)"/>
     <use xlink:href="#DejaVuSans-70" transform="translate(177.046875 0)"/>
     <use xlink:href="#DejaVuSans-73" transform="translate(240.523438 0)"/>
     <use xlink:href="#DejaVuSans-20" transform="translate(292.623047 0)"/>
     <use xlink:href="#DejaVuSans-61" transform="translate(324.410156 0)"/>
     <use xlink:href="#DejaVuSans-6c" transform="translate(385.689453 0)"/>
     <use xlink:href="#DejaVuSans-74" transform="translate(413.472656 0)"/>
     <use xlink:href="#DejaVuSans-65" transform="translate(452.681641 0)"/>
     <use xlink:href="#DejaVuSans-72" transform="translate(514.205078 0)"/>
     <use xlink:href="#DejaVuSans-6e" transform="translate(553.568359 0)"/>
     <use xlink:href="#DejaVuSans-61" transform="translate(616.947266 0)"/>
     <use xlink:href="#DejaVuSans-74" transform="translate(678.226562 0)"/>
     <use xlink:href="#DejaVuSans-65" transform="translate(717.435547 0)"/>
     <use xlink:href="#DejaVuSans-20" transform="translate(778.958984 0)"/>
     <use xlink:href="#DejaVuSans-68" transform="translate(810.746094 0)"/>
     <use xlink:href="#DejaVuSans-79" transform="translate(874.125 0)"/>
     <use xlink:href="#DejaVuSans-70" transform="translate(933.304688 0)"/>
     <use xlink:href="#DejaVuSans-6f" transform="translate(996.78125 0)"/>
     <use xlink:href="#DejaVuSans-74" transform="translate(1057.962891 0)"/>
     <use xlink:href="#DejaVuSans-68" transform="translate(1097.171875 0)"/>
     <use xlink:href="#DejaVuSans-65" transform="translate(1160.550781 0)"/>
     <use xlink:href="#DejaVuSans-73" transform="translate(1222.074219 0)"/>
     <use xlink:href="#DejaVuSans-65" transform="translate(1274.173828 0)"/>
     <use xlink:href="#DejaVuSans-73" transform="translate(1335.697266 0)"/>
     <use xlink:href="#DejaVuSans-2e" transform="translate(1387.796875 0)"/>
    </g>
   </g>
   <g id="text_12">
    <!-- Soft View -->
    <g style="fill: #0f172a" transform="translate(535.7952 369.762769) scale(0.13 -0.13)">
     <use xlink:href="#DejaVuSans-Bold-53"/>
     <use xlink:href="#DejaVuSans-Bold-6f" transform="translate(72.021484 0)"/>
     <use xlink:href="#DejaVuSans-Bold-66" transform="translate(140.722656 0)"/>
     <use xlink:href="#DejaVuSans-Bold-74" transform="translate(184.228516 0)"/>
     <use xlink:href="#DejaVuSans-Bold-20" transform="translate(232.03125 0)"/>
     <use xlink:href="#DejaVuSans-Bold-56" transform="translate(266.845703 0)"/>
     <use xlink:href="#DejaVuSans-Bold-69" transform="translate(342.488281 0)"/>
     <use xlink:href="#DejaVuSans-Bold-65" transform="translate(376.765625 0)"/>
     <use xlink:href="#DejaVuSans-Bold-77" transform="translate(444.587891 0)"/>
    </g>
   </g>
   <g id="text_13">
    <!-- Continuous weighting: -->
    <g style="fill: #1f2937" transform="translate(535.7952 392.193637) scale(0.1 -0.1)">
     <use xlink:href="#DejaVuSans-43"/>
     <use xlink:href="#DejaVuSans-6f" transform="translate(69.824219 0)"/>
     <use xlink:href="#DejaVuSans-6e" transform="translate(131.005859 0)"/>
     <use xlink:href="#DejaVuSans-74" transform="translate(194.384766 0)"/>
     <use xlink:href="#DejaVuSans-69" transform="translate(233.59375 0)"/>
     <use xlink:href="#DejaVuSans-6e" transform="translate(261.376953 0)"/>
     <use xlink:href="#DejaVuSans-75" transform="translate(324.755859 0)"/>
     <use xlink:href="#DejaVuSans-6f" transform="translate(388.134766 0)"/>
     <use xlink:href="#DejaVuSans-75" transform="translate(449.316406 0)"/>
     <use xlink:href="#DejaVuSans-73" transform="translate(512.695312 0)"/>
     <use xlink:href="#DejaVuSans-20" transform="translate(564.794922 0)"/>
     <use xlink:href="#DejaVuSans-77" transform="translate(596.582031 0)"/>
     <use xlink:href="#DejaVuSans-65" transform="translate(678.369141 0)"/>
     <use xlink:href="#DejaVuSans-69" transform="translate(739.892578 0)"/>
     <use xlink:href="#DejaVuSans-67" transform="translate(767.675781 0)"/>
     <use xlink:href="#DejaVuSans-68" transform="translate(831.152344 0)"/>
     <use xlink:href="#DejaVuSans-74" transform="translate(894.53125 0)"/>
     <use xlink:href="#DejaVuSans-69" transform="translate(933.740234 0)"/>
     <use xlink:href="#DejaVuSans-6e" transform="translate(961.523438 0)"/>
     <use xlink:href="#DejaVuSans-67" transform="translate(1024.902344 0)"/>
     <use xlink:href="#DejaVuSans-3a" transform="translate(1088.378906 0)"/>
    </g>
    <!-- [0.82, 0.41, 0.77, 0.19, ...] -->
    <g style="fill: #1f2937" transform="translate(535.7952 404.151294) scale(0.1 -0.1)">
     <defs>
      <path id="DejaVuSans-38" d="M 2034 2216 
Q 1584 2216 1326 1975 
Q 1069 1734 1069 1313 
Q 1069 891 1326 650 
Q 1584 409 2034 409 
Q 2484 409 2743 651 
Q 3003 894 3003 1313 
Q 3003 1734 2745 1975 
Q 2488 2216 2034 2216 
z
M 1403 2484 
Q 997 2584 770 2862 
Q 544 3141 544 3541 
Q 544 4100 942 4425 
Q 1341 4750 2034 4750 
Q 2731 4750 3128 4425 
Q 3525 4100 3525 3541 
Q 3525 3141 3298 2862 
Q 3072 2584 2669 2484 
Q 3125 2378 3379 2068 
Q 3634 1759 3634 1313 
Q 3634 634 3220 271 
Q 2806 -91 2034 -91 
Q 1263 -91 848 271 
Q 434 634 434 1313 
Q 434 1759 690 2068 
Q 947 2378 1403 2484 
z
M 1172 3481 
Q 1172 3119 1398 2916 
Q 1625 2713 2034 2713 
Q 2441 2713 2670 2916 
Q 2900 3119 2900 3481 
Q 2900 3844 2670 4047 
Q 2441 4250 2034 4250 
Q 1625 4250 1398 4047 
Q 1172 3844 1172 3481 
z
" transform="scale(0.015625)"/>
      <path id="DejaVuSans-32" d="M 1228 531 
L 3431 531 
L 3431 0 
L 469 0 
L 469 531 
Q 828 903 1448 1529 
Q 2069 2156 2228 2338 
Q 2531 2678 2651 2914 
Q 2772 3150 2772 3378 
Q 2772 3750 2511 3984 
Q 2250 4219 1831 4219 
Q 1534 4219 1204 4116 
Q 875 4013 500 3803 
L 500 4441 
Q 881 4594 1212 4672 
Q 1544 4750 1819 4750 
Q 2544 4750 2975 4387 
Q 3406 4025 3406 3419 
Q 3406 3131 3298 2873 
Q 3191 2616 2906 2266 
Q 2828 2175 2409 1742 
Q 1991 1309 1228 531 
z
" transform="scale(0.015625)"/>
      <path id="DejaVuSans-34" d="M 2419 4116 
L 825 1625 
L 2419 1625 
L 2419 4116 
z
M 2253 4666 
L 3047 4666 
L 3047 1625 
L 3713 1625 
L 3713 1100 
L 3047 1100 
L 3047 0 
L 2419 0 
L 2419 1100 
L 313 1100 
L 313 1709 
L 2253 4666 
z
" transform="scale(0.015625)"/>
      <path id="DejaVuSans-39" d="M 703 97 
L 703 672 
Q 941 559 1184 500 
Q 1428 441 1663 441 
Q 2288 441 2617 861 
Q 2947 1281 2994 2138 
Q 2813 1869 2534 1725 
Q 2256 1581 1919 1581 
Q 1219 1581 811 2004 
Q 403 2428 403 3163 
Q 403 3881 828 4315 
Q 1253 4750 1959 4750 
Q 2769 4750 3195 4129 
Q 3622 3509 3622 2328 
Q 3622 1225 3098 567 
Q 2575 -91 1691 -91 
Q 1453 -91 1209 -44 
Q 966 3 703 97 
z
M 1959 2075 
Q 2384 2075 2632 2365 
Q 2881 2656 2881 3163 
Q 2881 3666 2632 3958 
Q 2384 4250 1959 4250 
Q 1534 4250 1286 3958 
Q 1038 3666 1038 3163 
Q 1038 2656 1286 2365 
Q 1534 2075 1959 2075 
z
" transform="scale(0.015625)"/>
     </defs>
     <use xlink:href="#DejaVuSans-5b"/>
     <use xlink:href="#DejaVuSans-30" transform="translate(39.013672 0)"/>
     <use xlink:href="#DejaVuSans-2e" transform="translate(102.636719 0)"/>
     <use xlink:href="#DejaVuSans-38" transform="translate(134.423828 0)"/>
     <use xlink:href="#DejaVuSans-32" transform="translate(198.046875 0)"/>
     <use xlink:href="#DejaVuSans-2c" transform="translate(261.669922 0)"/>
     <use xlink:href="#DejaVuSans-20" transform="translate(293.457031 0)"/>
     <use xlink:href="#DejaVuSans-30" transform="translate(325.244141 0)"/>
     <use xlink:href="#DejaVuSans-2e" transform="translate(388.867188 0)"/>
     <use xlink:href="#DejaVuSans-34" transform="translate(420.654297 0)"/>
     <use xlink:href="#DejaVuSans-31" transform="translate(484.277344 0)"/>
     <use xlink:href="#DejaVuSans-2c" transform="translate(547.900391 0)"/>
     <use xlink:href="#DejaVuSans-20" transform="translate(579.6875 0)"/>
     <use xlink:href="#DejaVuSans-30" transform="translate(611.474609 0)"/>
     <use xlink:href="#DejaVuSans-2e" transform="translate(675.097656 0)"/>
     <use xlink:href="#DejaVuSans-37" transform="translate(706.884766 0)"/>
     <use xlink:href="#DejaVuSans-37" transform="translate(770.507812 0)"/>
     <use xlink:href="#DejaVuSans-2c" transform="translate(834.130859 0)"/>
     <use xlink:href="#DejaVuSans-20" transform="translate(865.917969 0)"/>
     <use xlink:href="#DejaVuSans-30" transform="translate(897.705078 0)"/>
     <use xlink:href="#DejaVuSans-2e" transform="translate(961.328125 0)"/>
     <use xlink:href="#DejaVuSans-31" transform="translate(993.115234 0)"/>
     <use xlink:href="#DejaVuSans-39" transform="translate(1056.738281 0)"/>
     <use xlink:href="#DejaVuSans-2c" transform="translate(1120.361328 0)"/>
     <use xlink:href="#DejaVuSans-20" transform="translate(1152.148438 0)"/>
     <use xlink:href="#DejaVuSans-2e" transform="translate(1183.935547 0)"/>
     <use xlink:href="#DejaVuSans-2e" transform="translate(1215.722656 0)"/>
     <use xlink:href="#DejaVuSans-2e" transform="translate(1247.509766 0)"/>
     <use xlink:href="#DejaVuSans-5d" transform="translate(1279.296875 0)"/>
    </g>
    <!-- Retains graded plausibility across candidates. -->
    <g style="fill: #1f2937" transform="translate(535.7952 416.10895) scale(0.1 -0.1)">
     <use xlink:href="#DejaVuSans-52"/>
     <use xlink:href="#DejaVuSans-65" transform="translate(64.982422 0)"/>
     <use xlink:href="#DejaVuSans-74" transform="translate(126.505859 0)"/>
     <use xlink:href="#DejaVuSans-61" transform="translate(165.714844 0)"/>
     <use xlink:href="#DejaVuSans-69" transform="translate(226.994141 0)"/>
     <use xlink:href="#DejaVuSans-6e" transform="translate(254.777344 0)"/>
     <use xlink:href="#DejaVuSans-73" transform="translate(318.15625 0)"/>
     <use xlink:href="#DejaVuSans-20" transform="translate(370.255859 0)"/>
     <use xlink:href="#DejaVuSans-67" transform="translate(402.042969 0)"/>
     <use xlink:href="#DejaVuSans-72" transform="translate(465.519531 0)"/>
     <use xlink:href="#DejaVuSans-61" transform="translate(506.632812 0)"/>
     <use xlink:href="#DejaVuSans-64" transform="translate(567.912109 0)"/>
     <use xlink:href="#DejaVuSans-65" transform="translate(631.388672 0)"/>
     <use xlink:href="#DejaVuSans-64" transform="translate(692.912109 0)"/>
     <use xlink:href="#DejaVuSans-20" transform="translate(756.388672 0)"/>
     <use xlink:href="#DejaVuSans-70" transform="translate(788.175781 0)"/>
     <use xlink:href="#DejaVuSans-6c" transform="translate(851.652344 0)"/>
     <use xlink:href="#DejaVuSans-61" transform="translate(879.435547 0)"/>
     <use xlink:href="#DejaVuSans-75" transform="translate(940.714844 0)"/>
     <use xlink:href="#DejaVuSans-73" transform="translate(1004.09375 0)"/>
     <use xlink:href="#DejaVuSans-69" transform="translate(1056.193359 0)"/>
     <use xlink:href="#DejaVuSans-62" transform="translate(1083.976562 0)"/>
     <use xlink:href="#DejaVuSans-69" transform="translate(1147.453125 0)"/>
     <use xlink:href="#DejaVuSans-6c" transform="translate(1175.236328 0)"/>
     <use xlink:href="#DejaVuSans-69" transform="translate(1203.019531 0)"/>
     <use xlink:href="#DejaVuSans-74" transform="translate(1230.802734 0)"/>
     <use xlink:href="#DejaVuSans-79" transform="translate(1270.011719 0)"/>
     <use xlink:href="#DejaVuSans-20" transform="translate(1329.191406 0)"/>
     <use xlink:href="#DejaVuSans-61" transform="translate(1360.978516 0)"/>
     <use xlink:href="#DejaVuSans-63" transform="translate(1422.257812 0)"/>
     <use xlink:href="#DejaVuSans-72" transform="translate(1477.238281 0)"/>
     <use xlink:href="#DejaVuSans-6f" transform="translate(1516.101562 0)"/>
     <use xlink:href="#DejaVuSans-73" transform="translate(1577.283203 0)"/>
     <use xlink:href="#DejaVuSans-73" transform="translate(1629.382812 0)"/>
     <use xlink:href="#DejaVuSans-20" transform="translate(1681.482422 0)"/>
     <use xlink:href="#DejaVuSans-63" transform="translate(1713.269531 0)"/>
     <use xlink:href="#DejaVuSans-61" transform="translate(1768.25 0)"/>
     <use xlink:href="#DejaVuSans-6e" transform="translate(1829.529297 0)"/>
     <use xlink:href="#DejaVuSans-64" transform="translate(1892.908203 0)"/>
     <use xlink:href="#DejaVuSans-69" transform="translate(1956.384766 0)"/>
     <use xlink:href="#DejaVuSans-64" transform="translate(1984.167969 0)"/>
     <use xlink:href="#DejaVuSans-61" transform="translate(2047.644531 0)"/>
     <use xlink:href="#DejaVuSans-74" transform="translate(2108.923828 0)"/>
     <use xlink:href="#DejaVuSans-65" transform="translate(2148.132812 0)"/>
     <use xlink:href="#DejaVuSans-73" transform="translate(2209.65625 0)"/>
     <use xlink:href="#DejaVuSans-2e" transform="translate(2261.755859 0)"/>
    </g>
   </g>
   <g id="text_14">
    <!-- Key benefit: differentiable uncertainty representation during training. -->
    <g style="fill: #14532d" transform="translate(66.816 518.256) scale(0.12 -0.12)">
     <defs>
      <path id="DejaVuSans-4b" d="M 628 4666 
L 1259 4666 
L 1259 2694 
L 3353 4666 
L 4166 4666 
L 1850 2491 
L 4331 0 
L 3500 0 
L 1259 2247 
L 1259 0 
L 628 0 
L 628 4666 
z
" transform="scale(0.015625)"/>
     </defs>
     <use xlink:href="#DejaVuSans-4b"/>
     <use xlink:href="#DejaVuSans-65" transform="translate(60.576172 0)"/>
     <use xlink:href="#DejaVuSans-79" transform="translate(122.099609 0)"/>
     <use xlink:href="#DejaVuSans-20" transform="translate(181.279297 0)"/>
     <use xlink:href="#DejaVuSans-62" transform="translate(213.066406 0)"/>
     <use xlink:href="#DejaVuSans-65" transform="translate(276.542969 0)"/>
     <use xlink:href="#DejaVuSans-6e" transform="translate(338.066406 0)"/>
     <use xlink:href="#DejaVuSans-65" transform="translate(401.445312 0)"/>
     <use xlink:href="#DejaVuSans-66" transform="translate(462.96875 0)"/>
     <use xlink:href="#DejaVuSans-69" transform="translate(498.173828 0)"/>
     <use xlink:href="#DejaVuSans-74" transform="translate(525.957031 0)"/>
     <use xlink:href="#DejaVuSans-3a" transform="translate(565.166016 0)"/>
     <use xlink:href="#DejaVuSans-20" transform="translate(598.857422 0)"/>
     <use xlink:href="#DejaVuSans-64" transform="translate(630.644531 0)"/>
     <use xlink:href="#DejaVuSans-69" transform="translate(694.121094 0)"/>
     <use xlink:href="#DejaVuSans-66" transform="translate(721.904297 0)"/>
     <use xlink:href="#DejaVuSans-66" transform="translate(757.109375 0)"/>
     <use xlink:href="#DejaVuSans-65" transform="translate(792.314453 0)"/>
     <use xlink:href="#DejaVuSans-72" transform="translate(853.837891 0)"/>
     <use xlink:href="#DejaVuSans-65" transform="translate(892.701172 0)"/>
     <use xlink:href="#DejaVuSans-6e" transform="translate(954.224609 0)"/>
     <use xlink:href="#DejaVuSans-74" transform="translate(1017.603516 0)"/>
     <use xlink:href="#DejaVuSans-69" transform="translate(1056.8125 0)"/>
     <use xlink:href="#DejaVuSans-61" transform="translate(1084.595703 0)"/>
     <use xlink:href="#DejaVuSans-62" transform="translate(1145.875 0)"/>
     <use xlink:href="#DejaVuSans-6c" transform="translate(1209.351562 0)"/>
     <use xlink:href="#DejaVuSans-65" transform="translate(1237.134766 0)"/>
     <use xlink:href="#DejaVuSans-20" transform="translate(1298.658203 0)"/>
     <use xlink:href="#DejaVuSans-75" transform="translate(1330.445312 0)"/>
     <use xlink:href="#DejaVuSans-6e" transform="translate(1393.824219 0)"/>
     <use xlink:href="#DejaVuSans-63" transform="translate(1457.203125 0)"/>
     <use xlink:href="#DejaVuSans-65" transform="translate(1512.183594 0)"/>
     <use xlink:href="#DejaVuSans-72" transform="translate(1573.707031 0)"/>
     <use xlink:href="#DejaVuSans-74" transform="translate(1614.820312 0)"/>
     <use xlink:href="#DejaVuSans-61" transform="translate(1654.029297 0)"/>
     <use xlink:href="#DejaVuSans-69" transform="translate(1715.308594 0)"/>
     <use xlink:href="#DejaVuSans-6e" transform="translate(1743.091797 0)"/>
     <use xlink:href="#DejaVuSans-74" transform="translate(1806.470703 0)"/>
     <use xlink:href="#DejaVuSans-79" transform="translate(1845.679688 0)"/>
     <use xlink:href="#DejaVuSans-20" transform="translate(1904.859375 0)"/>
     <use xlink:href="#DejaVuSans-72" transform="translate(1936.646484 0)"/>
     <use xlink:href="#DejaVuSans-65" transform="translate(1975.509766 0)"/>
     <use xlink:href="#DejaVuSans-70" transform="translate(2037.033203 0)"/>
     <use xlink:href="#DejaVuSans-72" transform="translate(2100.509766 0)"/>
     <use xlink:href="#DejaVuSans-65" transform="translate(2139.373047 0)"/>
     <use xlink:href="#DejaVuSans-73" transform="translate(2200.896484 0)"/>
     <use xlink:href="#DejaVuSans-65" transform="translate(2252.996094 0)"/>
     <use xlink:href="#DejaVuSans-6e" transform="translate(2314.519531 0)"/>
     <use xlink:href="#DejaVuSans-74" transform="translate(2377.898438 0)"/>
     <use xlink:href="#DejaVuSans-61" transform="translate(2417.107422 0)"/>
     <use xlink:href="#DejaVuSans-74" transform="translate(2478.386719 0)"/>
     <use xlink:href="#DejaVuSans-69" transform="translate(2517.595703 0)"/>
     <use xlink:href="#DejaVuSans-6f" transform="translate(2545.378906 0)"/>
     <use xlink:href="#DejaVuSans-6e" transform="translate(2606.560547 0)"/>
     <use xlink:href="#DejaVuSans-20" transform="translate(2669.939453 0)"/>
     <use xlink:href="#DejaVuSans-64" transform="translate(2701.726562 0)"/>
     <use xlink:href="#DejaVuSans-75" transform="translate(2765.203125 0)"/>
     <use xlink:href="#DejaVuSans-72" transform="translate(2828.582031 0)"/>
     <use xlink:href="#DejaVuSans-69" transform="translate(2869.695312 0)"/>
     <use xlink:href="#DejaVuSans-6e" transform="translate(2897.478516 0)"/>
     <use xlink:href="#DejaVuSans-67" transform="translate(2960.857422 0)"/>
     <use xlink:href="#DejaVuSans-20" transform="translate(3024.333984 0)"/>
     <use xlink:href="#DejaVuSans-74" transform="translate(3056.121094 0)"/>
     <use xlink:href="#DejaVuSans-72" transform="translate(3095.330078 0)"/>
     <use xlink:href="#DejaVuSans-61" transform="translate(3136.443359 0)"/>
     <use xlink:href="#DejaVuSans-69" transform="translate(3197.722656 0)"/>
     <use xlink:href="#DejaVuSans-6e" transform="translate(3225.505859 0)"/>
     <use xlink:href="#DejaVuSans-69" transform="translate(3288.884766 0)"/>
     <use xlink:href="#DejaVuSans-6e" transform="translate(3316.667969 0)"/>
     <use xlink:href="#DejaVuSans-67" transform="translate(3380.046875 0)"/>
     <use xlink:href="#DejaVuSans-2e" transform="translate(3443.523438 0)"/>
    </g>
   </g>
  </g>
 </g>
 <defs>
  <clipPath id="p44e3559447">
   <rect x="7.2" y="7.2" width="993.6" height="561.6"/>
  </clipPath>
 </defs>
</svg>
