<?xml version="1.0" encoding="utf-8" standalone="no"?>
<!DOCTYPE svg PUBLIC "-//W3C//DTD SVG 1.1//EN"
  "http://www.w3.org/Graphics/SVG/1.1/DTD/svg11.dtd">
<svg xmlns:xlink="http://www.w3.org/1999/xlink" width="1008pt" height="576pt" viewBox="0 0 1008 576" xmlns="http://www.w3.org/2000/svg" version="1.1">
 <metadata>
  <rdf:RDF xmlns:dc="http://purl.org/dc/elements/1.1/" xmlns:cc="http://creativecommons.org/ns#" xmlns:rdf="http://www.w3.org/1999/02/22-rdf-syntax-ns#">
   <cc:Work>
    <dc:type rdf:resource="http://purl.org/dc/dcmitype/StillImage"/>
    <dc:date>2026-04-01T02:30:55.967594</dc:date>
    <dc:format>image/svg+xml</dc:format>
    <dc:creator>
     <cc:Agent>
      <dc:title>Matplotlib v3.10.3, https://matplotlib.org/</dc:title>
     </cc:Agent>
    </dc:creator>
   </cc:Work>
  </rdf:RDF>
 </metadata>
 <defs>
  <style type="text/css">*{stroke-linejoin: round; stroke-linecap: butt}</style>
 </defs>
 <g id="figure_1">
  <g id="patch_1">
   <path d="M 0 576 
L 1008 576 
L 1008 0 
L 0 0 
z
" style="fill: #f8fafc"/>
  </g>
  <g id="axes_1">
   <g id="patch_2">
    <path d="M 54.8928 249.8112 
L 277.4592 249.8112 
Q 297.3312 249.8112 297.3312 238.5792 
L 297.3312 112.7808 
Q 297.3312 101.5488 277.4592 101.5488 
L 54.8928 101.5488 
Q 35.0208 101.5488 35.0208 112.7808 
L 35.0208 238.5792 
Q 35.0208 249.8112 54.8928 249.8112 
z
" clip-path="url(#p9d4f4d388a)" style="fill: #e0f2fe; stroke: #1f2937; stroke-width: 1.5; stroke-linejoin: miter"/>
   </g>
   <g id="patch_3">
    <path d="M 392.7168 249.8112 
L 615.2832 249.8112 
Q 635.1552 249.8112 635.1552 238.5792 
L 635.1552 112.7808 
Q 635.1552 101.5488 615.2832 101.5488 
L 392.7168 101.5488 
Q 372.8448 101.5488 372.8448 112.7808 
L 372.8448 238.5792 
Q 372.8448 249.8112 392.7168 249.8112 
z
" clip-path="url(#p9d4f4d388a)" style="fill: #fee2e2; stroke: #1f2937; stroke-width: 1.5; stroke-linejoin: miter"/>
   </g>
   <g id="patch_4">
    <path d="M 730.5408 249.8112 
L 953.1072 249.8112 
Q 972.9792 249.8112 972.9792 238.5792 
L 972.9792 112.7808 
Q 972.9792 101.5488 953.1072 101.5488 
L 730.5408 101.5488 
Q 710.6688 101.5488 710.6688 112.7808 
L 710.6688 238.5792 
Q 710.6688 249.8112 730.5408 249.8112 
z
" clip-path="url(#p9d4f4d388a)" style="fill: #ffedd5; stroke: #1f2937; stroke-width: 1.5; stroke-linejoin: miter"/>
   </g>
   <g id="patch_5">
    <path d="M 287.406237 175.68 
Q 335.087295 175.68 380.755891 175.68 
" clip-path="url(#p9d4f4d388a)" style="fill: none; stroke: #334155; stroke-width: 1.8; stroke-linecap: round"/>
    <path d="M 375.955891 173.28 
L 380.755891 175.68 
L 375.955891 178.08 
z
" clip-path="url(#p9d4f4d388a)" style="fill: #334155; stroke: #334155; stroke-width: 1.8; stroke-linecap: round"/>
   </g>
   <g id="patch_6">
    <path d="M 625.230237 175.68 
Q 672.911295 175.68 718.579891 175.68 
" clip-path="url(#p9d4f4d388a)" style="fill: none; stroke: #334155; stroke-width: 1.8; stroke-linecap: round"/>
    <path d="M 713.779891 173.28 
L 718.579891 175.68 
L 713.779891 178.08 
z
" clip-path="url(#p9d4f4d388a)" style="fill: #334155; stroke: #334155; stroke-width: 1.8; stroke-linecap: round"/>
   </g>
   <g id="patch_7">
    <path d="M 136.368 410.4288 
C 143.746162 410.4288 150.823128 408.771936 156.040276 405.823113 
C 161.257425 402.87429 164.1888 398.874266 164.1888 394.704 
C 164.1888 390.533734 161.257425 386.53371 156.040276 383.584887 
C 150.823128 380.636064 143.746162 378.9792 136.368 378.9792 
C 128.989838 378.9792 121.912872 380.636064 116.695724 383.584887 
C 111.478575 386.53371 108.5472 390.533734 108.5472 394.704 
C 108.5472 398.874266 111.478575 402.87429 116.695724 405.823113 
C 121.912872 408.771936 128.989838 410.4288 136.368 410.4288 
z
" clip-path="url(#p9d4f4d388a)" style="fill: #38bdf8; stroke: #0c4a6e; stroke-linejoin: miter"/>
   </g>
   <g id="patch_8">
    <path d="M 195.984 410.4288 
C 203.362162 410.4288 210.439128 408.771936 215.656276 405.823113 
C 220.873425 402.87429 223.8048 398.874266 223.8048 394.704 
C 223.8048 390.533734 220.873425 386.53371 215.656276 383.584887 
C 210.439128 380.636064 203.362162 378.9792 195.984 378.9792 
C 188.605838 378.9792 181.528872 380.636064 176.311724 383.584887 
C 171.094575 386.53371 168.1632 390.533734 168.1632 394.704 
C 168.1632 398.874266 171.094575 402.87429 176.311724 405.823113 
C 181.528872 408.771936 188.605838 410.4288 195.984 410.4288 
z
" clip-path="url(#p9d4f4d388a)" style="fill: #38bdf8; stroke: #0c4a6e; stroke-linejoin: miter"/>
   </g>
   <g id="patch_9">
    <path d="M 255.6 410.4288 
C 262.978162 410.4288 270.055128 408.771936 275.272276 405.823113 
C 280.489425 402.87429 283.4208 398.874266 283.4208 394.704 
C 283.4208 390.533734 280.489425 386.53371 275.272276 383.584887 
C 270.055128 380.636064 262.978162 378.9792 255.6 378.9792 
C 248.221838 378.9792 241.144872 380.636064 235.927724 383.584887 
C 230.710575 386.53371 227.7792 390.533734 227.7792 394.704 
C 227.7792 398.874266 230.710575 402.87429 235.927724 405.823113 
C 241.144872 408.771936 248.221838 410.4288 255.6 410.4288 
z
" clip-path="url(#p9d4f4d388a)" style="fill: #38bdf8; stroke: #0c4a6e; stroke-linejoin: miter"/>
   </g>
   <g id="patch_10">
    <path d="M 484.128 417.168 
C 494.668232 417.168 504.778182 414.801051 512.231252 410.588447 
C 519.684321 406.375842 523.872 400.661522 523.872 394.704 
C 523.872 388.746478 519.684321 383.032158 512.231252 378.819553 
C 504.778182 374.606949 494.668232 372.24 484.128 372.24 
C 473.587768 372.24 463.477818 374.606949 456.024748 378.819553 
C 448.571679 383.032158 444.384 388.746478 444.384 394.704 
C 444.384 400.661522 448.571679 406.375842 456.024748 410.588447 
C 463.477818 414.801051 473.587768 417.168 484.128 417.168 
z
" clip-path="url(#p9d4f4d388a)" style="fill: #fca5a5; stroke: #7f1d1d; stroke-linejoin: miter"/>
   </g>
   <g id="patch_11">
    <path d="M 297.34345 394.704 
Q 364.893633 394.704 430.431355 394.704 
" clip-path="url(#p9d4f4d388a)" style="fill: none; stroke: #334155; stroke-width: 1.8; stroke-linecap: round"/>
    <path d="M 425.631355 392.304 
L 430.431355 394.704 
L 425.631355 397.104 
z
" clip-path="url(#p9d4f4d388a)" style="fill: #334155; stroke: #334155; stroke-width: 1.8; stroke-linecap: round"/>
   </g>
   <g id="patch_12">
    <path d="M 782.208 379.5408 
C 788.268633 379.5408 794.081855 378.179804 798.36737 375.757557 
C 802.652885 373.335309 805.0608 370.049575 805.0608 366.624 
C 805.0608 363.198425 802.652885 359.912691 798.36737 357.490443 
C 794.081855 355.068196 788.268633 353.7072 782.208 353.7072 
C 776.147367 353.7072 770.334145 355.068196 766.04863 357.490443 
C 761.763115 359.912691 759.3552 363.198425 759.3552 366.624 
C 759.3552 370.049575 761.763115 373.335309 766.04863 375.757557 
C 770.334145 378.179804 776.147367 379.5408 782.208 379.5408 
z
" clip-path="url(#p9d4f4d388a)" style="fill: #86efac; stroke: #14532d; stroke-linejoin: miter"/>
   </g>
   <g id="patch_13">
    <path d="M 831.888 396.3888 
C 837.948633 396.3888 843.761855 395.027804 848.04737 392.605557 
C 852.332885 390.183309 854.7408 386.897575 854.7408 383.472 
C 854.7408 380.046425 852.332885 376.760691 848.04737 374.338443 
C 843.761855 371.916196 837.948633 370.5552 831.888 370.5552 
C 825.827367 370.5552 820.014145 371.916196 815.72863 374.338443 
C 811.443115 376.760691 809.0352 380.046425 809.0352 383.472 
C 809.0352 386.897575 811.443115 390.183309 815.72863 392.605557 
C 820.014145 395.027804 825.827367 396.3888 831.888 396.3888 
z
" clip-path="url(#p9d4f4d388a)" style="fill: #86efac; stroke: #14532d; stroke-linejoin: miter"/>
   </g>
   <g id="patch_14">
    <path d="M 881.568 418.8528 
C 887.628633 418.8528 893.441855 417.491804 897.72737 415.069557 
C 902.012885 412.647309 904.4208 409.361575 904.4208 405.936 
C 904.4208 402.510425 902.012885 399.224691 897.72737 396.802443 
C 893.441855 394.380196 887.628633 393.0192 881.568 393.0192 
C 875.507367 393.0192 869.694145 394.380196 865.40863 396.802443 
C 861.123115 399.224691 858.7152 402.510425 858.7152 405.936 
C 858.7152 409.361575 861.123115 412.647309 865.40863 415.069557 
C 869.694145 417.491804 875.507367 418.8528 881.568 418.8528 
z
" clip-path="url(#p9d4f4d388a)" style="fill: #86efac; stroke: #14532d; stroke-linejoin: miter"/>
   </g>
   <g id="patch_15">
    <path d="M 782.208 441.3168 
C 788.268633 441.3168 794.081855 439.955804 798.36737 437.533557 
C 802.652885 435.111309 805.0608 431.825575 805.0608 428.4 
C 805.0608 424.974425 802.652885 421.688691 798.36737 419.266443 
C 794.081855 416.844196 788.268633 415.4832 782.208 415.4832 
C 776.147367 415.4832 770.334145 416.844196 766.04863 419.266443 
C 761.763115 421.688691 759.3552 424.974425 759.3552 428.4 
C 759.3552 431.825575 761.763115 435.111309 766.04863 437.533557 
C 770.334145 439.955804 776.147367 441.3168 782.208 441.3168 
z
" clip-path="url(#p9d4f4d388a)" style="fill: #fcd34d; stroke: #78350f; stroke-linejoin: miter"/>
   </g>
   <g id="patch_16">
    <path d="M 841.824 441.3168 
C 847.884633 441.3168 853.697855 439.955804 857.98337 437.533557 
C 862.268885 435.111309 864.6768 431.825575 864.6768 428.4 
C 864.6768 424.974425 862.268885 421.688691 857.98337 419.266443 
C 853.697855 416.844196 847.884633 415.4832 841.824 415.4832 
C 835.763367 415.4832 829.950145 416.844196 825.66463 419.266443 
C 821.379115 421.688691 818.9712 424.974425 818.9712 428.4 
C 818.9712 431.825575 821.379115 435.111309 825.66463 437.533557 
C 829.950145 439.955804 835.763367 441.3168 841.824 441.3168 
z
" clip-path="url(#p9d4f4d388a)" style="fill: #fcd34d; stroke: #78350f; stroke-linejoin: miter"/>
   </g>
   <g id="text_1">
    <!-- Slide 1: Why Hard-View Mapping Fails -->
    <g style="fill: #0b1220" transform="translate(37.008 51.236719) scale(0.21 -0.21)">
     <defs>
      <path id="DejaVuSans-Bold-53" d="M 3834 4519 
L 3834 3531 
Q 3450 3703 3084 3790 
Q 2719 3878 2394 3878 
Q 1963 3878 1756 3759 
Q 1550 3641 1550 3391 
Q 1550 3203 1689 3098 
Q 1828 2994 2194 2919 
L 2706 2816 
Q 3484 2659 3812 2340 
Q 4141 2022 4141 1434 
Q 4141 663 3683 286 
Q 3225 -91 2284 -91 
Q 1841 -91 1394 -6 
Q 947 78 500 244 
L 500 1259 
Q 947 1022 1364 901 
Q 1781 781 2169 781 
Q 2563 781 2772 912 
Q 2981 1044 2981 1288 
Q 2981 1506 2839 1625 
Q 2697 1744 2272 1838 
L 1806 1941 
Q 1106 2091 782 2419 
Q 459 2747 459 3303 
Q 459 4000 909 4375 
Q 1359 4750 2203 4750 
Q 2588 4750 2994 4692 
Q 3400 4634 3834 4519 
z
" transform="scale(0.015625)"/>
      <path id="DejaVuSans-Bold-6c" d="M 538 4863 
L 1656 4863 
L 1656 0 
L 538 0 
L 538 4863 
z
" transform="scale(0.015625)"/>
      <path id="DejaVuSans-Bold-69" d="M 538 3500 
L 1656 3500 
L 1656 0 
L 538 0 
L 538 3500 
z
M 538 4863 
L 1656 4863 
L 1656 3950 
L 538 3950 
L 538 4863 
z
" transform="scale(0.015625)"/>
      <path id="DejaVuSans-Bold-64" d="M 2919 2988 
L 2919 4863 
L 4044 4863 
L 4044 0 
L 2919 0 
L 2919 506 
Q 2688 197 2409 53 
Q 2131 -91 1766 -91 
Q 1119 -91 703 423 
Q 288 938 288 1747 
Q 288 2556 703 3070 
Q 1119 3584 1766 3584 
Q 2128 3584 2408 3439 
Q 2688 3294 2919 2988 
z
M 2181 722 
Q 2541 722 2730 984 
Q 2919 1247 2919 1747 
Q 2919 2247 2730 2509 
Q 2541 2772 2181 2772 
Q 1825 2772 1636 2509 
Q 1447 2247 1447 1747 
Q 1447 1247 1636 984 
Q 1825 722 2181 722 
z
" transform="scale(0.015625)"/>
      <path id="DejaVuSans-Bold-65" d="M 4031 1759 
L 4031 1441 
L 1416 1441 
Q 1456 1047 1700 850 
Q 1944 653 2381 653 
Q 2734 653 3104 758 
Q 3475 863 3866 1075 
L 3866 213 
Q 3469 63 3072 -14 
Q 2675 -91 2278 -91 
Q 1328 -91 801 392 
Q 275 875 275 1747 
Q 275 2603 792 3093 
Q 1309 3584 2216 3584 
Q 3041 3584 3536 3087 
Q 4031 2591 4031 1759 
z
M 2881 2131 
Q 2881 2450 2695 2645 
Q 2509 2841 2209 2841 
Q 1884 2841 1681 2658 
Q 1478 2475 1428 2131 
L 2881 2131 
z
" transform="scale(0.015625)"/>
      <path id="DejaVuSans-Bold-20" transform="scale(0.015625)"/>
      <path id="DejaVuSans-Bold-31" d="M 750 831 
L 1813 831 
L 1813 3847 
L 722 3622 
L 722 4441 
L 1806 4666 
L 2950 4666 
L 2950 831 
L 4013 831 
L 4013 0 
L 750 0 
L 750 831 
z
" transform="scale(0.015625)"/>
      <path id="DejaVuSans-Bold-3a" d="M 716 3500 
L 1844 3500 
L 1844 2291 
L 716 2291 
L 716 3500 
z
M 716 1209 
L 1844 1209 
L 1844 0 
L 716 0 
L 716 1209 
z
" transform="scale(0.015625)"/>
      <path id="DejaVuSans-Bold-57" d="M 191 4666 
L 1344 4666 
L 2150 1275 
L 2950 4666 
L 4109 4666 
L 4909 1275 
L 5716 4666 
L 6859 4666 
L 5759 0 
L 4372 0 
L 3525 3547 
L 2688 0 
L 1300 0 
L 191 4666 
z
" transform="scale(0.015625)"/>
      <path id="DejaVuSans-Bold-68" d="M 4056 2131 
L 4056 0 
L 2931 0 
L 2931 347 
L 2931 1625 
Q 2931 2084 2911 2256 
Q 2891 2428 2841 2509 
Q 2775 2619 2662 2680 
Q 2550 2741 2406 2741 
Q 2056 2741 1856 2470 
Q 1656 2200 1656 1722 
L 1656 0 
L 538 0 
L 538 4863 
L 1656 4863 
L 1656 2988 
Q 1909 3294 2193 3439 
Q 2478 3584 2822 3584 
Q 3428 3584 3742 3212 
Q 4056 2841 4056 2131 
z
" transform="scale(0.015625)"/>
      <path id="DejaVuSans-Bold-79" d="M 78 3500 
L 1197 3500 
L 2138 1125 
L 2938 3500 
L 4056 3500 
L 2584 -331 
Q 2363 -916 2067 -1148 
Q 1772 -1381 1288 -1381 
L 641 -1381 
L 641 -647 
L 991 -647 
Q 1275 -647 1404 -556 
Q 1534 -466 1606 -231 
L 1638 -134 
L 78 3500 
z
" transform="scale(0.015625)"/>
      <path id="DejaVuSans-Bold-48" d="M 588 4666 
L 1791 4666 
L 1791 2888 
L 3566 2888 
L 3566 4666 
L 4769 4666 
L 4769 0 
L 3566 0 
L 3566 1978 
L 1791 1978 
L 1791 0 
L 588 0 
L 588 4666 
z
" transform="scale(0.015625)"/>
      <path id="DejaVuSans-Bold-61" d="M 2106 1575 
Q 1756 1575 1579 1456 
Q 1403 1338 1403 1106 
Q 1403 894 1545 773 
Q 1688 653 1941 653 
Q 2256 653 2472 879 
Q 2688 1106 2688 1447 
L 2688 1575 
L 2106 1575 
z
M 3816 1997 
L 3816 0 
L 2688 0 
L 2688 519 
Q 2463 200 2181 54 
Q 1900 -91 1497 -91 
Q 953 -91 614 226 
Q 275 544 275 1050 
Q 275 1666 698 1953 
Q 1122 2241 2028 2241 
L 2688 2241 
L 2688 2328 
Q 2688 2594 2478 2717 
Q 2269 2841 1825 2841 
Q 1466 2841 1156 2769 
Q 847 2697 581 2553 
L 581 3406 
Q 941 3494 1303 3539 
Q 1666 3584 2028 3584 
Q 2975 3584 3395 3211 
Q 3816 2838 3816 1997 
z
" transform="scale(0.015625)"/>
      <path id="DejaVuSans-Bold-72" d="M 3138 2547 
Q 2991 2616 2845 2648 
Q 2700 2681 2553 2681 
Q 2122 2681 1889 2404 
Q 1656 2128 1656 1613 
L 1656 0 
L 538 0 
L 538 3500 
L 1656 3500 
L 1656 2925 
Q 1872 3269 2151 3426 
Q 2431 3584 2822 3584 
Q 2878 3584 2943 3579 
Q 3009 3575 3134 3559 
L 3138 2547 
z
" transform="scale(0.015625)"/>
      <path id="DejaVuSans-Bold-2d" d="M 347 2297 
L 2309 2297 
L 2309 1388 
L 347 1388 
L 347 2297 
z
" transform="scale(0.015625)"/>
      <path id="DejaVuSans-Bold-56" d="M 31 4666 
L 1241 4666 
L 2478 1222 
L 3713 4666 
L 4922 4666 
L 3194 0 
L 1759 0 
L 31 4666 
z
" transform="scale(0.015625)"/>
      <path id="DejaVuSans-Bold-77" d="M 225 3500 
L 1313 3500 
L 1900 1088 
L 2491 3500 
L 3425 3500 
L 4013 1113 
L 4603 3500 
L 5691 3500 
L 4769 0 
L 3547 0 
L 2956 2406 
L 2369 0 
L 1147 0 
L 225 3500 
z
" transform="scale(0.015625)"/>
      <path id="DejaVuSans-Bold-4d" d="M 588 4666 
L 2119 4666 
L 3181 2169 
L 4250 4666 
L 5778 4666 
L 5778 0 
L 4641 0 
L 4641 3413 
L 3566 897 
L 2803 897 
L 1728 3413 
L 1728 0 
L 588 0 
L 588 4666 
z
" transform="scale(0.015625)"/>
      <path id="DejaVuSans-Bold-70" d="M 1656 506 
L 1656 -1331 
L 538 -1331 
L 538 3500 
L 1656 3500 
L 1656 2988 
Q 1888 3294 2169 3439 
Q 2450 3584 2816 3584 
Q 3463 3584 3878 3070 
Q 4294 2556 4294 1747 
Q 4294 938 3878 423 
Q 3463 -91 2816 -91 
Q 2450 -91 2169 54 
Q 1888 200 1656 506 
z
M 2400 2772 
Q 2041 2772 1848 2508 
Q 1656 2244 1656 1747 
Q 1656 1250 1848 986 
Q 2041 722 2400 722 
Q 2759 722 2948 984 
Q 3138 1247 3138 1747 
Q 3138 2247 2948 2509 
Q 2759 2772 2400 2772 
z
" transform="scale(0.015625)"/>
      <path id="DejaVuSans-Bold-6e" d="M 4056 2131 
L 4056 0 
L 2931 0 
L 2931 347 
L 2931 1631 
Q 2931 2084 2911 2256 
Q 2891 2428 2841 2509 
Q 2775 2619 2662 2680 
Q 2550 2741 2406 2741 
Q 2056 2741 1856 2470 
Q 1656 2200 1656 1722 
L 1656 0 
L 538 0 
L 538 3500 
L 1656 3500 
L 1656 2988 
Q 1909 3294 2193 3439 
Q 2478 3584 2822 3584 
Q 3428 3584 3742 3212 
Q 4056 2841 4056 2131 
z
" transform="scale(0.015625)"/>
      <path id="DejaVuSans-Bold-67" d="M 2919 594 
Q 2688 288 2409 144 
Q 2131 0 1766 0 
Q 1125 0 706 504 
Q 288 1009 288 1791 
Q 288 2575 706 3076 
Q 1125 3578 1766 3578 
Q 2131 3578 2409 3434 
Q 2688 3291 2919 2981 
L 2919 3500 
L 4044 3500 
L 4044 353 
Q 4044 -491 3511 -936 
Q 2978 -1381 1966 -1381 
Q 1638 -1381 1331 -1331 
Q 1025 -1281 716 -1178 
L 716 -306 
Q 1009 -475 1290 -558 
Q 1572 -641 1856 -641 
Q 2406 -641 2662 -400 
Q 2919 -159 2919 353 
L 2919 594 
z
M 2181 2772 
Q 1834 2772 1640 2515 
Q 1447 2259 1447 1791 
Q 1447 1309 1634 1061 
Q 1822 813 2181 813 
Q 2531 813 2725 1069 
Q 2919 1325 2919 1791 
Q 2919 2259 2725 2515 
Q 2531 2772 2181 2772 
z
" transform="scale(0.015625)"/>
      <path id="DejaVuSans-Bold-46" d="M 588 4666 
L 3834 4666 
L 3834 3756 
L 1791 3756 
L 1791 2888 
L 3713 2888 
L 3713 1978 
L 1791 1978 
L 1791 0 
L 588 0 
L 588 4666 
z
" transform="scale(0.015625)"/>
      <path id="DejaVuSans-Bold-73" d="M 3272 3391 
L 3272 2541 
Q 2913 2691 2578 2766 
Q 2244 2841 1947 2841 
Q 1628 2841 1473 2761 
Q 1319 2681 1319 2516 
Q 1319 2381 1436 2309 
Q 1553 2238 1856 2203 
L 2053 2175 
Q 2913 2066 3209 1816 
Q 3506 1566 3506 1031 
Q 3506 472 3093 190 
Q 2681 -91 1863 -91 
Q 1516 -91 1145 -36 
Q 775 19 384 128 
L 384 978 
Q 719 816 1070 734 
Q 1422 653 1784 653 
Q 2113 653 2278 743 
Q 2444 834 2444 1013 
Q 2444 1163 2330 1236 
Q 2216 1309 1875 1350 
L 1678 1375 
Q 931 1469 631 1722 
Q 331 1975 331 2491 
Q 331 3047 712 3315 
Q 1094 3584 1881 3584 
Q 2191 3584 2531 3537 
Q 2872 3491 3272 3391 
z
" transform="scale(0.015625)"/>
     </defs>
     <use xlink:href="#DejaVuSans-Bold-53"/>
     <use xlink:href="#DejaVuSans-Bold-6c" transform="translate(72.021484 0)"/>
     <use xlink:href="#DejaVuSans-Bold-69" transform="translate(106.298828 0)"/>
     <use xlink:href="#DejaVuSans-Bold-64" transform="translate(140.576172 0)"/>
     <use xlink:href="#DejaVuSans-Bold-65" transform="translate(212.158203 0)"/>
     <use xlink:href="#DejaVuSans-Bold-20" transform="translate(279.980469 0)"/>
     <use xlink:href="#DejaVuSans-Bold-31" transform="translate(314.794922 0)"/>
     <use xlink:href="#DejaVuSans-Bold-3a" transform="translate(384.375 0)"/>
     <use xlink:href="#DejaVuSans-Bold-20" transform="translate(424.365234 0)"/>
     <use xlink:href="#DejaVuSans-Bold-57" transform="translate(459.179688 0)"/>
     <use xlink:href="#DejaVuSans-Bold-68" transform="translate(569.482422 0)"/>
     <use xlink:href="#DejaVuSans-Bold-79" transform="translate(640.673828 0)"/>
     <use xlink:href="#DejaVuSans-Bold-20" transform="translate(705.859375 0)"/>
     <use xlink:href="#DejaVuSans-Bold-48" transform="translate(740.673828 0)"/>
     <use xlink:href="#DejaVuSans-Bold-61" transform="translate(824.365234 0)"/>
     <use xlink:href="#DejaVuSans-Bold-72" transform="translate(891.845703 0)"/>
     <use xlink:href="#DejaVuSans-Bold-64" transform="translate(941.162109 0)"/>
     <use xlink:href="#DejaVuSans-Bold-2d" transform="translate(1012.744141 0)"/>
     <use xlink:href="#DejaVuSans-Bold-56" transform="translate(1046.998047 0)"/>
     <use xlink:href="#DejaVuSans-Bold-69" transform="translate(1122.640625 0)"/>
     <use xlink:href="#DejaVuSans-Bold-65" transform="translate(1156.917969 0)"/>
     <use xlink:href="#DejaVuSans-Bold-77" transform="translate(1224.740234 0)"/>
     <use xlink:href="#DejaVuSans-Bold-20" transform="translate(1317.123047 0)"/>
     <use xlink:href="#DejaVuSans-Bold-4d" transform="translate(1351.9375 0)"/>
     <use xlink:href="#DejaVuSans-Bold-61" transform="translate(1451.449219 0)"/>
     <use xlink:href="#DejaVuSans-Bold-70" transform="translate(1518.929688 0)"/>
     <use xlink:href="#DejaVuSans-Bold-70" transform="translate(1590.511719 0)"/>
     <use xlink:href="#DejaVuSans-Bold-69" transform="translate(1662.09375 0)"/>
     <use xlink:href="#DejaVuSans-Bold-6e" transform="translate(1696.371094 0)"/>
     <use xlink:href="#DejaVuSans-Bold-67" transform="translate(1767.5625 0)"/>
     <use xlink:href="#DejaVuSans-Bold-20" transform="translate(1839.144531 0)"/>
     <use xlink:href="#DejaVuSans-Bold-46" transform="translate(1873.958984 0)"/>
     <use xlink:href="#DejaVuSans-Bold-61" transform="translate(1936.394531 0)"/>
     <use xlink:href="#DejaVuSans-Bold-69" transform="translate(2003.875 0)"/>
     <use xlink:href="#DejaVuSans-Bold-6c" transform="translate(2038.152344 0)"/>
     <use xlink:href="#DejaVuSans-Bold-73" transform="translate(2072.429688 0)"/>
    </g>
   </g>
   <g id="text_2">
    <!-- HLT applies irreversible transformations, so a single exact inverse mapping is often not identifiable. -->
    <g style="fill: #334155" transform="translate(37.008 68.910281) scale(0.11 -0.11)">
     <defs>
      <path id="DejaVuSans-48" d="M 628 4666 
L 1259 4666 
L 1259 2753 
L 3553 2753 
L 3553 4666 
L 4184 4666 
L 4184 0 
L 3553 0 
L 3553 2222 
L 1259 2222 
L 1259 0 
L 628 0 
L 628 4666 
z
" transform="scale(0.015625)"/>
      <path id="DejaVuSans-4c" d="M 628 4666 
L 1259 4666 
L 1259 531 
L 3531 531 
L 3531 0 
L 628 0 
L 628 4666 
z
" transform="scale(0.015625)"/>
      <path id="DejaVuSans-54" d="M -19 4666 
L 3928 4666 
L 3928 4134 
L 2272 4134 
L 2272 0 
L 1638 0 
L 1638 4134 
L -19 4134 
L -19 4666 
z
" transform="scale(0.015625)"/>
      <path id="DejaVuSans-20" transform="scale(0.015625)"/>
      <path id="DejaVuSans-61" d="M 2194 1759 
Q 1497 1759 1228 1600 
Q 959 1441 959 1056 
Q 959 750 1161 570 
Q 1363 391 1709 391 
Q 2188 391 2477 730 
Q 2766 1069 2766 1631 
L 2766 1759 
L 2194 1759 
z
M 3341 1997 
L 3341 0 
L 2766 0 
L 2766 531 
Q 2569 213 2275 61 
Q 1981 -91 1556 -91 
Q 1019 -91 701 211 
Q 384 513 384 1019 
Q 384 1609 779 1909 
Q 1175 2209 1959 2209 
L 2766 2209 
L 2766 2266 
Q 2766 2663 2505 2880 
Q 2244 3097 1772 3097 
Q 1472 3097 1187 3025 
Q 903 2953 641 2809 
L 641 3341 
Q 956 3463 1253 3523 
Q 1550 3584 1831 3584 
Q 2591 3584 2966 3190 
Q 3341 2797 3341 1997 
z
" transform="scale(0.015625)"/>
      <path id="DejaVuSans-70" d="M 1159 525 
L 1159 -1331 
L 581 -1331 
L 581 3500 
L 1159 3500 
L 1159 2969 
Q 1341 3281 1617 3432 
Q 1894 3584 2278 3584 
Q 2916 3584 3314 3078 
Q 3713 2572 3713 1747 
Q 3713 922 3314 415 
Q 2916 -91 2278 -91 
Q 1894 -91 1617 61 
Q 1341 213 1159 525 
z
M 3116 1747 
Q 3116 2381 2855 2742 
Q 2594 3103 2138 3103 
Q 1681 3103 1420 2742 
Q 1159 2381 1159 1747 
Q 1159 1113 1420 752 
Q 1681 391 2138 391 
Q 2594 391 2855 752 
Q 3116 1113 3116 1747 
z
" transform="scale(0.015625)"/>
      <path id="DejaVuSans-6c" d="M 603 4863 
L 1178 4863 
L 1178 0 
L 603 0 
L 603 4863 
z
" transform="scale(0.015625)"/>
      <path id="DejaVuSans-69" d="M 603 3500 
L 1178 3500 
L 1178 0 
L 603 0 
L 603 3500 
z
M 603 4863 
L 1178 4863 
L 1178 4134 
L 603 4134 
L 603 4863 
z
" transform="scale(0.015625)"/>
      <path id="DejaVuSans-65" d="M 3597 1894 
L 3597 1613 
L 953 1613 
Q 991 1019 1311 708 
Q 1631 397 2203 397 
Q 2534 397 2845 478 
Q 3156 559 3463 722 
L 3463 178 
Q 3153 47 2828 -22 
Q 2503 -91 2169 -91 
Q 1331 -91 842 396 
Q 353 884 353 1716 
Q 353 2575 817 3079 
Q 1281 3584 2069 3584 
Q 2775 3584 3186 3129 
Q 3597 2675 3597 1894 
z
M 3022 2063 
Q 3016 2534 2758 2815 
Q 2500 3097 2075 3097 
Q 1594 3097 1305 2825 
Q 1016 2553 972 2059 
L 3022 2063 
z
" transform="scale(0.015625)"/>
      <path id="DejaVuSans-73" d="M 2834 3397 
L 2834 2853 
Q 2591 2978 2328 3040 
Q 2066 3103 1784 3103 
Q 1356 3103 1142 2972 
Q 928 2841 928 2578 
Q 928 2378 1081 2264 
Q 1234 2150 1697 2047 
L 1894 2003 
Q 2506 1872 2764 1633 
Q 3022 1394 3022 966 
Q 3022 478 2636 193 
Q 2250 -91 1575 -91 
Q 1294 -91 989 -36 
Q 684 19 347 128 
L 347 722 
Q 666 556 975 473 
Q 1284 391 1588 391 
Q 1994 391 2212 530 
Q 2431 669 2431 922 
Q 2431 1156 2273 1281 
Q 2116 1406 1581 1522 
L 1381 1569 
Q 847 1681 609 1914 
Q 372 2147 372 2553 
Q 372 3047 722 3315 
Q 1072 3584 1716 3584 
Q 2034 3584 2315 3537 
Q 2597 3491 2834 3397 
z
" transform="scale(0.015625)"/>
      <path id="DejaVuSans-72" d="M 2631 2963 
Q 2534 3019 2420 3045 
Q 2306 3072 2169 3072 
Q 1681 3072 1420 2755 
Q 1159 2438 1159 1844 
L 1159 0 
L 581 0 
L 581 3500 
L 1159 3500 
L 1159 2956 
Q 1341 3275 1631 3429 
Q 1922 3584 2338 3584 
Q 2397 3584 2469 3576 
Q 2541 3569 2628 3553 
L 2631 2963 
z
" transform="scale(0.015625)"/>
      <path id="DejaVuSans-76" d="M 191 3500 
L 800 3500 
L 1894 563 
L 2988 3500 
L 3597 3500 
L 2284 0 
L 1503 0 
L 191 3500 
z
" transform="scale(0.015625)"/>
      <path id="DejaVuSans-62" d="M 3116 1747 
Q 3116 2381 2855 2742 
Q 2594 3103 2138 3103 
Q 1681 3103 1420 2742 
Q 1159 2381 1159 1747 
Q 1159 1113 1420 752 
Q 1681 391 2138 391 
Q 2594 391 2855 752 
Q 3116 1113 3116 1747 
z
M 1159 2969 
Q 1341 3281 1617 3432 
Q 1894 3584 2278 3584 
Q 2916 3584 3314 3078 
Q 3713 2572 3713 1747 
Q 3713 922 3314 415 
Q 2916 -91 2278 -91 
Q 1894 -91 1617 61 
Q 1341 213 1159 525 
L 1159 0 
L 581 0 
L 581 4863 
L 1159 4863 
L 1159 2969 
z
" transform="scale(0.015625)"/>
      <path id="DejaVuSans-74" d="M 1172 4494 
L 1172 3500 
L 2356 3500 
L 2356 3053 
L 1172 3053 
L 1172 1153 
Q 1172 725 1289 603 
Q 1406 481 1766 481 
L 2356 481 
L 2356 0 
L 1766 0 
Q 1100 0 847 248 
Q 594 497 594 1153 
L 594 3053 
L 172 3053 
L 172 3500 
L 594 3500 
L 594 4494 
L 1172 4494 
z
" transform="scale(0.015625)"/>
      <path id="DejaVuSans-6e" d="M 3513 2113 
L 3513 0 
L 2938 0 
L 2938 2094 
Q 2938 2591 2744 2837 
Q 2550 3084 2163 3084 
Q 1697 3084 1428 2787 
Q 1159 2491 1159 1978 
L 1159 0 
L 581 0 
L 581 3500 
L 1159 3500 
L 1159 2956 
Q 1366 3272 1645 3428 
Q 1925 3584 2291 3584 
Q 2894 3584 3203 3211 
Q 3513 2838 3513 2113 
z
" transform="scale(0.015625)"/>
      <path id="DejaVuSans-66" d="M 2375 4863 
L 2375 4384 
L 1825 4384 
Q 1516 4384 1395 4259 
Q 1275 4134 1275 3809 
L 1275 3500 
L 2222 3500 
L 2222 3053 
L 1275 3053 
L 1275 0 
L 697 0 
L 697 3053 
L 147 3053 
L 147 3500 
L 697 3500 
L 697 3744 
Q 697 4328 969 4595 
Q 1241 4863 1831 4863 
L 2375 4863 
z
" transform="scale(0.015625)"/>
      <path id="DejaVuSans-6f" d="M 1959 3097 
Q 1497 3097 1228 2736 
Q 959 2375 959 1747 
Q 959 1119 1226 758 
Q 1494 397 1959 397 
Q 2419 397 2687 759 
Q 2956 1122 2956 1747 
Q 2956 2369 2687 2733 
Q 2419 3097 1959 3097 
z
M 1959 3584 
Q 2709 3584 3137 3096 
Q 3566 2609 3566 1747 
Q 3566 888 3137 398 
Q 2709 -91 1959 -91 
Q 1206 -91 779 398 
Q 353 888 353 1747 
Q 353 2609 779 3096 
Q 1206 3584 1959 3584 
z
" transform="scale(0.015625)"/>
      <path id="DejaVuSans-6d" d="M 3328 2828 
Q 3544 3216 3844 3400 
Q 4144 3584 4550 3584 
Q 5097 3584 5394 3201 
Q 5691 2819 5691 2113 
L 5691 0 
L 5113 0 
L 5113 2094 
Q 5113 2597 4934 2840 
Q 4756 3084 4391 3084 
Q 3944 3084 3684 2787 
Q 3425 2491 3425 1978 
L 3425 0 
L 2847 0 
L 2847 2094 
Q 2847 2600 2669 2842 
Q 2491 3084 2119 3084 
Q 1678 3084 1418 2786 
Q 1159 2488 1159 1978 
L 1159 0 
L 581 0 
L 581 3500 
L 1159 3500 
L 1159 2956 
Q 1356 3278 1631 3431 
Q 1906 3584 2284 3584 
Q 2666 3584 2933 3390 
Q 3200 3197 3328 2828 
z
" transform="scale(0.015625)"/>
      <path id="DejaVuSans-2c" d="M 750 794 
L 1409 794 
L 1409 256 
L 897 -744 
L 494 -744 
L 750 256 
L 750 794 
z
" transform="scale(0.015625)"/>
      <path id="DejaVuSans-67" d="M 2906 1791 
Q 2906 2416 2648 2759 
Q 2391 3103 1925 3103 
Q 1463 3103 1205 2759 
Q 947 2416 947 1791 
Q 947 1169 1205 825 
Q 1463 481 1925 481 
Q 2391 481 2648 825 
Q 2906 1169 2906 1791 
z
M 3481 434 
Q 3481 -459 3084 -895 
Q 2688 -1331 1869 -1331 
Q 1566 -1331 1297 -1286 
Q 1028 -1241 775 -1147 
L 775 -588 
Q 1028 -725 1275 -790 
Q 1522 -856 1778 -856 
Q 2344 -856 2625 -561 
Q 2906 -266 2906 331 
L 2906 616 
Q 2728 306 2450 153 
Q 2172 0 1784 0 
Q 1141 0 747 490 
Q 353 981 353 1791 
Q 353 2603 747 3093 
Q 1141 3584 1784 3584 
Q 2172 3584 2450 3431 
Q 2728 3278 2906 2969 
L 2906 3500 
L 3481 3500 
L 3481 434 
z
" transform="scale(0.015625)"/>
      <path id="DejaVuSans-78" d="M 3513 3500 
L 2247 1797 
L 3578 0 
L 2900 0 
L 1881 1375 
L 863 0 
L 184 0 
L 1544 1831 
L 300 3500 
L 978 3500 
L 1906 2253 
L 2834 3500 
L 3513 3500 
z
" transform="scale(0.015625)"/>
      <path id="DejaVuSans-63" d="M 3122 3366 
L 3122 2828 
Q 2878 2963 2633 3030 
Q 2388 3097 2138 3097 
Q 1578 3097 1268 2742 
Q 959 2388 959 1747 
Q 959 1106 1268 751 
Q 1578 397 2138 397 
Q 2388 397 2633 464 
Q 2878 531 3122 666 
L 3122 134 
Q 2881 22 2623 -34 
Q 2366 -91 2075 -91 
Q 1284 -91 818 406 
Q 353 903 353 1747 
Q 353 2603 823 3093 
Q 1294 3584 2113 3584 
Q 2378 3584 2631 3529 
Q 2884 3475 3122 3366 
z
" transform="scale(0.015625)"/>
      <path id="DejaVuSans-64" d="M 2906 2969 
L 2906 4863 
L 3481 4863 
L 3481 0 
L 2906 0 
L 2906 525 
Q 2725 213 2448 61 
Q 2172 -91 1784 -91 
Q 1150 -91 751 415 
Q 353 922 353 1747 
Q 353 2572 751 3078 
Q 1150 3584 1784 3584 
Q 2172 3584 2448 3432 
Q 2725 3281 2906 2969 
z
M 947 1747 
Q 947 1113 1208 752 
Q 1469 391 1925 391 
Q 2381 391 2643 752 
Q 2906 1113 2906 1747 
Q 2906 2381 2643 2742 
Q 2381 3103 1925 3103 
Q 1469 3103 1208 2742 
Q 947 2381 947 1747 
z
" transform="scale(0.015625)"/>
      <path id="DejaVuSans-2e" d="M 684 794 
L 1344 794 
L 1344 0 
L 684 0 
L 684 794 
z
" transform="scale(0.015625)"/>
     </defs>
     <use xlink:href="#DejaVuSans-48"/>
     <use xlink:href="#DejaVuSans-4c" transform="translate(75.195312 0)"/>
     <use xlink:href="#DejaVuSans-54" transform="translate(117.158203 0)"/>
     <use xlink:href="#DejaVuSans-20" transform="translate(178.242188 0)"/>
     <use xlink:href="#DejaVuSans-61" transform="translate(210.029297 0)"/>
     <use xlink:href="#DejaVuSans-70" transform="translate(271.308594 0)"/>
     <use xlink:href="#DejaVuSans-70" transform="translate(334.785156 0)"/>
     <use xlink:href="#DejaVuSans-6c" transform="translate(398.261719 0)"/>
     <use xlink:href="#DejaVuSans-69" transform="translate(426.044922 0)"/>
     <use xlink:href="#DejaVuSans-65" transform="translate(453.828125 0)"/>
     <use xlink:href="#DejaVuSans-73" transform="translate(515.351562 0)"/>
     <use xlink:href="#DejaVuSans-20" transform="translate(567.451172 0)"/>
     <use xlink:href="#DejaVuSans-69" transform="translate(599.238281 0)"/>
     <use xlink:href="#DejaVuSans-72" transform="translate(627.021484 0)"/>
     <use xlink:href="#DejaVuSans-72" transform="translate(666.384766 0)"/>
     <use xlink:href="#DejaVuSans-65" transform="translate(705.248047 0)"/>
     <use xlink:href="#DejaVuSans-76" transform="translate(766.771484 0)"/>
     <use xlink:href="#DejaVuSans-65" transform="translate(825.951172 0)"/>
     <use xlink:href="#DejaVuSans-72" transform="translate(887.474609 0)"/>
     <use xlink:href="#DejaVuSans-73" transform="translate(928.587891 0)"/>
     <use xlink:href="#DejaVuSans-69" transform="translate(980.6875 0)"/>
     <use xlink:href="#DejaVuSans-62" transform="translate(1008.470703 0)"/>
     <use xlink:href="#DejaVuSans-6c" transform="translate(1071.947266 0)"/>
     <use xlink:href="#DejaVuSans-65" transform="translate(1099.730469 0)"/>
     <use xlink:href="#DejaVuSans-20" transform="translate(1161.253906 0)"/>
     <use xlink:href="#DejaVuSans-74" transform="translate(1193.041016 0)"/>
     <use xlink:href="#DejaVuSans-72" transform="translate(1232.25 0)"/>
     <use xlink:href="#DejaVuSans-61" transform="translate(1273.363281 0)"/>
     <use xlink:href="#DejaVuSans-6e" transform="translate(1334.642578 0)"/>
     <use xlink:href="#DejaVuSans-73" transform="translate(1398.021484 0)"/>
     <use xlink:href="#DejaVuSans-66" transform="translate(1450.121094 0)"/>
     <use xlink:href="#DejaVuSans-6f" transform="translate(1485.326172 0)"/>
     <use xlink:href="#DejaVuSans-72" transform="translate(1546.507812 0)"/>
     <use xlink:href="#DejaVuSans-6d" transform="translate(1585.871094 0)"/>
     <use xlink:href="#DejaVuSans-61" transform="translate(1683.283203 0)"/>
     <use xlink:href="#DejaVuSans-74" transform="translate(1744.5625 0)"/>
     <use xlink:href="#DejaVuSans-69" transform="translate(1783.771484 0)"/>
     <use xlink:href="#DejaVuSans-6f" transform="translate(1811.554688 0)"/>
     <use xlink:href="#DejaVuSans-6e" transform="translate(1872.736328 0)"/>
     <use xlink:href="#DejaVuSans-73" transform="translate(1936.115234 0)"/>
     <use xlink:href="#DejaVuSans-2c" transform="translate(1988.214844 0)"/>
     <use xlink:href="#DejaVuSans-20" transform="translate(2020.001953 0)"/>
     <use xlink:href="#DejaVuSans-73" transform="translate(2051.789062 0)"/>
     <use xlink:href="#DejaVuSans-6f" transform="translate(2103.888672 0)"/>
     <use xlink:href="#DejaVuSans-20" transform="translate(2165.070312 0)"/>
     <use xlink:href="#DejaVuSans-61" transform="translate(2196.857422 0)"/>
     <use xlink:href="#DejaVuSans-20" transform="translate(2258.136719 0)"/>
     <use xlink:href="#DejaVuSans-73" transform="translate(2289.923828 0)"/>
     <use xlink:href="#DejaVuSans-69" transform="translate(2342.023438 0)"/>
     <use xlink:href="#DejaVuSans-6e" transform="translate(2369.806641 0)"/>
     <use xlink:href="#DejaVuSans-67" transform="translate(2433.185547 0)"/>
     <use xlink:href="#DejaVuSans-6c" transform="translate(2496.662109 0)"/>
     <use xlink:href="#DejaVuSans-65" transform="translate(2524.445312 0)"/>
     <use xlink:href="#DejaVuSans-20" transform="translate(2585.96875 0)"/>
     <use xlink:href="#DejaVuSans-65" transform="translate(2617.755859 0)"/>
     <use xlink:href="#DejaVuSans-78" transform="translate(2677.529297 0)"/>
     <use xlink:href="#DejaVuSans-61" transform="translate(2736.708984 0)"/>
     <use xlink:href="#DejaVuSans-63" transform="translate(2797.988281 0)"/>
     <use xlink:href="#DejaVuSans-74" transform="translate(2852.96875 0)"/>
     <use xlink:href="#DejaVuSans-20" transform="translate(2892.177734 0)"/>
     <use xlink:href="#DejaVuSans-69" transform="translate(2923.964844 0)"/>
     <use xlink:href="#DejaVuSans-6e" transform="translate(2951.748047 0)"/>
     <use xlink:href="#DejaVuSans-76" transform="translate(3015.126953 0)"/>
     <use xlink:href="#DejaVuSans-65" transform="translate(3074.306641 0)"/>
     <use xlink:href="#DejaVuSans-72" transform="translate(3135.830078 0)"/>
     <use xlink:href="#DejaVuSans-73" transform="translate(3176.943359 0)"/>
     <use xlink:href="#DejaVuSans-65" transform="translate(3229.042969 0)"/>
     <use xlink:href="#DejaVuSans-20" transform="translate(3290.566406 0)"/>
     <use xlink:href="#DejaVuSans-6d" transform="translate(3322.353516 0)"/>
     <use xlink:href="#DejaVuSans-61" transform="translate(3419.765625 0)"/>
     <use xlink:href="#DejaVuSans-70" transform="translate(3481.044922 0)"/>
     <use xlink:href="#DejaVuSans-70" transform="translate(3544.521484 0)"/>
     <use xlink:href="#DejaVuSans-69" transform="translate(3607.998047 0)"/>
     <use xlink:href="#DejaVuSans-6e" transform="translate(3635.78125 0)"/>
     <use xlink:href="#DejaVuSans-67" transform="translate(3699.160156 0)"/>
     <use xlink:href="#DejaVuSans-20" transform="translate(3762.636719 0)"/>
     <use xlink:href="#DejaVuSans-69" transform="translate(3794.423828 0)"/>
     <use xlink:href="#DejaVuSans-73" transform="translate(3822.207031 0)"/>
     <use xlink:href="#DejaVuSans-20" transform="translate(3874.306641 0)"/>
     <use xlink:href="#DejaVuSans-6f" transform="translate(3906.09375 0)"/>
     <use xlink:href="#DejaVuSans-66" transform="translate(3967.275391 0)"/>
     <use xlink:href="#DejaVuSans-74" transform="translate(4000.730469 0)"/>
     <use xlink:href="#DejaVuSans-65" transform="translate(4039.939453 0)"/>
     <use xlink:href="#DejaVuSans-6e" transform="translate(4101.462891 0)"/>
     <use xlink:href="#DejaVuSans-20" transform="translate(4164.841797 0)"/>
     <use xlink:href="#DejaVuSans-6e" transform="translate(4196.628906 0)"/>
     <use xlink:href="#DejaVuSans-6f" transform="translate(4260.007812 0)"/>
     <use xlink:href="#DejaVuSans-74" transform="translate(4321.189453 0)"/>
     <use xlink:href="#DejaVuSans-20" transform="translate(4360.398438 0)"/>
     <use xlink:href="#DejaVuSans-69" transform="translate(4392.185547 0)"/>
     <use xlink:href="#DejaVuSans-64" transform="translate(4419.96875 0)"/>
     <use xlink:href="#DejaVuSans-65" transform="translate(4483.445312 0)"/>
     <use xlink:href="#DejaVuSans-6e" transform="translate(4544.96875 0)"/>
     <use xlink:href="#DejaVuSans-74" transform="translate(4608.347656 0)"/>
     <use xlink:href="#DejaVuSans-69" transform="translate(4647.556641 0)"/>
     <use xlink:href="#DejaVuSans-66" transform="translate(4675.339844 0)"/>
     <use xlink:href="#DejaVuSans-69" transform="translate(4710.544922 0)"/>
     <use xlink:href="#DejaVuSans-61" transform="translate(4738.328125 0)"/>
     <use xlink:href="#DejaVuSans-62" transform="translate(4799.607422 0)"/>
     <use xlink:href="#DejaVuSans-6c" transform="translate(4863.083984 0)"/>
     <use xlink:href="#DejaVuSans-65" transform="translate(4890.867188 0)"/>
     <use xlink:href="#DejaVuSans-2e" transform="translate(4952.390625 0)"/>
    </g>
   </g>
   <g id="text_3">
    <!-- Offline Truth (rich) -->
    <g style="fill: #0f172a" transform="translate(58.8672 133.890769) scale(0.13 -0.13)">
     <defs>
      <path id="DejaVuSans-Bold-4f" d="M 2719 3878 
Q 2169 3878 1866 3472 
Q 1563 3066 1563 2328 
Q 1563 1594 1866 1187 
Q 2169 781 2719 781 
Q 3272 781 3575 1187 
Q 3878 1594 3878 2328 
Q 3878 3066 3575 3472 
Q 3272 3878 2719 3878 
z
M 2719 4750 
Q 3844 4750 4481 4106 
Q 5119 3463 5119 2328 
Q 5119 1197 4481 553 
Q 3844 -91 2719 -91 
Q 1597 -91 958 553 
Q 319 1197 319 2328 
Q 319 3463 958 4106 
Q 1597 4750 2719 4750 
z
" transform="scale(0.015625)"/>
      <path id="DejaVuSans-Bold-66" d="M 2841 4863 
L 2841 4128 
L 2222 4128 
Q 1984 4128 1890 4042 
Q 1797 3956 1797 3744 
L 1797 3500 
L 2753 3500 
L 2753 2700 
L 1797 2700 
L 1797 0 
L 678 0 
L 678 2700 
L 122 2700 
L 122 3500 
L 678 3500 
L 678 3744 
Q 678 4316 997 4589 
Q 1316 4863 1984 4863 
L 2841 4863 
z
" transform="scale(0.015625)"/>
      <path id="DejaVuSans-Bold-54" d="M 31 4666 
L 4331 4666 
L 4331 3756 
L 2784 3756 
L 2784 0 
L 1581 0 
L 1581 3756 
L 31 3756 
L 31 4666 
z
" transform="scale(0.015625)"/>
      <path id="DejaVuSans-Bold-75" d="M 500 1363 
L 500 3500 
L 1625 3500 
L 1625 3150 
Q 1625 2866 1622 2436 
Q 1619 2006 1619 1863 
Q 1619 1441 1641 1255 
Q 1663 1069 1716 984 
Q 1784 875 1895 815 
Q 2006 756 2150 756 
Q 2500 756 2700 1025 
Q 2900 1294 2900 1772 
L 2900 3500 
L 4019 3500 
L 4019 0 
L 2900 0 
L 2900 506 
Q 2647 200 2364 54 
Q 2081 -91 1741 -91 
Q 1134 -91 817 281 
Q 500 653 500 1363 
z
" transform="scale(0.015625)"/>
      <path id="DejaVuSans-Bold-74" d="M 1759 4494 
L 1759 3500 
L 2913 3500 
L 2913 2700 
L 1759 2700 
L 1759 1216 
Q 1759 972 1856 886 
Q 1953 800 2241 800 
L 2816 800 
L 2816 0 
L 1856 0 
Q 1194 0 917 276 
Q 641 553 641 1216 
L 641 2700 
L 84 2700 
L 84 3500 
L 641 3500 
L 641 4494 
L 1759 4494 
z
" transform="scale(0.015625)"/>
      <path id="DejaVuSans-Bold-28" d="M 2413 -844 
L 1484 -844 
Q 1006 -72 778 623 
Q 550 1319 550 2003 
Q 550 2688 779 3389 
Q 1009 4091 1484 4856 
L 2413 4856 
Q 2013 4116 1813 3408 
Q 1613 2700 1613 2009 
Q 1613 1319 1811 609 
Q 2009 -100 2413 -844 
z
" transform="scale(0.015625)"/>
      <path id="DejaVuSans-Bold-63" d="M 3366 3391 
L 3366 2478 
Q 3138 2634 2908 2709 
Q 2678 2784 2431 2784 
Q 1963 2784 1702 2511 
Q 1441 2238 1441 1747 
Q 1441 1256 1702 982 
Q 1963 709 2431 709 
Q 2694 709 2930 787 
Q 3166 866 3366 1019 
L 3366 103 
Q 3103 6 2833 -42 
Q 2563 -91 2291 -91 
Q 1344 -91 809 395 
Q 275 881 275 1747 
Q 275 2613 809 3098 
Q 1344 3584 2291 3584 
Q 2566 3584 2833 3536 
Q 3100 3488 3366 3391 
z
" transform="scale(0.015625)"/>
      <path id="DejaVuSans-Bold-29" d="M 513 -844 
Q 913 -100 1113 609 
Q 1313 1319 1313 2009 
Q 1313 2700 1113 3408 
Q 913 4116 513 4856 
L 1441 4856 
Q 1916 4091 2145 3389 
Q 2375 2688 2375 2003 
Q 2375 1319 2147 623 
Q 1919 -72 1441 -844 
L 513 -844 
z
" transform="scale(0.015625)"/>
     </defs>
     <use xlink:href="#DejaVuSans-Bold-4f"/>
     <use xlink:href="#DejaVuSans-Bold-66" transform="translate(85.009766 0)"/>
     <use xlink:href="#DejaVuSans-Bold-66" transform="translate(128.515625 0)"/>
     <use xlink:href="#DejaVuSans-Bold-6c" transform="translate(172.021484 0)"/>
     <use xlink:href="#DejaVuSans-Bold-69" transform="translate(206.298828 0)"/>
     <use xlink:href="#DejaVuSans-Bold-6e" transform="translate(240.576172 0)"/>
     <use xlink:href="#DejaVuSans-Bold-65" transform="translate(311.767578 0)"/>
     <use xlink:href="#DejaVuSans-Bold-20" transform="translate(379.589844 0)"/>
     <use xlink:href="#DejaVuSans-Bold-54" transform="translate(414.404297 0)"/>
     <use xlink:href="#DejaVuSans-Bold-72" transform="translate(471.617188 0)"/>
     <use xlink:href="#DejaVuSans-Bold-75" transform="translate(520.933594 0)"/>
     <use xlink:href="#DejaVuSans-Bold-74" transform="translate(592.125 0)"/>
     <use xlink:href="#DejaVuSans-Bold-68" transform="translate(639.927734 0)"/>
     <use xlink:href="#DejaVuSans-Bold-20" transform="translate(711.119141 0)"/>
     <use xlink:href="#DejaVuSans-Bold-28" transform="translate(745.933594 0)"/>
     <use xlink:href="#DejaVuSans-Bold-72" transform="translate(791.636719 0)"/>
     <use xlink:href="#DejaVuSans-Bold-69" transform="translate(840.953125 0)"/>
     <use xlink:href="#DejaVuSans-Bold-63" transform="translate(875.230469 0)"/>
     <use xlink:href="#DejaVuSans-Bold-68" transform="translate(934.507812 0)"/>
     <use xlink:href="#DejaVuSans-Bold-29" transform="translate(1005.699219 0)"/>
    </g>
   </g>
   <g id="text_4">
    <!-- Many constituents -->
    <g style="fill: #1f2937" transform="translate(58.8672 156.321637) scale(0.1 -0.1)">
     <defs>
      <path id="DejaVuSans-4d" d="M 628 4666 
L 1569 4666 
L 2759 1491 
L 3956 4666 
L 4897 4666 
L 4897 0 
L 4281 0 
L 4281 4097 
L 3078 897 
L 2444 897 
L 1241 4097 
L 1241 0 
L 628 0 
L 628 4666 
z
" transform="scale(0.015625)"/>
      <path id="DejaVuSans-79" d="M 2059 -325 
Q 1816 -950 1584 -1140 
Q 1353 -1331 966 -1331 
L 506 -1331 
L 506 -850 
L 844 -850 
Q 1081 -850 1212 -737 
Q 1344 -625 1503 -206 
L 1606 56 
L 191 3500 
L 800 3500 
L 1894 763 
L 2988 3500 
L 3597 3500 
L 2059 -325 
z
" transform="scale(0.015625)"/>
      <path id="DejaVuSans-75" d="M 544 1381 
L 544 3500 
L 1119 3500 
L 1119 1403 
Q 1119 906 1312 657 
Q 1506 409 1894 409 
Q 2359 409 2629 706 
Q 2900 1003 2900 1516 
L 2900 3500 
L 3475 3500 
L 3475 0 
L 2900 0 
L 2900 538 
Q 2691 219 2414 64 
Q 2138 -91 1772 -91 
Q 1169 -91 856 284 
Q 544 659 544 1381 
z
M 1991 3584 
L 1991 3584 
z
" transform="scale(0.015625)"/>
     </defs>
     <use xlink:href="#DejaVuSans-4d"/>
     <use xlink:href="#DejaVuSans-61" transform="translate(86.279297 0)"/>
     <use xlink:href="#DejaVuSans-6e" transform="translate(147.558594 0)"/>
     <use xlink:href="#DejaVuSans-79" transform="translate(210.9375 0)"/>
     <use xlink:href="#DejaVuSans-20" transform="translate(270.117188 0)"/>
     <use xlink:href="#DejaVuSans-63" transform="translate(301.904297 0)"/>
     <use xlink:href="#DejaVuSans-6f" transform="translate(356.884766 0)"/>
     <use xlink:href="#DejaVuSans-6e" transform="translate(418.066406 0)"/>
     <use xlink:href="#DejaVuSans-73" transform="translate(481.445312 0)"/>
     <use xlink:href="#DejaVuSans-74" transform="translate(533.544922 0)"/>
     <use xlink:href="#DejaVuSans-69" transform="translate(572.753906 0)"/>
     <use xlink:href="#DejaVuSans-74" transform="translate(600.537109 0)"/>
     <use xlink:href="#DejaVuSans-75" transform="translate(639.746094 0)"/>
     <use xlink:href="#DejaVuSans-65" transform="translate(703.125 0)"/>
     <use xlink:href="#DejaVuSans-6e" transform="translate(764.648438 0)"/>
     <use xlink:href="#DejaVuSans-74" transform="translate(828.027344 0)"/>
     <use xlink:href="#DejaVuSans-73" transform="translate(867.236328 0)"/>
    </g>
    <!-- with full detail. -->
    <g style="fill: #1f2937" transform="translate(58.8672 168.279294) scale(0.1 -0.1)">
     <defs>
      <path id="DejaVuSans-77" d="M 269 3500 
L 844 3500 
L 1563 769 
L 2278 3500 
L 2956 3500 
L 3675 769 
L 4391 3500 
L 4966 3500 
L 4050 0 
L 3372 0 
L 2619 2869 
L 1863 0 
L 1184 0 
L 269 3500 
z
" transform="scale(0.015625)"/>
      <path id="DejaVuSans-68" d="M 3513 2113 
L 3513 0 
L 2938 0 
L 2938 2094 
Q 2938 2591 2744 2837 
Q 2550 3084 2163 3084 
Q 1697 3084 1428 2787 
Q 1159 2491 1159 1978 
L 1159 0 
L 581 0 
L 581 4863 
L 1159 4863 
L 1159 2956 
Q 1366 3272 1645 3428 
Q 1925 3584 2291 3584 
Q 2894 3584 3203 3211 
Q 3513 2838 3513 2113 
z
" transform="scale(0.015625)"/>
     </defs>
     <use xlink:href="#DejaVuSans-77"/>
     <use xlink:href="#DejaVuSans-69" transform="translate(81.787109 0)"/>
     <use xlink:href="#DejaVuSans-74" transform="translate(109.570312 0)"/>
     <use xlink:href="#DejaVuSans-68" transform="translate(148.779297 0)"/>
     <use xlink:href="#DejaVuSans-20" transform="translate(212.158203 0)"/>
     <use xlink:href="#DejaVuSans-66" transform="translate(243.945312 0)"/>
     <use xlink:href="#DejaVuSans-75" transform="translate(279.150391 0)"/>
     <use xlink:href="#DejaVuSans-6c" transform="translate(342.529297 0)"/>
     <use xlink:href="#DejaVuSans-6c" transform="translate(370.3125 0)"/>
     <use xlink:href="#DejaVuSans-20" transform="translate(398.095703 0)"/>
     <use xlink:href="#DejaVuSans-64" transform="translate(429.882812 0)"/>
     <use xlink:href="#DejaVuSans-65" transform="translate(493.359375 0)"/>
     <use xlink:href="#DejaVuSans-74" transform="translate(554.882812 0)"/>
     <use xlink:href="#DejaVuSans-61" transform="translate(594.091797 0)"/>
     <use xlink:href="#DejaVuSans-69" transform="translate(655.371094 0)"/>
     <use xlink:href="#DejaVuSans-6c" transform="translate(683.154297 0)"/>
     <use xlink:href="#DejaVuSans-2e" transform="translate(710.9375 0)"/>
    </g>
   </g>
   <g id="text_5">
    <!-- HLT View (lossy) -->
    <g style="fill: #0f172a" transform="translate(396.6912 133.890769) scale(0.13 -0.13)">
     <defs>
      <path id="DejaVuSans-Bold-4c" d="M 588 4666 
L 1791 4666 
L 1791 909 
L 3903 909 
L 3903 0 
L 588 0 
L 588 4666 
z
" transform="scale(0.015625)"/>
      <path id="DejaVuSans-Bold-6f" d="M 2203 2784 
Q 1831 2784 1636 2517 
Q 1441 2250 1441 1747 
Q 1441 1244 1636 976 
Q 1831 709 2203 709 
Q 2569 709 2762 976 
Q 2956 1244 2956 1747 
Q 2956 2250 2762 2517 
Q 2569 2784 2203 2784 
z
M 2203 3584 
Q 3106 3584 3614 3096 
Q 4122 2609 4122 1747 
Q 4122 884 3614 396 
Q 3106 -91 2203 -91 
Q 1297 -91 786 396 
Q 275 884 275 1747 
Q 275 2609 786 3096 
Q 1297 3584 2203 3584 
z
" transform="scale(0.015625)"/>
     </defs>
     <use xlink:href="#DejaVuSans-Bold-48"/>
     <use xlink:href="#DejaVuSans-Bold-4c" transform="translate(83.691406 0)"/>
     <use xlink:href="#DejaVuSans-Bold-54" transform="translate(130.912109 0)"/>
     <use xlink:href="#DejaVuSans-Bold-20" transform="translate(199.125 0)"/>
     <use xlink:href="#DejaVuSans-Bold-56" transform="translate(233.939453 0)"/>
     <use xlink:href="#DejaVuSans-Bold-69" transform="translate(309.582031 0)"/>
     <use xlink:href="#DejaVuSans-Bold-65" transform="translate(343.859375 0)"/>
     <use xlink:href="#DejaVuSans-Bold-77" transform="translate(411.681641 0)"/>
     <use xlink:href="#DejaVuSans-Bold-20" transform="translate(504.064453 0)"/>
     <use xlink:href="#DejaVuSans-Bold-28" transform="translate(538.878906 0)"/>
     <use xlink:href="#DejaVuSans-Bold-6c" transform="translate(584.582031 0)"/>
     <use xlink:href="#DejaVuSans-Bold-6f" transform="translate(618.859375 0)"/>
     <use xlink:href="#DejaVuSans-Bold-73" transform="translate(687.560547 0)"/>
     <use xlink:href="#DejaVuSans-Bold-73" transform="translate(747.082031 0)"/>
     <use xlink:href="#DejaVuSans-Bold-79" transform="translate(806.603516 0)"/>
     <use xlink:href="#DejaVuSans-Bold-29" transform="translate(871.789062 0)"/>
    </g>
   </g>
   <g id="text_6">
    <!-- Dropped + merged + smeared. -->
    <g style="fill: #1f2937" transform="translate(396.6912 156.321637) scale(0.1 -0.1)">
     <defs>
      <path id="DejaVuSans-44" d="M 1259 4147 
L 1259 519 
L 2022 519 
Q 2988 519 3436 956 
Q 3884 1394 3884 2338 
Q 3884 3275 3436 3711 
Q 2988 4147 2022 4147 
L 1259 4147 
z
M 628 4666 
L 1925 4666 
Q 3281 4666 3915 4102 
Q 4550 3538 4550 2338 
Q 4550 1131 3912 565 
Q 3275 0 1925 0 
L 628 0 
L 628 4666 
z
" transform="scale(0.015625)"/>
      <path id="DejaVuSans-2b" d="M 2944 4013 
L 2944 2272 
L 4684 2272 
L 4684 1741 
L 2944 1741 
L 2944 0 
L 2419 0 
L 2419 1741 
L 678 1741 
L 678 2272 
L 2419 2272 
L 2419 4013 
L 2944 4013 
z
" transform="scale(0.015625)"/>
     </defs>
     <use xlink:href="#DejaVuSans-44"/>
     <use xlink:href="#DejaVuSans-72" transform="translate(77.001953 0)"/>
     <use xlink:href="#DejaVuSans-6f" transform="translate(115.865234 0)"/>
     <use xlink:href="#DejaVuSans-70" transform="translate(177.046875 0)"/>
     <use xlink:href="#DejaVuSans-70" transform="translate(240.523438 0)"/>
     <use xlink:href="#DejaVuSans-65" transform="translate(304 0)"/>
     <use xlink:href="#DejaVuSans-64" transform="translate(365.523438 0)"/>
     <use xlink:href="#DejaVuSans-20" transform="translate(429 0)"/>
     <use xlink:href="#DejaVuSans-2b" transform="translate(460.787109 0)"/>
     <use xlink:href="#DejaVuSans-20" transform="translate(544.576172 0)"/>
     <use xlink:href="#DejaVuSans-6d" transform="translate(576.363281 0)"/>
     <use xlink:href="#DejaVuSans-65" transform="translate(673.775391 0)"/>
     <use xlink:href="#DejaVuSans-72" transform="translate(735.298828 0)"/>
     <use xlink:href="#DejaVuSans-67" transform="translate(774.662109 0)"/>
     <use xlink:href="#DejaVuSans-65" transform="translate(838.138672 0)"/>
     <use xlink:href="#DejaVuSans-64" transform="translate(899.662109 0)"/>
     <use xlink:href="#DejaVuSans-20" transform="translate(963.138672 0)"/>
     <use xlink:href="#DejaVuSans-2b" transform="translate(994.925781 0)"/>
     <use xlink:href="#DejaVuSans-20" transform="translate(1078.714844 0)"/>
     <use xlink:href="#DejaVuSans-73" transform="translate(1110.501953 0)"/>
     <use xlink:href="#DejaVuSans-6d" transform="translate(1162.601562 0)"/>
     <use xlink:href="#DejaVuSans-65" transform="translate(1260.013672 0)"/>
     <use xlink:href="#DejaVuSans-61" transform="translate(1321.537109 0)"/>
     <use xlink:href="#DejaVuSans-72" transform="translate(1382.816406 0)"/>
     <use xlink:href="#DejaVuSans-65" transform="translate(1421.679688 0)"/>
     <use xlink:href="#DejaVuSans-64" transform="translate(1483.203125 0)"/>
     <use xlink:href="#DejaVuSans-2e" transform="translate(1546.679688 0)"/>
    </g>
    <!-- Information is gone. -->
    <g style="fill: #1f2937" transform="translate(396.6912 168.279294) scale(0.1 -0.1)">
     <defs>
      <path id="DejaVuSans-49" d="M 628 4666 
L 1259 4666 
L 1259 0 
L 628 0 
L 628 4666 
z
" transform="scale(0.015625)"/>
     </defs>
     <use xlink:href="#DejaVuSans-49"/>
     <use xlink:href="#DejaVuSans-6e" transform="translate(29.492188 0)"/>
     <use xlink:href="#DejaVuSans-66" transform="translate(92.871094 0)"/>
     <use xlink:href="#DejaVuSans-6f" transform="translate(128.076172 0)"/>
     <use xlink:href="#DejaVuSans-72" transform="translate(189.257812 0)"/>
     <use xlink:href="#DejaVuSans-6d" transform="translate(228.621094 0)"/>
     <use xlink:href="#DejaVuSans-61" transform="translate(326.033203 0)"/>
     <use xlink:href="#DejaVuSans-74" transform="translate(387.3125 0)"/>
     <use xlink:href="#DejaVuSans-69" transform="translate(426.521484 0)"/>
     <use xlink:href="#DejaVuSans-6f" transform="translate(454.304688 0)"/>
     <use xlink:href="#DejaVuSans-6e" transform="translate(515.486328 0)"/>
     <use xlink:href="#DejaVuSans-20" transform="translate(578.865234 0)"/>
     <use xlink:href="#DejaVuSans-69" transform="translate(610.652344 0)"/>
     <use xlink:href="#DejaVuSans-73" transform="translate(638.435547 0)"/>
     <use xlink:href="#DejaVuSans-20" transform="translate(690.535156 0)"/>
     <use xlink:href="#DejaVuSans-67" transform="translate(722.322266 0)"/>
     <use xlink:href="#DejaVuSans-6f" transform="translate(785.798828 0)"/>
     <use xlink:href="#DejaVuSans-6e" transform="translate(846.980469 0)"/>
     <use xlink:href="#DejaVuSans-65" transform="translate(910.359375 0)"/>
     <use xlink:href="#DejaVuSans-2e" transform="translate(971.882812 0)"/>
    </g>
   </g>
   <g id="text_7">
    <!-- Hard Inverse Target -->
    <g style="fill: #0f172a" transform="translate(734.5152 133.890769) scale(0.13 -0.13)">
     <defs>
      <path id="DejaVuSans-Bold-49" d="M 588 4666 
L 1791 4666 
L 1791 0 
L 588 0 
L 588 4666 
z
" transform="scale(0.015625)"/>
      <path id="DejaVuSans-Bold-76" d="M 97 3500 
L 1216 3500 
L 2088 1081 
L 2956 3500 
L 4078 3500 
L 2700 0 
L 1472 0 
L 97 3500 
z
" transform="scale(0.015625)"/>
     </defs>
     <use xlink:href="#DejaVuSans-Bold-48"/>
     <use xlink:href="#DejaVuSans-Bold-61" transform="translate(83.691406 0)"/>
     <use xlink:href="#DejaVuSans-Bold-72" transform="translate(151.171875 0)"/>
     <use xlink:href="#DejaVuSans-Bold-64" transform="translate(200.488281 0)"/>
     <use xlink:href="#DejaVuSans-Bold-20" transform="translate(272.070312 0)"/>
     <use xlink:href="#DejaVuSans-Bold-49" transform="translate(306.884766 0)"/>
     <use xlink:href="#DejaVuSans-Bold-6e" transform="translate(344.091797 0)"/>
     <use xlink:href="#DejaVuSans-Bold-76" transform="translate(415.283203 0)"/>
     <use xlink:href="#DejaVuSans-Bold-65" transform="translate(480.46875 0)"/>
     <use xlink:href="#DejaVuSans-Bold-72" transform="translate(548.291016 0)"/>
     <use xlink:href="#DejaVuSans-Bold-73" transform="translate(597.607422 0)"/>
     <use xlink:href="#DejaVuSans-Bold-65" transform="translate(657.128906 0)"/>
     <use xlink:href="#DejaVuSans-Bold-20" transform="translate(724.951172 0)"/>
     <use xlink:href="#DejaVuSans-Bold-54" transform="translate(759.765625 0)"/>
     <use xlink:href="#DejaVuSans-Bold-61" transform="translate(815.103516 0)"/>
     <use xlink:href="#DejaVuSans-Bold-72" transform="translate(882.583984 0)"/>
     <use xlink:href="#DejaVuSans-Bold-67" transform="translate(931.900391 0)"/>
     <use xlink:href="#DejaVuSans-Bold-65" transform="translate(1003.482422 0)"/>
     <use xlink:href="#DejaVuSans-Bold-74" transform="translate(1071.304688 0)"/>
    </g>
   </g>
   <g id="text_8">
    <!-- Forces one discrete answer -->
    <g style="fill: #1f2937" transform="translate(734.5152 156.321637) scale(0.1 -0.1)">
     <defs>
      <path id="DejaVuSans-46" d="M 628 4666 
L 3309 4666 
L 3309 4134 
L 1259 4134 
L 1259 2759 
L 3109 2759 
L 3109 2228 
L 1259 2228 
L 1259 0 
L 628 0 
L 628 4666 
z
" transform="scale(0.015625)"/>
     </defs>
     <use xlink:href="#DejaVuSans-46"/>
     <use xlink:href="#DejaVuSans-6f" transform="translate(53.894531 0)"/>
     <use xlink:href="#DejaVuSans-72" transform="translate(115.076172 0)"/>
     <use xlink:href="#DejaVuSans-63" transform="translate(153.939453 0)"/>
     <use xlink:href="#DejaVuSans-65" transform="translate(208.919922 0)"/>
     <use xlink:href="#DejaVuSans-73" transform="translate(270.443359 0)"/>
     <use xlink:href="#DejaVuSans-20" transform="translate(322.542969 0)"/>
     <use xlink:href="#DejaVuSans-6f" transform="translate(354.330078 0)"/>
     <use xlink:href="#DejaVuSans-6e" transform="translate(415.511719 0)"/>
     <use xlink:href="#DejaVuSans-65" transform="translate(478.890625 0)"/>
     <use xlink:href="#DejaVuSans-20" transform="translate(540.414062 0)"/>
     <use xlink:href="#DejaVuSans-64" transform="translate(572.201172 0)"/>
     <use xlink:href="#DejaVuSans-69" transform="translate(635.677734 0)"/>
     <use xlink:href="#DejaVuSans-73" transform="translate(663.460938 0)"/>
     <use xlink:href="#DejaVuSans-63" transform="translate(715.560547 0)"/>
     <use xlink:href="#DejaVuSans-72" transform="translate(770.541016 0)"/>
     <use xlink:href="#DejaVuSans-65" transform="translate(809.404297 0)"/>
     <use xlink:href="#DejaVuSans-74" transform="translate(870.927734 0)"/>
     <use xlink:href="#DejaVuSans-65" transform="translate(910.136719 0)"/>
     <use xlink:href="#DejaVuSans-20" transform="translate(971.660156 0)"/>
     <use xlink:href="#DejaVuSans-61" transform="translate(1003.447266 0)"/>
     <use xlink:href="#DejaVuSans-6e" transform="translate(1064.726562 0)"/>
     <use xlink:href="#DejaVuSans-73" transform="translate(1128.105469 0)"/>
     <use xlink:href="#DejaVuSans-77" transform="translate(1180.205078 0)"/>
     <use xlink:href="#DejaVuSans-65" transform="translate(1261.992188 0)"/>
     <use xlink:href="#DejaVuSans-72" transform="translate(1323.515625 0)"/>
    </g>
    <!-- for an ambiguous inverse. -->
    <g style="fill: #1f2937" transform="translate(734.5152 168.279294) scale(0.1 -0.1)">
     <use xlink:href="#DejaVuSans-66"/>
     <use xlink:href="#DejaVuSans-6f" transform="translate(35.205078 0)"/>
     <use xlink:href="#DejaVuSans-72" transform="translate(96.386719 0)"/>
     <use xlink:href="#DejaVuSans-20" transform="translate(137.5 0)"/>
     <use xlink:href="#DejaVuSans-61" transform="translate(169.287109 0)"/>
     <use xlink:href="#DejaVuSans-6e" transform="translate(230.566406 0)"/>
     <use xlink:href="#DejaVuSans-20" transform="translate(293.945312 0)"/>
     <use xlink:href="#DejaVuSans-61" transform="translate(325.732422 0)"/>
     <use xlink:href="#DejaVuSans-6d" transform="translate(387.011719 0)"/>
     <use xlink:href="#DejaVuSans-62" transform="translate(484.423828 0)"/>
     <use xlink:href="#DejaVuSans-69" transform="translate(547.900391 0)"/>
     <use xlink:href="#DejaVuSans-67" transform="translate(575.683594 0)"/>
     <use xlink:href="#DejaVuSans-75" transform="translate(639.160156 0)"/>
     <use xlink:href="#DejaVuSans-6f" transform="translate(702.539062 0)"/>
     <use xlink:href="#DejaVuSans-75" transform="translate(763.720703 0)"/>
     <use xlink:href="#DejaVuSans-73" transform="translate(827.099609 0)"/>
     <use xlink:href="#DejaVuSans-20" transform="translate(879.199219 0)"/>
     <use xlink:href="#DejaVuSans-69" transform="translate(910.986328 0)"/>
     <use xlink:href="#DejaVuSans-6e" transform="translate(938.769531 0)"/>
     <use xlink:href="#DejaVuSans-76" transform="translate(1002.148438 0)"/>
     <use xlink:href="#DejaVuSans-65" transform="translate(1061.328125 0)"/>
     <use xlink:href="#DejaVuSans-72" transform="translate(1122.851562 0)"/>
     <use xlink:href="#DejaVuSans-73" transform="translate(1163.964844 0)"/>
     <use xlink:href="#DejaVuSans-65" transform="translate(1216.064453 0)"/>
     <use xlink:href="#DejaVuSans-2e" transform="translate(1277.587891 0)"/>
    </g>
   </g>
   <g id="text_9">
    <!-- HLT effects -->
    <g style="fill: #475569" transform="translate(310.248 158.832) scale(0.095 -0.095)">
     <use xlink:href="#DejaVuSans-48"/>
     <use xlink:href="#DejaVuSans-4c" transform="translate(75.195312 0)"/>
     <use xlink:href="#DejaVuSans-54" transform="translate(117.158203 0)"/>
     <use xlink:href="#DejaVuSans-20" transform="translate(178.242188 0)"/>
     <use xlink:href="#DejaVuSans-65" transform="translate(210.029297 0)"/>
     <use xlink:href="#DejaVuSans-66" transform="translate(271.552734 0)"/>
     <use xlink:href="#DejaVuSans-66" transform="translate(306.757812 0)"/>
     <use xlink:href="#DejaVuSans-65" transform="translate(341.962891 0)"/>
     <use xlink:href="#DejaVuSans-63" transform="translate(403.486328 0)"/>
     <use xlink:href="#DejaVuSans-74" transform="translate(458.466797 0)"/>
     <use xlink:href="#DejaVuSans-73" transform="translate(497.675781 0)"/>
    </g>
   </g>
   <g id="text_10">
    <!-- forced mapping -->
    <g style="fill: #475569" transform="translate(633.168 158.832) scale(0.095 -0.095)">
     <use xlink:href="#DejaVuSans-66"/>
     <use xlink:href="#DejaVuSans-6f" transform="translate(35.205078 0)"/>
     <use xlink:href="#DejaVuSans-72" transform="translate(96.386719 0)"/>
     <use xlink:href="#DejaVuSans-63" transform="translate(135.25 0)"/>
     <use xlink:href="#DejaVuSans-65" transform="translate(190.230469 0)"/>
     <use xlink:href="#DejaVuSans-64" transform="translate(251.753906 0)"/>
     <use xlink:href="#DejaVuSans-20" transform="translate(315.230469 0)"/>
     <use xlink:href="#DejaVuSans-6d" transform="translate(347.017578 0)"/>
     <use xlink:href="#DejaVuSans-61" transform="translate(444.429688 0)"/>
     <use xlink:href="#DejaVuSans-70" transform="translate(505.708984 0)"/>
     <use xlink:href="#DejaVuSans-70" transform="translate(569.185547 0)"/>
     <use xlink:href="#DejaVuSans-69" transform="translate(632.662109 0)"/>
     <use xlink:href="#DejaVuSans-6e" transform="translate(660.445312 0)"/>
     <use xlink:href="#DejaVuSans-67" transform="translate(723.824219 0)"/>
    </g>
   </g>
   <g id="text_11">
    <!-- Ambiguous inverse example: -->
    <g style="fill: #0f172a" transform="translate(46.944 304.848) scale(0.125 -0.125)">
     <defs>
      <path id="DejaVuSans-Bold-41" d="M 3419 850 
L 1538 850 
L 1241 0 
L 31 0 
L 1759 4666 
L 3194 4666 
L 4922 0 
L 3713 0 
L 3419 850 
z
M 1838 1716 
L 3116 1716 
L 2478 3572 
L 1838 1716 
z
" transform="scale(0.015625)"/>
      <path id="DejaVuSans-Bold-6d" d="M 3781 2919 
Q 3994 3244 4286 3414 
Q 4578 3584 4928 3584 
Q 5531 3584 5847 3212 
Q 6163 2841 6163 2131 
L 6163 0 
L 5038 0 
L 5038 1825 
Q 5041 1866 5042 1909 
Q 5044 1953 5044 2034 
Q 5044 2406 4934 2573 
Q 4825 2741 4581 2741 
Q 4263 2741 4089 2478 
Q 3916 2216 3909 1719 
L 3909 0 
L 2784 0 
L 2784 1825 
Q 2784 2406 2684 2573 
Q 2584 2741 2328 2741 
Q 2006 2741 1831 2477 
Q 1656 2213 1656 1722 
L 1656 0 
L 531 0 
L 531 3500 
L 1656 3500 
L 1656 2988 
Q 1863 3284 2130 3434 
Q 2397 3584 2719 3584 
Q 3081 3584 3359 3409 
Q 3638 3234 3781 2919 
z
" transform="scale(0.015625)"/>
      <path id="DejaVuSans-Bold-62" d="M 2400 722 
Q 2759 722 2948 984 
Q 3138 1247 3138 1747 
Q 3138 2247 2948 2509 
Q 2759 2772 2400 2772 
Q 2041 2772 1848 2508 
Q 1656 2244 1656 1747 
Q 1656 1250 1848 986 
Q 2041 722 2400 722 
z
M 1656 2988 
Q 1888 3294 2169 3439 
Q 2450 3584 2816 3584 
Q 3463 3584 3878 3070 
Q 4294 2556 4294 1747 
Q 4294 938 3878 423 
Q 3463 -91 2816 -91 
Q 2450 -91 2169 54 
Q 1888 200 1656 506 
L 1656 0 
L 538 0 
L 538 4863 
L 1656 4863 
L 1656 2988 
z
" transform="scale(0.015625)"/>
      <path id="DejaVuSans-Bold-78" d="M 1422 1791 
L 159 3500 
L 1344 3500 
L 2059 2463 
L 2784 3500 
L 3969 3500 
L 2706 1797 
L 4031 0 
L 2847 0 
L 2059 1106 
L 1281 0 
L 97 0 
L 1422 1791 
z
" transform="scale(0.015625)"/>
     </defs>
     <use xlink:href="#DejaVuSans-Bold-41"/>
     <use xlink:href="#DejaVuSans-Bold-6d" transform="translate(77.392578 0)"/>
     <use xlink:href="#DejaVuSans-Bold-62" transform="translate(181.591797 0)"/>
     <use xlink:href="#DejaVuSans-Bold-69" transform="translate(253.173828 0)"/>
     <use xlink:href="#DejaVuSans-Bold-67" transform="translate(287.451172 0)"/>
     <use xlink:href="#DejaVuSans-Bold-75" transform="translate(359.033203 0)"/>
     <use xlink:href="#DejaVuSans-Bold-6f" transform="translate(430.224609 0)"/>
     <use xlink:href="#DejaVuSans-Bold-75" transform="translate(498.925781 0)"/>
     <use xlink:href="#DejaVuSans-Bold-73" transform="translate(570.117188 0)"/>
     <use xlink:href="#DejaVuSans-Bold-20" transform="translate(629.638672 0)"/>
     <use xlink:href="#DejaVuSans-Bold-69" transform="translate(664.453125 0)"/>
     <use xlink:href="#DejaVuSans-Bold-6e" transform="translate(698.730469 0)"/>
     <use xlink:href="#DejaVuSans-Bold-76" transform="translate(769.921875 0)"/>
     <use xlink:href="#DejaVuSans-Bold-65" transform="translate(835.107422 0)"/>
     <use xlink:href="#DejaVuSans-Bold-72" transform="translate(902.929688 0)"/>
     <use xlink:href="#DejaVuSans-Bold-73" transform="translate(952.246094 0)"/>
     <use xlink:href="#DejaVuSans-Bold-65" transform="translate(1011.767578 0)"/>
     <use xlink:href="#DejaVuSans-Bold-20" transform="translate(1079.589844 0)"/>
     <use xlink:href="#DejaVuSans-Bold-65" transform="translate(1114.404297 0)"/>
     <use xlink:href="#DejaVuSans-Bold-78" transform="translate(1182.226562 0)"/>
     <use xlink:href="#DejaVuSans-Bold-61" transform="translate(1246.728516 0)"/>
     <use xlink:href="#DejaVuSans-Bold-6d" transform="translate(1314.208984 0)"/>
     <use xlink:href="#DejaVuSans-Bold-70" transform="translate(1418.408203 0)"/>
     <use xlink:href="#DejaVuSans-Bold-6c" transform="translate(1489.990234 0)"/>
     <use xlink:href="#DejaVuSans-Bold-65" transform="translate(1524.267578 0)"/>
     <use xlink:href="#DejaVuSans-Bold-3a" transform="translate(1592.089844 0)"/>
    </g>
   </g>
   <g id="text_12">
    <!-- Offline -->
    <g style="fill: #0f172a" transform="translate(101.592 422.784) scale(0.1 -0.1)">
     <defs>
      <path id="DejaVuSans-4f" d="M 2522 4238 
Q 1834 4238 1429 3725 
Q 1025 3213 1025 2328 
Q 1025 1447 1429 934 
Q 1834 422 2522 422 
Q 3209 422 3611 934 
Q 4013 1447 4013 2328 
Q 4013 3213 3611 3725 
Q 3209 4238 2522 4238 
z
M 2522 4750 
Q 3503 4750 4090 4092 
Q 4678 3434 4678 2328 
Q 4678 1225 4090 567 
Q 3503 -91 2522 -91 
Q 1538 -91 948 565 
Q 359 1222 359 2328 
Q 359 3434 948 4092 
Q 1538 4750 2522 4750 
z
" transform="scale(0.015625)"/>
     </defs>
     <use xlink:href="#DejaVuSans-4f"/>
     <use xlink:href="#DejaVuSans-66" transform="translate(78.710938 0)"/>
     <use xlink:href="#DejaVuSans-66" transform="translate(113.916016 0)"/>
     <use xlink:href="#DejaVuSans-6c" transform="translate(149.121094 0)"/>
     <use xlink:href="#DejaVuSans-69" transform="translate(176.904297 0)"/>
     <use xlink:href="#DejaVuSans-6e" transform="translate(204.6875 0)"/>
     <use xlink:href="#DejaVuSans-65" transform="translate(268.066406 0)"/>
    </g>
   </g>
   <g id="text_13">
    <!-- HLT -->
    <g style="fill: #0f172a" transform="translate(456.3072 422.784) scale(0.1 -0.1)">
     <use xlink:href="#DejaVuSans-48"/>
     <use xlink:href="#DejaVuSans-4c" transform="translate(75.195312 0)"/>
     <use xlink:href="#DejaVuSans-54" transform="translate(117.158203 0)"/>
    </g>
   </g>
   <g id="text_14">
    <!-- Multiple plausible decompositions -->
    <g style="fill: #0f172a" transform="translate(583.488 372.24) scale(0.105 -0.105)">
     <use xlink:href="#DejaVuSans-4d"/>
     <use xlink:href="#DejaVuSans-75" transform="translate(86.279297 0)"/>
     <use xlink:href="#DejaVuSans-6c" transform="translate(149.658203 0)"/>
     <use xlink:href="#DejaVuSans-74" transform="translate(177.441406 0)"/>
     <use xlink:href="#DejaVuSans-69" transform="translate(216.650391 0)"/>
     <use xlink:href="#DejaVuSans-70" transform="translate(244.433594 0)"/>
     <use xlink:href="#DejaVuSans-6c" transform="translate(307.910156 0)"/>
     <use xlink:href="#DejaVuSans-65" transform="translate(335.693359 0)"/>
     <use xlink:href="#DejaVuSans-20" transform="translate(397.216797 0)"/>
     <use xlink:href="#DejaVuSans-70" transform="translate(429.003906 0)"/>
     <use xlink:href="#DejaVuSans-6c" transform="translate(492.480469 0)"/>
     <use xlink:href="#DejaVuSans-61" transform="translate(520.263672 0)"/>
     <use xlink:href="#DejaVuSans-75" transform="translate(581.542969 0)"/>
     <use xlink:href="#DejaVuSans-73" transform="translate(644.921875 0)"/>
     <use xlink:href="#DejaVuSans-69" transform="translate(697.021484 0)"/>
     <use xlink:href="#DejaVuSans-62" transform="translate(724.804688 0)"/>
     <use xlink:href="#DejaVuSans-6c" transform="translate(788.28125 0)"/>
     <use xlink:href="#DejaVuSans-65" transform="translate(816.064453 0)"/>
     <use xlink:href="#DejaVuSans-20" transform="translate(877.587891 0)"/>
     <use xlink:href="#DejaVuSans-64" transform="translate(909.375 0)"/>
     <use xlink:href="#DejaVuSans-65" transform="translate(972.851562 0)"/>
     <use xlink:href="#DejaVuSans-63" transform="translate(1034.375 0)"/>
     <use xlink:href="#DejaVuSans-6f" transform="translate(1089.355469 0)"/>
     <use xlink:href="#DejaVuSans-6d" transform="translate(1150.537109 0)"/>
     <use xlink:href="#DejaVuSans-70" transform="translate(1247.949219 0)"/>
     <use xlink:href="#DejaVuSans-6f" transform="translate(1311.425781 0)"/>
     <use xlink:href="#DejaVuSans-73" transform="translate(1372.607422 0)"/>
     <use xlink:href="#DejaVuSans-69" transform="translate(1424.707031 0)"/>
     <use xlink:href="#DejaVuSans-74" transform="translate(1452.490234 0)"/>
     <use xlink:href="#DejaVuSans-69" transform="translate(1491.699219 0)"/>
     <use xlink:href="#DejaVuSans-6f" transform="translate(1519.482422 0)"/>
     <use xlink:href="#DejaVuSans-6e" transform="translate(1580.664062 0)"/>
     <use xlink:href="#DejaVuSans-73" transform="translate(1644.042969 0)"/>
    </g>
   </g>
   <g id="text_15">
    <!-- Hard-view supervision picks one and treats it as certain. -->
    <g style="fill: #7f1d1d" transform="translate(662.976 467.712) scale(0.12 -0.12)">
     <defs>
      <path id="DejaVuSans-2d" d="M 313 2009 
L 1997 2009 
L 1997 1497 
L 313 1497 
L 313 2009 
z
" transform="scale(0.015625)"/>
      <path id="DejaVuSans-6b" d="M 581 4863 
L 1159 4863 
L 1159 1991 
L 2875 3500 
L 3609 3500 
L 1753 1863 
L 3688 0 
L 2938 0 
L 1159 1709 
L 1159 0 
L 581 0 
L 581 4863 
z
" transform="scale(0.015625)"/>
     </defs>
     <use xlink:href="#DejaVuSans-48"/>
     <use xlink:href="#DejaVuSans-61" transform="translate(75.195312 0)"/>
     <use xlink:href="#DejaVuSans-72" transform="translate(136.474609 0)"/>
     <use xlink:href="#DejaVuSans-64" transform="translate(175.837891 0)"/>
     <use xlink:href="#DejaVuSans-2d" transform="translate(239.314453 0)"/>
     <use xlink:href="#DejaVuSans-76" transform="translate(272.773438 0)"/>
     <use xlink:href="#DejaVuSans-69" transform="translate(331.953125 0)"/>
     <use xlink:href="#DejaVuSans-65" transform="translate(359.736328 0)"/>
     <use xlink:href="#DejaVuSans-77" transform="translate(421.259766 0)"/>
     <use xlink:href="#DejaVuSans-20" transform="translate(503.046875 0)"/>
     <use xlink:href="#DejaVuSans-73" transform="translate(534.833984 0)"/>
     <use xlink:href="#DejaVuSans-75" transform="translate(586.933594 0)"/>
     <use xlink:href="#DejaVuSans-70" transform="translate(650.3125 0)"/>
     <use xlink:href="#DejaVuSans-65" transform="translate(713.789062 0)"/>
     <use xlink:href="#DejaVuSans-72" transform="translate(775.3125 0)"/>
     <use xlink:href="#DejaVuSans-76" transform="translate(816.425781 0)"/>
     <use xlink:href="#DejaVuSans-69" transform="translate(875.605469 0)"/>
     <use xlink:href="#DejaVuSans-73" transform="translate(903.388672 0)"/>
     <use xlink:href="#DejaVuSans-69" transform="translate(955.488281 0)"/>
     <use xlink:href="#DejaVuSans-6f" transform="translate(983.271484 0)"/>
     <use xlink:href="#DejaVuSans-6e" transform="translate(1044.453125 0)"/>
     <use xlink:href="#DejaVuSans-20" transform="translate(1107.832031 0)"/>
     <use xlink:href="#DejaVuSans-70" transform="translate(1139.619141 0)"/>
     <use xlink:href="#DejaVuSans-69" transform="translate(1203.095703 0)"/>
     <use xlink:href="#DejaVuSans-63" transform="translate(1230.878906 0)"/>
     <use xlink:href="#DejaVuSans-6b" transform="translate(1285.859375 0)"/>
     <use xlink:href="#DejaVuSans-73" transform="translate(1343.769531 0)"/>
     <use xlink:href="#DejaVuSans-20" transform="translate(1395.869141 0)"/>
     <use xlink:href="#DejaVuSans-6f" transform="translate(1427.65625 0)"/>
     <use xlink:href="#DejaVuSans-6e" transform="translate(1488.837891 0)"/>
     <use xlink:href="#DejaVuSans-65" transform="translate(1552.216797 0)"/>
     <use xlink:href="#DejaVuSans-20" transform="translate(1613.740234 0)"/>
     <use xlink:href="#DejaVuSans-61" transform="translate(1645.527344 0)"/>
     <use xlink:href="#DejaVuSans-6e" transform="translate(1706.806641 0)"/>
     <use xlink:href="#DejaVuSans-64" transform="translate(1770.185547 0)"/>
     <use xlink:href="#DejaVuSans-20" transform="translate(1833.662109 0)"/>
     <use xlink:href="#DejaVuSans-74" transform="translate(1865.449219 0)"/>
     <use xlink:href="#DejaVuSans-72" transform="translate(1904.658203 0)"/>
     <use xlink:href="#DejaVuSans-65" transform="translate(1943.521484 0)"/>
     <use xlink:href="#DejaVuSans-61" transform="translate(2005.044922 0)"/>
     <use xlink:href="#DejaVuSans-74" transform="translate(2066.324219 0)"/>
     <use xlink:href="#DejaVuSans-73" transform="translate(2105.533203 0)"/>
     <use xlink:href="#DejaVuSans-20" transform="translate(2157.632812 0)"/>
     <use xlink:href="#DejaVuSans-69" transform="translate(2189.419922 0)"/>
     <use xlink:href="#DejaVuSans-74" transform="translate(2217.203125 0)"/>
     <use xlink:href="#DejaVuSans-20" transform="translate(2256.412109 0)"/>
     <use xlink:href="#DejaVuSans-61" transform="translate(2288.199219 0)"/>
     <use xlink:href="#DejaVuSans-73" transform="translate(2349.478516 0)"/>
     <use xlink:href="#DejaVuSans-20" transform="translate(2401.578125 0)"/>
     <use xlink:href="#DejaVuSans-63" transform="translate(2433.365234 0)"/>
     <use xlink:href="#DejaVuSans-65" transform="translate(2488.345703 0)"/>
     <use xlink:href="#DejaVuSans-72" transform="translate(2549.869141 0)"/>
     <use xlink:href="#DejaVuSans-74" transform="translate(2590.982422 0)"/>
     <use xlink:href="#DejaVuSans-61" transform="translate(2630.191406 0)"/>
     <use xlink:href="#DejaVuSans-69" transform="translate(2691.470703 0)"/>
     <use xlink:href="#DejaVuSans-6e" transform="translate(2719.253906 0)"/>
     <use xlink:href="#DejaVuSans-2e" transform="translate(2782.632812 0)"/>
    </g>
   </g>
  </g>
 </g>
 <defs>
  <clipPath id="p9d4f4d388a">
   <rect x="7.2" y="7.2" width="993.6" height="561.6"/>
  </clipPath>
 </defs>
</svg>
