<?xml version="1.0" encoding="utf-8" standalone="no"?>
<!DOCTYPE svg PUBLIC "-//W3C//DTD SVG 1.1//EN"
  "http://www.w3.org/Graphics/SVG/1.1/DTD/svg11.dtd">
<svg xmlns:xlink="http://www.w3.org/1999/xlink" width="996.52975pt" height="561.6pt" viewBox="0 0 996.52975 561.6" xmlns="http://www.w3.org/2000/svg" version="1.1">
 <metadata>
  <rdf:RDF xmlns:dc="http://purl.org/dc/elements/1.1/" xmlns:cc="http://creativecommons.org/ns#" xmlns:rdf="http://www.w3.org/1999/02/22-rdf-syntax-ns#">
   <cc:Work>
    <dc:type rdf:resource="http://purl.org/dc/dcmitype/StillImage"/>
    <dc:date>2026-04-01T02:52:53.676888</dc:date>
    <dc:format>image/svg+xml</dc:format>
    <dc:creator>
     <cc:Agent>
      <dc:title>Matplotlib v3.10.3, https://matplotlib.org/</dc:title>
     </cc:Agent>
    </dc:creator>
   </cc:Work>
  </rdf:RDF>
 </metadata>
 <defs>
  <style type="text/css">*{stroke-linejoin: round; stroke-linecap: butt}</style>
 </defs>
 <g id="figure_1">
  <g id="patch_1">
   <path d="M 0 561.6 
L 996.52975 561.6 
L 996.52975 0 
L 0 0 
z
" style="fill: #f7fafc"/>
  </g>
  <g id="axes_1">
   <g id="patch_2">
    <path d="M 56.16 472.32 
L 300.96 472.32 
Q 320.544 472.32 320.544 461.376 
L 320.544 100.224 
Q 320.544 89.28 300.96 89.28 
L 56.16 89.28 
Q 36.576 89.28 36.576 100.224 
L 36.576 461.376 
Q 36.576 472.32 56.16 472.32 
z
" clip-path="url(#p106d0f9caa)" style="fill: #dbeafe; stroke: #0f172a; stroke-width: 2; stroke-linejoin: miter"/>
   </g>
   <g id="patch_3">
    <path d="M 374.4 472.32 
L 619.2 472.32 
Q 638.784 472.32 638.784 461.376 
L 638.784 100.224 
Q 638.784 89.28 619.2 89.28 
L 374.4 89.28 
Q 354.816 89.28 354.816 100.224 
L 354.816 461.376 
Q 354.816 472.32 374.4 472.32 
z
" clip-path="url(#p106d0f9caa)" style="fill: #fee2e2; stroke: #0f172a; stroke-width: 2; stroke-linejoin: miter"/>
   </g>
   <g id="patch_4">
    <path d="M 692.64 472.32 
L 937.44 472.32 
Q 957.024 472.32 957.024 461.376 
L 957.024 100.224 
Q 957.024 89.28 937.44 89.28 
L 692.64 89.28 
Q 673.056 89.28 673.056 100.224 
L 673.056 461.376 
Q 673.056 472.32 692.64 472.32 
z
" clip-path="url(#p106d0f9caa)" style="fill: #ffedd5; stroke: #0f172a; stroke-width: 2; stroke-linejoin: miter"/>
   </g>
   <g id="patch_5">
    <path d="M 114.912 228.816 
C 121.404172 228.816 127.631315 227.374589 132.221974 224.809221 
C 136.812633 222.243853 139.392 218.763978 139.392 215.136 
C 139.392 211.508022 136.812633 208.028147 132.221974 205.462779 
C 127.631315 202.897411 121.404172 201.456 114.912 201.456 
C 108.419828 201.456 102.192685 202.897411 97.602026 205.462779 
C 93.011367 208.028147 90.432 211.508022 90.432 215.136 
C 90.432 218.763978 93.011367 222.243853 97.602026 224.809221 
C 102.192685 227.374589 108.419828 228.816 114.912 228.816 
z
" clip-path="url(#p106d0f9caa)" style="fill: #60a5fa; stroke: #1e3a8a; stroke-width: 1.5; stroke-linejoin: miter"/>
   </g>
   <g id="patch_6">
    <path d="M 193.248 239.76 
C 199.740172 239.76 205.967315 238.318589 210.557974 235.753221 
C 215.148633 233.187853 217.728 229.707978 217.728 226.08 
C 217.728 222.452022 215.148633 218.972147 210.557974 216.406779 
C 205.967315 213.841411 199.740172 212.4 193.248 212.4 
C 186.755828 212.4 180.528685 213.841411 175.938026 216.406779 
C 171.347367 218.972147 168.768 222.452022 168.768 226.08 
C 168.768 229.707978 171.347367 233.187853 175.938026 235.753221 
C 180.528685 238.318589 186.755828 239.76 193.248 239.76 
z
" clip-path="url(#p106d0f9caa)" style="fill: #60a5fa; stroke: #1e3a8a; stroke-width: 1.5; stroke-linejoin: miter"/>
   </g>
   <g id="patch_7">
    <path d="M 261.792 217.872 
C 268.284172 217.872 274.511315 216.430589 279.101974 213.865221 
C 283.692633 211.299853 286.272 207.819978 286.272 204.192 
C 286.272 200.564022 283.692633 197.084147 279.101974 194.518779 
C 274.511315 191.953411 268.284172 190.512 261.792 190.512 
C 255.299828 190.512 249.072685 191.953411 244.482026 194.518779 
C 239.891367 197.084147 237.312 200.564022 237.312 204.192 
C 237.312 207.819978 239.891367 211.299853 244.482026 213.865221 
C 249.072685 216.430589 255.299828 217.872 261.792 217.872 
z
" clip-path="url(#p106d0f9caa)" style="fill: #60a5fa; stroke: #1e3a8a; stroke-width: 1.5; stroke-linejoin: miter"/>
   </g>
   <g id="patch_8">
    <path d="M 134.496 305.424 
C 140.988172 305.424 147.215315 303.982589 151.805974 301.417221 
C 156.396633 298.851853 158.976 295.371978 158.976 291.744 
C 158.976 288.116022 156.396633 284.636147 151.805974 282.070779 
C 147.215315 279.505411 140.988172 278.064 134.496 278.064 
C 128.003828 278.064 121.776685 279.505411 117.186026 282.070779 
C 112.595367 284.636147 110.016 288.116022 110.016 291.744 
C 110.016 295.371978 112.595367 298.851853 117.186026 301.417221 
C 121.776685 303.982589 128.003828 305.424 134.496 305.424 
z
" clip-path="url(#p106d0f9caa)" style="fill: #60a5fa; stroke: #1e3a8a; stroke-width: 1.5; stroke-linejoin: miter"/>
   </g>
   <g id="patch_9">
    <path d="M 222.624 310.896 
C 229.116172 310.896 235.343315 309.454589 239.933974 306.889221 
C 244.524633 304.323853 247.104 300.843978 247.104 297.216 
C 247.104 293.588022 244.524633 290.108147 239.933974 287.542779 
C 235.343315 284.977411 229.116172 283.536 222.624 283.536 
C 216.131828 283.536 209.904685 284.977411 205.314026 287.542779 
C 200.723367 290.108147 198.144 293.588022 198.144 297.216 
C 198.144 300.843978 200.723367 304.323853 205.314026 306.889221 
C 209.904685 309.454589 216.131828 310.896 222.624 310.896 
z
" clip-path="url(#p106d0f9caa)" style="fill: #60a5fa; stroke: #1e3a8a; stroke-width: 1.5; stroke-linejoin: miter"/>
   </g>
   <g id="patch_10">
    <path d="M 271.584 349.2 
C 278.076172 349.2 284.303315 347.758589 288.893974 345.193221 
C 293.484633 342.627853 296.064 339.147978 296.064 335.52 
C 296.064 331.892022 293.484633 328.412147 288.893974 325.846779 
C 284.303315 323.281411 278.076172 321.84 271.584 321.84 
C 265.091828 321.84 258.864685 323.281411 254.274026 325.846779 
C 249.683367 328.412147 247.104 331.892022 247.104 335.52 
C 247.104 339.147978 249.683367 342.627853 254.274026 345.193221 
C 258.864685 347.758589 265.091828 349.2 271.584 349.2 
z
" clip-path="url(#p106d0f9caa)" style="fill: #60a5fa; stroke: #1e3a8a; stroke-width: 1.5; stroke-linejoin: miter"/>
   </g>
   <g id="patch_11">
    <path d="M 467.424 258.912 
C 477.811475 258.912 487.774904 256.605742 495.119958 252.501153 
C 502.465012 248.396564 506.592 242.828765 506.592 237.024 
C 506.592 231.219235 502.465012 225.651436 495.119958 221.546847 
C 487.774904 217.442258 477.811475 215.136 467.424 215.136 
C 457.036525 215.136 447.073096 217.442258 439.728042 221.546847 
C 432.382988 225.651436 428.256 231.219235 428.256 237.024 
C 428.256 242.828765 432.382988 248.396564 439.728042 252.501153 
C 447.073096 256.605742 457.036525 258.912 467.424 258.912 
z
" clip-path="url(#p106d0f9caa)" style="fill: #fca5a5; stroke: #7f1d1d; stroke-width: 2; stroke-linejoin: miter"/>
   </g>
   <g id="patch_12">
    <path d="M 545.76 330.048 
C 553.550606 330.048 561.023178 328.318307 566.531969 325.239865 
C 572.040759 322.161423 575.136 317.985574 575.136 313.632 
C 575.136 309.278426 572.040759 305.102577 566.531969 302.024135 
C 561.023178 298.945693 553.550606 297.216 545.76 297.216 
C 537.969394 297.216 530.496822 298.945693 524.988031 302.024135 
C 519.479241 305.102577 516.384 309.278426 516.384 313.632 
C 516.384 317.985574 519.479241 322.161423 524.988031 325.239865 
C 530.496822 328.318307 537.969394 330.048 545.76 330.048 
z
" clip-path="url(#p106d0f9caa)" style="fill: #fca5a5; stroke: #7f1d1d; stroke-width: 2; stroke-linejoin: miter"/>
   </g>
   <g id="patch_13">
    <path d="M 751.392 228.2688 
C 757.624485 228.2688 763.602543 226.885045 768.009575 224.422292 
C 772.416607 221.959539 774.8928 218.618859 774.8928 215.136 
C 774.8928 211.653141 772.416607 208.312461 768.009575 205.849708 
C 763.602543 203.386955 757.624485 202.0032 751.392 202.0032 
C 745.159515 202.0032 739.181457 203.386955 734.774425 205.849708 
C 730.367393 208.312461 727.8912 211.653141 727.8912 215.136 
C 727.8912 218.618859 730.367393 221.959539 734.774425 224.422292 
C 739.181457 226.885045 745.159515 228.2688 751.392 228.2688 
z
" clip-path="url(#p106d0f9caa)" style="fill: #86efac; stroke: #111827; stroke-width: 1.2; stroke-linejoin: miter"/>
   </g>
   <g id="patch_14">
    <path d="M 810.144 250.1568 
C 816.376485 250.1568 822.354543 248.773045 826.761575 246.310292 
C 831.168607 243.847539 833.6448 240.506859 833.6448 237.024 
C 833.6448 233.541141 831.168607 230.200461 826.761575 227.737708 
C 822.354543 225.274955 816.376485 223.8912 810.144 223.8912 
C 803.911515 223.8912 797.933457 225.274955 793.526425 227.737708 
C 789.119393 230.200461 786.6432 233.541141 786.6432 237.024 
C 786.6432 240.506859 789.119393 243.847539 793.526425 246.310292 
C 797.933457 248.773045 803.911515 250.1568 810.144 250.1568 
z
" clip-path="url(#p106d0f9caa)" style="fill: #86efac; stroke: #111827; stroke-width: 1.2; stroke-linejoin: miter"/>
   </g>
   <g id="patch_15">
    <path d="M 888.48 261.1008 
C 894.712485 261.1008 900.690543 259.717045 905.097575 257.254292 
C 909.504607 254.791539 911.9808 251.450859 911.9808 247.968 
C 911.9808 244.485141 909.504607 241.144461 905.097575 238.681708 
C 900.690543 236.218955 894.712485 234.8352 888.48 234.8352 
C 882.247515 234.8352 876.269457 236.218955 871.862425 238.681708 
C 867.455393 241.144461 864.9792 244.485141 864.9792 247.968 
C 864.9792 251.450859 867.455393 254.791539 871.862425 257.254292 
C 876.269457 259.717045 882.247515 261.1008 888.48 261.1008 
z
" clip-path="url(#p106d0f9caa)" style="fill: #86efac; stroke: #111827; stroke-width: 1.2; stroke-linejoin: miter"/>
   </g>
   <g id="patch_16">
    <path d="M 770.976 337.7088 
C 777.208485 337.7088 783.186543 336.325045 787.593575 333.862292 
C 792.000607 331.399539 794.4768 328.058859 794.4768 324.576 
C 794.4768 321.093141 792.000607 317.752461 787.593575 315.289708 
C 783.186543 312.826955 777.208485 311.4432 770.976 311.4432 
C 764.743515 311.4432 758.765457 312.826955 754.358425 315.289708 
C 749.951393 317.752461 747.4752 321.093141 747.4752 324.576 
C 747.4752 328.058859 749.951393 331.399539 754.358425 333.862292 
C 758.765457 336.325045 764.743515 337.7088 770.976 337.7088 
z
" clip-path="url(#p106d0f9caa)" style="fill: #fde68a; stroke: #111827; stroke-width: 1.2; stroke-linejoin: miter"/>
   </g>
   <g id="patch_17">
    <path d="M 859.104 348.6528 
C 865.336485 348.6528 871.314543 347.269045 875.721575 344.806292 
C 880.128607 342.343539 882.6048 339.002859 882.6048 335.52 
C 882.6048 332.037141 880.128607 328.696461 875.721575 326.233708 
C 871.314543 323.770955 865.336485 322.3872 859.104 322.3872 
C 852.871515 322.3872 846.893457 323.770955 842.486425 326.233708 
C 838.079393 328.696461 835.6032 332.037141 835.6032 335.52 
C 835.6032 339.002859 838.079393 342.343539 842.486425 344.806292 
C 846.893457 347.269045 852.871515 348.6528 859.104 348.6528 
z
" clip-path="url(#p106d0f9caa)" style="fill: #fde68a; stroke: #111827; stroke-width: 1.2; stroke-linejoin: miter"/>
   </g>
   <g id="patch_18">
    <path d="M 731.808 357.408 
L 927.648 357.408 
L 927.648 176.832 
L 731.808 176.832 
L 731.808 357.408 
z
" clip-path="url(#p106d0f9caa)" style="fill: none; stroke-dasharray: 9.25,4; stroke-dashoffset: 0; stroke: #b45309; stroke-width: 2.5; stroke-linejoin: miter"/>
   </g>
   <g id="patch_19">
    <path d="M 312.75385 264.384 
Q 337.682391 264.384 359.25683 264.384 
" clip-path="url(#p106d0f9caa)" style="fill: none; stroke: #1f2937; stroke-width: 3; stroke-linecap: round"/>
    <path d="M 352.05683 260.784 
L 359.25683 264.384 
L 352.05683 267.984 
z
" clip-path="url(#p106d0f9caa)" style="fill: #1f2937; stroke: #1f2937; stroke-width: 3; stroke-linecap: round"/>
   </g>
   <g id="patch_20">
    <path d="M 630.99385 264.384 
Q 655.922391 264.384 677.49683 264.384 
" clip-path="url(#p106d0f9caa)" style="fill: none; stroke: #1f2937; stroke-width: 3; stroke-linecap: round"/>
    <path d="M 670.29683 260.784 
L 677.49683 264.384 
L 670.29683 267.984 
z
" clip-path="url(#p106d0f9caa)" style="fill: #1f2937; stroke: #1f2937; stroke-width: 3; stroke-linecap: round"/>
   </g>
   <g id="text_1">
    <!-- Hard View: Predict Offline From HLT, But Output Only One Choice -->
    <g style="fill: #0b1220" transform="translate(36.576 54.315937) scale(0.26 -0.26)">
     <defs>
      <path id="DejaVuSans-Bold-48" d="M 588 4666 
L 1791 4666 
L 1791 2888 
L 3566 2888 
L 3566 4666 
L 4769 4666 
L 4769 0 
L 3566 0 
L 3566 1978 
L 1791 1978 
L 1791 0 
L 588 0 
L 588 4666 
z
" transform="scale(0.015625)"/>
      <path id="DejaVuSans-Bold-61" d="M 2106 1575 
Q 1756 1575 1579 1456 
Q 1403 1338 1403 1106 
Q 1403 894 1545 773 
Q 1688 653 1941 653 
Q 2256 653 2472 879 
Q 2688 1106 2688 1447 
L 2688 1575 
L 2106 1575 
z
M 3816 1997 
L 3816 0 
L 2688 0 
L 2688 519 
Q 2463 200 2181 54 
Q 1900 -91 1497 -91 
Q 953 -91 614 226 
Q 275 544 275 1050 
Q 275 1666 698 1953 
Q 1122 2241 2028 2241 
L 2688 2241 
L 2688 2328 
Q 2688 2594 2478 2717 
Q 2269 2841 1825 2841 
Q 1466 2841 1156 2769 
Q 847 2697 581 2553 
L 581 3406 
Q 941 3494 1303 3539 
Q 1666 3584 2028 3584 
Q 2975 3584 3395 3211 
Q 3816 2838 3816 1997 
z
" transform="scale(0.015625)"/>
      <path id="DejaVuSans-Bold-72" d="M 3138 2547 
Q 2991 2616 2845 2648 
Q 2700 2681 2553 2681 
Q 2122 2681 1889 2404 
Q 1656 2128 1656 1613 
L 1656 0 
L 538 0 
L 538 3500 
L 1656 3500 
L 1656 2925 
Q 1872 3269 2151 3426 
Q 2431 3584 2822 3584 
Q 2878 3584 2943 3579 
Q 3009 3575 3134 3559 
L 3138 2547 
z
" transform="scale(0.015625)"/>
      <path id="DejaVuSans-Bold-64" d="M 2919 2988 
L 2919 4863 
L 4044 4863 
L 4044 0 
L 2919 0 
L 2919 506 
Q 2688 197 2409 53 
Q 2131 -91 1766 -91 
Q 1119 -91 703 423 
Q 288 938 288 1747 
Q 288 2556 703 3070 
Q 1119 3584 1766 3584 
Q 2128 3584 2408 3439 
Q 2688 3294 2919 2988 
z
M 2181 722 
Q 2541 722 2730 984 
Q 2919 1247 2919 1747 
Q 2919 2247 2730 2509 
Q 2541 2772 2181 2772 
Q 1825 2772 1636 2509 
Q 1447 2247 1447 1747 
Q 1447 1247 1636 984 
Q 1825 722 2181 722 
z
" transform="scale(0.015625)"/>
      <path id="DejaVuSans-Bold-20" transform="scale(0.015625)"/>
      <path id="DejaVuSans-Bold-56" d="M 31 4666 
L 1241 4666 
L 2478 1222 
L 3713 4666 
L 4922 4666 
L 3194 0 
L 1759 0 
L 31 4666 
z
" transform="scale(0.015625)"/>
      <path id="DejaVuSans-Bold-69" d="M 538 3500 
L 1656 3500 
L 1656 0 
L 538 0 
L 538 3500 
z
M 538 4863 
L 1656 4863 
L 1656 3950 
L 538 3950 
L 538 4863 
z
" transform="scale(0.015625)"/>
      <path id="DejaVuSans-Bold-65" d="M 4031 1759 
L 4031 1441 
L 1416 1441 
Q 1456 1047 1700 850 
Q 1944 653 2381 653 
Q 2734 653 3104 758 
Q 3475 863 3866 1075 
L 3866 213 
Q 3469 63 3072 -14 
Q 2675 -91 2278 -91 
Q 1328 -91 801 392 
Q 275 875 275 1747 
Q 275 2603 792 3093 
Q 1309 3584 2216 3584 
Q 3041 3584 3536 3087 
Q 4031 2591 4031 1759 
z
M 2881 2131 
Q 2881 2450 2695 2645 
Q 2509 2841 2209 2841 
Q 1884 2841 1681 2658 
Q 1478 2475 1428 2131 
L 2881 2131 
z
" transform="scale(0.015625)"/>
      <path id="DejaVuSans-Bold-77" d="M 225 3500 
L 1313 3500 
L 1900 1088 
L 2491 3500 
L 3425 3500 
L 4013 1113 
L 4603 3500 
L 5691 3500 
L 4769 0 
L 3547 0 
L 2956 2406 
L 2369 0 
L 1147 0 
L 225 3500 
z
" transform="scale(0.015625)"/>
      <path id="DejaVuSans-Bold-3a" d="M 716 3500 
L 1844 3500 
L 1844 2291 
L 716 2291 
L 716 3500 
z
M 716 1209 
L 1844 1209 
L 1844 0 
L 716 0 
L 716 1209 
z
" transform="scale(0.015625)"/>
      <path id="DejaVuSans-Bold-50" d="M 588 4666 
L 2584 4666 
Q 3475 4666 3951 4270 
Q 4428 3875 4428 3144 
Q 4428 2409 3951 2014 
Q 3475 1619 2584 1619 
L 1791 1619 
L 1791 0 
L 588 0 
L 588 4666 
z
M 1791 3794 
L 1791 2491 
L 2456 2491 
Q 2806 2491 2997 2661 
Q 3188 2831 3188 3144 
Q 3188 3456 2997 3625 
Q 2806 3794 2456 3794 
L 1791 3794 
z
" transform="scale(0.015625)"/>
      <path id="DejaVuSans-Bold-63" d="M 3366 3391 
L 3366 2478 
Q 3138 2634 2908 2709 
Q 2678 2784 2431 2784 
Q 1963 2784 1702 2511 
Q 1441 2238 1441 1747 
Q 1441 1256 1702 982 
Q 1963 709 2431 709 
Q 2694 709 2930 787 
Q 3166 866 3366 1019 
L 3366 103 
Q 3103 6 2833 -42 
Q 2563 -91 2291 -91 
Q 1344 -91 809 395 
Q 275 881 275 1747 
Q 275 2613 809 3098 
Q 1344 3584 2291 3584 
Q 2566 3584 2833 3536 
Q 3100 3488 3366 3391 
z
" transform="scale(0.015625)"/>
      <path id="DejaVuSans-Bold-74" d="M 1759 4494 
L 1759 3500 
L 2913 3500 
L 2913 2700 
L 1759 2700 
L 1759 1216 
Q 1759 972 1856 886 
Q 1953 800 2241 800 
L 2816 800 
L 2816 0 
L 1856 0 
Q 1194 0 917 276 
Q 641 553 641 1216 
L 641 2700 
L 84 2700 
L 84 3500 
L 641 3500 
L 641 4494 
L 1759 4494 
z
" transform="scale(0.015625)"/>
      <path id="DejaVuSans-Bold-4f" d="M 2719 3878 
Q 2169 3878 1866 3472 
Q 1563 3066 1563 2328 
Q 1563 1594 1866 1187 
Q 2169 781 2719 781 
Q 3272 781 3575 1187 
Q 3878 1594 3878 2328 
Q 3878 3066 3575 3472 
Q 3272 3878 2719 3878 
z
M 2719 4750 
Q 3844 4750 4481 4106 
Q 5119 3463 5119 2328 
Q 5119 1197 4481 553 
Q 3844 -91 2719 -91 
Q 1597 -91 958 553 
Q 319 1197 319 2328 
Q 319 3463 958 4106 
Q 1597 4750 2719 4750 
z
" transform="scale(0.015625)"/>
      <path id="DejaVuSans-Bold-66" d="M 2841 4863 
L 2841 4128 
L 2222 4128 
Q 1984 4128 1890 4042 
Q 1797 3956 1797 3744 
L 1797 3500 
L 2753 3500 
L 2753 2700 
L 1797 2700 
L 1797 0 
L 678 0 
L 678 2700 
L 122 2700 
L 122 3500 
L 678 3500 
L 678 3744 
Q 678 4316 997 4589 
Q 1316 4863 1984 4863 
L 2841 4863 
z
" transform="scale(0.015625)"/>
      <path id="DejaVuSans-Bold-6c" d="M 538 4863 
L 1656 4863 
L 1656 0 
L 538 0 
L 538 4863 
z
" transform="scale(0.015625)"/>
      <path id="DejaVuSans-Bold-6e" d="M 4056 2131 
L 4056 0 
L 2931 0 
L 2931 347 
L 2931 1631 
Q 2931 2084 2911 2256 
Q 2891 2428 2841 2509 
Q 2775 2619 2662 2680 
Q 2550 2741 2406 2741 
Q 2056 2741 1856 2470 
Q 1656 2200 1656 1722 
L 1656 0 
L 538 0 
L 538 3500 
L 1656 3500 
L 1656 2988 
Q 1909 3294 2193 3439 
Q 2478 3584 2822 3584 
Q 3428 3584 3742 3212 
Q 4056 2841 4056 2131 
z
" transform="scale(0.015625)"/>
      <path id="DejaVuSans-Bold-46" d="M 588 4666 
L 3834 4666 
L 3834 3756 
L 1791 3756 
L 1791 2888 
L 3713 2888 
L 3713 1978 
L 1791 1978 
L 1791 0 
L 588 0 
L 588 4666 
z
" transform="scale(0.015625)"/>
      <path id="DejaVuSans-Bold-6f" d="M 2203 2784 
Q 1831 2784 1636 2517 
Q 1441 2250 1441 1747 
Q 1441 1244 1636 976 
Q 1831 709 2203 709 
Q 2569 709 2762 976 
Q 2956 1244 2956 1747 
Q 2956 2250 2762 2517 
Q 2569 2784 2203 2784 
z
M 2203 3584 
Q 3106 3584 3614 3096 
Q 4122 2609 4122 1747 
Q 4122 884 3614 396 
Q 3106 -91 2203 -91 
Q 1297 -91 786 396 
Q 275 884 275 1747 
Q 275 2609 786 3096 
Q 1297 3584 2203 3584 
z
" transform="scale(0.015625)"/>
      <path id="DejaVuSans-Bold-6d" d="M 3781 2919 
Q 3994 3244 4286 3414 
Q 4578 3584 4928 3584 
Q 5531 3584 5847 3212 
Q 6163 2841 6163 2131 
L 6163 0 
L 5038 0 
L 5038 1825 
Q 5041 1866 5042 1909 
Q 5044 1953 5044 2034 
Q 5044 2406 4934 2573 
Q 4825 2741 4581 2741 
Q 4263 2741 4089 2478 
Q 3916 2216 3909 1719 
L 3909 0 
L 2784 0 
L 2784 1825 
Q 2784 2406 2684 2573 
Q 2584 2741 2328 2741 
Q 2006 2741 1831 2477 
Q 1656 2213 1656 1722 
L 1656 0 
L 531 0 
L 531 3500 
L 1656 3500 
L 1656 2988 
Q 1863 3284 2130 3434 
Q 2397 3584 2719 3584 
Q 3081 3584 3359 3409 
Q 3638 3234 3781 2919 
z
" transform="scale(0.015625)"/>
      <path id="DejaVuSans-Bold-4c" d="M 588 4666 
L 1791 4666 
L 1791 909 
L 3903 909 
L 3903 0 
L 588 0 
L 588 4666 
z
" transform="scale(0.015625)"/>
      <path id="DejaVuSans-Bold-54" d="M 31 4666 
L 4331 4666 
L 4331 3756 
L 2784 3756 
L 2784 0 
L 1581 0 
L 1581 3756 
L 31 3756 
L 31 4666 
z
" transform="scale(0.015625)"/>
      <path id="DejaVuSans-Bold-2c" d="M 653 1209 
L 1778 1209 
L 1778 256 
L 1006 -909 
L 341 -909 
L 653 256 
L 653 1209 
z
" transform="scale(0.015625)"/>
      <path id="DejaVuSans-Bold-42" d="M 2456 2859 
Q 2741 2859 2887 2984 
Q 3034 3109 3034 3353 
Q 3034 3594 2887 3720 
Q 2741 3847 2456 3847 
L 1791 3847 
L 1791 2859 
L 2456 2859 
z
M 2497 819 
Q 2859 819 3042 972 
Q 3225 1125 3225 1434 
Q 3225 1738 3044 1889 
Q 2863 2041 2497 2041 
L 1791 2041 
L 1791 819 
L 2497 819 
z
M 3616 2497 
Q 4003 2384 4215 2081 
Q 4428 1778 4428 1338 
Q 4428 663 3972 331 
Q 3516 0 2584 0 
L 588 0 
L 588 4666 
L 2394 4666 
Q 3366 4666 3802 4372 
Q 4238 4078 4238 3431 
Q 4238 3091 4078 2852 
Q 3919 2613 3616 2497 
z
" transform="scale(0.015625)"/>
      <path id="DejaVuSans-Bold-75" d="M 500 1363 
L 500 3500 
L 1625 3500 
L 1625 3150 
Q 1625 2866 1622 2436 
Q 1619 2006 1619 1863 
Q 1619 1441 1641 1255 
Q 1663 1069 1716 984 
Q 1784 875 1895 815 
Q 2006 756 2150 756 
Q 2500 756 2700 1025 
Q 2900 1294 2900 1772 
L 2900 3500 
L 4019 3500 
L 4019 0 
L 2900 0 
L 2900 506 
Q 2647 200 2364 54 
Q 2081 -91 1741 -91 
Q 1134 -91 817 281 
Q 500 653 500 1363 
z
" transform="scale(0.015625)"/>
      <path id="DejaVuSans-Bold-70" d="M 1656 506 
L 1656 -1331 
L 538 -1331 
L 538 3500 
L 1656 3500 
L 1656 2988 
Q 1888 3294 2169 3439 
Q 2450 3584 2816 3584 
Q 3463 3584 3878 3070 
Q 4294 2556 4294 1747 
Q 4294 938 3878 423 
Q 3463 -91 2816 -91 
Q 2450 -91 2169 54 
Q 1888 200 1656 506 
z
M 2400 2772 
Q 2041 2772 1848 2508 
Q 1656 2244 1656 1747 
Q 1656 1250 1848 986 
Q 2041 722 2400 722 
Q 2759 722 2948 984 
Q 3138 1247 3138 1747 
Q 3138 2247 2948 2509 
Q 2759 2772 2400 2772 
z
" transform="scale(0.015625)"/>
      <path id="DejaVuSans-Bold-79" d="M 78 3500 
L 1197 3500 
L 2138 1125 
L 2938 3500 
L 4056 3500 
L 2584 -331 
Q 2363 -916 2067 -1148 
Q 1772 -1381 1288 -1381 
L 641 -1381 
L 641 -647 
L 991 -647 
Q 1275 -647 1404 -556 
Q 1534 -466 1606 -231 
L 1638 -134 
L 78 3500 
z
" transform="scale(0.015625)"/>
      <path id="DejaVuSans-Bold-43" d="M 4288 256 
Q 3956 84 3597 -3 
Q 3238 -91 2847 -91 
Q 1681 -91 1000 561 
Q 319 1213 319 2328 
Q 319 3447 1000 4098 
Q 1681 4750 2847 4750 
Q 3238 4750 3597 4662 
Q 3956 4575 4288 4403 
L 4288 3438 
Q 3953 3666 3628 3772 
Q 3303 3878 2944 3878 
Q 2300 3878 1931 3465 
Q 1563 3053 1563 2328 
Q 1563 1606 1931 1193 
Q 2300 781 2944 781 
Q 3303 781 3628 887 
Q 3953 994 4288 1222 
L 4288 256 
z
" transform="scale(0.015625)"/>
      <path id="DejaVuSans-Bold-68" d="M 4056 2131 
L 4056 0 
L 2931 0 
L 2931 347 
L 2931 1625 
Q 2931 2084 2911 2256 
Q 2891 2428 2841 2509 
Q 2775 2619 2662 2680 
Q 2550 2741 2406 2741 
Q 2056 2741 1856 2470 
Q 1656 2200 1656 1722 
L 1656 0 
L 538 0 
L 538 4863 
L 1656 4863 
L 1656 2988 
Q 1909 3294 2193 3439 
Q 2478 3584 2822 3584 
Q 3428 3584 3742 3212 
Q 4056 2841 4056 2131 
z
" transform="scale(0.015625)"/>
     </defs>
     <use xlink:href="#DejaVuSans-Bold-48"/>
     <use xlink:href="#DejaVuSans-Bold-61" transform="translate(83.691406 0)"/>
     <use xlink:href="#DejaVuSans-Bold-72" transform="translate(151.171875 0)"/>
     <use xlink:href="#DejaVuSans-Bold-64" transform="translate(200.488281 0)"/>
     <use xlink:href="#DejaVuSans-Bold-20" transform="translate(272.070312 0)"/>
     <use xlink:href="#DejaVuSans-Bold-56" transform="translate(306.884766 0)"/>
     <use xlink:href="#DejaVuSans-Bold-69" transform="translate(382.527344 0)"/>
     <use xlink:href="#DejaVuSans-Bold-65" transform="translate(416.804688 0)"/>
     <use xlink:href="#DejaVuSans-Bold-77" transform="translate(484.626953 0)"/>
     <use xlink:href="#DejaVuSans-Bold-3a" transform="translate(577.009766 0)"/>
     <use xlink:href="#DejaVuSans-Bold-20" transform="translate(617 0)"/>
     <use xlink:href="#DejaVuSans-Bold-50" transform="translate(651.814453 0)"/>
     <use xlink:href="#DejaVuSans-Bold-72" transform="translate(725.105469 0)"/>
     <use xlink:href="#DejaVuSans-Bold-65" transform="translate(774.421875 0)"/>
     <use xlink:href="#DejaVuSans-Bold-64" transform="translate(842.244141 0)"/>
     <use xlink:href="#DejaVuSans-Bold-69" transform="translate(913.826172 0)"/>
     <use xlink:href="#DejaVuSans-Bold-63" transform="translate(948.103516 0)"/>
     <use xlink:href="#DejaVuSans-Bold-74" transform="translate(1007.380859 0)"/>
     <use xlink:href="#DejaVuSans-Bold-20" transform="translate(1055.183594 0)"/>
     <use xlink:href="#DejaVuSans-Bold-4f" transform="translate(1089.998047 0)"/>
     <use xlink:href="#DejaVuSans-Bold-66" transform="translate(1175.007812 0)"/>
     <use xlink:href="#DejaVuSans-Bold-66" transform="translate(1218.513672 0)"/>
     <use xlink:href="#DejaVuSans-Bold-6c" transform="translate(1262.019531 0)"/>
     <use xlink:href="#DejaVuSans-Bold-69" transform="translate(1296.296875 0)"/>
     <use xlink:href="#DejaVuSans-Bold-6e" transform="translate(1330.574219 0)"/>
     <use xlink:href="#DejaVuSans-Bold-65" transform="translate(1401.765625 0)"/>
     <use xlink:href="#DejaVuSans-Bold-20" transform="translate(1469.587891 0)"/>
     <use xlink:href="#DejaVuSans-Bold-46" transform="translate(1504.402344 0)"/>
     <use xlink:href="#DejaVuSans-Bold-72" transform="translate(1566.337891 0)"/>
     <use xlink:href="#DejaVuSans-Bold-6f" transform="translate(1615.654297 0)"/>
     <use xlink:href="#DejaVuSans-Bold-6d" transform="translate(1684.355469 0)"/>
     <use xlink:href="#DejaVuSans-Bold-20" transform="translate(1788.554688 0)"/>
     <use xlink:href="#DejaVuSans-Bold-48" transform="translate(1823.369141 0)"/>
     <use xlink:href="#DejaVuSans-Bold-4c" transform="translate(1907.060547 0)"/>
     <use xlink:href="#DejaVuSans-Bold-54" transform="translate(1954.28125 0)"/>
     <use xlink:href="#DejaVuSans-Bold-2c" transform="translate(2008.244141 0)"/>
     <use xlink:href="#DejaVuSans-Bold-20" transform="translate(2046.232422 0)"/>
     <use xlink:href="#DejaVuSans-Bold-42" transform="translate(2081.046875 0)"/>
     <use xlink:href="#DejaVuSans-Bold-75" transform="translate(2157.267578 0)"/>
     <use xlink:href="#DejaVuSans-Bold-74" transform="translate(2228.458984 0)"/>
     <use xlink:href="#DejaVuSans-Bold-20" transform="translate(2276.261719 0)"/>
     <use xlink:href="#DejaVuSans-Bold-4f" transform="translate(2311.076172 0)"/>
     <use xlink:href="#DejaVuSans-Bold-75" transform="translate(2396.085938 0)"/>
     <use xlink:href="#DejaVuSans-Bold-74" transform="translate(2467.277344 0)"/>
     <use xlink:href="#DejaVuSans-Bold-70" transform="translate(2515.080078 0)"/>
     <use xlink:href="#DejaVuSans-Bold-75" transform="translate(2586.662109 0)"/>
     <use xlink:href="#DejaVuSans-Bold-74" transform="translate(2657.853516 0)"/>
     <use xlink:href="#DejaVuSans-Bold-20" transform="translate(2705.65625 0)"/>
     <use xlink:href="#DejaVuSans-Bold-4f" transform="translate(2740.470703 0)"/>
     <use xlink:href="#DejaVuSans-Bold-6e" transform="translate(2825.480469 0)"/>
     <use xlink:href="#DejaVuSans-Bold-6c" transform="translate(2896.671875 0)"/>
     <use xlink:href="#DejaVuSans-Bold-79" transform="translate(2930.949219 0)"/>
     <use xlink:href="#DejaVuSans-Bold-20" transform="translate(2996.134766 0)"/>
     <use xlink:href="#DejaVuSans-Bold-4f" transform="translate(3030.949219 0)"/>
     <use xlink:href="#DejaVuSans-Bold-6e" transform="translate(3115.958984 0)"/>
     <use xlink:href="#DejaVuSans-Bold-65" transform="translate(3187.150391 0)"/>
     <use xlink:href="#DejaVuSans-Bold-20" transform="translate(3254.972656 0)"/>
     <use xlink:href="#DejaVuSans-Bold-43" transform="translate(3289.787109 0)"/>
     <use xlink:href="#DejaVuSans-Bold-68" transform="translate(3363.175781 0)"/>
     <use xlink:href="#DejaVuSans-Bold-6f" transform="translate(3434.367188 0)"/>
     <use xlink:href="#DejaVuSans-Bold-69" transform="translate(3503.068359 0)"/>
     <use xlink:href="#DejaVuSans-Bold-63" transform="translate(3537.345703 0)"/>
     <use xlink:href="#DejaVuSans-Bold-65" transform="translate(3596.623047 0)"/>
    </g>
   </g>
   <g id="text_2">
    <!-- OFFLINE -->
    <g style="fill: #1e3a8a" transform="translate(80.64 116.64) scale(0.18 -0.18)">
     <defs>
      <path id="DejaVuSans-Bold-49" d="M 588 4666 
L 1791 4666 
L 1791 0 
L 588 0 
L 588 4666 
z
" transform="scale(0.015625)"/>
      <path id="DejaVuSans-Bold-4e" d="M 588 4666 
L 1931 4666 
L 3628 1466 
L 3628 4666 
L 4769 4666 
L 4769 0 
L 3425 0 
L 1728 3200 
L 1728 0 
L 588 0 
L 588 4666 
z
" transform="scale(0.015625)"/>
      <path id="DejaVuSans-Bold-45" d="M 588 4666 
L 3834 4666 
L 3834 3756 
L 1791 3756 
L 1791 2888 
L 3713 2888 
L 3713 1978 
L 1791 1978 
L 1791 909 
L 3903 909 
L 3903 0 
L 588 0 
L 588 4666 
z
" transform="scale(0.015625)"/>
     </defs>
     <use xlink:href="#DejaVuSans-Bold-4f"/>
     <use xlink:href="#DejaVuSans-Bold-46" transform="translate(85.009766 0)"/>
     <use xlink:href="#DejaVuSans-Bold-46" transform="translate(153.320312 0)"/>
     <use xlink:href="#DejaVuSans-Bold-4c" transform="translate(221.630859 0)"/>
     <use xlink:href="#DejaVuSans-Bold-49" transform="translate(285.351562 0)"/>
     <use xlink:href="#DejaVuSans-Bold-4e" transform="translate(322.558594 0)"/>
     <use xlink:href="#DejaVuSans-Bold-45" transform="translate(406.25 0)"/>
    </g>
   </g>
   <g id="text_3">
    <!-- HLT (INPUT) -->
    <g style="fill: #991b1b" transform="translate(413.568 116.64) scale(0.18 -0.18)">
     <defs>
      <path id="DejaVuSans-Bold-28" d="M 2413 -844 
L 1484 -844 
Q 1006 -72 778 623 
Q 550 1319 550 2003 
Q 550 2688 779 3389 
Q 1009 4091 1484 4856 
L 2413 4856 
Q 2013 4116 1813 3408 
Q 1613 2700 1613 2009 
Q 1613 1319 1811 609 
Q 2009 -100 2413 -844 
z
" transform="scale(0.015625)"/>
      <path id="DejaVuSans-Bold-55" d="M 588 4666 
L 1791 4666 
L 1791 1869 
Q 1791 1291 1980 1042 
Q 2169 794 2597 794 
Q 3028 794 3217 1042 
Q 3406 1291 3406 1869 
L 3406 4666 
L 4609 4666 
L 4609 1869 
Q 4609 878 4112 393 
Q 3616 -91 2597 -91 
Q 1581 -91 1084 393 
Q 588 878 588 1869 
L 588 4666 
z
" transform="scale(0.015625)"/>
      <path id="DejaVuSans-Bold-29" d="M 513 -844 
Q 913 -100 1113 609 
Q 1313 1319 1313 2009 
Q 1313 2700 1113 3408 
Q 913 4116 513 4856 
L 1441 4856 
Q 1916 4091 2145 3389 
Q 2375 2688 2375 2003 
Q 2375 1319 2147 623 
Q 1919 -72 1441 -844 
L 513 -844 
z
" transform="scale(0.015625)"/>
     </defs>
     <use xlink:href="#DejaVuSans-Bold-48"/>
     <use xlink:href="#DejaVuSans-Bold-4c" transform="translate(83.691406 0)"/>
     <use xlink:href="#DejaVuSans-Bold-54" transform="translate(130.912109 0)"/>
     <use xlink:href="#DejaVuSans-Bold-20" transform="translate(199.125 0)"/>
     <use xlink:href="#DejaVuSans-Bold-28" transform="translate(233.939453 0)"/>
     <use xlink:href="#DejaVuSans-Bold-49" transform="translate(279.642578 0)"/>
     <use xlink:href="#DejaVuSans-Bold-4e" transform="translate(316.849609 0)"/>
     <use xlink:href="#DejaVuSans-Bold-50" transform="translate(400.541016 0)"/>
     <use xlink:href="#DejaVuSans-Bold-55" transform="translate(473.832031 0)"/>
     <use xlink:href="#DejaVuSans-Bold-54" transform="translate(555.033203 0)"/>
     <use xlink:href="#DejaVuSans-Bold-29" transform="translate(623.246094 0)"/>
    </g>
   </g>
   <g id="text_4">
    <!-- PREDICT OFFLINE -->
    <g style="fill: #9a3412" transform="translate(722.016 116.64) scale(0.18 -0.18)">
     <defs>
      <path id="DejaVuSans-Bold-52" d="M 2297 2597 
Q 2675 2597 2839 2737 
Q 3003 2878 3003 3200 
Q 3003 3519 2839 3656 
Q 2675 3794 2297 3794 
L 1791 3794 
L 1791 2597 
L 2297 2597 
z
M 1791 1766 
L 1791 0 
L 588 0 
L 588 4666 
L 2425 4666 
Q 3347 4666 3776 4356 
Q 4206 4047 4206 3378 
Q 4206 2916 3982 2619 
Q 3759 2322 3309 2181 
Q 3556 2125 3751 1926 
Q 3947 1728 4147 1325 
L 4800 0 
L 3519 0 
L 2950 1159 
Q 2778 1509 2601 1637 
Q 2425 1766 2131 1766 
L 1791 1766 
z
" transform="scale(0.015625)"/>
      <path id="DejaVuSans-Bold-44" d="M 1791 3756 
L 1791 909 
L 2222 909 
Q 2959 909 3348 1275 
Q 3738 1641 3738 2338 
Q 3738 3031 3350 3393 
Q 2963 3756 2222 3756 
L 1791 3756 
z
M 588 4666 
L 1856 4666 
Q 2919 4666 3439 4514 
Q 3959 4363 4331 4000 
Q 4659 3684 4818 3271 
Q 4978 2859 4978 2338 
Q 4978 1809 4818 1395 
Q 4659 981 4331 666 
Q 3956 303 3431 151 
Q 2906 0 1856 0 
L 588 0 
L 588 4666 
z
" transform="scale(0.015625)"/>
     </defs>
     <use xlink:href="#DejaVuSans-Bold-50"/>
     <use xlink:href="#DejaVuSans-Bold-52" transform="translate(73.291016 0)"/>
     <use xlink:href="#DejaVuSans-Bold-45" transform="translate(150.292969 0)"/>
     <use xlink:href="#DejaVuSans-Bold-44" transform="translate(218.603516 0)"/>
     <use xlink:href="#DejaVuSans-Bold-49" transform="translate(301.611328 0)"/>
     <use xlink:href="#DejaVuSans-Bold-43" transform="translate(338.818359 0)"/>
     <use xlink:href="#DejaVuSans-Bold-54" transform="translate(412.207031 0)"/>
     <use xlink:href="#DejaVuSans-Bold-20" transform="translate(480.419922 0)"/>
     <use xlink:href="#DejaVuSans-Bold-4f" transform="translate(515.234375 0)"/>
     <use xlink:href="#DejaVuSans-Bold-46" transform="translate(600.244141 0)"/>
     <use xlink:href="#DejaVuSans-Bold-46" transform="translate(668.554688 0)"/>
     <use xlink:href="#DejaVuSans-Bold-4c" transform="translate(736.865234 0)"/>
     <use xlink:href="#DejaVuSans-Bold-49" transform="translate(800.585938 0)"/>
     <use xlink:href="#DejaVuSans-Bold-4e" transform="translate(837.792969 0)"/>
     <use xlink:href="#DejaVuSans-Bold-45" transform="translate(921.484375 0)"/>
    </g>
   </g>
   <g id="text_5">
    <!-- drop / merge / smear -->
    <g style="fill: #7f1d1d" transform="translate(428.256 368.352) scale(0.12 -0.12)">
     <defs>
      <path id="DejaVuSans-64" d="M 2906 2969 
L 2906 4863 
L 3481 4863 
L 3481 0 
L 2906 0 
L 2906 525 
Q 2725 213 2448 61 
Q 2172 -91 1784 -91 
Q 1150 -91 751 415 
Q 353 922 353 1747 
Q 353 2572 751 3078 
Q 1150 3584 1784 3584 
Q 2172 3584 2448 3432 
Q 2725 3281 2906 2969 
z
M 947 1747 
Q 947 1113 1208 752 
Q 1469 391 1925 391 
Q 2381 391 2643 752 
Q 2906 1113 2906 1747 
Q 2906 2381 2643 2742 
Q 2381 3103 1925 3103 
Q 1469 3103 1208 2742 
Q 947 2381 947 1747 
z
" transform="scale(0.015625)"/>
      <path id="DejaVuSans-72" d="M 2631 2963 
Q 2534 3019 2420 3045 
Q 2306 3072 2169 3072 
Q 1681 3072 1420 2755 
Q 1159 2438 1159 1844 
L 1159 0 
L 581 0 
L 581 3500 
L 1159 3500 
L 1159 2956 
Q 1341 3275 1631 3429 
Q 1922 3584 2338 3584 
Q 2397 3584 2469 3576 
Q 2541 3569 2628 3553 
L 2631 2963 
z
" transform="scale(0.015625)"/>
      <path id="DejaVuSans-6f" d="M 1959 3097 
Q 1497 3097 1228 2736 
Q 959 2375 959 1747 
Q 959 1119 1226 758 
Q 1494 397 1959 397 
Q 2419 397 2687 759 
Q 2956 1122 2956 1747 
Q 2956 2369 2687 2733 
Q 2419 3097 1959 3097 
z
M 1959 3584 
Q 2709 3584 3137 3096 
Q 3566 2609 3566 1747 
Q 3566 888 3137 398 
Q 2709 -91 1959 -91 
Q 1206 -91 779 398 
Q 353 888 353 1747 
Q 353 2609 779 3096 
Q 1206 3584 1959 3584 
z
" transform="scale(0.015625)"/>
      <path id="DejaVuSans-70" d="M 1159 525 
L 1159 -1331 
L 581 -1331 
L 581 3500 
L 1159 3500 
L 1159 2969 
Q 1341 3281 1617 3432 
Q 1894 3584 2278 3584 
Q 2916 3584 3314 3078 
Q 3713 2572 3713 1747 
Q 3713 922 3314 415 
Q 2916 -91 2278 -91 
Q 1894 -91 1617 61 
Q 1341 213 1159 525 
z
M 3116 1747 
Q 3116 2381 2855 2742 
Q 2594 3103 2138 3103 
Q 1681 3103 1420 2742 
Q 1159 2381 1159 1747 
Q 1159 1113 1420 752 
Q 1681 391 2138 391 
Q 2594 391 2855 752 
Q 3116 1113 3116 1747 
z
" transform="scale(0.015625)"/>
      <path id="DejaVuSans-20" transform="scale(0.015625)"/>
      <path id="DejaVuSans-2f" d="M 1625 4666 
L 2156 4666 
L 531 -594 
L 0 -594 
L 1625 4666 
z
" transform="scale(0.015625)"/>
      <path id="DejaVuSans-6d" d="M 3328 2828 
Q 3544 3216 3844 3400 
Q 4144 3584 4550 3584 
Q 5097 3584 5394 3201 
Q 5691 2819 5691 2113 
L 5691 0 
L 5113 0 
L 5113 2094 
Q 5113 2597 4934 2840 
Q 4756 3084 4391 3084 
Q 3944 3084 3684 2787 
Q 3425 2491 3425 1978 
L 3425 0 
L 2847 0 
L 2847 2094 
Q 2847 2600 2669 2842 
Q 2491 3084 2119 3084 
Q 1678 3084 1418 2786 
Q 1159 2488 1159 1978 
L 1159 0 
L 581 0 
L 581 3500 
L 1159 3500 
L 1159 2956 
Q 1356 3278 1631 3431 
Q 1906 3584 2284 3584 
Q 2666 3584 2933 3390 
Q 3200 3197 3328 2828 
z
" transform="scale(0.015625)"/>
      <path id="DejaVuSans-65" d="M 3597 1894 
L 3597 1613 
L 953 1613 
Q 991 1019 1311 708 
Q 1631 397 2203 397 
Q 2534 397 2845 478 
Q 3156 559 3463 722 
L 3463 178 
Q 3153 47 2828 -22 
Q 2503 -91 2169 -91 
Q 1331 -91 842 396 
Q 353 884 353 1716 
Q 353 2575 817 3079 
Q 1281 3584 2069 3584 
Q 2775 3584 3186 3129 
Q 3597 2675 3597 1894 
z
M 3022 2063 
Q 3016 2534 2758 2815 
Q 2500 3097 2075 3097 
Q 1594 3097 1305 2825 
Q 1016 2553 972 2059 
L 3022 2063 
z
" transform="scale(0.015625)"/>
      <path id="DejaVuSans-67" d="M 2906 1791 
Q 2906 2416 2648 2759 
Q 2391 3103 1925 3103 
Q 1463 3103 1205 2759 
Q 947 2416 947 1791 
Q 947 1169 1205 825 
Q 1463 481 1925 481 
Q 2391 481 2648 825 
Q 2906 1169 2906 1791 
z
M 3481 434 
Q 3481 -459 3084 -895 
Q 2688 -1331 1869 -1331 
Q 1566 -1331 1297 -1286 
Q 1028 -1241 775 -1147 
L 775 -588 
Q 1028 -725 1275 -790 
Q 1522 -856 1778 -856 
Q 2344 -856 2625 -561 
Q 2906 -266 2906 331 
L 2906 616 
Q 2728 306 2450 153 
Q 2172 0 1784 0 
Q 1141 0 747 490 
Q 353 981 353 1791 
Q 353 2603 747 3093 
Q 1141 3584 1784 3584 
Q 2172 3584 2450 3431 
Q 2728 3278 2906 2969 
L 2906 3500 
L 3481 3500 
L 3481 434 
z
" transform="scale(0.015625)"/>
      <path id="DejaVuSans-73" d="M 2834 3397 
L 2834 2853 
Q 2591 2978 2328 3040 
Q 2066 3103 1784 3103 
Q 1356 3103 1142 2972 
Q 928 2841 928 2578 
Q 928 2378 1081 2264 
Q 1234 2150 1697 2047 
L 1894 2003 
Q 2506 1872 2764 1633 
Q 3022 1394 3022 966 
Q 3022 478 2636 193 
Q 2250 -91 1575 -91 
Q 1294 -91 989 -36 
Q 684 19 347 128 
L 347 722 
Q 666 556 975 473 
Q 1284 391 1588 391 
Q 1994 391 2212 530 
Q 2431 669 2431 922 
Q 2431 1156 2273 1281 
Q 2116 1406 1581 1522 
L 1381 1569 
Q 847 1681 609 1914 
Q 372 2147 372 2553 
Q 372 3047 722 3315 
Q 1072 3584 1716 3584 
Q 2034 3584 2315 3537 
Q 2597 3491 2834 3397 
z
" transform="scale(0.015625)"/>
      <path id="DejaVuSans-61" d="M 2194 1759 
Q 1497 1759 1228 1600 
Q 959 1441 959 1056 
Q 959 750 1161 570 
Q 1363 391 1709 391 
Q 2188 391 2477 730 
Q 2766 1069 2766 1631 
L 2766 1759 
L 2194 1759 
z
M 3341 1997 
L 3341 0 
L 2766 0 
L 2766 531 
Q 2569 213 2275 61 
Q 1981 -91 1556 -91 
Q 1019 -91 701 211 
Q 384 513 384 1019 
Q 384 1609 779 1909 
Q 1175 2209 1959 2209 
L 2766 2209 
L 2766 2266 
Q 2766 2663 2505 2880 
Q 2244 3097 1772 3097 
Q 1472 3097 1187 3025 
Q 903 2953 641 2809 
L 641 3341 
Q 956 3463 1253 3523 
Q 1550 3584 1831 3584 
Q 2591 3584 2966 3190 
Q 3341 2797 3341 1997 
z
" transform="scale(0.015625)"/>
     </defs>
     <use xlink:href="#DejaVuSans-64"/>
     <use xlink:href="#DejaVuSans-72" transform="translate(63.476562 0)"/>
     <use xlink:href="#DejaVuSans-6f" transform="translate(102.339844 0)"/>
     <use xlink:href="#DejaVuSans-70" transform="translate(163.521484 0)"/>
     <use xlink:href="#DejaVuSans-20" transform="translate(226.998047 0)"/>
     <use xlink:href="#DejaVuSans-2f" transform="translate(258.785156 0)"/>
     <use xlink:href="#DejaVuSans-20" transform="translate(292.476562 0)"/>
     <use xlink:href="#DejaVuSans-6d" transform="translate(324.263672 0)"/>
     <use xlink:href="#DejaVuSans-65" transform="translate(421.675781 0)"/>
     <use xlink:href="#DejaVuSans-72" transform="translate(483.199219 0)"/>
     <use xlink:href="#DejaVuSans-67" transform="translate(522.5625 0)"/>
     <use xlink:href="#DejaVuSans-65" transform="translate(586.039062 0)"/>
     <use xlink:href="#DejaVuSans-20" transform="translate(647.5625 0)"/>
     <use xlink:href="#DejaVuSans-2f" transform="translate(679.349609 0)"/>
     <use xlink:href="#DejaVuSans-20" transform="translate(713.041016 0)"/>
     <use xlink:href="#DejaVuSans-73" transform="translate(744.828125 0)"/>
     <use xlink:href="#DejaVuSans-6d" transform="translate(796.927734 0)"/>
     <use xlink:href="#DejaVuSans-65" transform="translate(894.339844 0)"/>
     <use xlink:href="#DejaVuSans-61" transform="translate(955.863281 0)"/>
     <use xlink:href="#DejaVuSans-72" transform="translate(1017.142578 0)"/>
    </g>
   </g>
   <g id="text_6">
    <!-- hard output: pick ONE mapping -->
    <g style="fill: #b45309" transform="translate(702.432 384.768) scale(0.12 -0.12)">
     <defs>
      <path id="DejaVuSans-68" d="M 3513 2113 
L 3513 0 
L 2938 0 
L 2938 2094 
Q 2938 2591 2744 2837 
Q 2550 3084 2163 3084 
Q 1697 3084 1428 2787 
Q 1159 2491 1159 1978 
L 1159 0 
L 581 0 
L 581 4863 
L 1159 4863 
L 1159 2956 
Q 1366 3272 1645 3428 
Q 1925 3584 2291 3584 
Q 2894 3584 3203 3211 
Q 3513 2838 3513 2113 
z
" transform="scale(0.015625)"/>
      <path id="DejaVuSans-75" d="M 544 1381 
L 544 3500 
L 1119 3500 
L 1119 1403 
Q 1119 906 1312 657 
Q 1506 409 1894 409 
Q 2359 409 2629 706 
Q 2900 1003 2900 1516 
L 2900 3500 
L 3475 3500 
L 3475 0 
L 2900 0 
L 2900 538 
Q 2691 219 2414 64 
Q 2138 -91 1772 -91 
Q 1169 -91 856 284 
Q 544 659 544 1381 
z
M 1991 3584 
L 1991 3584 
z
" transform="scale(0.015625)"/>
      <path id="DejaVuSans-74" d="M 1172 4494 
L 1172 3500 
L 2356 3500 
L 2356 3053 
L 1172 3053 
L 1172 1153 
Q 1172 725 1289 603 
Q 1406 481 1766 481 
L 2356 481 
L 2356 0 
L 1766 0 
Q 1100 0 847 248 
Q 594 497 594 1153 
L 594 3053 
L 172 3053 
L 172 3500 
L 594 3500 
L 594 4494 
L 1172 4494 
z
" transform="scale(0.015625)"/>
      <path id="DejaVuSans-3a" d="M 750 794 
L 1409 794 
L 1409 0 
L 750 0 
L 750 794 
z
M 750 3309 
L 1409 3309 
L 1409 2516 
L 750 2516 
L 750 3309 
z
" transform="scale(0.015625)"/>
      <path id="DejaVuSans-69" d="M 603 3500 
L 1178 3500 
L 1178 0 
L 603 0 
L 603 3500 
z
M 603 4863 
L 1178 4863 
L 1178 4134 
L 603 4134 
L 603 4863 
z
" transform="scale(0.015625)"/>
      <path id="DejaVuSans-63" d="M 3122 3366 
L 3122 2828 
Q 2878 2963 2633 3030 
Q 2388 3097 2138 3097 
Q 1578 3097 1268 2742 
Q 959 2388 959 1747 
Q 959 1106 1268 751 
Q 1578 397 2138 397 
Q 2388 397 2633 464 
Q 2878 531 3122 666 
L 3122 134 
Q 2881 22 2623 -34 
Q 2366 -91 2075 -91 
Q 1284 -91 818 406 
Q 353 903 353 1747 
Q 353 2603 823 3093 
Q 1294 3584 2113 3584 
Q 2378 3584 2631 3529 
Q 2884 3475 3122 3366 
z
" transform="scale(0.015625)"/>
      <path id="DejaVuSans-6b" d="M 581 4863 
L 1159 4863 
L 1159 1991 
L 2875 3500 
L 3609 3500 
L 1753 1863 
L 3688 0 
L 2938 0 
L 1159 1709 
L 1159 0 
L 581 0 
L 581 4863 
z
" transform="scale(0.015625)"/>
      <path id="DejaVuSans-4f" d="M 2522 4238 
Q 1834 4238 1429 3725 
Q 1025 3213 1025 2328 
Q 1025 1447 1429 934 
Q 1834 422 2522 422 
Q 3209 422 3611 934 
Q 4013 1447 4013 2328 
Q 4013 3213 3611 3725 
Q 3209 4238 2522 4238 
z
M 2522 4750 
Q 3503 4750 4090 4092 
Q 4678 3434 4678 2328 
Q 4678 1225 4090 567 
Q 3503 -91 2522 -91 
Q 1538 -91 948 565 
Q 359 1222 359 2328 
Q 359 3434 948 4092 
Q 1538 4750 2522 4750 
z
" transform="scale(0.015625)"/>
      <path id="DejaVuSans-4e" d="M 628 4666 
L 1478 4666 
L 3547 763 
L 3547 4666 
L 4159 4666 
L 4159 0 
L 3309 0 
L 1241 3903 
L 1241 0 
L 628 0 
L 628 4666 
z
" transform="scale(0.015625)"/>
      <path id="DejaVuSans-45" d="M 628 4666 
L 3578 4666 
L 3578 4134 
L 1259 4134 
L 1259 2753 
L 3481 2753 
L 3481 2222 
L 1259 2222 
L 1259 531 
L 3634 531 
L 3634 0 
L 628 0 
L 628 4666 
z
" transform="scale(0.015625)"/>
      <path id="DejaVuSans-6e" d="M 3513 2113 
L 3513 0 
L 2938 0 
L 2938 2094 
Q 2938 2591 2744 2837 
Q 2550 3084 2163 3084 
Q 1697 3084 1428 2787 
Q 1159 2491 1159 1978 
L 1159 0 
L 581 0 
L 581 3500 
L 1159 3500 
L 1159 2956 
Q 1366 3272 1645 3428 
Q 1925 3584 2291 3584 
Q 2894 3584 3203 3211 
Q 3513 2838 3513 2113 
z
" transform="scale(0.015625)"/>
     </defs>
     <use xlink:href="#DejaVuSans-68"/>
     <use xlink:href="#DejaVuSans-61" transform="translate(63.378906 0)"/>
     <use xlink:href="#DejaVuSans-72" transform="translate(124.658203 0)"/>
     <use xlink:href="#DejaVuSans-64" transform="translate(164.021484 0)"/>
     <use xlink:href="#DejaVuSans-20" transform="translate(227.498047 0)"/>
     <use xlink:href="#DejaVuSans-6f" transform="translate(259.285156 0)"/>
     <use xlink:href="#DejaVuSans-75" transform="translate(320.466797 0)"/>
     <use xlink:href="#DejaVuSans-74" transform="translate(383.845703 0)"/>
     <use xlink:href="#DejaVuSans-70" transform="translate(423.054688 0)"/>
     <use xlink:href="#DejaVuSans-75" transform="translate(486.53125 0)"/>
     <use xlink:href="#DejaVuSans-74" transform="translate(549.910156 0)"/>
     <use xlink:href="#DejaVuSans-3a" transform="translate(589.119141 0)"/>
     <use xlink:href="#DejaVuSans-20" transform="translate(622.810547 0)"/>
     <use xlink:href="#DejaVuSans-70" transform="translate(654.597656 0)"/>
     <use xlink:href="#DejaVuSans-69" transform="translate(718.074219 0)"/>
     <use xlink:href="#DejaVuSans-63" transform="translate(745.857422 0)"/>
     <use xlink:href="#DejaVuSans-6b" transform="translate(800.837891 0)"/>
     <use xlink:href="#DejaVuSans-20" transform="translate(858.748047 0)"/>
     <use xlink:href="#DejaVuSans-4f" transform="translate(890.535156 0)"/>
     <use xlink:href="#DejaVuSans-4e" transform="translate(969.246094 0)"/>
     <use xlink:href="#DejaVuSans-45" transform="translate(1044.050781 0)"/>
     <use xlink:href="#DejaVuSans-20" transform="translate(1107.234375 0)"/>
     <use xlink:href="#DejaVuSans-6d" transform="translate(1139.021484 0)"/>
     <use xlink:href="#DejaVuSans-61" transform="translate(1236.433594 0)"/>
     <use xlink:href="#DejaVuSans-70" transform="translate(1297.712891 0)"/>
     <use xlink:href="#DejaVuSans-70" transform="translate(1361.189453 0)"/>
     <use xlink:href="#DejaVuSans-69" transform="translate(1424.666016 0)"/>
     <use xlink:href="#DejaVuSans-6e" transform="translate(1452.449219 0)"/>
     <use xlink:href="#DejaVuSans-67" transform="translate(1515.828125 0)"/>
    </g>
   </g>
   <g id="text_7">
    <!-- Task: HLT -&gt; OFFLINE reconstruction -->
    <g style="fill: #0f172a" transform="translate(389.088 488.736) scale(0.15 -0.15)">
     <defs>
      <path id="DejaVuSans-Bold-73" d="M 3272 3391 
L 3272 2541 
Q 2913 2691 2578 2766 
Q 2244 2841 1947 2841 
Q 1628 2841 1473 2761 
Q 1319 2681 1319 2516 
Q 1319 2381 1436 2309 
Q 1553 2238 1856 2203 
L 2053 2175 
Q 2913 2066 3209 1816 
Q 3506 1566 3506 1031 
Q 3506 472 3093 190 
Q 2681 -91 1863 -91 
Q 1516 -91 1145 -36 
Q 775 19 384 128 
L 384 978 
Q 719 816 1070 734 
Q 1422 653 1784 653 
Q 2113 653 2278 743 
Q 2444 834 2444 1013 
Q 2444 1163 2330 1236 
Q 2216 1309 1875 1350 
L 1678 1375 
Q 931 1469 631 1722 
Q 331 1975 331 2491 
Q 331 3047 712 3315 
Q 1094 3584 1881 3584 
Q 2191 3584 2531 3537 
Q 2872 3491 3272 3391 
z
" transform="scale(0.015625)"/>
      <path id="DejaVuSans-Bold-6b" d="M 538 4863 
L 1656 4863 
L 1656 2216 
L 2944 3500 
L 4244 3500 
L 2534 1894 
L 4378 0 
L 3022 0 
L 1656 1459 
L 1656 0 
L 538 0 
L 538 4863 
z
" transform="scale(0.015625)"/>
      <path id="DejaVuSans-Bold-2d" d="M 347 2297 
L 2309 2297 
L 2309 1388 
L 347 1388 
L 347 2297 
z
" transform="scale(0.015625)"/>
      <path id="DejaVuSans-Bold-3e" d="M 678 3041 
L 678 3822 
L 4684 2375 
L 4684 1638 
L 678 191 
L 678 972 
L 3694 2003 
L 678 3041 
z
" transform="scale(0.015625)"/>
     </defs>
     <use xlink:href="#DejaVuSans-Bold-54"/>
     <use xlink:href="#DejaVuSans-Bold-61" transform="translate(55.337891 0)"/>
     <use xlink:href="#DejaVuSans-Bold-73" transform="translate(122.818359 0)"/>
     <use xlink:href="#DejaVuSans-Bold-6b" transform="translate(182.339844 0)"/>
     <use xlink:href="#DejaVuSans-Bold-3a" transform="translate(248.84375 0)"/>
     <use xlink:href="#DejaVuSans-Bold-20" transform="translate(288.833984 0)"/>
     <use xlink:href="#DejaVuSans-Bold-48" transform="translate(323.648438 0)"/>
     <use xlink:href="#DejaVuSans-Bold-4c" transform="translate(407.339844 0)"/>
     <use xlink:href="#DejaVuSans-Bold-54" transform="translate(454.560547 0)"/>
     <use xlink:href="#DejaVuSans-Bold-20" transform="translate(522.773438 0)"/>
     <use xlink:href="#DejaVuSans-Bold-2d" transform="translate(557.587891 0)"/>
     <use xlink:href="#DejaVuSans-Bold-3e" transform="translate(599.091797 0)"/>
     <use xlink:href="#DejaVuSans-Bold-20" transform="translate(682.880859 0)"/>
     <use xlink:href="#DejaVuSans-Bold-4f" transform="translate(717.695312 0)"/>
     <use xlink:href="#DejaVuSans-Bold-46" transform="translate(802.705078 0)"/>
     <use xlink:href="#DejaVuSans-Bold-46" transform="translate(871.015625 0)"/>
     <use xlink:href="#DejaVuSans-Bold-4c" transform="translate(939.326172 0)"/>
     <use xlink:href="#DejaVuSans-Bold-49" transform="translate(1003.046875 0)"/>
     <use xlink:href="#DejaVuSans-Bold-4e" transform="translate(1040.253906 0)"/>
     <use xlink:href="#DejaVuSans-Bold-45" transform="translate(1123.945312 0)"/>
     <use xlink:href="#DejaVuSans-Bold-20" transform="translate(1192.255859 0)"/>
     <use xlink:href="#DejaVuSans-Bold-72" transform="translate(1227.070312 0)"/>
     <use xlink:href="#DejaVuSans-Bold-65" transform="translate(1276.386719 0)"/>
     <use xlink:href="#DejaVuSans-Bold-63" transform="translate(1344.208984 0)"/>
     <use xlink:href="#DejaVuSans-Bold-6f" transform="translate(1403.486328 0)"/>
     <use xlink:href="#DejaVuSans-Bold-6e" transform="translate(1472.1875 0)"/>
     <use xlink:href="#DejaVuSans-Bold-73" transform="translate(1543.378906 0)"/>
     <use xlink:href="#DejaVuSans-Bold-74" transform="translate(1602.900391 0)"/>
     <use xlink:href="#DejaVuSans-Bold-72" transform="translate(1650.703125 0)"/>
     <use xlink:href="#DejaVuSans-Bold-75" transform="translate(1700.019531 0)"/>
     <use xlink:href="#DejaVuSans-Bold-63" transform="translate(1771.210938 0)"/>
     <use xlink:href="#DejaVuSans-Bold-74" transform="translate(1830.488281 0)"/>
     <use xlink:href="#DejaVuSans-Bold-69" transform="translate(1878.291016 0)"/>
     <use xlink:href="#DejaVuSans-Bold-6f" transform="translate(1912.568359 0)"/>
     <use xlink:href="#DejaVuSans-Bold-6e" transform="translate(1981.269531 0)"/>
    </g>
   </g>
  </g>
 </g>
 <defs>
  <clipPath id="p106d0f9caa">
   <rect x="7.2" y="7.2" width="979.2" height="547.2"/>
  </clipPath>
 </defs>
</svg>
