<?xml version="1.0" encoding="utf-8" standalone="no"?>
<!DOCTYPE svg PUBLIC "-//W3C//DTD SVG 1.1//EN"
  "http://www.w3.org/Graphics/SVG/1.1/DTD/svg11.dtd">
<svg xmlns:xlink="http://www.w3.org/1999/xlink" width="993.6pt" height="561.6pt" viewBox="0 0 993.6 561.6" xmlns="http://www.w3.org/2000/svg" version="1.1">
 <metadata>
  <rdf:RDF xmlns:dc="http://purl.org/dc/elements/1.1/" xmlns:cc="http://creativecommons.org/ns#" xmlns:rdf="http://www.w3.org/1999/02/22-rdf-syntax-ns#">
   <cc:Work>
    <dc:type rdf:resource="http://purl.org/dc/dcmitype/StillImage"/>
    <dc:date>2026-04-01T02:52:54.083404</dc:date>
    <dc:format>image/svg+xml</dc:format>
    <dc:creator>
     <cc:Agent>
      <dc:title>Matplotlib v3.10.3, https://matplotlib.org/</dc:title>
     </cc:Agent>
    </dc:creator>
   </cc:Work>
  </rdf:RDF>
 </metadata>
 <defs>
  <style type="text/css">*{stroke-linejoin: round; stroke-linecap: butt}</style>
 </defs>
 <g id="figure_1">
  <g id="patch_1">
   <path d="M 0 561.6 
L 993.6 561.6 
L 993.6 0 
L 0 0 
z
" style="fill: #f7fafc"/>
  </g>
  <g id="axes_1">
   <g id="patch_2">
    <path d="M 75.744 472.32 
L 917.856 472.32 
Q 937.44 472.32 937.44 461.376 
L 937.44 89.28 
Q 937.44 78.336 917.856 78.336 
L 75.744 78.336 
Q 56.16 78.336 56.16 89.28 
L 56.16 461.376 
Q 56.16 472.32 75.744 472.32 
z
" clip-path="url(#p08237f33df)" style="fill: #ecfdf5; stroke: #14532d; stroke-width: 2; stroke-linejoin: miter"/>
   </g>
   <g id="patch_3">
    <path d="M 114.912 395.712 
L 389.088 395.712 
Q 408.672 395.712 408.672 384.768 
L 408.672 144 
Q 408.672 133.056 389.088 133.056 
L 114.912 133.056 
Q 95.328 133.056 95.328 144 
L 95.328 384.768 
Q 95.328 395.712 114.912 395.712 
z
" clip-path="url(#p08237f33df)" style="fill: #dcfce7; stroke: #166534; stroke-width: 2; stroke-linejoin: miter"/>
   </g>
   <g id="patch_4">
    <path d="M 144.288 220.608 
C 146.884869 220.608 149.375726 220.031436 151.21199 219.005288 
C 153.048253 217.979141 154.08 216.587191 154.08 215.136 
C 154.08 213.684809 153.048253 212.292859 151.21199 211.266712 
C 149.375726 210.240564 146.884869 209.664 144.288 209.664 
C 141.691131 209.664 139.200274 210.240564 137.36401 211.266712 
C 135.527747 212.292859 134.496 213.684809 134.496 215.136 
C 134.496 216.587191 135.527747 217.979141 137.36401 219.005288 
C 139.200274 220.031436 141.691131 220.608 144.288 220.608 
z
" clip-path="url(#p08237f33df)" style="fill: #22c55e; stroke: #14532d; stroke-linejoin: miter"/>
   </g>
   <g id="patch_5">
    <path d="M 163.872 219.5136 
L 335.03616 219.5136 
L 335.03616 210.7584 
L 163.872 210.7584 
z
" clip-path="url(#p08237f33df)" style="fill: #22c55e; stroke: #14532d; stroke-width: 0.8; stroke-linejoin: miter"/>
   </g>
   <g id="patch_6">
    <path d="M 144.288 250.704 
C 146.884869 250.704 149.375726 250.127436 151.21199 249.101288 
C 153.048253 248.075141 154.08 246.683191 154.08 245.232 
C 154.08 243.780809 153.048253 242.388859 151.21199 241.362712 
C 149.375726 240.336564 146.884869 239.76 144.288 239.76 
C 141.691131 239.76 139.200274 240.336564 137.36401 241.362712 
C 135.527747 242.388859 134.496 243.780809 134.496 245.232 
C 134.496 246.683191 135.527747 248.075141 137.36401 249.101288 
C 139.200274 250.127436 141.691131 250.704 144.288 250.704 
z
" clip-path="url(#p08237f33df)" style="fill: #22c55e; stroke: #14532d; stroke-linejoin: miter"/>
   </g>
   <g id="patch_7">
    <path d="M 163.872 249.6096 
L 308.98944 249.6096 
L 308.98944 240.8544 
L 163.872 240.8544 
z
" clip-path="url(#p08237f33df)" style="fill: #22c55e; stroke: #14532d; stroke-width: 0.8; stroke-linejoin: miter"/>
   </g>
   <g id="patch_8">
    <path d="M 144.288 280.8 
C 146.884869 280.8 149.375726 280.223436 151.21199 279.197288 
C 153.048253 278.171141 154.08 276.779191 154.08 275.328 
C 154.08 273.876809 153.048253 272.484859 151.21199 271.458712 
C 149.375726 270.432564 146.884869 269.856 144.288 269.856 
C 141.691131 269.856 139.200274 270.432564 137.36401 271.458712 
C 135.527747 272.484859 134.496 273.876809 134.496 275.328 
C 134.496 276.779191 135.527747 278.171141 137.36401 279.197288 
C 139.200274 280.223436 141.691131 280.8 144.288 280.8 
z
" clip-path="url(#p08237f33df)" style="fill: #22c55e; stroke: #14532d; stroke-linejoin: miter"/>
   </g>
   <g id="patch_9">
    <path d="M 163.872 279.7056 
L 281.08224 279.7056 
L 281.08224 270.9504 
L 163.872 270.9504 
z
" clip-path="url(#p08237f33df)" style="fill: #22c55e; stroke: #14532d; stroke-width: 0.8; stroke-linejoin: miter"/>
   </g>
   <g id="patch_10">
    <path d="M 144.288 310.896 
C 146.884869 310.896 149.375726 310.319436 151.21199 309.293288 
C 153.048253 308.267141 154.08 306.875191 154.08 305.424 
C 154.08 303.972809 153.048253 302.580859 151.21199 301.554712 
C 149.375726 300.528564 146.884869 299.952 144.288 299.952 
C 141.691131 299.952 139.200274 300.528564 137.36401 301.554712 
C 135.527747 302.580859 134.496 303.972809 134.496 305.424 
C 134.496 306.875191 135.527747 308.267141 137.36401 309.293288 
C 139.200274 310.319436 141.691131 310.896 144.288 310.896 
z
" clip-path="url(#p08237f33df)" style="fill: #22c55e; stroke: #14532d; stroke-linejoin: miter"/>
   </g>
   <g id="patch_11">
    <path d="M 163.872 309.8016 
L 251.31456 309.8016 
L 251.31456 301.0464 
L 163.872 301.0464 
z
" clip-path="url(#p08237f33df)" style="fill: #22c55e; stroke: #14532d; stroke-width: 0.8; stroke-linejoin: miter"/>
   </g>
   <g id="patch_12">
    <path d="M 144.288 340.992 
C 146.884869 340.992 149.375726 340.415436 151.21199 339.389288 
C 153.048253 338.363141 154.08 336.971191 154.08 335.52 
C 154.08 334.068809 153.048253 332.676859 151.21199 331.650712 
C 149.375726 330.624564 146.884869 330.048 144.288 330.048 
C 141.691131 330.048 139.200274 330.624564 137.36401 331.650712 
C 135.527747 332.676859 134.496 334.068809 134.496 335.52 
C 134.496 336.971191 135.527747 338.363141 137.36401 339.389288 
C 139.200274 340.415436 141.691131 340.992 144.288 340.992 
z
" clip-path="url(#p08237f33df)" style="fill: #22c55e; stroke: #14532d; stroke-linejoin: miter"/>
   </g>
   <g id="patch_13">
    <path d="M 163.872 339.8976 
L 221.54688 339.8976 
L 221.54688 331.1424 
L 163.872 331.1424 
z
" clip-path="url(#p08237f33df)" style="fill: #22c55e; stroke: #14532d; stroke-width: 0.8; stroke-linejoin: miter"/>
   </g>
   <g id="patch_14">
    <path d="M 144.288 371.088 
C 146.884869 371.088 149.375726 370.511436 151.21199 369.485288 
C 153.048253 368.459141 154.08 367.067191 154.08 365.616 
C 154.08 364.164809 153.048253 362.772859 151.21199 361.746712 
C 149.375726 360.720564 146.884869 360.144 144.288 360.144 
C 141.691131 360.144 139.200274 360.720564 137.36401 361.746712 
C 135.527747 362.772859 134.496 364.164809 134.496 365.616 
C 134.496 367.067191 135.527747 368.459141 137.36401 369.485288 
C 139.200274 370.511436 141.691131 371.088 144.288 371.088 
z
" clip-path="url(#p08237f33df)" style="fill: #22c55e; stroke: #14532d; stroke-linejoin: miter"/>
   </g>
   <g id="patch_15">
    <path d="M 163.872 369.9936 
L 197.36064 369.9936 
L 197.36064 361.2384 
L 163.872 361.2384 
z
" clip-path="url(#p08237f33df)" style="fill: #22c55e; stroke: #14532d; stroke-width: 0.8; stroke-linejoin: miter"/>
   </g>
   <g id="patch_16">
    <path d="M 438.048 330.048 
L 575.136 330.048 
Q 594.72 330.048 594.72 319.104 
L 594.72 220.608 
Q 594.72 209.664 575.136 209.664 
L 438.048 209.664 
Q 418.464 209.664 418.464 220.608 
L 418.464 319.104 
Q 418.464 330.048 438.048 330.048 
z
" clip-path="url(#p08237f33df)" style="fill: #bbf7d0; stroke: #166534; stroke-width: 2; stroke-linejoin: miter"/>
   </g>
   <g id="patch_17">
    <path d="M 400.877367 264.384 
Q 413.565719 264.384 422.899969 264.384 
" clip-path="url(#p08237f33df)" style="fill: none; stroke: #166534; stroke-width: 3; stroke-linecap: round"/>
    <path d="M 416.499969 261.184 
L 422.899969 264.384 
L 416.499969 267.584 
z
" clip-path="url(#p08237f33df)" style="fill: #166534; stroke: #166534; stroke-width: 3; stroke-linecap: round"/>
   </g>
   <g id="patch_18">
    <path d="M 624.096 428.544 
L 878.688 428.544 
Q 898.272 428.544 898.272 417.6 
L 898.272 133.056 
Q 898.272 122.112 878.688 122.112 
L 624.096 122.112 
Q 604.512 122.112 604.512 133.056 
L 604.512 417.6 
Q 604.512 428.544 624.096 428.544 
z
" clip-path="url(#p08237f33df)" style="fill: #d1fae5; stroke: #166534; stroke-width: 2; stroke-linejoin: miter"/>
   </g>
   <g id="patch_19">
    <path d="M 643.68 226.08 
L 663.264 226.08 
L 663.264 208.5696 
L 643.68 208.5696 
z
" clip-path="url(#p08237f33df)" style="fill: #bbf7d0; stroke: #14532d; stroke-width: 0.4; stroke-linejoin: miter"/>
   </g>
   <g id="patch_20">
    <path d="M 669.1392 226.08 
L 688.7232 226.08 
L 688.7232 208.5696 
L 669.1392 208.5696 
z
" clip-path="url(#p08237f33df)" style="fill: #86efac; stroke: #14532d; stroke-width: 0.4; stroke-linejoin: miter"/>
   </g>
   <g id="patch_21">
    <path d="M 694.5984 226.08 
L 714.1824 226.08 
L 714.1824 208.5696 
L 694.5984 208.5696 
z
" clip-path="url(#p08237f33df)" style="fill: #4ade80; stroke: #14532d; stroke-width: 0.4; stroke-linejoin: miter"/>
   </g>
   <g id="patch_22">
    <path d="M 720.0576 226.08 
L 739.6416 226.08 
L 739.6416 208.5696 
L 720.0576 208.5696 
z
" clip-path="url(#p08237f33df)" style="fill: #22c55e; stroke: #14532d; stroke-width: 0.4; stroke-linejoin: miter"/>
   </g>
   <g id="patch_23">
    <path d="M 745.5168 226.08 
L 765.1008 226.08 
L 765.1008 208.5696 
L 745.5168 208.5696 
z
" clip-path="url(#p08237f33df)" style="fill: #bbf7d0; stroke: #14532d; stroke-width: 0.4; stroke-linejoin: miter"/>
   </g>
   <g id="patch_24">
    <path d="M 770.976 226.08 
L 790.56 226.08 
L 790.56 208.5696 
L 770.976 208.5696 
z
" clip-path="url(#p08237f33df)" style="fill: #86efac; stroke: #14532d; stroke-width: 0.4; stroke-linejoin: miter"/>
   </g>
   <g id="patch_25">
    <path d="M 796.4352 226.08 
L 816.0192 226.08 
L 816.0192 208.5696 
L 796.4352 208.5696 
z
" clip-path="url(#p08237f33df)" style="fill: #4ade80; stroke: #14532d; stroke-width: 0.4; stroke-linejoin: miter"/>
   </g>
   <g id="patch_26">
    <path d="M 821.8944 226.08 
L 841.4784 226.08 
L 841.4784 208.5696 
L 821.8944 208.5696 
z
" clip-path="url(#p08237f33df)" style="fill: #22c55e; stroke: #14532d; stroke-width: 0.4; stroke-linejoin: miter"/>
   </g>
   <g id="patch_27">
    <path d="M 643.68 250.704 
L 663.264 250.704 
L 663.264 233.1936 
L 643.68 233.1936 
z
" clip-path="url(#p08237f33df)" style="fill: #4ade80; stroke: #14532d; stroke-width: 0.4; stroke-linejoin: miter"/>
   </g>
   <g id="patch_28">
    <path d="M 669.1392 250.704 
L 688.7232 250.704 
L 688.7232 233.1936 
L 669.1392 233.1936 
z
" clip-path="url(#p08237f33df)" style="fill: #22c55e; stroke: #14532d; stroke-width: 0.4; stroke-linejoin: miter"/>
   </g>
   <g id="patch_29">
    <path d="M 694.5984 250.704 
L 714.1824 250.704 
L 714.1824 233.1936 
L 694.5984 233.1936 
z
" clip-path="url(#p08237f33df)" style="fill: #bbf7d0; stroke: #14532d; stroke-width: 0.4; stroke-linejoin: miter"/>
   </g>
   <g id="patch_30">
    <path d="M 720.0576 250.704 
L 739.6416 250.704 
L 739.6416 233.1936 
L 720.0576 233.1936 
z
" clip-path="url(#p08237f33df)" style="fill: #86efac; stroke: #14532d; stroke-width: 0.4; stroke-linejoin: miter"/>
   </g>
   <g id="patch_31">
    <path d="M 745.5168 250.704 
L 765.1008 250.704 
L 765.1008 233.1936 
L 745.5168 233.1936 
z
" clip-path="url(#p08237f33df)" style="fill: #4ade80; stroke: #14532d; stroke-width: 0.4; stroke-linejoin: miter"/>
   </g>
   <g id="patch_32">
    <path d="M 770.976 250.704 
L 790.56 250.704 
L 790.56 233.1936 
L 770.976 233.1936 
z
" clip-path="url(#p08237f33df)" style="fill: #22c55e; stroke: #14532d; stroke-width: 0.4; stroke-linejoin: miter"/>
   </g>
   <g id="patch_33">
    <path d="M 796.4352 250.704 
L 816.0192 250.704 
L 816.0192 233.1936 
L 796.4352 233.1936 
z
" clip-path="url(#p08237f33df)" style="fill: #bbf7d0; stroke: #14532d; stroke-width: 0.4; stroke-linejoin: miter"/>
   </g>
   <g id="patch_34">
    <path d="M 821.8944 250.704 
L 841.4784 250.704 
L 841.4784 233.1936 
L 821.8944 233.1936 
z
" clip-path="url(#p08237f33df)" style="fill: #86efac; stroke: #14532d; stroke-width: 0.4; stroke-linejoin: miter"/>
   </g>
   <g id="patch_35">
    <path d="M 643.68 275.328 
L 663.264 275.328 
L 663.264 257.8176 
L 643.68 257.8176 
z
" clip-path="url(#p08237f33df)" style="fill: #bbf7d0; stroke: #14532d; stroke-width: 0.4; stroke-linejoin: miter"/>
   </g>
   <g id="patch_36">
    <path d="M 669.1392 275.328 
L 688.7232 275.328 
L 688.7232 257.8176 
L 669.1392 257.8176 
z
" clip-path="url(#p08237f33df)" style="fill: #86efac; stroke: #14532d; stroke-width: 0.4; stroke-linejoin: miter"/>
   </g>
   <g id="patch_37">
    <path d="M 694.5984 275.328 
L 714.1824 275.328 
L 714.1824 257.8176 
L 694.5984 257.8176 
z
" clip-path="url(#p08237f33df)" style="fill: #4ade80; stroke: #14532d; stroke-width: 0.4; stroke-linejoin: miter"/>
   </g>
   <g id="patch_38">
    <path d="M 720.0576 275.328 
L 739.6416 275.328 
L 739.6416 257.8176 
L 720.0576 257.8176 
z
" clip-path="url(#p08237f33df)" style="fill: #22c55e; stroke: #14532d; stroke-width: 0.4; stroke-linejoin: miter"/>
   </g>
   <g id="patch_39">
    <path d="M 745.5168 275.328 
L 765.1008 275.328 
L 765.1008 257.8176 
L 745.5168 257.8176 
z
" clip-path="url(#p08237f33df)" style="fill: #bbf7d0; stroke: #14532d; stroke-width: 0.4; stroke-linejoin: miter"/>
   </g>
   <g id="patch_40">
    <path d="M 770.976 275.328 
L 790.56 275.328 
L 790.56 257.8176 
L 770.976 257.8176 
z
" clip-path="url(#p08237f33df)" style="fill: #86efac; stroke: #14532d; stroke-width: 0.4; stroke-linejoin: miter"/>
   </g>
   <g id="patch_41">
    <path d="M 796.4352 275.328 
L 816.0192 275.328 
L 816.0192 257.8176 
L 796.4352 257.8176 
z
" clip-path="url(#p08237f33df)" style="fill: #4ade80; stroke: #14532d; stroke-width: 0.4; stroke-linejoin: miter"/>
   </g>
   <g id="patch_42">
    <path d="M 821.8944 275.328 
L 841.4784 275.328 
L 841.4784 257.8176 
L 821.8944 257.8176 
z
" clip-path="url(#p08237f33df)" style="fill: #22c55e; stroke: #14532d; stroke-width: 0.4; stroke-linejoin: miter"/>
   </g>
   <g id="patch_43">
    <path d="M 643.68 299.952 
L 663.264 299.952 
L 663.264 282.4416 
L 643.68 282.4416 
z
" clip-path="url(#p08237f33df)" style="fill: #4ade80; stroke: #14532d; stroke-width: 0.4; stroke-linejoin: miter"/>
   </g>
   <g id="patch_44">
    <path d="M 669.1392 299.952 
L 688.7232 299.952 
L 688.7232 282.4416 
L 669.1392 282.4416 
z
" clip-path="url(#p08237f33df)" style="fill: #22c55e; stroke: #14532d; stroke-width: 0.4; stroke-linejoin: miter"/>
   </g>
   <g id="patch_45">
    <path d="M 694.5984 299.952 
L 714.1824 299.952 
L 714.1824 282.4416 
L 694.5984 282.4416 
z
" clip-path="url(#p08237f33df)" style="fill: #bbf7d0; stroke: #14532d; stroke-width: 0.4; stroke-linejoin: miter"/>
   </g>
   <g id="patch_46">
    <path d="M 720.0576 299.952 
L 739.6416 299.952 
L 739.6416 282.4416 
L 720.0576 282.4416 
z
" clip-path="url(#p08237f33df)" style="fill: #86efac; stroke: #14532d; stroke-width: 0.4; stroke-linejoin: miter"/>
   </g>
   <g id="patch_47">
    <path d="M 745.5168 299.952 
L 765.1008 299.952 
L 765.1008 282.4416 
L 745.5168 282.4416 
z
" clip-path="url(#p08237f33df)" style="fill: #4ade80; stroke: #14532d; stroke-width: 0.4; stroke-linejoin: miter"/>
   </g>
   <g id="patch_48">
    <path d="M 770.976 299.952 
L 790.56 299.952 
L 790.56 282.4416 
L 770.976 282.4416 
z
" clip-path="url(#p08237f33df)" style="fill: #22c55e; stroke: #14532d; stroke-width: 0.4; stroke-linejoin: miter"/>
   </g>
   <g id="patch_49">
    <path d="M 796.4352 299.952 
L 816.0192 299.952 
L 816.0192 282.4416 
L 796.4352 282.4416 
z
" clip-path="url(#p08237f33df)" style="fill: #bbf7d0; stroke: #14532d; stroke-width: 0.4; stroke-linejoin: miter"/>
   </g>
   <g id="patch_50">
    <path d="M 821.8944 299.952 
L 841.4784 299.952 
L 841.4784 282.4416 
L 821.8944 282.4416 
z
" clip-path="url(#p08237f33df)" style="fill: #86efac; stroke: #14532d; stroke-width: 0.4; stroke-linejoin: miter"/>
   </g>
   <g id="patch_51">
    <path d="M 643.68 324.576 
L 663.264 324.576 
L 663.264 307.0656 
L 643.68 307.0656 
z
" clip-path="url(#p08237f33df)" style="fill: #bbf7d0; stroke: #14532d; stroke-width: 0.4; stroke-linejoin: miter"/>
   </g>
   <g id="patch_52">
    <path d="M 669.1392 324.576 
L 688.7232 324.576 
L 688.7232 307.0656 
L 669.1392 307.0656 
z
" clip-path="url(#p08237f33df)" style="fill: #86efac; stroke: #14532d; stroke-width: 0.4; stroke-linejoin: miter"/>
   </g>
   <g id="patch_53">
    <path d="M 694.5984 324.576 
L 714.1824 324.576 
L 714.1824 307.0656 
L 694.5984 307.0656 
z
" clip-path="url(#p08237f33df)" style="fill: #4ade80; stroke: #14532d; stroke-width: 0.4; stroke-linejoin: miter"/>
   </g>
   <g id="patch_54">
    <path d="M 720.0576 324.576 
L 739.6416 324.576 
L 739.6416 307.0656 
L 720.0576 307.0656 
z
" clip-path="url(#p08237f33df)" style="fill: #22c55e; stroke: #14532d; stroke-width: 0.4; stroke-linejoin: miter"/>
   </g>
   <g id="patch_55">
    <path d="M 745.5168 324.576 
L 765.1008 324.576 
L 765.1008 307.0656 
L 745.5168 307.0656 
z
" clip-path="url(#p08237f33df)" style="fill: #bbf7d0; stroke: #14532d; stroke-width: 0.4; stroke-linejoin: miter"/>
   </g>
   <g id="patch_56">
    <path d="M 770.976 324.576 
L 790.56 324.576 
L 790.56 307.0656 
L 770.976 307.0656 
z
" clip-path="url(#p08237f33df)" style="fill: #86efac; stroke: #14532d; stroke-width: 0.4; stroke-linejoin: miter"/>
   </g>
   <g id="patch_57">
    <path d="M 796.4352 324.576 
L 816.0192 324.576 
L 816.0192 307.0656 
L 796.4352 307.0656 
z
" clip-path="url(#p08237f33df)" style="fill: #4ade80; stroke: #14532d; stroke-width: 0.4; stroke-linejoin: miter"/>
   </g>
   <g id="patch_58">
    <path d="M 821.8944 324.576 
L 841.4784 324.576 
L 841.4784 307.0656 
L 821.8944 307.0656 
z
" clip-path="url(#p08237f33df)" style="fill: #22c55e; stroke: #14532d; stroke-width: 0.4; stroke-linejoin: miter"/>
   </g>
   <g id="patch_59">
    <path d="M 643.68 349.2 
L 663.264 349.2 
L 663.264 331.6896 
L 643.68 331.6896 
z
" clip-path="url(#p08237f33df)" style="fill: #4ade80; stroke: #14532d; stroke-width: 0.4; stroke-linejoin: miter"/>
   </g>
   <g id="patch_60">
    <path d="M 669.1392 349.2 
L 688.7232 349.2 
L 688.7232 331.6896 
L 669.1392 331.6896 
z
" clip-path="url(#p08237f33df)" style="fill: #22c55e; stroke: #14532d; stroke-width: 0.4; stroke-linejoin: miter"/>
   </g>
   <g id="patch_61">
    <path d="M 694.5984 349.2 
L 714.1824 349.2 
L 714.1824 331.6896 
L 694.5984 331.6896 
z
" clip-path="url(#p08237f33df)" style="fill: #bbf7d0; stroke: #14532d; stroke-width: 0.4; stroke-linejoin: miter"/>
   </g>
   <g id="patch_62">
    <path d="M 720.0576 349.2 
L 739.6416 349.2 
L 739.6416 331.6896 
L 720.0576 331.6896 
z
" clip-path="url(#p08237f33df)" style="fill: #86efac; stroke: #14532d; stroke-width: 0.4; stroke-linejoin: miter"/>
   </g>
   <g id="patch_63">
    <path d="M 745.5168 349.2 
L 765.1008 349.2 
L 765.1008 331.6896 
L 745.5168 331.6896 
z
" clip-path="url(#p08237f33df)" style="fill: #4ade80; stroke: #14532d; stroke-width: 0.4; stroke-linejoin: miter"/>
   </g>
   <g id="patch_64">
    <path d="M 770.976 349.2 
L 790.56 349.2 
L 790.56 331.6896 
L 770.976 331.6896 
z
" clip-path="url(#p08237f33df)" style="fill: #22c55e; stroke: #14532d; stroke-width: 0.4; stroke-linejoin: miter"/>
   </g>
   <g id="patch_65">
    <path d="M 796.4352 349.2 
L 816.0192 349.2 
L 816.0192 331.6896 
L 796.4352 331.6896 
z
" clip-path="url(#p08237f33df)" style="fill: #bbf7d0; stroke: #14532d; stroke-width: 0.4; stroke-linejoin: miter"/>
   </g>
   <g id="patch_66">
    <path d="M 821.8944 349.2 
L 841.4784 349.2 
L 841.4784 331.6896 
L 821.8944 331.6896 
z
" clip-path="url(#p08237f33df)" style="fill: #86efac; stroke: #14532d; stroke-width: 0.4; stroke-linejoin: miter"/>
   </g>
   <g id="patch_67">
    <path d="M 643.68 373.824 
L 663.264 373.824 
L 663.264 356.3136 
L 643.68 356.3136 
z
" clip-path="url(#p08237f33df)" style="fill: #bbf7d0; stroke: #14532d; stroke-width: 0.4; stroke-linejoin: miter"/>
   </g>
   <g id="patch_68">
    <path d="M 669.1392 373.824 
L 688.7232 373.824 
L 688.7232 356.3136 
L 669.1392 356.3136 
z
" clip-path="url(#p08237f33df)" style="fill: #86efac; stroke: #14532d; stroke-width: 0.4; stroke-linejoin: miter"/>
   </g>
   <g id="patch_69">
    <path d="M 694.5984 373.824 
L 714.1824 373.824 
L 714.1824 356.3136 
L 694.5984 356.3136 
z
" clip-path="url(#p08237f33df)" style="fill: #4ade80; stroke: #14532d; stroke-width: 0.4; stroke-linejoin: miter"/>
   </g>
   <g id="patch_70">
    <path d="M 720.0576 373.824 
L 739.6416 373.824 
L 739.6416 356.3136 
L 720.0576 356.3136 
z
" clip-path="url(#p08237f33df)" style="fill: #22c55e; stroke: #14532d; stroke-width: 0.4; stroke-linejoin: miter"/>
   </g>
   <g id="patch_71">
    <path d="M 745.5168 373.824 
L 765.1008 373.824 
L 765.1008 356.3136 
L 745.5168 356.3136 
z
" clip-path="url(#p08237f33df)" style="fill: #bbf7d0; stroke: #14532d; stroke-width: 0.4; stroke-linejoin: miter"/>
   </g>
   <g id="patch_72">
    <path d="M 770.976 373.824 
L 790.56 373.824 
L 790.56 356.3136 
L 770.976 356.3136 
z
" clip-path="url(#p08237f33df)" style="fill: #86efac; stroke: #14532d; stroke-width: 0.4; stroke-linejoin: miter"/>
   </g>
   <g id="patch_73">
    <path d="M 796.4352 373.824 
L 816.0192 373.824 
L 816.0192 356.3136 
L 796.4352 356.3136 
z
" clip-path="url(#p08237f33df)" style="fill: #4ade80; stroke: #14532d; stroke-width: 0.4; stroke-linejoin: miter"/>
   </g>
   <g id="patch_74">
    <path d="M 821.8944 373.824 
L 841.4784 373.824 
L 841.4784 356.3136 
L 821.8944 356.3136 
z
" clip-path="url(#p08237f33df)" style="fill: #22c55e; stroke: #14532d; stroke-width: 0.4; stroke-linejoin: miter"/>
   </g>
   <g id="text_1">
    <!-- Soft View: What It Looks Like -->
    <g style="fill: #0b1220" transform="translate(36.576 54.315937) scale(0.26 -0.26)">
     <defs>
      <path id="DejaVuSans-Bold-53" d="M 3834 4519 
L 3834 3531 
Q 3450 3703 3084 3790 
Q 2719 3878 2394 3878 
Q 1963 3878 1756 3759 
Q 1550 3641 1550 3391 
Q 1550 3203 1689 3098 
Q 1828 2994 2194 2919 
L 2706 2816 
Q 3484 2659 3812 2340 
Q 4141 2022 4141 1434 
Q 4141 663 3683 286 
Q 3225 -91 2284 -91 
Q 1841 -91 1394 -6 
Q 947 78 500 244 
L 500 1259 
Q 947 1022 1364 901 
Q 1781 781 2169 781 
Q 2563 781 2772 912 
Q 2981 1044 2981 1288 
Q 2981 1506 2839 1625 
Q 2697 1744 2272 1838 
L 1806 1941 
Q 1106 2091 782 2419 
Q 459 2747 459 3303 
Q 459 4000 909 4375 
Q 1359 4750 2203 4750 
Q 2588 4750 2994 4692 
Q 3400 4634 3834 4519 
z
" transform="scale(0.015625)"/>
      <path id="DejaVuSans-Bold-6f" d="M 2203 2784 
Q 1831 2784 1636 2517 
Q 1441 2250 1441 1747 
Q 1441 1244 1636 976 
Q 1831 709 2203 709 
Q 2569 709 2762 976 
Q 2956 1244 2956 1747 
Q 2956 2250 2762 2517 
Q 2569 2784 2203 2784 
z
M 2203 3584 
Q 3106 3584 3614 3096 
Q 4122 2609 4122 1747 
Q 4122 884 3614 396 
Q 3106 -91 2203 -91 
Q 1297 -91 786 396 
Q 275 884 275 1747 
Q 275 2609 786 3096 
Q 1297 3584 2203 3584 
z
" transform="scale(0.015625)"/>
      <path id="DejaVuSans-Bold-66" d="M 2841 4863 
L 2841 4128 
L 2222 4128 
Q 1984 4128 1890 4042 
Q 1797 3956 1797 3744 
L 1797 3500 
L 2753 3500 
L 2753 2700 
L 1797 2700 
L 1797 0 
L 678 0 
L 678 2700 
L 122 2700 
L 122 3500 
L 678 3500 
L 678 3744 
Q 678 4316 997 4589 
Q 1316 4863 1984 4863 
L 2841 4863 
z
" transform="scale(0.015625)"/>
      <path id="DejaVuSans-Bold-74" d="M 1759 4494 
L 1759 3500 
L 2913 3500 
L 2913 2700 
L 1759 2700 
L 1759 1216 
Q 1759 972 1856 886 
Q 1953 800 2241 800 
L 2816 800 
L 2816 0 
L 1856 0 
Q 1194 0 917 276 
Q 641 553 641 1216 
L 641 2700 
L 84 2700 
L 84 3500 
L 641 3500 
L 641 4494 
L 1759 4494 
z
" transform="scale(0.015625)"/>
      <path id="DejaVuSans-Bold-20" transform="scale(0.015625)"/>
      <path id="DejaVuSans-Bold-56" d="M 31 4666 
L 1241 4666 
L 2478 1222 
L 3713 4666 
L 4922 4666 
L 3194 0 
L 1759 0 
L 31 4666 
z
" transform="scale(0.015625)"/>
      <path id="DejaVuSans-Bold-69" d="M 538 3500 
L 1656 3500 
L 1656 0 
L 538 0 
L 538 3500 
z
M 538 4863 
L 1656 4863 
L 1656 3950 
L 538 3950 
L 538 4863 
z
" transform="scale(0.015625)"/>
      <path id="DejaVuSans-Bold-65" d="M 4031 1759 
L 4031 1441 
L 1416 1441 
Q 1456 1047 1700 850 
Q 1944 653 2381 653 
Q 2734 653 3104 758 
Q 3475 863 3866 1075 
L 3866 213 
Q 3469 63 3072 -14 
Q 2675 -91 2278 -91 
Q 1328 -91 801 392 
Q 275 875 275 1747 
Q 275 2603 792 3093 
Q 1309 3584 2216 3584 
Q 3041 3584 3536 3087 
Q 4031 2591 4031 1759 
z
M 2881 2131 
Q 2881 2450 2695 2645 
Q 2509 2841 2209 2841 
Q 1884 2841 1681 2658 
Q 1478 2475 1428 2131 
L 2881 2131 
z
" transform="scale(0.015625)"/>
      <path id="DejaVuSans-Bold-77" d="M 225 3500 
L 1313 3500 
L 1900 1088 
L 2491 3500 
L 3425 3500 
L 4013 1113 
L 4603 3500 
L 5691 3500 
L 4769 0 
L 3547 0 
L 2956 2406 
L 2369 0 
L 1147 0 
L 225 3500 
z
" transform="scale(0.015625)"/>
      <path id="DejaVuSans-Bold-3a" d="M 716 3500 
L 1844 3500 
L 1844 2291 
L 716 2291 
L 716 3500 
z
M 716 1209 
L 1844 1209 
L 1844 0 
L 716 0 
L 716 1209 
z
" transform="scale(0.015625)"/>
      <path id="DejaVuSans-Bold-57" d="M 191 4666 
L 1344 4666 
L 2150 1275 
L 2950 4666 
L 4109 4666 
L 4909 1275 
L 5716 4666 
L 6859 4666 
L 5759 0 
L 4372 0 
L 3525 3547 
L 2688 0 
L 1300 0 
L 191 4666 
z
" transform="scale(0.015625)"/>
      <path id="DejaVuSans-Bold-68" d="M 4056 2131 
L 4056 0 
L 2931 0 
L 2931 347 
L 2931 1625 
Q 2931 2084 2911 2256 
Q 2891 2428 2841 2509 
Q 2775 2619 2662 2680 
Q 2550 2741 2406 2741 
Q 2056 2741 1856 2470 
Q 1656 2200 1656 1722 
L 1656 0 
L 538 0 
L 538 4863 
L 1656 4863 
L 1656 2988 
Q 1909 3294 2193 3439 
Q 2478 3584 2822 3584 
Q 3428 3584 3742 3212 
Q 4056 2841 4056 2131 
z
" transform="scale(0.015625)"/>
      <path id="DejaVuSans-Bold-61" d="M 2106 1575 
Q 1756 1575 1579 1456 
Q 1403 1338 1403 1106 
Q 1403 894 1545 773 
Q 1688 653 1941 653 
Q 2256 653 2472 879 
Q 2688 1106 2688 1447 
L 2688 1575 
L 2106 1575 
z
M 3816 1997 
L 3816 0 
L 2688 0 
L 2688 519 
Q 2463 200 2181 54 
Q 1900 -91 1497 -91 
Q 953 -91 614 226 
Q 275 544 275 1050 
Q 275 1666 698 1953 
Q 1122 2241 2028 2241 
L 2688 2241 
L 2688 2328 
Q 2688 2594 2478 2717 
Q 2269 2841 1825 2841 
Q 1466 2841 1156 2769 
Q 847 2697 581 2553 
L 581 3406 
Q 941 3494 1303 3539 
Q 1666 3584 2028 3584 
Q 2975 3584 3395 3211 
Q 3816 2838 3816 1997 
z
" transform="scale(0.015625)"/>
      <path id="DejaVuSans-Bold-49" d="M 588 4666 
L 1791 4666 
L 1791 0 
L 588 0 
L 588 4666 
z
" transform="scale(0.015625)"/>
      <path id="DejaVuSans-Bold-4c" d="M 588 4666 
L 1791 4666 
L 1791 909 
L 3903 909 
L 3903 0 
L 588 0 
L 588 4666 
z
" transform="scale(0.015625)"/>
      <path id="DejaVuSans-Bold-6b" d="M 538 4863 
L 1656 4863 
L 1656 2216 
L 2944 3500 
L 4244 3500 
L 2534 1894 
L 4378 0 
L 3022 0 
L 1656 1459 
L 1656 0 
L 538 0 
L 538 4863 
z
" transform="scale(0.015625)"/>
      <path id="DejaVuSans-Bold-73" d="M 3272 3391 
L 3272 2541 
Q 2913 2691 2578 2766 
Q 2244 2841 1947 2841 
Q 1628 2841 1473 2761 
Q 1319 2681 1319 2516 
Q 1319 2381 1436 2309 
Q 1553 2238 1856 2203 
L 2053 2175 
Q 2913 2066 3209 1816 
Q 3506 1566 3506 1031 
Q 3506 472 3093 190 
Q 2681 -91 1863 -91 
Q 1516 -91 1145 -36 
Q 775 19 384 128 
L 384 978 
Q 719 816 1070 734 
Q 1422 653 1784 653 
Q 2113 653 2278 743 
Q 2444 834 2444 1013 
Q 2444 1163 2330 1236 
Q 2216 1309 1875 1350 
L 1678 1375 
Q 931 1469 631 1722 
Q 331 1975 331 2491 
Q 331 3047 712 3315 
Q 1094 3584 1881 3584 
Q 2191 3584 2531 3537 
Q 2872 3491 3272 3391 
z
" transform="scale(0.015625)"/>
     </defs>
     <use xlink:href="#DejaVuSans-Bold-53"/>
     <use xlink:href="#DejaVuSans-Bold-6f" transform="translate(72.021484 0)"/>
     <use xlink:href="#DejaVuSans-Bold-66" transform="translate(140.722656 0)"/>
     <use xlink:href="#DejaVuSans-Bold-74" transform="translate(184.228516 0)"/>
     <use xlink:href="#DejaVuSans-Bold-20" transform="translate(232.03125 0)"/>
     <use xlink:href="#DejaVuSans-Bold-56" transform="translate(266.845703 0)"/>
     <use xlink:href="#DejaVuSans-Bold-69" transform="translate(342.488281 0)"/>
     <use xlink:href="#DejaVuSans-Bold-65" transform="translate(376.765625 0)"/>
     <use xlink:href="#DejaVuSans-Bold-77" transform="translate(444.587891 0)"/>
     <use xlink:href="#DejaVuSans-Bold-3a" transform="translate(536.970703 0)"/>
     <use xlink:href="#DejaVuSans-Bold-20" transform="translate(576.960938 0)"/>
     <use xlink:href="#DejaVuSans-Bold-57" transform="translate(611.775391 0)"/>
     <use xlink:href="#DejaVuSans-Bold-68" transform="translate(722.078125 0)"/>
     <use xlink:href="#DejaVuSans-Bold-61" transform="translate(793.269531 0)"/>
     <use xlink:href="#DejaVuSans-Bold-74" transform="translate(860.75 0)"/>
     <use xlink:href="#DejaVuSans-Bold-20" transform="translate(908.552734 0)"/>
     <use xlink:href="#DejaVuSans-Bold-49" transform="translate(943.367188 0)"/>
     <use xlink:href="#DejaVuSans-Bold-74" transform="translate(980.574219 0)"/>
     <use xlink:href="#DejaVuSans-Bold-20" transform="translate(1028.376953 0)"/>
     <use xlink:href="#DejaVuSans-Bold-4c" transform="translate(1063.191406 0)"/>
     <use xlink:href="#DejaVuSans-Bold-6f" transform="translate(1126.912109 0)"/>
     <use xlink:href="#DejaVuSans-Bold-6f" transform="translate(1195.613281 0)"/>
     <use xlink:href="#DejaVuSans-Bold-6b" transform="translate(1264.314453 0)"/>
     <use xlink:href="#DejaVuSans-Bold-73" transform="translate(1330.818359 0)"/>
     <use xlink:href="#DejaVuSans-Bold-20" transform="translate(1390.339844 0)"/>
     <use xlink:href="#DejaVuSans-Bold-4c" transform="translate(1425.154297 0)"/>
     <use xlink:href="#DejaVuSans-Bold-69" transform="translate(1488.875 0)"/>
     <use xlink:href="#DejaVuSans-Bold-6b" transform="translate(1523.152344 0)"/>
     <use xlink:href="#DejaVuSans-Bold-65" transform="translate(1587.03125 0)"/>
    </g>
   </g>
   <g id="text_2">
    <!-- Jet Candidate Pool -->
    <g style="fill: #166534" transform="translate(134.496 160.416) scale(0.17 -0.17)">
     <defs>
      <path id="DejaVuSans-Bold-4a" d="M 588 4666 
L 1791 4666 
L 1791 453 
Q 1791 -419 1317 -850 
Q 844 -1281 -116 -1281 
L -359 -1281 
L -359 -372 
L -172 -372 
Q 203 -372 395 -162 
Q 588 47 588 453 
L 588 4666 
z
" transform="scale(0.015625)"/>
      <path id="DejaVuSans-Bold-43" d="M 4288 256 
Q 3956 84 3597 -3 
Q 3238 -91 2847 -91 
Q 1681 -91 1000 561 
Q 319 1213 319 2328 
Q 319 3447 1000 4098 
Q 1681 4750 2847 4750 
Q 3238 4750 3597 4662 
Q 3956 4575 4288 4403 
L 4288 3438 
Q 3953 3666 3628 3772 
Q 3303 3878 2944 3878 
Q 2300 3878 1931 3465 
Q 1563 3053 1563 2328 
Q 1563 1606 1931 1193 
Q 2300 781 2944 781 
Q 3303 781 3628 887 
Q 3953 994 4288 1222 
L 4288 256 
z
" transform="scale(0.015625)"/>
      <path id="DejaVuSans-Bold-6e" d="M 4056 2131 
L 4056 0 
L 2931 0 
L 2931 347 
L 2931 1631 
Q 2931 2084 2911 2256 
Q 2891 2428 2841 2509 
Q 2775 2619 2662 2680 
Q 2550 2741 2406 2741 
Q 2056 2741 1856 2470 
Q 1656 2200 1656 1722 
L 1656 0 
L 538 0 
L 538 3500 
L 1656 3500 
L 1656 2988 
Q 1909 3294 2193 3439 
Q 2478 3584 2822 3584 
Q 3428 3584 3742 3212 
Q 4056 2841 4056 2131 
z
" transform="scale(0.015625)"/>
      <path id="DejaVuSans-Bold-64" d="M 2919 2988 
L 2919 4863 
L 4044 4863 
L 4044 0 
L 2919 0 
L 2919 506 
Q 2688 197 2409 53 
Q 2131 -91 1766 -91 
Q 1119 -91 703 423 
Q 288 938 288 1747 
Q 288 2556 703 3070 
Q 1119 3584 1766 3584 
Q 2128 3584 2408 3439 
Q 2688 3294 2919 2988 
z
M 2181 722 
Q 2541 722 2730 984 
Q 2919 1247 2919 1747 
Q 2919 2247 2730 2509 
Q 2541 2772 2181 2772 
Q 1825 2772 1636 2509 
Q 1447 2247 1447 1747 
Q 1447 1247 1636 984 
Q 1825 722 2181 722 
z
" transform="scale(0.015625)"/>
      <path id="DejaVuSans-Bold-50" d="M 588 4666 
L 2584 4666 
Q 3475 4666 3951 4270 
Q 4428 3875 4428 3144 
Q 4428 2409 3951 2014 
Q 3475 1619 2584 1619 
L 1791 1619 
L 1791 0 
L 588 0 
L 588 4666 
z
M 1791 3794 
L 1791 2491 
L 2456 2491 
Q 2806 2491 2997 2661 
Q 3188 2831 3188 3144 
Q 3188 3456 2997 3625 
Q 2806 3794 2456 3794 
L 1791 3794 
z
" transform="scale(0.015625)"/>
      <path id="DejaVuSans-Bold-6c" d="M 538 4863 
L 1656 4863 
L 1656 0 
L 538 0 
L 538 4863 
z
" transform="scale(0.015625)"/>
     </defs>
     <use xlink:href="#DejaVuSans-Bold-4a"/>
     <use xlink:href="#DejaVuSans-Bold-65" transform="translate(37.207031 0)"/>
     <use xlink:href="#DejaVuSans-Bold-74" transform="translate(105.029297 0)"/>
     <use xlink:href="#DejaVuSans-Bold-20" transform="translate(152.832031 0)"/>
     <use xlink:href="#DejaVuSans-Bold-43" transform="translate(187.646484 0)"/>
     <use xlink:href="#DejaVuSans-Bold-61" transform="translate(261.035156 0)"/>
     <use xlink:href="#DejaVuSans-Bold-6e" transform="translate(328.515625 0)"/>
     <use xlink:href="#DejaVuSans-Bold-64" transform="translate(399.707031 0)"/>
     <use xlink:href="#DejaVuSans-Bold-69" transform="translate(471.289062 0)"/>
     <use xlink:href="#DejaVuSans-Bold-64" transform="translate(505.566406 0)"/>
     <use xlink:href="#DejaVuSans-Bold-61" transform="translate(577.148438 0)"/>
     <use xlink:href="#DejaVuSans-Bold-74" transform="translate(644.628906 0)"/>
     <use xlink:href="#DejaVuSans-Bold-65" transform="translate(692.431641 0)"/>
     <use xlink:href="#DejaVuSans-Bold-20" transform="translate(760.253906 0)"/>
     <use xlink:href="#DejaVuSans-Bold-50" transform="translate(795.068359 0)"/>
     <use xlink:href="#DejaVuSans-Bold-6f" transform="translate(868.359375 0)"/>
     <use xlink:href="#DejaVuSans-Bold-6f" transform="translate(937.060547 0)"/>
     <use xlink:href="#DejaVuSans-Bold-6c" transform="translate(1005.761719 0)"/>
    </g>
   </g>
   <g id="text_3">
    <!-- (cand_tokens + cand_weights) -->
    <g style="fill: #166534" transform="translate(134.496 182.304) scale(0.11 -0.11)">
     <defs>
      <path id="DejaVuSans-28" d="M 1984 4856 
Q 1566 4138 1362 3434 
Q 1159 2731 1159 2009 
Q 1159 1288 1364 580 
Q 1569 -128 1984 -844 
L 1484 -844 
Q 1016 -109 783 600 
Q 550 1309 550 2009 
Q 550 2706 781 3412 
Q 1013 4119 1484 4856 
L 1984 4856 
z
" transform="scale(0.015625)"/>
      <path id="DejaVuSans-63" d="M 3122 3366 
L 3122 2828 
Q 2878 2963 2633 3030 
Q 2388 3097 2138 3097 
Q 1578 3097 1268 2742 
Q 959 2388 959 1747 
Q 959 1106 1268 751 
Q 1578 397 2138 397 
Q 2388 397 2633 464 
Q 2878 531 3122 666 
L 3122 134 
Q 2881 22 2623 -34 
Q 2366 -91 2075 -91 
Q 1284 -91 818 406 
Q 353 903 353 1747 
Q 353 2603 823 3093 
Q 1294 3584 2113 3584 
Q 2378 3584 2631 3529 
Q 2884 3475 3122 3366 
z
" transform="scale(0.015625)"/>
      <path id="DejaVuSans-61" d="M 2194 1759 
Q 1497 1759 1228 1600 
Q 959 1441 959 1056 
Q 959 750 1161 570 
Q 1363 391 1709 391 
Q 2188 391 2477 730 
Q 2766 1069 2766 1631 
L 2766 1759 
L 2194 1759 
z
M 3341 1997 
L 3341 0 
L 2766 0 
L 2766 531 
Q 2569 213 2275 61 
Q 1981 -91 1556 -91 
Q 1019 -91 701 211 
Q 384 513 384 1019 
Q 384 1609 779 1909 
Q 1175 2209 1959 2209 
L 2766 2209 
L 2766 2266 
Q 2766 2663 2505 2880 
Q 2244 3097 1772 3097 
Q 1472 3097 1187 3025 
Q 903 2953 641 2809 
L 641 3341 
Q 956 3463 1253 3523 
Q 1550 3584 1831 3584 
Q 2591 3584 2966 3190 
Q 3341 2797 3341 1997 
z
" transform="scale(0.015625)"/>
      <path id="DejaVuSans-6e" d="M 3513 2113 
L 3513 0 
L 2938 0 
L 2938 2094 
Q 2938 2591 2744 2837 
Q 2550 3084 2163 3084 
Q 1697 3084 1428 2787 
Q 1159 2491 1159 1978 
L 1159 0 
L 581 0 
L 581 3500 
L 1159 3500 
L 1159 2956 
Q 1366 3272 1645 3428 
Q 1925 3584 2291 3584 
Q 2894 3584 3203 3211 
Q 3513 2838 3513 2113 
z
" transform="scale(0.015625)"/>
      <path id="DejaVuSans-64" d="M 2906 2969 
L 2906 4863 
L 3481 4863 
L 3481 0 
L 2906 0 
L 2906 525 
Q 2725 213 2448 61 
Q 2172 -91 1784 -91 
Q 1150 -91 751 415 
Q 353 922 353 1747 
Q 353 2572 751 3078 
Q 1150 3584 1784 3584 
Q 2172 3584 2448 3432 
Q 2725 3281 2906 2969 
z
M 947 1747 
Q 947 1113 1208 752 
Q 1469 391 1925 391 
Q 2381 391 2643 752 
Q 2906 1113 2906 1747 
Q 2906 2381 2643 2742 
Q 2381 3103 1925 3103 
Q 1469 3103 1208 2742 
Q 947 2381 947 1747 
z
" transform="scale(0.015625)"/>
      <path id="DejaVuSans-5f" d="M 3263 -1063 
L 3263 -1509 
L -63 -1509 
L -63 -1063 
L 3263 -1063 
z
" transform="scale(0.015625)"/>
      <path id="DejaVuSans-74" d="M 1172 4494 
L 1172 3500 
L 2356 3500 
L 2356 3053 
L 1172 3053 
L 1172 1153 
Q 1172 725 1289 603 
Q 1406 481 1766 481 
L 2356 481 
L 2356 0 
L 1766 0 
Q 1100 0 847 248 
Q 594 497 594 1153 
L 594 3053 
L 172 3053 
L 172 3500 
L 594 3500 
L 594 4494 
L 1172 4494 
z
" transform="scale(0.015625)"/>
      <path id="DejaVuSans-6f" d="M 1959 3097 
Q 1497 3097 1228 2736 
Q 959 2375 959 1747 
Q 959 1119 1226 758 
Q 1494 397 1959 397 
Q 2419 397 2687 759 
Q 2956 1122 2956 1747 
Q 2956 2369 2687 2733 
Q 2419 3097 1959 3097 
z
M 1959 3584 
Q 2709 3584 3137 3096 
Q 3566 2609 3566 1747 
Q 3566 888 3137 398 
Q 2709 -91 1959 -91 
Q 1206 -91 779 398 
Q 353 888 353 1747 
Q 353 2609 779 3096 
Q 1206 3584 1959 3584 
z
" transform="scale(0.015625)"/>
      <path id="DejaVuSans-6b" d="M 581 4863 
L 1159 4863 
L 1159 1991 
L 2875 3500 
L 3609 3500 
L 1753 1863 
L 3688 0 
L 2938 0 
L 1159 1709 
L 1159 0 
L 581 0 
L 581 4863 
z
" transform="scale(0.015625)"/>
      <path id="DejaVuSans-65" d="M 3597 1894 
L 3597 1613 
L 953 1613 
Q 991 1019 1311 708 
Q 1631 397 2203 397 
Q 2534 397 2845 478 
Q 3156 559 3463 722 
L 3463 178 
Q 3153 47 2828 -22 
Q 2503 -91 2169 -91 
Q 1331 -91 842 396 
Q 353 884 353 1716 
Q 353 2575 817 3079 
Q 1281 3584 2069 3584 
Q 2775 3584 3186 3129 
Q 3597 2675 3597 1894 
z
M 3022 2063 
Q 3016 2534 2758 2815 
Q 2500 3097 2075 3097 
Q 1594 3097 1305 2825 
Q 1016 2553 972 2059 
L 3022 2063 
z
" transform="scale(0.015625)"/>
      <path id="DejaVuSans-73" d="M 2834 3397 
L 2834 2853 
Q 2591 2978 2328 3040 
Q 2066 3103 1784 3103 
Q 1356 3103 1142 2972 
Q 928 2841 928 2578 
Q 928 2378 1081 2264 
Q 1234 2150 1697 2047 
L 1894 2003 
Q 2506 1872 2764 1633 
Q 3022 1394 3022 966 
Q 3022 478 2636 193 
Q 2250 -91 1575 -91 
Q 1294 -91 989 -36 
Q 684 19 347 128 
L 347 722 
Q 666 556 975 473 
Q 1284 391 1588 391 
Q 1994 391 2212 530 
Q 2431 669 2431 922 
Q 2431 1156 2273 1281 
Q 2116 1406 1581 1522 
L 1381 1569 
Q 847 1681 609 1914 
Q 372 2147 372 2553 
Q 372 3047 722 3315 
Q 1072 3584 1716 3584 
Q 2034 3584 2315 3537 
Q 2597 3491 2834 3397 
z
" transform="scale(0.015625)"/>
      <path id="DejaVuSans-20" transform="scale(0.015625)"/>
      <path id="DejaVuSans-2b" d="M 2944 4013 
L 2944 2272 
L 4684 2272 
L 4684 1741 
L 2944 1741 
L 2944 0 
L 2419 0 
L 2419 1741 
L 678 1741 
L 678 2272 
L 2419 2272 
L 2419 4013 
L 2944 4013 
z
" transform="scale(0.015625)"/>
      <path id="DejaVuSans-77" d="M 269 3500 
L 844 3500 
L 1563 769 
L 2278 3500 
L 2956 3500 
L 3675 769 
L 4391 3500 
L 4966 3500 
L 4050 0 
L 3372 0 
L 2619 2869 
L 1863 0 
L 1184 0 
L 269 3500 
z
" transform="scale(0.015625)"/>
      <path id="DejaVuSans-69" d="M 603 3500 
L 1178 3500 
L 1178 0 
L 603 0 
L 603 3500 
z
M 603 4863 
L 1178 4863 
L 1178 4134 
L 603 4134 
L 603 4863 
z
" transform="scale(0.015625)"/>
      <path id="DejaVuSans-67" d="M 2906 1791 
Q 2906 2416 2648 2759 
Q 2391 3103 1925 3103 
Q 1463 3103 1205 2759 
Q 947 2416 947 1791 
Q 947 1169 1205 825 
Q 1463 481 1925 481 
Q 2391 481 2648 825 
Q 2906 1169 2906 1791 
z
M 3481 434 
Q 3481 -459 3084 -895 
Q 2688 -1331 1869 -1331 
Q 1566 -1331 1297 -1286 
Q 1028 -1241 775 -1147 
L 775 -588 
Q 1028 -725 1275 -790 
Q 1522 -856 1778 -856 
Q 2344 -856 2625 -561 
Q 2906 -266 2906 331 
L 2906 616 
Q 2728 306 2450 153 
Q 2172 0 1784 0 
Q 1141 0 747 490 
Q 353 981 353 1791 
Q 353 2603 747 3093 
Q 1141 3584 1784 3584 
Q 2172 3584 2450 3431 
Q 2728 3278 2906 2969 
L 2906 3500 
L 3481 3500 
L 3481 434 
z
" transform="scale(0.015625)"/>
      <path id="DejaVuSans-68" d="M 3513 2113 
L 3513 0 
L 2938 0 
L 2938 2094 
Q 2938 2591 2744 2837 
Q 2550 3084 2163 3084 
Q 1697 3084 1428 2787 
Q 1159 2491 1159 1978 
L 1159 0 
L 581 0 
L 581 4863 
L 1159 4863 
L 1159 2956 
Q 1366 3272 1645 3428 
Q 1925 3584 2291 3584 
Q 2894 3584 3203 3211 
Q 3513 2838 3513 2113 
z
" transform="scale(0.015625)"/>
      <path id="DejaVuSans-29" d="M 513 4856 
L 1013 4856 
Q 1481 4119 1714 3412 
Q 1947 2706 1947 2009 
Q 1947 1309 1714 600 
Q 1481 -109 1013 -844 
L 513 -844 
Q 928 -128 1133 580 
Q 1338 1288 1338 2009 
Q 1338 2731 1133 3434 
Q 928 4138 513 4856 
z
" transform="scale(0.015625)"/>
     </defs>
     <use xlink:href="#DejaVuSans-28"/>
     <use xlink:href="#DejaVuSans-63" transform="translate(39.013672 0)"/>
     <use xlink:href="#DejaVuSans-61" transform="translate(93.994141 0)"/>
     <use xlink:href="#DejaVuSans-6e" transform="translate(155.273438 0)"/>
     <use xlink:href="#DejaVuSans-64" transform="translate(218.652344 0)"/>
     <use xlink:href="#DejaVuSans-5f" transform="translate(282.128906 0)"/>
     <use xlink:href="#DejaVuSans-74" transform="translate(332.128906 0)"/>
     <use xlink:href="#DejaVuSans-6f" transform="translate(371.337891 0)"/>
     <use xlink:href="#DejaVuSans-6b" transform="translate(432.519531 0)"/>
     <use xlink:href="#DejaVuSans-65" transform="translate(486.804688 0)"/>
     <use xlink:href="#DejaVuSans-6e" transform="translate(548.328125 0)"/>
     <use xlink:href="#DejaVuSans-73" transform="translate(611.707031 0)"/>
     <use xlink:href="#DejaVuSans-20" transform="translate(663.806641 0)"/>
     <use xlink:href="#DejaVuSans-2b" transform="translate(695.59375 0)"/>
     <use xlink:href="#DejaVuSans-20" transform="translate(779.382812 0)"/>
     <use xlink:href="#DejaVuSans-63" transform="translate(811.169922 0)"/>
     <use xlink:href="#DejaVuSans-61" transform="translate(866.150391 0)"/>
     <use xlink:href="#DejaVuSans-6e" transform="translate(927.429688 0)"/>
     <use xlink:href="#DejaVuSans-64" transform="translate(990.808594 0)"/>
     <use xlink:href="#DejaVuSans-5f" transform="translate(1054.285156 0)"/>
     <use xlink:href="#DejaVuSans-77" transform="translate(1104.285156 0)"/>
     <use xlink:href="#DejaVuSans-65" transform="translate(1186.072266 0)"/>
     <use xlink:href="#DejaVuSans-69" transform="translate(1247.595703 0)"/>
     <use xlink:href="#DejaVuSans-67" transform="translate(1275.378906 0)"/>
     <use xlink:href="#DejaVuSans-68" transform="translate(1338.855469 0)"/>
     <use xlink:href="#DejaVuSans-74" transform="translate(1402.234375 0)"/>
     <use xlink:href="#DejaVuSans-73" transform="translate(1441.443359 0)"/>
     <use xlink:href="#DejaVuSans-29" transform="translate(1493.542969 0)"/>
    </g>
   </g>
   <g id="text_4">
    <!-- one weighted superposition per jet -->
    <g style="fill: #14532d" transform="translate(124.704 387.504) scale(0.115 -0.115)">
     <defs>
      <path id="DejaVuSans-75" d="M 544 1381 
L 544 3500 
L 1119 3500 
L 1119 1403 
Q 1119 906 1312 657 
Q 1506 409 1894 409 
Q 2359 409 2629 706 
Q 2900 1003 2900 1516 
L 2900 3500 
L 3475 3500 
L 3475 0 
L 2900 0 
L 2900 538 
Q 2691 219 2414 64 
Q 2138 -91 1772 -91 
Q 1169 -91 856 284 
Q 544 659 544 1381 
z
M 1991 3584 
L 1991 3584 
z
" transform="scale(0.015625)"/>
      <path id="DejaVuSans-70" d="M 1159 525 
L 1159 -1331 
L 581 -1331 
L 581 3500 
L 1159 3500 
L 1159 2969 
Q 1341 3281 1617 3432 
Q 1894 3584 2278 3584 
Q 2916 3584 3314 3078 
Q 3713 2572 3713 1747 
Q 3713 922 3314 415 
Q 2916 -91 2278 -91 
Q 1894 -91 1617 61 
Q 1341 213 1159 525 
z
M 3116 1747 
Q 3116 2381 2855 2742 
Q 2594 3103 2138 3103 
Q 1681 3103 1420 2742 
Q 1159 2381 1159 1747 
Q 1159 1113 1420 752 
Q 1681 391 2138 391 
Q 2594 391 2855 752 
Q 3116 1113 3116 1747 
z
" transform="scale(0.015625)"/>
      <path id="DejaVuSans-72" d="M 2631 2963 
Q 2534 3019 2420 3045 
Q 2306 3072 2169 3072 
Q 1681 3072 1420 2755 
Q 1159 2438 1159 1844 
L 1159 0 
L 581 0 
L 581 3500 
L 1159 3500 
L 1159 2956 
Q 1341 3275 1631 3429 
Q 1922 3584 2338 3584 
Q 2397 3584 2469 3576 
Q 2541 3569 2628 3553 
L 2631 2963 
z
" transform="scale(0.015625)"/>
      <path id="DejaVuSans-6a" d="M 603 3500 
L 1178 3500 
L 1178 -63 
Q 1178 -731 923 -1031 
Q 669 -1331 103 -1331 
L -116 -1331 
L -116 -844 
L 38 -844 
Q 366 -844 484 -692 
Q 603 -541 603 -63 
L 603 3500 
z
M 603 4863 
L 1178 4863 
L 1178 4134 
L 603 4134 
L 603 4863 
z
" transform="scale(0.015625)"/>
     </defs>
     <use xlink:href="#DejaVuSans-6f"/>
     <use xlink:href="#DejaVuSans-6e" transform="translate(61.181641 0)"/>
     <use xlink:href="#DejaVuSans-65" transform="translate(124.560547 0)"/>
     <use xlink:href="#DejaVuSans-20" transform="translate(186.083984 0)"/>
     <use xlink:href="#DejaVuSans-77" transform="translate(217.871094 0)"/>
     <use xlink:href="#DejaVuSans-65" transform="translate(299.658203 0)"/>
     <use xlink:href="#DejaVuSans-69" transform="translate(361.181641 0)"/>
     <use xlink:href="#DejaVuSans-67" transform="translate(388.964844 0)"/>
     <use xlink:href="#DejaVuSans-68" transform="translate(452.441406 0)"/>
     <use xlink:href="#DejaVuSans-74" transform="translate(515.820312 0)"/>
     <use xlink:href="#DejaVuSans-65" transform="translate(555.029297 0)"/>
     <use xlink:href="#DejaVuSans-64" transform="translate(616.552734 0)"/>
     <use xlink:href="#DejaVuSans-20" transform="translate(680.029297 0)"/>
     <use xlink:href="#DejaVuSans-73" transform="translate(711.816406 0)"/>
     <use xlink:href="#DejaVuSans-75" transform="translate(763.916016 0)"/>
     <use xlink:href="#DejaVuSans-70" transform="translate(827.294922 0)"/>
     <use xlink:href="#DejaVuSans-65" transform="translate(890.771484 0)"/>
     <use xlink:href="#DejaVuSans-72" transform="translate(952.294922 0)"/>
     <use xlink:href="#DejaVuSans-70" transform="translate(993.408203 0)"/>
     <use xlink:href="#DejaVuSans-6f" transform="translate(1056.884766 0)"/>
     <use xlink:href="#DejaVuSans-73" transform="translate(1118.066406 0)"/>
     <use xlink:href="#DejaVuSans-69" transform="translate(1170.166016 0)"/>
     <use xlink:href="#DejaVuSans-74" transform="translate(1197.949219 0)"/>
     <use xlink:href="#DejaVuSans-69" transform="translate(1237.158203 0)"/>
     <use xlink:href="#DejaVuSans-6f" transform="translate(1264.941406 0)"/>
     <use xlink:href="#DejaVuSans-6e" transform="translate(1326.123047 0)"/>
     <use xlink:href="#DejaVuSans-20" transform="translate(1389.501953 0)"/>
     <use xlink:href="#DejaVuSans-70" transform="translate(1421.289062 0)"/>
     <use xlink:href="#DejaVuSans-65" transform="translate(1484.765625 0)"/>
     <use xlink:href="#DejaVuSans-72" transform="translate(1546.289062 0)"/>
     <use xlink:href="#DejaVuSans-20" transform="translate(1587.402344 0)"/>
     <use xlink:href="#DejaVuSans-6a" transform="translate(1619.189453 0)"/>
     <use xlink:href="#DejaVuSans-65" transform="translate(1646.972656 0)"/>
     <use xlink:href="#DejaVuSans-74" transform="translate(1708.496094 0)"/>
    </g>
   </g>
   <g id="text_5">
    <!-- Project to -->
    <g style="fill: #166534" transform="translate(452.736 258.912) scale(0.12 -0.12)">
     <defs>
      <path id="DejaVuSans-50" d="M 1259 4147 
L 1259 2394 
L 2053 2394 
Q 2494 2394 2734 2622 
Q 2975 2850 2975 3272 
Q 2975 3691 2734 3919 
Q 2494 4147 2053 4147 
L 1259 4147 
z
M 628 4666 
L 2053 4666 
Q 2838 4666 3239 4311 
Q 3641 3956 3641 3272 
Q 3641 2581 3239 2228 
Q 2838 1875 2053 1875 
L 1259 1875 
L 1259 0 
L 628 0 
L 628 4666 
z
" transform="scale(0.015625)"/>
     </defs>
     <use xlink:href="#DejaVuSans-50"/>
     <use xlink:href="#DejaVuSans-72" transform="translate(58.552734 0)"/>
     <use xlink:href="#DejaVuSans-6f" transform="translate(97.416016 0)"/>
     <use xlink:href="#DejaVuSans-6a" transform="translate(158.597656 0)"/>
     <use xlink:href="#DejaVuSans-65" transform="translate(186.380859 0)"/>
     <use xlink:href="#DejaVuSans-63" transform="translate(247.904297 0)"/>
     <use xlink:href="#DejaVuSans-74" transform="translate(302.884766 0)"/>
     <use xlink:href="#DejaVuSans-20" transform="translate(342.09375 0)"/>
     <use xlink:href="#DejaVuSans-74" transform="translate(373.880859 0)"/>
     <use xlink:href="#DejaVuSans-6f" transform="translate(413.089844 0)"/>
    </g>
   </g>
   <g id="text_6">
    <!-- fixed L slots -->
    <g style="fill: #166534" transform="translate(442.944 280.8) scale(0.12 -0.12)">
     <defs>
      <path id="DejaVuSans-66" d="M 2375 4863 
L 2375 4384 
L 1825 4384 
Q 1516 4384 1395 4259 
Q 1275 4134 1275 3809 
L 1275 3500 
L 2222 3500 
L 2222 3053 
L 1275 3053 
L 1275 0 
L 697 0 
L 697 3053 
L 147 3053 
L 147 3500 
L 697 3500 
L 697 3744 
Q 697 4328 969 4595 
Q 1241 4863 1831 4863 
L 2375 4863 
z
" transform="scale(0.015625)"/>
      <path id="DejaVuSans-78" d="M 3513 3500 
L 2247 1797 
L 3578 0 
L 2900 0 
L 1881 1375 
L 863 0 
L 184 0 
L 1544 1831 
L 300 3500 
L 978 3500 
L 1906 2253 
L 2834 3500 
L 3513 3500 
z
" transform="scale(0.015625)"/>
      <path id="DejaVuSans-4c" d="M 628 4666 
L 1259 4666 
L 1259 531 
L 3531 531 
L 3531 0 
L 628 0 
L 628 4666 
z
" transform="scale(0.015625)"/>
      <path id="DejaVuSans-6c" d="M 603 4863 
L 1178 4863 
L 1178 0 
L 603 0 
L 603 4863 
z
" transform="scale(0.015625)"/>
     </defs>
     <use xlink:href="#DejaVuSans-66"/>
     <use xlink:href="#DejaVuSans-69" transform="translate(35.205078 0)"/>
     <use xlink:href="#DejaVuSans-78" transform="translate(62.988281 0)"/>
     <use xlink:href="#DejaVuSans-65" transform="translate(119.042969 0)"/>
     <use xlink:href="#DejaVuSans-64" transform="translate(180.566406 0)"/>
     <use xlink:href="#DejaVuSans-20" transform="translate(244.042969 0)"/>
     <use xlink:href="#DejaVuSans-4c" transform="translate(275.830078 0)"/>
     <use xlink:href="#DejaVuSans-20" transform="translate(331.542969 0)"/>
     <use xlink:href="#DejaVuSans-73" transform="translate(363.330078 0)"/>
     <use xlink:href="#DejaVuSans-6c" transform="translate(415.429688 0)"/>
     <use xlink:href="#DejaVuSans-6f" transform="translate(443.212891 0)"/>
     <use xlink:href="#DejaVuSans-74" transform="translate(504.394531 0)"/>
     <use xlink:href="#DejaVuSans-73" transform="translate(543.603516 0)"/>
    </g>
   </g>
   <g id="text_7">
    <!-- Soft Corrected View -->
    <g style="fill: #166534" transform="translate(643.68 154.944) scale(0.17 -0.17)">
     <defs>
      <path id="DejaVuSans-Bold-72" d="M 3138 2547 
Q 2991 2616 2845 2648 
Q 2700 2681 2553 2681 
Q 2122 2681 1889 2404 
Q 1656 2128 1656 1613 
L 1656 0 
L 538 0 
L 538 3500 
L 1656 3500 
L 1656 2925 
Q 1872 3269 2151 3426 
Q 2431 3584 2822 3584 
Q 2878 3584 2943 3579 
Q 3009 3575 3134 3559 
L 3138 2547 
z
" transform="scale(0.015625)"/>
      <path id="DejaVuSans-Bold-63" d="M 3366 3391 
L 3366 2478 
Q 3138 2634 2908 2709 
Q 2678 2784 2431 2784 
Q 1963 2784 1702 2511 
Q 1441 2238 1441 1747 
Q 1441 1256 1702 982 
Q 1963 709 2431 709 
Q 2694 709 2930 787 
Q 3166 866 3366 1019 
L 3366 103 
Q 3103 6 2833 -42 
Q 2563 -91 2291 -91 
Q 1344 -91 809 395 
Q 275 881 275 1747 
Q 275 2613 809 3098 
Q 1344 3584 2291 3584 
Q 2566 3584 2833 3536 
Q 3100 3488 3366 3391 
z
" transform="scale(0.015625)"/>
     </defs>
     <use xlink:href="#DejaVuSans-Bold-53"/>
     <use xlink:href="#DejaVuSans-Bold-6f" transform="translate(72.021484 0)"/>
     <use xlink:href="#DejaVuSans-Bold-66" transform="translate(140.722656 0)"/>
     <use xlink:href="#DejaVuSans-Bold-74" transform="translate(184.228516 0)"/>
     <use xlink:href="#DejaVuSans-Bold-20" transform="translate(232.03125 0)"/>
     <use xlink:href="#DejaVuSans-Bold-43" transform="translate(266.845703 0)"/>
     <use xlink:href="#DejaVuSans-Bold-6f" transform="translate(340.234375 0)"/>
     <use xlink:href="#DejaVuSans-Bold-72" transform="translate(408.935547 0)"/>
     <use xlink:href="#DejaVuSans-Bold-72" transform="translate(458.251953 0)"/>
     <use xlink:href="#DejaVuSans-Bold-65" transform="translate(507.568359 0)"/>
     <use xlink:href="#DejaVuSans-Bold-63" transform="translate(575.390625 0)"/>
     <use xlink:href="#DejaVuSans-Bold-74" transform="translate(634.667969 0)"/>
     <use xlink:href="#DejaVuSans-Bold-65" transform="translate(682.470703 0)"/>
     <use xlink:href="#DejaVuSans-Bold-64" transform="translate(750.292969 0)"/>
     <use xlink:href="#DejaVuSans-Bold-20" transform="translate(821.875 0)"/>
     <use xlink:href="#DejaVuSans-Bold-56" transform="translate(856.689453 0)"/>
     <use xlink:href="#DejaVuSans-Bold-69" transform="translate(932.332031 0)"/>
     <use xlink:href="#DejaVuSans-Bold-65" transform="translate(966.609375 0)"/>
     <use xlink:href="#DejaVuSans-Bold-77" transform="translate(1034.431641 0)"/>
    </g>
   </g>
   <g id="text_8">
    <!-- shape: [L, d]  (d=10 or 12) -->
    <g style="fill: #166534" transform="translate(643.68 176.832) scale(0.11 -0.11)">
     <defs>
      <path id="DejaVuSans-3a" d="M 750 794 
L 1409 794 
L 1409 0 
L 750 0 
L 750 794 
z
M 750 3309 
L 1409 3309 
L 1409 2516 
L 750 2516 
L 750 3309 
z
" transform="scale(0.015625)"/>
      <path id="DejaVuSans-5b" d="M 550 4863 
L 1875 4863 
L 1875 4416 
L 1125 4416 
L 1125 -397 
L 1875 -397 
L 1875 -844 
L 550 -844 
L 550 4863 
z
" transform="scale(0.015625)"/>
      <path id="DejaVuSans-2c" d="M 750 794 
L 1409 794 
L 1409 256 
L 897 -744 
L 494 -744 
L 750 256 
L 750 794 
z
" transform="scale(0.015625)"/>
      <path id="DejaVuSans-5d" d="M 1947 4863 
L 1947 -844 
L 622 -844 
L 622 -397 
L 1369 -397 
L 1369 4416 
L 622 4416 
L 622 4863 
L 1947 4863 
z
" transform="scale(0.015625)"/>
      <path id="DejaVuSans-3d" d="M 678 2906 
L 4684 2906 
L 4684 2381 
L 678 2381 
L 678 2906 
z
M 678 1631 
L 4684 1631 
L 4684 1100 
L 678 1100 
L 678 1631 
z
" transform="scale(0.015625)"/>
      <path id="DejaVuSans-31" d="M 794 531 
L 1825 531 
L 1825 4091 
L 703 3866 
L 703 4441 
L 1819 4666 
L 2450 4666 
L 2450 531 
L 3481 531 
L 3481 0 
L 794 0 
L 794 531 
z
" transform="scale(0.015625)"/>
      <path id="DejaVuSans-30" d="M 2034 4250 
Q 1547 4250 1301 3770 
Q 1056 3291 1056 2328 
Q 1056 1369 1301 889 
Q 1547 409 2034 409 
Q 2525 409 2770 889 
Q 3016 1369 3016 2328 
Q 3016 3291 2770 3770 
Q 2525 4250 2034 4250 
z
M 2034 4750 
Q 2819 4750 3233 4129 
Q 3647 3509 3647 2328 
Q 3647 1150 3233 529 
Q 2819 -91 2034 -91 
Q 1250 -91 836 529 
Q 422 1150 422 2328 
Q 422 3509 836 4129 
Q 1250 4750 2034 4750 
z
" transform="scale(0.015625)"/>
      <path id="DejaVuSans-32" d="M 1228 531 
L 3431 531 
L 3431 0 
L 469 0 
L 469 531 
Q 828 903 1448 1529 
Q 2069 2156 2228 2338 
Q 2531 2678 2651 2914 
Q 2772 3150 2772 3378 
Q 2772 3750 2511 3984 
Q 2250 4219 1831 4219 
Q 1534 4219 1204 4116 
Q 875 4013 500 3803 
L 500 4441 
Q 881 4594 1212 4672 
Q 1544 4750 1819 4750 
Q 2544 4750 2975 4387 
Q 3406 4025 3406 3419 
Q 3406 3131 3298 2873 
Q 3191 2616 2906 2266 
Q 2828 2175 2409 1742 
Q 1991 1309 1228 531 
z
" transform="scale(0.015625)"/>
     </defs>
     <use xlink:href="#DejaVuSans-73"/>
     <use xlink:href="#DejaVuSans-68" transform="translate(52.099609 0)"/>
     <use xlink:href="#DejaVuSans-61" transform="translate(115.478516 0)"/>
     <use xlink:href="#DejaVuSans-70" transform="translate(176.757812 0)"/>
     <use xlink:href="#DejaVuSans-65" transform="translate(240.234375 0)"/>
     <use xlink:href="#DejaVuSans-3a" transform="translate(301.757812 0)"/>
     <use xlink:href="#DejaVuSans-20" transform="translate(335.449219 0)"/>
     <use xlink:href="#DejaVuSans-5b" transform="translate(367.236328 0)"/>
     <use xlink:href="#DejaVuSans-4c" transform="translate(406.25 0)"/>
     <use xlink:href="#DejaVuSans-2c" transform="translate(461.962891 0)"/>
     <use xlink:href="#DejaVuSans-20" transform="translate(493.75 0)"/>
     <use xlink:href="#DejaVuSans-64" transform="translate(525.537109 0)"/>
     <use xlink:href="#DejaVuSans-5d" transform="translate(589.013672 0)"/>
     <use xlink:href="#DejaVuSans-20" transform="translate(628.027344 0)"/>
     <use xlink:href="#DejaVuSans-20" transform="translate(659.814453 0)"/>
     <use xlink:href="#DejaVuSans-28" transform="translate(691.601562 0)"/>
     <use xlink:href="#DejaVuSans-64" transform="translate(730.615234 0)"/>
     <use xlink:href="#DejaVuSans-3d" transform="translate(794.091797 0)"/>
     <use xlink:href="#DejaVuSans-31" transform="translate(877.880859 0)"/>
     <use xlink:href="#DejaVuSans-30" transform="translate(941.503906 0)"/>
     <use xlink:href="#DejaVuSans-20" transform="translate(1005.126953 0)"/>
     <use xlink:href="#DejaVuSans-6f" transform="translate(1036.914062 0)"/>
     <use xlink:href="#DejaVuSans-72" transform="translate(1098.095703 0)"/>
     <use xlink:href="#DejaVuSans-20" transform="translate(1139.208984 0)"/>
     <use xlink:href="#DejaVuSans-31" transform="translate(1170.996094 0)"/>
     <use xlink:href="#DejaVuSans-32" transform="translate(1234.619141 0)"/>
     <use xlink:href="#DejaVuSans-29" transform="translate(1298.242188 0)"/>
    </g>
   </g>
   <g id="text_9">
    <!-- per-slot features include: -->
    <g style="fill: #14532d" transform="translate(643.68 387.492812) scale(0.11 -0.11)">
     <defs>
      <path id="DejaVuSans-2d" d="M 313 2009 
L 1997 2009 
L 1997 1497 
L 313 1497 
L 313 2009 
z
" transform="scale(0.015625)"/>
     </defs>
     <use xlink:href="#DejaVuSans-70"/>
     <use xlink:href="#DejaVuSans-65" transform="translate(63.476562 0)"/>
     <use xlink:href="#DejaVuSans-72" transform="translate(125 0)"/>
     <use xlink:href="#DejaVuSans-2d" transform="translate(159.738281 0)"/>
     <use xlink:href="#DejaVuSans-73" transform="translate(195.822266 0)"/>
     <use xlink:href="#DejaVuSans-6c" transform="translate(247.921875 0)"/>
     <use xlink:href="#DejaVuSans-6f" transform="translate(275.705078 0)"/>
     <use xlink:href="#DejaVuSans-74" transform="translate(336.886719 0)"/>
     <use xlink:href="#DejaVuSans-20" transform="translate(376.095703 0)"/>
     <use xlink:href="#DejaVuSans-66" transform="translate(407.882812 0)"/>
     <use xlink:href="#DejaVuSans-65" transform="translate(443.087891 0)"/>
     <use xlink:href="#DejaVuSans-61" transform="translate(504.611328 0)"/>
     <use xlink:href="#DejaVuSans-74" transform="translate(565.890625 0)"/>
     <use xlink:href="#DejaVuSans-75" transform="translate(605.099609 0)"/>
     <use xlink:href="#DejaVuSans-72" transform="translate(668.478516 0)"/>
     <use xlink:href="#DejaVuSans-65" transform="translate(707.341797 0)"/>
     <use xlink:href="#DejaVuSans-73" transform="translate(768.865234 0)"/>
     <use xlink:href="#DejaVuSans-20" transform="translate(820.964844 0)"/>
     <use xlink:href="#DejaVuSans-69" transform="translate(852.751953 0)"/>
     <use xlink:href="#DejaVuSans-6e" transform="translate(880.535156 0)"/>
     <use xlink:href="#DejaVuSans-63" transform="translate(943.914062 0)"/>
     <use xlink:href="#DejaVuSans-6c" transform="translate(998.894531 0)"/>
     <use xlink:href="#DejaVuSans-75" transform="translate(1026.677734 0)"/>
     <use xlink:href="#DejaVuSans-64" transform="translate(1090.056641 0)"/>
     <use xlink:href="#DejaVuSans-65" transform="translate(1153.533203 0)"/>
     <use xlink:href="#DejaVuSans-3a" transform="translate(1215.056641 0)"/>
    </g>
    <!-- kinematics + token weight + -->
    <g style="fill: #14532d" transform="translate(643.68 399.810406) scale(0.11 -0.11)">
     <defs>
      <path id="DejaVuSans-6d" d="M 3328 2828 
Q 3544 3216 3844 3400 
Q 4144 3584 4550 3584 
Q 5097 3584 5394 3201 
Q 5691 2819 5691 2113 
L 5691 0 
L 5113 0 
L 5113 2094 
Q 5113 2597 4934 2840 
Q 4756 3084 4391 3084 
Q 3944 3084 3684 2787 
Q 3425 2491 3425 1978 
L 3425 0 
L 2847 0 
L 2847 2094 
Q 2847 2600 2669 2842 
Q 2491 3084 2119 3084 
Q 1678 3084 1418 2786 
Q 1159 2488 1159 1978 
L 1159 0 
L 581 0 
L 581 3500 
L 1159 3500 
L 1159 2956 
Q 1356 3278 1631 3431 
Q 1906 3584 2284 3584 
Q 2666 3584 2933 3390 
Q 3200 3197 3328 2828 
z
" transform="scale(0.015625)"/>
     </defs>
     <use xlink:href="#DejaVuSans-6b"/>
     <use xlink:href="#DejaVuSans-69" transform="translate(57.910156 0)"/>
     <use xlink:href="#DejaVuSans-6e" transform="translate(85.693359 0)"/>
     <use xlink:href="#DejaVuSans-65" transform="translate(149.072266 0)"/>
     <use xlink:href="#DejaVuSans-6d" transform="translate(210.595703 0)"/>
     <use xlink:href="#DejaVuSans-61" transform="translate(308.007812 0)"/>
     <use xlink:href="#DejaVuSans-74" transform="translate(369.287109 0)"/>
     <use xlink:href="#DejaVuSans-69" transform="translate(408.496094 0)"/>
     <use xlink:href="#DejaVuSans-63" transform="translate(436.279297 0)"/>
     <use xlink:href="#DejaVuSans-73" transform="translate(491.259766 0)"/>
     <use xlink:href="#DejaVuSans-20" transform="translate(543.359375 0)"/>
     <use xlink:href="#DejaVuSans-2b" transform="translate(575.146484 0)"/>
     <use xlink:href="#DejaVuSans-20" transform="translate(658.935547 0)"/>
     <use xlink:href="#DejaVuSans-74" transform="translate(690.722656 0)"/>
     <use xlink:href="#DejaVuSans-6f" transform="translate(729.931641 0)"/>
     <use xlink:href="#DejaVuSans-6b" transform="translate(791.113281 0)"/>
     <use xlink:href="#DejaVuSans-65" transform="translate(845.398438 0)"/>
     <use xlink:href="#DejaVuSans-6e" transform="translate(906.921875 0)"/>
     <use xlink:href="#DejaVuSans-20" transform="translate(970.300781 0)"/>
     <use xlink:href="#DejaVuSans-77" transform="translate(1002.087891 0)"/>
     <use xlink:href="#DejaVuSans-65" transform="translate(1083.875 0)"/>
     <use xlink:href="#DejaVuSans-69" transform="translate(1145.398438 0)"/>
     <use xlink:href="#DejaVuSans-67" transform="translate(1173.181641 0)"/>
     <use xlink:href="#DejaVuSans-68" transform="translate(1236.658203 0)"/>
     <use xlink:href="#DejaVuSans-74" transform="translate(1300.037109 0)"/>
     <use xlink:href="#DejaVuSans-20" transform="translate(1339.246094 0)"/>
     <use xlink:href="#DejaVuSans-2b" transform="translate(1371.033203 0)"/>
    </g>
    <!-- parent-added + eff-share -->
    <g style="fill: #14532d" transform="translate(643.68 412.128) scale(0.11 -0.11)">
     <use xlink:href="#DejaVuSans-70"/>
     <use xlink:href="#DejaVuSans-61" transform="translate(63.476562 0)"/>
     <use xlink:href="#DejaVuSans-72" transform="translate(124.755859 0)"/>
     <use xlink:href="#DejaVuSans-65" transform="translate(163.619141 0)"/>
     <use xlink:href="#DejaVuSans-6e" transform="translate(225.142578 0)"/>
     <use xlink:href="#DejaVuSans-74" transform="translate(288.521484 0)"/>
     <use xlink:href="#DejaVuSans-2d" transform="translate(327.730469 0)"/>
     <use xlink:href="#DejaVuSans-61" transform="translate(363.814453 0)"/>
     <use xlink:href="#DejaVuSans-64" transform="translate(425.09375 0)"/>
     <use xlink:href="#DejaVuSans-64" transform="translate(488.570312 0)"/>
     <use xlink:href="#DejaVuSans-65" transform="translate(552.046875 0)"/>
     <use xlink:href="#DejaVuSans-64" transform="translate(613.570312 0)"/>
     <use xlink:href="#DejaVuSans-20" transform="translate(677.046875 0)"/>
     <use xlink:href="#DejaVuSans-2b" transform="translate(708.833984 0)"/>
     <use xlink:href="#DejaVuSans-20" transform="translate(792.623047 0)"/>
     <use xlink:href="#DejaVuSans-65" transform="translate(824.410156 0)"/>
     <use xlink:href="#DejaVuSans-66" transform="translate(885.933594 0)"/>
     <use xlink:href="#DejaVuSans-66" transform="translate(921.138672 0)"/>
     <use xlink:href="#DejaVuSans-2d" transform="translate(950.84375 0)"/>
     <use xlink:href="#DejaVuSans-73" transform="translate(986.927734 0)"/>
     <use xlink:href="#DejaVuSans-68" transform="translate(1039.027344 0)"/>
     <use xlink:href="#DejaVuSans-61" transform="translate(1102.40625 0)"/>
     <use xlink:href="#DejaVuSans-72" transform="translate(1163.685547 0)"/>
     <use xlink:href="#DejaVuSans-65" transform="translate(1202.548828 0)"/>
    </g>
   </g>
   <g id="text_10">
    <!-- Not multiple complete hypotheses. It is one jet-level weighted candidate set. -->
    <g style="fill: #14532d" transform="translate(95.328 488.736) scale(0.14 -0.14)">
     <defs>
      <path id="DejaVuSans-Bold-4e" d="M 588 4666 
L 1931 4666 
L 3628 1466 
L 3628 4666 
L 4769 4666 
L 4769 0 
L 3425 0 
L 1728 3200 
L 1728 0 
L 588 0 
L 588 4666 
z
" transform="scale(0.015625)"/>
      <path id="DejaVuSans-Bold-6d" d="M 3781 2919 
Q 3994 3244 4286 3414 
Q 4578 3584 4928 3584 
Q 5531 3584 5847 3212 
Q 6163 2841 6163 2131 
L 6163 0 
L 5038 0 
L 5038 1825 
Q 5041 1866 5042 1909 
Q 5044 1953 5044 2034 
Q 5044 2406 4934 2573 
Q 4825 2741 4581 2741 
Q 4263 2741 4089 2478 
Q 3916 2216 3909 1719 
L 3909 0 
L 2784 0 
L 2784 1825 
Q 2784 2406 2684 2573 
Q 2584 2741 2328 2741 
Q 2006 2741 1831 2477 
Q 1656 2213 1656 1722 
L 1656 0 
L 531 0 
L 531 3500 
L 1656 3500 
L 1656 2988 
Q 1863 3284 2130 3434 
Q 2397 3584 2719 3584 
Q 3081 3584 3359 3409 
Q 3638 3234 3781 2919 
z
" transform="scale(0.015625)"/>
      <path id="DejaVuSans-Bold-75" d="M 500 1363 
L 500 3500 
L 1625 3500 
L 1625 3150 
Q 1625 2866 1622 2436 
Q 1619 2006 1619 1863 
Q 1619 1441 1641 1255 
Q 1663 1069 1716 984 
Q 1784 875 1895 815 
Q 2006 756 2150 756 
Q 2500 756 2700 1025 
Q 2900 1294 2900 1772 
L 2900 3500 
L 4019 3500 
L 4019 0 
L 2900 0 
L 2900 506 
Q 2647 200 2364 54 
Q 2081 -91 1741 -91 
Q 1134 -91 817 281 
Q 500 653 500 1363 
z
" transform="scale(0.015625)"/>
      <path id="DejaVuSans-Bold-70" d="M 1656 506 
L 1656 -1331 
L 538 -1331 
L 538 3500 
L 1656 3500 
L 1656 2988 
Q 1888 3294 2169 3439 
Q 2450 3584 2816 3584 
Q 3463 3584 3878 3070 
Q 4294 2556 4294 1747 
Q 4294 938 3878 423 
Q 3463 -91 2816 -91 
Q 2450 -91 2169 54 
Q 1888 200 1656 506 
z
M 2400 2772 
Q 2041 2772 1848 2508 
Q 1656 2244 1656 1747 
Q 1656 1250 1848 986 
Q 2041 722 2400 722 
Q 2759 722 2948 984 
Q 3138 1247 3138 1747 
Q 3138 2247 2948 2509 
Q 2759 2772 2400 2772 
z
" transform="scale(0.015625)"/>
      <path id="DejaVuSans-Bold-79" d="M 78 3500 
L 1197 3500 
L 2138 1125 
L 2938 3500 
L 4056 3500 
L 2584 -331 
Q 2363 -916 2067 -1148 
Q 1772 -1381 1288 -1381 
L 641 -1381 
L 641 -647 
L 991 -647 
Q 1275 -647 1404 -556 
Q 1534 -466 1606 -231 
L 1638 -134 
L 78 3500 
z
" transform="scale(0.015625)"/>
      <path id="DejaVuSans-Bold-2e" d="M 653 1209 
L 1778 1209 
L 1778 0 
L 653 0 
L 653 1209 
z
" transform="scale(0.015625)"/>
      <path id="DejaVuSans-Bold-6a" d="M 538 3500 
L 1656 3500 
L 1656 63 
Q 1656 -641 1318 -1011 
Q 981 -1381 341 -1381 
L -213 -1381 
L -213 -647 
L -19 -647 
Q 300 -647 419 -503 
Q 538 -359 538 63 
L 538 3500 
z
M 538 4863 
L 1656 4863 
L 1656 3950 
L 538 3950 
L 538 4863 
z
" transform="scale(0.015625)"/>
      <path id="DejaVuSans-Bold-2d" d="M 347 2297 
L 2309 2297 
L 2309 1388 
L 347 1388 
L 347 2297 
z
" transform="scale(0.015625)"/>
      <path id="DejaVuSans-Bold-76" d="M 97 3500 
L 1216 3500 
L 2088 1081 
L 2956 3500 
L 4078 3500 
L 2700 0 
L 1472 0 
L 97 3500 
z
" transform="scale(0.015625)"/>
      <path id="DejaVuSans-Bold-67" d="M 2919 594 
Q 2688 288 2409 144 
Q 2131 0 1766 0 
Q 1125 0 706 504 
Q 288 1009 288 1791 
Q 288 2575 706 3076 
Q 1125 3578 1766 3578 
Q 2131 3578 2409 3434 
Q 2688 3291 2919 2981 
L 2919 3500 
L 4044 3500 
L 4044 353 
Q 4044 -491 3511 -936 
Q 2978 -1381 1966 -1381 
Q 1638 -1381 1331 -1331 
Q 1025 -1281 716 -1178 
L 716 -306 
Q 1009 -475 1290 -558 
Q 1572 -641 1856 -641 
Q 2406 -641 2662 -400 
Q 2919 -159 2919 353 
L 2919 594 
z
M 2181 2772 
Q 1834 2772 1640 2515 
Q 1447 2259 1447 1791 
Q 1447 1309 1634 1061 
Q 1822 813 2181 813 
Q 2531 813 2725 1069 
Q 2919 1325 2919 1791 
Q 2919 2259 2725 2515 
Q 2531 2772 2181 2772 
z
" transform="scale(0.015625)"/>
     </defs>
     <use xlink:href="#DejaVuSans-Bold-4e"/>
     <use xlink:href="#DejaVuSans-Bold-6f" transform="translate(83.691406 0)"/>
     <use xlink:href="#DejaVuSans-Bold-74" transform="translate(152.392578 0)"/>
     <use xlink:href="#DejaVuSans-Bold-20" transform="translate(200.195312 0)"/>
     <use xlink:href="#DejaVuSans-Bold-6d" transform="translate(235.009766 0)"/>
     <use xlink:href="#DejaVuSans-Bold-75" transform="translate(339.208984 0)"/>
     <use xlink:href="#DejaVuSans-Bold-6c" transform="translate(410.400391 0)"/>
     <use xlink:href="#DejaVuSans-Bold-74" transform="translate(444.677734 0)"/>
     <use xlink:href="#DejaVuSans-Bold-69" transform="translate(492.480469 0)"/>
     <use xlink:href="#DejaVuSans-Bold-70" transform="translate(526.757812 0)"/>
     <use xlink:href="#DejaVuSans-Bold-6c" transform="translate(598.339844 0)"/>
     <use xlink:href="#DejaVuSans-Bold-65" transform="translate(632.617188 0)"/>
     <use xlink:href="#DejaVuSans-Bold-20" transform="translate(700.439453 0)"/>
     <use xlink:href="#DejaVuSans-Bold-63" transform="translate(735.253906 0)"/>
     <use xlink:href="#DejaVuSans-Bold-6f" transform="translate(794.53125 0)"/>
     <use xlink:href="#DejaVuSans-Bold-6d" transform="translate(863.232422 0)"/>
     <use xlink:href="#DejaVuSans-Bold-70" transform="translate(967.431641 0)"/>
     <use xlink:href="#DejaVuSans-Bold-6c" transform="translate(1039.013672 0)"/>
     <use xlink:href="#DejaVuSans-Bold-65" transform="translate(1073.291016 0)"/>
     <use xlink:href="#DejaVuSans-Bold-74" transform="translate(1141.113281 0)"/>
     <use xlink:href="#DejaVuSans-Bold-65" transform="translate(1188.916016 0)"/>
     <use xlink:href="#DejaVuSans-Bold-20" transform="translate(1256.738281 0)"/>
     <use xlink:href="#DejaVuSans-Bold-68" transform="translate(1291.552734 0)"/>
     <use xlink:href="#DejaVuSans-Bold-79" transform="translate(1362.744141 0)"/>
     <use xlink:href="#DejaVuSans-Bold-70" transform="translate(1427.929688 0)"/>
     <use xlink:href="#DejaVuSans-Bold-6f" transform="translate(1499.511719 0)"/>
     <use xlink:href="#DejaVuSans-Bold-74" transform="translate(1568.212891 0)"/>
     <use xlink:href="#DejaVuSans-Bold-68" transform="translate(1616.015625 0)"/>
     <use xlink:href="#DejaVuSans-Bold-65" transform="translate(1687.207031 0)"/>
     <use xlink:href="#DejaVuSans-Bold-73" transform="translate(1755.029297 0)"/>
     <use xlink:href="#DejaVuSans-Bold-65" transform="translate(1814.550781 0)"/>
     <use xlink:href="#DejaVuSans-Bold-73" transform="translate(1882.373047 0)"/>
     <use xlink:href="#DejaVuSans-Bold-2e" transform="translate(1941.894531 0)"/>
     <use xlink:href="#DejaVuSans-Bold-20" transform="translate(1979.882812 0)"/>
     <use xlink:href="#DejaVuSans-Bold-49" transform="translate(2014.697266 0)"/>
     <use xlink:href="#DejaVuSans-Bold-74" transform="translate(2051.904297 0)"/>
     <use xlink:href="#DejaVuSans-Bold-20" transform="translate(2099.707031 0)"/>
     <use xlink:href="#DejaVuSans-Bold-69" transform="translate(2134.521484 0)"/>
     <use xlink:href="#DejaVuSans-Bold-73" transform="translate(2168.798828 0)"/>
     <use xlink:href="#DejaVuSans-Bold-20" transform="translate(2228.320312 0)"/>
     <use xlink:href="#DejaVuSans-Bold-6f" transform="translate(2263.134766 0)"/>
     <use xlink:href="#DejaVuSans-Bold-6e" transform="translate(2331.835938 0)"/>
     <use xlink:href="#DejaVuSans-Bold-65" transform="translate(2403.027344 0)"/>
     <use xlink:href="#DejaVuSans-Bold-20" transform="translate(2470.849609 0)"/>
     <use xlink:href="#DejaVuSans-Bold-6a" transform="translate(2505.664062 0)"/>
     <use xlink:href="#DejaVuSans-Bold-65" transform="translate(2539.941406 0)"/>
     <use xlink:href="#DejaVuSans-Bold-74" transform="translate(2607.763672 0)"/>
     <use xlink:href="#DejaVuSans-Bold-2d" transform="translate(2655.566406 0)"/>
     <use xlink:href="#DejaVuSans-Bold-6c" transform="translate(2697.070312 0)"/>
     <use xlink:href="#DejaVuSans-Bold-65" transform="translate(2731.347656 0)"/>
     <use xlink:href="#DejaVuSans-Bold-76" transform="translate(2799.169922 0)"/>
     <use xlink:href="#DejaVuSans-Bold-65" transform="translate(2864.355469 0)"/>
     <use xlink:href="#DejaVuSans-Bold-6c" transform="translate(2932.177734 0)"/>
     <use xlink:href="#DejaVuSans-Bold-20" transform="translate(2966.455078 0)"/>
     <use xlink:href="#DejaVuSans-Bold-77" transform="translate(3001.269531 0)"/>
     <use xlink:href="#DejaVuSans-Bold-65" transform="translate(3093.652344 0)"/>
     <use xlink:href="#DejaVuSans-Bold-69" transform="translate(3161.474609 0)"/>
     <use xlink:href="#DejaVuSans-Bold-67" transform="translate(3195.751953 0)"/>
     <use xlink:href="#DejaVuSans-Bold-68" transform="translate(3267.333984 0)"/>
     <use xlink:href="#DejaVuSans-Bold-74" transform="translate(3338.525391 0)"/>
     <use xlink:href="#DejaVuSans-Bold-65" transform="translate(3386.328125 0)"/>
     <use xlink:href="#DejaVuSans-Bold-64" transform="translate(3454.150391 0)"/>
     <use xlink:href="#DejaVuSans-Bold-20" transform="translate(3525.732422 0)"/>
     <use xlink:href="#DejaVuSans-Bold-63" transform="translate(3560.546875 0)"/>
     <use xlink:href="#DejaVuSans-Bold-61" transform="translate(3619.824219 0)"/>
     <use xlink:href="#DejaVuSans-Bold-6e" transform="translate(3687.304688 0)"/>
     <use xlink:href="#DejaVuSans-Bold-64" transform="translate(3758.496094 0)"/>
     <use xlink:href="#DejaVuSans-Bold-69" transform="translate(3830.078125 0)"/>
     <use xlink:href="#DejaVuSans-Bold-64" transform="translate(3864.355469 0)"/>
     <use xlink:href="#DejaVuSans-Bold-61" transform="translate(3935.9375 0)"/>
     <use xlink:href="#DejaVuSans-Bold-74" transform="translate(4003.417969 0)"/>
     <use xlink:href="#DejaVuSans-Bold-65" transform="translate(4051.220703 0)"/>
     <use xlink:href="#DejaVuSans-Bold-20" transform="translate(4119.042969 0)"/>
     <use xlink:href="#DejaVuSans-Bold-73" transform="translate(4153.857422 0)"/>
     <use xlink:href="#DejaVuSans-Bold-65" transform="translate(4213.378906 0)"/>
     <use xlink:href="#DejaVuSans-Bold-74" transform="translate(4281.201172 0)"/>
     <use xlink:href="#DejaVuSans-Bold-2e" transform="translate(4329.003906 0)"/>
    </g>
   </g>
  </g>
 </g>
 <defs>
  <clipPath id="p08237f33df">
   <rect x="7.2" y="7.2" width="979.2" height="547.2"/>
  </clipPath>
 </defs>
</svg>
